M48
; DRILL file {KiCad 7.0.9} date Thu Jan  2 12:43:21 2025
; FORMAT={-:-/ absolute / metric / decimal}
; #@! TF.CreationDate,2025-01-02T12:43:21+01:00
; #@! TF.GenerationSoftware,Kicad,Pcbnew,7.0.9
; #@! TF.FileFunction,Plated,1,4,PTH
FMAT,2
METRIC
; #@! TA.AperFunction,Plated,PTH,ViaDrill
T1C0.400
; #@! TA.AperFunction,Plated,PTH,ComponentDrill
T2C1.520
%
G90
G05
T1
X219.55Y-295.0
X219.55Y-300.0
X223.95Y-300.0
X224.0Y-305.0
X224.15Y-295.0
X225.0Y-114.4
X225.0Y-185.55
X225.0Y-243.65
X225.0Y-301.5
X230.08Y-187.0
X230.08Y-245.15
X230.08Y-303.1
X230.1Y-114.35
X235.16Y-188.55
X235.16Y-246.45
X235.16Y-300.0
X235.16Y-304.5
X235.8Y-138.95
X236.05Y-295.0
X236.75Y-126.45
X236.75Y-128.15
X236.75Y-184.5
X236.75Y-186.265
X236.75Y-242.6
X236.75Y-244.4
X236.75Y-300.65
X236.75Y-302.4
X237.1Y-188.366
X237.1Y-246.433
X237.1Y-304.5
X239.05Y-137.15
X240.8Y-136.7
X242.9Y-134.6
X245.0Y-138.15
X245.0Y-196.5
X246.0Y-254.5
X246.0Y-312.65
X246.25Y-190.2
X247.2Y-248.6
X247.325Y-182.575
X247.4Y-242.9
X248.157Y-122.796
X248.296Y-300.917
X248.55Y-299.95
X248.8Y-298.6
X248.966Y-181.066
X249.151Y-122.9
X249.659Y-253.55
X249.73Y-192.22
X250.151Y-122.9
X250.686Y-180.336
X251.15Y-122.9
X251.349Y-254.251
X251.7Y-238.95
X252.15Y-122.9
X252.35Y-297.3
X252.455Y-179.555
X252.702Y-239.005
X253.152Y-122.92
X253.25Y-316.3
X253.3Y-309.05
X253.3Y-310.05
X253.3Y-311.1
X253.3Y-312.15
X253.3Y-313.15
X253.3Y-314.2
X253.3Y-315.25
X253.35Y-297.3
X253.702Y-238.997
X253.955Y-140.848
X254.0Y-135.8
X254.0Y-136.8
X254.0Y-138.85
X254.0Y-139.85
X254.031Y-137.819
X254.18Y-122.88
X254.245Y-244.845
X254.25Y-296.5
X254.45Y-302.45
X254.7Y-239.05
X254.9Y-133.4
X255.1Y-307.5
X255.179Y-122.912
X255.25Y-128.5
X255.25Y-186.45
X255.545Y-303.345
X255.675Y-256.125
X255.75Y-255.05
X256.15Y-301.75
X256.205Y-178.805
X256.3Y-249.75
X256.5Y-126.0
X256.5Y-243.65
X256.55Y-187.2
X256.55Y-244.85
X256.65Y-193.2
X256.8Y-295.75
X256.85Y-238.2
X256.9Y-127.8
X256.95Y-185.7
X256.956Y-245.763
X257.15Y-128.9
X257.225Y-178.775
X257.7Y-187.5
X258.385Y-193.946
X259.026Y-237.224
X259.6Y-194.645
X260.9Y-238.05
X261.625Y-294.15
X262.2Y-173.8
X262.45Y-195.35
X263.35Y-196.05
X264.45Y-172.25
X266.45Y-196.8
X267.25Y-197.5
X267.95Y-298.699
X268.389Y-266.7
X268.8Y-231.2
X268.95Y-148.4
X269.25Y-170.8
X270.0Y-268.0
X270.15Y-266.0
X270.75Y-151.3
X270.95Y-261.4
X270.95Y-277.3
X272.5Y-272.807
X272.5Y-277.3
X272.5Y-287.5
X272.5Y-297.3
X274.1Y-263.6
X274.9Y-256.7
X275.6Y-268.0
X275.8Y-202.3
X276.2Y-241.2
X276.5Y-293.2
X276.7Y-198.6
X276.8Y-266.0
X277.1Y-307.2
X277.5Y-201.4
X277.5Y-231.093
X277.5Y-263.6
X277.5Y-272.807
X277.5Y-277.3
X277.5Y-287.5
X277.5Y-296.5
X278.2Y-217.1
X278.2Y-297.3
X278.6Y-227.2
X279.075Y-218.6
X279.1Y-191.522
X279.1Y-207.1
X279.1Y-268.0
X279.1Y-272.1
X279.1Y-292.2
X279.1Y-302.2
X279.8Y-232.5
X280.0Y-298.7
X280.4Y-237.224
X280.6Y-268.0
X280.8Y-298.0
X281.0Y-202.3
X281.0Y-231.793
X281.3Y-266.0
X281.8Y-233.2
X282.5Y-193.3
X282.5Y-201.4
X282.5Y-203.3
X282.5Y-217.1
X282.5Y-218.6
X282.5Y-231.093
X282.5Y-241.6
X282.5Y-251.7
X282.5Y-256.7
X282.5Y-263.6
X282.5Y-272.807
X282.5Y-277.3
X282.5Y-287.5
X282.5Y-292.2
X282.5Y-296.5
X282.5Y-302.2
X282.5Y-307.2
X282.5Y-311.595
X282.5Y-322.8
X283.1Y-197.514
X284.1Y-196.672
X284.1Y-247.3
X284.1Y-287.5
X284.1Y-293.2
X284.1Y-322.1
X284.9Y-262.1
X285.0Y-198.6
X285.1Y-228.3
X285.595Y-231.795
X285.6Y-302.2
X285.9Y-202.3
X286.0Y-261.3
X286.3Y-197.514
X286.7Y-293.2
X286.8Y-268.0
X287.5Y-193.3
X287.5Y-201.4
X287.5Y-203.3
X287.5Y-217.1
X287.5Y-218.6
X287.5Y-231.093
X287.5Y-233.2
X287.5Y-237.224
X287.5Y-241.6
X287.5Y-251.7
X287.5Y-256.7
X287.5Y-263.6
X287.5Y-266.7
X287.5Y-272.807
X287.5Y-277.3
X287.5Y-287.5
X287.5Y-292.2
X287.5Y-296.5
X287.5Y-311.595
X287.5Y-322.8
X288.2Y-247.3
X288.2Y-297.3
X289.1Y-261.3
X289.1Y-272.1
X289.1Y-298.7
X289.1Y-307.2
X289.1Y-321.4
X289.812Y-232.5
X290.0Y-198.6
X290.1Y-316.5
X290.2Y-266.0
X290.5Y-294.0
X290.5Y-295.7
X291.0Y-202.3
X291.0Y-231.793
X291.1Y-222.0
X292.5Y-168.1
X292.5Y-177.8
X292.5Y-181.2
X292.5Y-191.522
X292.5Y-193.3
X292.5Y-201.4
X292.5Y-203.3
X292.5Y-217.1
X292.5Y-218.6
X292.5Y-228.3
X292.5Y-233.2
X292.5Y-241.6
X292.5Y-251.7
X292.5Y-256.7
X292.5Y-262.1
X292.5Y-263.6
X292.5Y-272.807
X292.5Y-277.3
X292.5Y-287.5
X292.5Y-292.2
X292.5Y-296.5
X292.5Y-298.0
X292.5Y-302.2
X292.5Y-311.595
X292.5Y-322.8
X294.0Y-237.224
X294.0Y-266.7
X294.0Y-307.2
X294.075Y-232.5
X294.1Y-182.5
X294.1Y-198.6
X294.1Y-207.1
X294.1Y-321.3
X294.4Y-217.1
X294.8Y-298.7
X295.3Y-315.8
X295.4Y-166.8
X295.7Y-268.0
X295.7Y-287.5
X295.8Y-196.672
X296.2Y-231.793
X296.5Y-168.1
X296.732Y-322.101
X296.8Y-141.3
X297.3Y-298.0
X297.5Y-153.2
X297.5Y-157.6
X297.5Y-171.4
X297.5Y-177.8
X297.5Y-182.5
X297.5Y-191.522
X297.5Y-193.3
X297.5Y-201.4
X297.5Y-207.1
X297.5Y-217.1
X297.5Y-218.6
X297.5Y-228.3
X297.5Y-233.2
X297.5Y-237.224
X297.5Y-241.6
X297.5Y-251.7
X297.5Y-256.7
X297.5Y-262.1
X297.5Y-263.6
X297.5Y-266.7
X297.5Y-272.1
X297.5Y-277.3
X297.5Y-292.2
X297.5Y-296.5
X297.5Y-302.2
X297.5Y-311.595
X297.5Y-322.8
X298.2Y-203.3
X298.3Y-172.1
X298.4Y-272.807
X299.0Y-222.0
X299.0Y-307.2
X299.1Y-156.4
X299.1Y-161.3
X299.1Y-166.8
X299.1Y-198.6
X299.1Y-232.5
X299.1Y-287.5
X299.1Y-293.2
X299.1Y-297.3
X299.1Y-318.6
X299.9Y-231.793
X299.9Y-271.4
X299.9Y-268.7
X300.0Y-181.2
X300.1Y-202.3
X300.3Y-162.0
X300.5Y-172.1
X300.9Y-196.672
X301.2Y-154.6
X301.3Y-231.093
X301.3Y-266.7
X301.6Y-262.1
X301.7Y-233.2
X301.8Y-142.4
X302.0Y-168.1
X302.5Y-153.2
X302.5Y-157.6
X302.5Y-171.4
X302.5Y-177.8
X302.5Y-182.5
X302.5Y-191.522
X302.5Y-193.3
X302.5Y-201.4
X302.5Y-203.3
X302.5Y-207.1
X302.5Y-217.1
X302.5Y-218.6
X302.5Y-228.3
X302.5Y-237.224
X302.5Y-251.7
X302.5Y-256.7
X302.5Y-263.6
X302.5Y-272.1
X302.5Y-277.3
X302.5Y-292.2
X302.5Y-296.5
X302.5Y-298.0
X302.5Y-302.2
X302.5Y-311.595
X302.5Y-322.8
X302.6Y-241.6
X304.037Y-222.0
X304.1Y-156.4
X304.1Y-172.1
X304.1Y-298.7
X304.1Y-307.2
X304.1Y-317.9
X304.4Y-148.4
X304.8Y-217.1
X304.9Y-231.793
X305.0Y-298.0
X305.2Y-147.0
X305.2Y-202.3
X305.4Y-272.807
X305.9Y-154.6
X306.2Y-268.0
X306.4Y-197.514
X307.1Y-302.2
X307.5Y-153.2
X307.5Y-157.6
X307.5Y-171.4
X307.5Y-176.2
X307.5Y-177.8
X307.5Y-182.5
X307.5Y-188.5
X307.5Y-193.3
X307.5Y-201.4
X307.5Y-203.3
X307.5Y-207.1
X307.5Y-217.1
X307.5Y-228.3
X307.5Y-233.2
X307.5Y-237.224
X307.5Y-251.7
X307.5Y-256.7
X307.5Y-263.6
X307.5Y-266.7
X307.5Y-272.1
X307.5Y-277.3
X307.5Y-291.2
X307.5Y-293.2
X307.5Y-298.0
X307.5Y-311.595
X307.5Y-322.8
X307.6Y-241.6
X308.3Y-162.0
X308.3Y-262.1
X309.0Y-261.3
X309.075Y-152.1
X309.1Y-153.9
X309.1Y-166.8
X309.1Y-191.522
X309.1Y-202.3
X309.1Y-231.093
X309.1Y-296.5
X309.1Y-317.2
X309.4Y-115.141
X309.9Y-198.6
X309.9Y-232.5
X309.9Y-307.2
X310.1Y-123.7
X310.1Y-151.3
X310.3Y-168.1
X310.9Y-287.5
X311.0Y-154.6
X311.4Y-114.341
X311.6Y-231.093
X311.6Y-241.6
X311.7Y-256.7
X312.5Y-123.7
X312.5Y-147.0
X312.5Y-153.2
X312.5Y-157.6
X312.5Y-171.4
X312.5Y-176.2
X312.5Y-177.8
X312.5Y-182.5
X312.5Y-196.672
X312.5Y-201.4
X312.5Y-203.3
X312.5Y-207.1
X312.5Y-217.1
X312.5Y-228.3
X312.5Y-233.2
X312.5Y-251.7
X312.5Y-262.1
X312.5Y-266.0
X312.5Y-272.1
X312.5Y-292.2
X312.5Y-293.2
X312.5Y-298.0
X312.5Y-302.2
X312.5Y-311.595
X312.638Y-115.883
X313.3Y-222.0
X313.3Y-266.7
X313.539Y-131.015
X314.1Y-116.6
X314.1Y-148.4
X314.1Y-152.4
X314.1Y-168.1
X314.1Y-172.1
X314.1Y-181.2
X314.1Y-193.3
X314.1Y-202.3
X314.1Y-237.224
X314.1Y-241.6
X314.1Y-256.7
X314.1Y-272.807
X314.1Y-297.3
X314.1Y-307.2
X314.1Y-311.595
X314.8Y-113.342
X314.8Y-231.793
X314.8Y-263.6
X314.9Y-176.2
X315.1Y-157.6
X315.512Y-117.9
X315.7Y-293.2
X315.8Y-131.1
X315.8Y-232.493
X315.8Y-297.3
X316.1Y-287.5
X316.4Y-116.6
X316.5Y-266.7
X316.5Y-298.7
X316.7Y-231.793
X316.8Y-153.9
X317.5Y-116.1
X317.5Y-131.1
X317.5Y-136.4
X317.5Y-147.0
X317.5Y-157.6
X317.5Y-171.4
X317.5Y-176.2
X317.5Y-177.8
X317.5Y-196.672
X317.5Y-198.6
X317.5Y-203.3
X317.5Y-228.3
X317.5Y-233.2
X317.5Y-237.224
X317.5Y-251.7
X317.5Y-262.1
X317.5Y-266.0
X317.5Y-272.1
X317.5Y-292.2
X317.5Y-293.2
X317.5Y-311.6
X317.6Y-148.4
X318.3Y-153.2
X318.3Y-241.6
X318.5Y-182.5
X318.6Y-298.0
X319.075Y-118.399
X319.1Y-123.7
X319.1Y-151.3
X319.1Y-157.6
X319.1Y-197.514
X319.1Y-207.1
X319.1Y-217.1
X319.1Y-302.2
X319.5Y-268.0
X319.8Y-231.093
X319.8Y-256.7
X319.8Y-272.807
X320.1Y-228.3
X320.2Y-191.522
X320.4Y-116.1
X320.4Y-166.8
X320.5Y-201.4
X320.6Y-231.793
X321.0Y-268.0
X321.1Y-168.1
X321.2Y-114.741
X321.4Y-266.0
X321.5Y-142.4
X321.6Y-228.3
X321.7Y-157.6
X322.5Y-116.799
X322.5Y-131.1
X322.5Y-136.4
X322.5Y-147.0
X322.5Y-152.4
X322.5Y-171.4
X322.5Y-176.2
X322.5Y-181.2
X322.5Y-182.5
X322.5Y-196.672
X322.5Y-198.6
X322.5Y-202.3
X322.5Y-207.1
X322.5Y-233.2
X322.5Y-262.1
X322.5Y-272.1
X322.5Y-287.5
X322.538Y-266.7
X322.9Y-126.6
X323.193Y-231.093
X323.3Y-153.9
X323.3Y-162.0
X323.3Y-277.3
X323.4Y-123.7
X324.0Y-151.3
X324.1Y-148.4
X324.1Y-193.3
X324.1Y-197.514
X324.1Y-262.1
X324.2Y-191.522
X324.8Y-266.7
X324.9Y-117.9
X325.0Y-263.6
X325.2Y-177.8
X325.3Y-154.6
X325.5Y-201.4
X325.7Y-268.0
X326.0Y-152.4
X326.2Y-256.7
X326.3Y-181.2
X326.6Y-116.8
X326.7Y-148.4
X327.5Y-103.7
X327.5Y-116.1
X327.5Y-126.6
X327.5Y-131.1
X327.5Y-136.4
X327.5Y-147.0
X327.5Y-162.0
X327.5Y-171.4
X327.5Y-176.2
X327.5Y-182.5
X327.5Y-196.672
X327.5Y-198.6
X327.5Y-202.3
X327.5Y-207.1
X327.5Y-262.1
X327.5Y-266.0
X327.5Y-272.1
X327.5Y-293.2
X327.5Y-298.0
X327.5Y-303.2
X327.5Y-307.2
X328.3Y-168.1
X328.3Y-272.807
X328.4Y-193.3
X328.4Y-268.0
X329.037Y-261.3
X329.1Y-117.5
X329.1Y-141.3
X329.1Y-197.514
X329.1Y-263.6
X329.1Y-296.5
X329.1Y-301.3
X329.109Y-153.901
X329.8Y-102.8
X329.8Y-172.1
X330.0Y-116.1
X330.2Y-203.3
X330.4Y-201.4
X330.7Y-113.342
X330.9Y-153.9
X331.3Y-172.1
X331.7Y-177.8
X332.0Y-263.0
X332.4Y-118.2
X332.5Y-126.6
X332.5Y-131.1
X332.5Y-136.4
X332.5Y-142.4
X332.5Y-147.0
X332.5Y-152.4
X332.5Y-162.0
X332.5Y-166.8
X332.5Y-171.4
X332.5Y-176.2
X332.5Y-181.2
X332.5Y-182.5
X332.5Y-196.672
X332.5Y-198.6
X332.5Y-202.3
X332.5Y-207.1
X332.5Y-266.0
X332.5Y-272.1
X332.5Y-293.2
X332.5Y-298.0
X333.1Y-302.2
X333.3Y-116.8
X333.3Y-153.2
X333.4Y-272.807
X333.7Y-257.2
X334.0Y-266.7
X334.0Y-268.0
X334.075Y-116.1
X334.1Y-102.8
X334.1Y-177.8
X334.1Y-277.3
X334.1Y-287.5
X334.1Y-298.7
X335.1Y-131.1
X335.232Y-154.6
X335.4Y-193.3
X335.7Y-182.5
X335.7Y-296.5
X336.1Y-153.9
X336.4Y-117.5
X336.5Y-168.1
X336.7Y-191.522
X337.2Y-116.8
X337.2Y-266.0
X337.5Y-126.6
X337.5Y-136.4
X337.5Y-142.4
X337.5Y-147.0
X337.5Y-151.9
X337.5Y-162.0
X337.5Y-166.8
X337.5Y-176.2
X337.5Y-181.2
X337.5Y-188.5
X337.5Y-196.672
X337.5Y-198.6
X337.5Y-202.3
X337.5Y-272.8
X337.6Y-295.7
X338.0Y-118.2
X338.1Y-116.1
X339.1Y-113.899
X339.1Y-131.1
X339.1Y-201.4
X339.8Y-172.1
X339.8Y-203.3
X339.8Y-262.1
X340.2Y-118.2
X340.204Y-153.899
X340.6Y-171.4
X340.8Y-202.3
X341.1Y-151.9
X341.3Y-148.4
X341.6Y-117.5
X341.6Y-191.522
X342.5Y-116.8
X342.5Y-126.6
X342.5Y-131.1
X342.5Y-136.4
X342.5Y-142.4
X342.5Y-147.0
X342.5Y-162.0
X342.5Y-166.8
X342.5Y-168.1
X342.5Y-176.2
X342.5Y-181.2
X342.5Y-188.5
X342.5Y-196.672
X342.5Y-198.6
X343.0Y-153.299
X344.0Y-102.8
X344.0Y-203.3
X344.075Y-152.6
X344.1Y-118.2
X344.1Y-123.6
X344.1Y-141.3
X344.1Y-172.1
X344.6Y-207.1
X344.9Y-202.3
X345.2Y-154.1
X345.4Y-171.4
X345.5Y-182.5
X346.1Y-103.6
X346.1Y-153.3
X346.5Y-168.1
X346.7Y-117.5
X346.7Y-142.4
X346.7Y-193.3
X346.8Y-102.8
X347.5Y-111.3
X347.5Y-116.8
X347.5Y-123.6
X347.5Y-126.6
X347.5Y-131.1
X347.5Y-136.4
X347.5Y-152.4
X347.5Y-162.0
X347.5Y-166.8
X347.5Y-177.8
X347.5Y-181.2
X347.5Y-196.7
X347.5Y-198.6
X348.3Y-116.1
X349.0Y-202.3
X349.1Y-102.8
X349.1Y-117.5
X349.1Y-153.6
X349.1Y-168.1
X349.1Y-191.5
X349.1Y-197.514
X349.8Y-151.2
X349.8Y-176.2
X350.4Y-114.341
X350.7Y-154.607
X351.5Y-153.9
X351.9Y-192.7
X352.4Y-103.6
X352.5Y-111.3
X352.5Y-116.899
X352.5Y-123.6
X352.5Y-126.6
X352.5Y-131.1
X352.5Y-136.4
X352.5Y-142.4
X352.5Y-152.4
X352.5Y-162.0
X352.5Y-166.8
X352.5Y-168.1
X352.5Y-181.2
X352.6Y-195.3
X353.3Y-141.3
X353.3Y-157.6
X353.3Y-171.4
X353.4Y-177.8
X354.0Y-153.2
X354.075Y-113.342
X354.1Y-102.8
X354.1Y-148.4
X354.1Y-172.1
X354.9Y-176.2
X355.1Y-115.8
X355.8Y-103.5
X356.0Y-114.741
X356.0Y-154.607
X356.6Y-118.2
X356.7Y-153.2
X357.5Y-102.8
X357.5Y-111.3
X357.5Y-123.6
X357.5Y-131.1
X357.5Y-142.4
X357.5Y-152.4
X357.5Y-162.0
X357.5Y-166.8
X357.5Y-168.1
X357.7Y-174.4
X358.6Y-175.9
X359.1Y-116.2
X359.1Y-126.6
X359.1Y-136.4
X359.1Y-151.2
X359.1Y-157.6
X359.6Y-177.6
X359.8Y-102.8
X360.2Y-116.899
X360.7Y-178.8
X361.3Y-154.607
X361.567Y-114.341
X362.5Y-103.5
X362.5Y-111.3
X362.5Y-116.2
X362.5Y-123.6
X362.5Y-131.1
X362.5Y-142.4
X362.5Y-153.2
X362.5Y-157.6
X362.5Y-162.0
X362.5Y-166.8
X363.0Y-169.3
X363.3Y-118.2
X363.4Y-152.4
X364.0Y-102.8
X364.037Y-147.0
X364.1Y-148.4
X364.1Y-151.2
X366.3Y-154.6
X366.7Y-126.6
X367.3Y-148.4
X367.4Y-123.6
X367.4Y-157.6
X367.5Y-111.3
X367.5Y-116.2
X367.5Y-131.1
X367.5Y-142.4
X367.5Y-153.2
X367.5Y-166.8
X369.0Y-113.342
X369.0Y-161.9
X369.1Y-141.3
X369.9Y-116.1
X369.9Y-152.3
T2
X225.0Y-107.0
X225.0Y-320.0
X230.08Y-107.0
X230.08Y-320.0
X235.16Y-320.0
X240.24Y-320.0
T0
M30
