G04 #@! TF.GenerationSoftware,KiCad,Pcbnew,7.0.9*
G04 #@! TF.CreationDate,2025-01-02T12:42:29+01:00*
G04 #@! TF.ProjectId,lightning-map,6c696768-746e-4696-9e67-2d6d61702e6b,rev?*
G04 #@! TF.SameCoordinates,Original*
G04 #@! TF.FileFunction,Paste,Top*
G04 #@! TF.FilePolarity,Positive*
%FSLAX46Y46*%
G04 Gerber Fmt 4.6, Leading zero omitted, Abs format (unit mm)*
G04 Created by KiCad (PCBNEW 7.0.9) date 2025-01-02 12:42:29*
%MOMM*%
%LPD*%
G01*
G04 APERTURE LIST*
G04 Aperture macros list*
%AMRoundRect*
0 Rectangle with rounded corners*
0 $1 Rounding radius*
0 $2 $3 $4 $5 $6 $7 $8 $9 X,Y pos of 4 corners*
0 Add a 4 corners polygon primitive as box body*
4,1,4,$2,$3,$4,$5,$6,$7,$8,$9,$2,$3,0*
0 Add four circle primitives for the rounded corners*
1,1,$1+$1,$2,$3*
1,1,$1+$1,$4,$5*
1,1,$1+$1,$6,$7*
1,1,$1+$1,$8,$9*
0 Add four rect primitives between the rounded corners*
20,1,$1+$1,$2,$3,$4,$5,0*
20,1,$1+$1,$4,$5,$6,$7,0*
20,1,$1+$1,$6,$7,$8,$9,0*
20,1,$1+$1,$8,$9,$2,$3,0*%
G04 Aperture macros list end*
%ADD10RoundRect,0.218750X-0.218750X-0.256250X0.218750X-0.256250X0.218750X0.256250X-0.218750X0.256250X0*%
%ADD11RoundRect,0.140000X-0.140000X-0.170000X0.140000X-0.170000X0.140000X0.170000X-0.140000X0.170000X0*%
%ADD12RoundRect,0.200000X-0.200000X-0.275000X0.200000X-0.275000X0.200000X0.275000X-0.200000X0.275000X0*%
%ADD13RoundRect,0.200000X0.275000X-0.200000X0.275000X0.200000X-0.275000X0.200000X-0.275000X-0.200000X0*%
%ADD14RoundRect,0.140000X-0.170000X0.140000X-0.170000X-0.140000X0.170000X-0.140000X0.170000X0.140000X0*%
%ADD15RoundRect,0.232500X-0.232500X-0.232500X0.232500X-0.232500X0.232500X0.232500X-0.232500X0.232500X0*%
%ADD16RoundRect,0.050000X-0.362500X-0.050000X0.362500X-0.050000X0.362500X0.050000X-0.362500X0.050000X0*%
%ADD17RoundRect,0.050000X-0.050000X-0.362500X0.050000X-0.362500X0.050000X0.362500X-0.050000X0.362500X0*%
%ADD18RoundRect,0.200000X0.200000X0.275000X-0.200000X0.275000X-0.200000X-0.275000X0.200000X-0.275000X0*%
G04 APERTURE END LIST*
D10*
X337500000Y-145000000D03*
X339075000Y-145000000D03*
X312500000Y-175000000D03*
X314075000Y-175000000D03*
X287500000Y-255000000D03*
X289075000Y-255000000D03*
X307500000Y-155000000D03*
X309075000Y-155000000D03*
X362500000Y-140000000D03*
X364075000Y-140000000D03*
X317500000Y-130000000D03*
X319075000Y-130000000D03*
X332500000Y-300000000D03*
X334075000Y-300000000D03*
D11*
X258520000Y-246950000D03*
X259480000Y-246950000D03*
D10*
X302500000Y-285000000D03*
X304075000Y-285000000D03*
X297500000Y-155000000D03*
X299075000Y-155000000D03*
X307500000Y-265000000D03*
X309075000Y-265000000D03*
X322500000Y-265000000D03*
X324075000Y-265000000D03*
X322500000Y-130000000D03*
X324075000Y-130000000D03*
X297500000Y-280000000D03*
X299075000Y-280000000D03*
X292500000Y-290000000D03*
X294075000Y-290000000D03*
X282500000Y-285000000D03*
X284075000Y-285000000D03*
X332500000Y-205000000D03*
X334075000Y-205000000D03*
X297500000Y-250000000D03*
X299075000Y-250000000D03*
X292500000Y-305000000D03*
X294075000Y-305000000D03*
X337500000Y-290000000D03*
X339075000Y-290000000D03*
X307500000Y-300000000D03*
X309075000Y-300000000D03*
X332500000Y-130000000D03*
X334075000Y-130000000D03*
X347500000Y-135000000D03*
X349075000Y-135000000D03*
X347500000Y-180000000D03*
X349075000Y-180000000D03*
X287500000Y-285000000D03*
X289075000Y-285000000D03*
X337500000Y-190000000D03*
X339075000Y-190000000D03*
X342500000Y-95000000D03*
X344075000Y-95000000D03*
X322500000Y-155000000D03*
X324075000Y-155000000D03*
X287500000Y-265000000D03*
X289075000Y-265000000D03*
X327500000Y-275000000D03*
X329075000Y-275000000D03*
X302500000Y-165000000D03*
X304075000Y-165000000D03*
X302500000Y-205000000D03*
X304075000Y-205000000D03*
X347500000Y-185000000D03*
X349075000Y-185000000D03*
X342500000Y-150000000D03*
X344075000Y-150000000D03*
X297500000Y-215000000D03*
X299075000Y-215000000D03*
X332500000Y-270000000D03*
X334075000Y-270000000D03*
X282500000Y-220000000D03*
X284075000Y-220000000D03*
X347500000Y-155000000D03*
X349075000Y-155000000D03*
X312500000Y-185000000D03*
X314075000Y-185000000D03*
X347500000Y-140000000D03*
X349075000Y-140000000D03*
X287500000Y-310000000D03*
X289075000Y-310000000D03*
X312500000Y-270000000D03*
X314075000Y-270000000D03*
X292500000Y-230000000D03*
X294075000Y-230000000D03*
X337500000Y-265000000D03*
X339075000Y-265000000D03*
D12*
X221175000Y-305000000D03*
X222825000Y-305000000D03*
D10*
X367500000Y-115000000D03*
X369075000Y-115000000D03*
X272500000Y-285000000D03*
X274075000Y-285000000D03*
X292500000Y-285000000D03*
X294075000Y-285000000D03*
X327500000Y-300000000D03*
X329075000Y-300000000D03*
X342500000Y-110000000D03*
X344075000Y-110000000D03*
X287500000Y-240000000D03*
X289075000Y-240000000D03*
D11*
X258520000Y-188850000D03*
X259480000Y-188850000D03*
D10*
X327500000Y-205000000D03*
X329075000Y-205000000D03*
X307500000Y-180000000D03*
X309075000Y-180000000D03*
X282500000Y-305000000D03*
X284075000Y-305000000D03*
X312500000Y-255000000D03*
X314075000Y-255000000D03*
X302500000Y-280000000D03*
X304075000Y-280000000D03*
X347500000Y-115000000D03*
X349075000Y-115000000D03*
X317500000Y-280000000D03*
X319075000Y-280000000D03*
X357500000Y-145000000D03*
X359075000Y-145000000D03*
X317500000Y-290000000D03*
X319075000Y-290000000D03*
X292500000Y-325000000D03*
X294075000Y-325000000D03*
X357500000Y-135000000D03*
X359075000Y-135000000D03*
X317500000Y-305000000D03*
X319075000Y-305000000D03*
X322500000Y-200000000D03*
X324075000Y-200000000D03*
X302500000Y-195000000D03*
X304075000Y-195000000D03*
X312500000Y-245000000D03*
X314075000Y-245000000D03*
X287500000Y-195000000D03*
X289075000Y-195000000D03*
X292500000Y-215000000D03*
X294075000Y-215000000D03*
X342500000Y-130000000D03*
X344075000Y-130000000D03*
X307500000Y-305000000D03*
X309075000Y-305000000D03*
X347500000Y-160000000D03*
X349075000Y-160000000D03*
X317500000Y-235000000D03*
X319075000Y-235000000D03*
X337500000Y-139640000D03*
X339075000Y-139640000D03*
X297500000Y-300000000D03*
X299075000Y-300000000D03*
X367500000Y-160000000D03*
X369075000Y-160000000D03*
X292500000Y-240000000D03*
X294075000Y-240000000D03*
X327500000Y-210000000D03*
X329075000Y-210000000D03*
X322500000Y-170000000D03*
X324075000Y-170000000D03*
X307500000Y-210000000D03*
X309075000Y-210000000D03*
X317500000Y-265000000D03*
X319075000Y-265000000D03*
X282500000Y-250000000D03*
X284075000Y-250000000D03*
X287500000Y-280000000D03*
X289075000Y-280000000D03*
X337500000Y-180000000D03*
X339075000Y-180000000D03*
X307500000Y-160000000D03*
X309075000Y-160000000D03*
X337500000Y-175000000D03*
X339075000Y-175000000D03*
X322500000Y-160000000D03*
X324075000Y-160000000D03*
X347500000Y-170000000D03*
X349075000Y-170000000D03*
X322500000Y-175000000D03*
X324075000Y-175000000D03*
X277500000Y-285000000D03*
X279075000Y-285000000D03*
X307500000Y-215000000D03*
X309075000Y-215000000D03*
X307500000Y-235000000D03*
X309075000Y-235000000D03*
X277500000Y-260000000D03*
X279075000Y-260000000D03*
X312500000Y-295000000D03*
X314075000Y-295000000D03*
X322500000Y-255000000D03*
X324075000Y-255000000D03*
X307500000Y-230000000D03*
X309075000Y-230000000D03*
X362500000Y-130000000D03*
X364075000Y-130000000D03*
X317500000Y-170000000D03*
X319075000Y-170000000D03*
X302500000Y-150000000D03*
X304075000Y-150000000D03*
X352500000Y-125000000D03*
X354075000Y-125000000D03*
X332500000Y-165000000D03*
X334075000Y-165000000D03*
X332500000Y-210000000D03*
X334075000Y-210000000D03*
X312500000Y-260000000D03*
X314075000Y-260000000D03*
X297500000Y-315000000D03*
X299075000Y-315000000D03*
X292500000Y-265000000D03*
X294075000Y-265000000D03*
X282500000Y-310000000D03*
X284075000Y-310000000D03*
X332500000Y-120000000D03*
X334075000Y-120000000D03*
X357500000Y-105000000D03*
X359075000Y-105000000D03*
X332500000Y-190000000D03*
X334075000Y-190000000D03*
X292500000Y-235000000D03*
X294075000Y-235000000D03*
X307500000Y-275000000D03*
X309075000Y-275000000D03*
X307500000Y-225000000D03*
X309075000Y-225000000D03*
X352500000Y-160000000D03*
X354075000Y-160000000D03*
X347500000Y-145000000D03*
X349075000Y-145000000D03*
X302500000Y-300000000D03*
X304075000Y-300000000D03*
X307500000Y-140000000D03*
X309075000Y-140000000D03*
X362500000Y-105000000D03*
X364075000Y-105000000D03*
X312500000Y-290000000D03*
X314075000Y-290000000D03*
X327500000Y-140000000D03*
X329075000Y-140000000D03*
X287500000Y-295000000D03*
X289075000Y-295000000D03*
X357500000Y-140000000D03*
X359075000Y-140000000D03*
X342500000Y-190000000D03*
X344075000Y-190000000D03*
X312500000Y-170000000D03*
X314075000Y-170000000D03*
X307500000Y-260000000D03*
X309075000Y-260000000D03*
X282500000Y-280000000D03*
X284075000Y-280000000D03*
X297500000Y-225000000D03*
X299075000Y-225000000D03*
X302500000Y-305000000D03*
X304075000Y-305000000D03*
D13*
X246000000Y-310825000D03*
X246000000Y-309175000D03*
X245000000Y-194675000D03*
X245000000Y-193025000D03*
D10*
X342500000Y-155000000D03*
X344075000Y-155000000D03*
X317500000Y-145000000D03*
X319075000Y-145000000D03*
X322500000Y-260000000D03*
X324075000Y-260000000D03*
X347500000Y-130000000D03*
X349075000Y-130000000D03*
X317500000Y-175000000D03*
X319075000Y-175000000D03*
X317500000Y-180000000D03*
X319075000Y-180000000D03*
X317500000Y-205000000D03*
X319075000Y-205000000D03*
X317500000Y-120000000D03*
X319075000Y-120000000D03*
X342500000Y-180000000D03*
X344075000Y-180000000D03*
X277500000Y-265000000D03*
X279075000Y-265000000D03*
X307500000Y-250000000D03*
X309075000Y-250000000D03*
X362500000Y-155000000D03*
X364075000Y-155000000D03*
X342500000Y-105000000D03*
X344075000Y-105000000D03*
X312500000Y-280000000D03*
X314075000Y-280000000D03*
X312500000Y-235000000D03*
X314075000Y-235000000D03*
X327500000Y-145000000D03*
X329075000Y-145000000D03*
X352500000Y-175000000D03*
X354075000Y-175000000D03*
X357500000Y-110000000D03*
X359075000Y-110000000D03*
X277500000Y-200000000D03*
X279075000Y-200000000D03*
X317500000Y-150000000D03*
X319075000Y-150000000D03*
X347500000Y-190000000D03*
X349075000Y-190000000D03*
X322500000Y-205000000D03*
X324075000Y-205000000D03*
X312500000Y-145000000D03*
X314075000Y-145000000D03*
X292500000Y-210000000D03*
X294075000Y-210000000D03*
X322500000Y-120000000D03*
X324075000Y-120000000D03*
X307500000Y-240000000D03*
X309075000Y-240000000D03*
X327500000Y-185000000D03*
X329075000Y-185000000D03*
X302500000Y-225000000D03*
X304075000Y-225000000D03*
X327500000Y-260000000D03*
X329075000Y-260000000D03*
X287500000Y-320000000D03*
X289075000Y-320000000D03*
X282500000Y-265000000D03*
X284075000Y-265000000D03*
X302500000Y-315000000D03*
X304075000Y-315000000D03*
X337500000Y-160000000D03*
X339075000Y-160000000D03*
X312500000Y-165000000D03*
X314075000Y-165000000D03*
X282500000Y-205000000D03*
X284075000Y-205000000D03*
X332500000Y-260000000D03*
X334075000Y-260000000D03*
X332500000Y-110000000D03*
X334075000Y-110000000D03*
X322500000Y-275000000D03*
X324075000Y-275000000D03*
D14*
X241500000Y-300653334D03*
X241500000Y-301613334D03*
D10*
X297500000Y-310000000D03*
X299075000Y-310000000D03*
X352500000Y-100000000D03*
X354075000Y-100000000D03*
X302500000Y-160000000D03*
X304075000Y-160000000D03*
X297500000Y-235000000D03*
X299075000Y-235000000D03*
X317500000Y-240000000D03*
X319075000Y-240000000D03*
X282500000Y-270000000D03*
X284075000Y-270000000D03*
X312500000Y-215000000D03*
X314075000Y-215000000D03*
X307500000Y-270000000D03*
X309075000Y-270000000D03*
X307500000Y-245000000D03*
X309075000Y-245000000D03*
X322500000Y-115000000D03*
X324075000Y-115000000D03*
X322500000Y-215000000D03*
X324075000Y-215000000D03*
X337500000Y-110000000D03*
X339075000Y-110000000D03*
X292500000Y-250000000D03*
X294075000Y-250000000D03*
D13*
X246000000Y-252775000D03*
X246000000Y-251125000D03*
D10*
X322500000Y-180000000D03*
X324075000Y-180000000D03*
D14*
X238000000Y-126453334D03*
X238000000Y-127413334D03*
D10*
X292500000Y-180000000D03*
X294075000Y-180000000D03*
X327500000Y-150000000D03*
X329075000Y-150000000D03*
X312500000Y-130000000D03*
X314075000Y-130000000D03*
X297500000Y-325000000D03*
X299075000Y-325000000D03*
X297500000Y-175000000D03*
X299075000Y-175000000D03*
X327500000Y-130000000D03*
X329075000Y-130000000D03*
X332500000Y-125000000D03*
X334075000Y-125000000D03*
X327500000Y-265000000D03*
X329075000Y-265000000D03*
X327500000Y-270000000D03*
X329075000Y-270000000D03*
X347500000Y-110000000D03*
X349075000Y-110000000D03*
X352500000Y-140000000D03*
X354075000Y-140000000D03*
X347500000Y-100000000D03*
X349075000Y-100000000D03*
X282500000Y-245000000D03*
X284075000Y-245000000D03*
X352500000Y-170000000D03*
X354075000Y-170000000D03*
X322500000Y-210000000D03*
X324075000Y-210000000D03*
X357500000Y-165000000D03*
X359075000Y-165000000D03*
D11*
X258520000Y-130800000D03*
X259480000Y-130800000D03*
D10*
X287500000Y-300000000D03*
X289075000Y-300000000D03*
X307500000Y-255000000D03*
X309075000Y-255000000D03*
X342500000Y-200000000D03*
X344075000Y-200000000D03*
X272500000Y-290000000D03*
X274075000Y-290000000D03*
X317500000Y-245000000D03*
X319075000Y-245000000D03*
X282500000Y-320000000D03*
X284075000Y-320000000D03*
X322500000Y-165000000D03*
X324075000Y-165000000D03*
X302500000Y-175000000D03*
X304075000Y-175000000D03*
X282500000Y-200000000D03*
X284075000Y-200000000D03*
X367500000Y-110000000D03*
X369075000Y-110000000D03*
X292500000Y-175000000D03*
X294075000Y-175000000D03*
X287500000Y-230000000D03*
X289075000Y-230000000D03*
X297500000Y-270000000D03*
X299075000Y-270000000D03*
X357500000Y-130000000D03*
X359075000Y-130000000D03*
X362500000Y-150000000D03*
X364075000Y-150000000D03*
X332500000Y-105000000D03*
X334075000Y-105000000D03*
X327500000Y-200000000D03*
X329075000Y-200000000D03*
X302500000Y-270000000D03*
X304075000Y-270000000D03*
X317500000Y-300000000D03*
X319075000Y-300000000D03*
X282500000Y-290000000D03*
X284075000Y-290000000D03*
X362500000Y-115000000D03*
X364075000Y-115000000D03*
X327500000Y-180000000D03*
X329075000Y-180000000D03*
X332500000Y-275000000D03*
X334075000Y-275000000D03*
X327500000Y-165000000D03*
X329075000Y-165000000D03*
X337500000Y-130000000D03*
X339075000Y-130000000D03*
X292500000Y-245000000D03*
X294075000Y-245000000D03*
X297500000Y-285000000D03*
X299075000Y-285000000D03*
X297500000Y-164820000D03*
X299075000Y-164820000D03*
X327500000Y-175000000D03*
X329075000Y-175000000D03*
X332500000Y-200000000D03*
X334075000Y-200000000D03*
X312500000Y-150000000D03*
X314075000Y-150000000D03*
X317500000Y-135000000D03*
X319075000Y-135000000D03*
X312500000Y-135000000D03*
X314075000Y-135000000D03*
X342500000Y-120000000D03*
X344075000Y-120000000D03*
D11*
X258520000Y-305000000D03*
X259480000Y-305000000D03*
D10*
X332500000Y-160000000D03*
X334075000Y-160000000D03*
X277500000Y-280000000D03*
X279075000Y-280000000D03*
X292500000Y-255000000D03*
X294075000Y-255000000D03*
X347500000Y-175000000D03*
X349075000Y-175000000D03*
X367500000Y-155000000D03*
X369075000Y-155000000D03*
X342500000Y-170000000D03*
X344075000Y-170000000D03*
X282500000Y-260000000D03*
X284075000Y-260000000D03*
X302500000Y-240000000D03*
X304075000Y-240000000D03*
X332500000Y-175000000D03*
X334075000Y-175000000D03*
X317500000Y-250000000D03*
X319075000Y-250000000D03*
X292500000Y-270000000D03*
X294075000Y-270000000D03*
X302500000Y-260000000D03*
X304075000Y-260000000D03*
X327500000Y-190000000D03*
X329075000Y-190000000D03*
X337500000Y-135000000D03*
X339075000Y-135000000D03*
D14*
X245000000Y-300653334D03*
X245000000Y-301613334D03*
D10*
X337500000Y-165000000D03*
X339075000Y-165000000D03*
D15*
X249425000Y-129425000D03*
X249425000Y-130575000D03*
X250575000Y-129425000D03*
X250575000Y-130575000D03*
D16*
X248062500Y-128800000D03*
X248062500Y-129200000D03*
X248062500Y-129600000D03*
X248062500Y-130000000D03*
X248062500Y-130400000D03*
X248062500Y-130800000D03*
X248062500Y-131200000D03*
D17*
X248800000Y-131937500D03*
X249200000Y-131937500D03*
X249600000Y-131937500D03*
X250000000Y-131937500D03*
X250400000Y-131937500D03*
X250800000Y-131937500D03*
X251200000Y-131937500D03*
D16*
X251937500Y-131200000D03*
X251937500Y-130800000D03*
X251937500Y-130400000D03*
X251937500Y-130000000D03*
X251937500Y-129600000D03*
X251937500Y-129200000D03*
X251937500Y-128800000D03*
D17*
X251200000Y-128062500D03*
X250800000Y-128062500D03*
X250400000Y-128062500D03*
X250000000Y-128062500D03*
X249600000Y-128062500D03*
X249200000Y-128062500D03*
X248800000Y-128062500D03*
D10*
X287500000Y-200000000D03*
X289075000Y-200000000D03*
X322500000Y-145000000D03*
X324075000Y-145000000D03*
X312500000Y-210000000D03*
X314075000Y-210000000D03*
X312500000Y-310000000D03*
X314075000Y-310000000D03*
X332500000Y-290000000D03*
X334075000Y-290000000D03*
X302500000Y-310000000D03*
X304075000Y-310000000D03*
X292500000Y-260000000D03*
X294075000Y-260000000D03*
X292500000Y-275000000D03*
X294075000Y-275000000D03*
X337500000Y-200000000D03*
X339075000Y-200000000D03*
X287500000Y-220000000D03*
X289075000Y-220000000D03*
X337500000Y-185000000D03*
X339075000Y-185000000D03*
X287500000Y-270000000D03*
X289075000Y-270000000D03*
X277500000Y-210000000D03*
X279075000Y-210000000D03*
X322500000Y-230000000D03*
X324075000Y-230000000D03*
X317500000Y-260000000D03*
X319075000Y-260000000D03*
X362500000Y-135000000D03*
X364075000Y-135000000D03*
X367500000Y-165000000D03*
X369075000Y-165000000D03*
X317500000Y-155000000D03*
X319075000Y-155000000D03*
X352500000Y-145000000D03*
X354075000Y-145000000D03*
X297500000Y-230000000D03*
X299075000Y-230000000D03*
X292500000Y-300000000D03*
X294075000Y-300000000D03*
X292500000Y-220000000D03*
X294075000Y-220000000D03*
X337500000Y-170000000D03*
X339075000Y-170000000D03*
X297500000Y-255000000D03*
X299075000Y-255000000D03*
X332500000Y-115000000D03*
X334075000Y-115000000D03*
X317500000Y-270000000D03*
X319075000Y-270000000D03*
X292500000Y-280000000D03*
X294075000Y-280000000D03*
X327500000Y-215000000D03*
X329075000Y-215000000D03*
X352500000Y-190000000D03*
X354075000Y-190000000D03*
X327500000Y-250000000D03*
X329075000Y-250000000D03*
D12*
X221175000Y-310000000D03*
X222825000Y-310000000D03*
D10*
X282500000Y-300000000D03*
X284075000Y-300000000D03*
X357500000Y-155000000D03*
X359075000Y-155000000D03*
X342500000Y-140000000D03*
X344075000Y-140000000D03*
X307500000Y-290000000D03*
X309075000Y-290000000D03*
X287500000Y-215000000D03*
X289075000Y-215000000D03*
X352500000Y-150000000D03*
X354075000Y-150000000D03*
X307500000Y-295000000D03*
X309075000Y-295000000D03*
X297500000Y-200000000D03*
X299075000Y-200000000D03*
X312500000Y-140000000D03*
X314075000Y-140000000D03*
X322500000Y-235000000D03*
X324075000Y-235000000D03*
X322500000Y-250000000D03*
X324075000Y-250000000D03*
X337500000Y-155000000D03*
X339075000Y-155000000D03*
X292500000Y-195000000D03*
X294075000Y-195000000D03*
X297500000Y-265000000D03*
X299075000Y-265000000D03*
X367500000Y-135000000D03*
X369075000Y-135000000D03*
X297500000Y-160000000D03*
X299075000Y-160000000D03*
X307500000Y-150000000D03*
X309075000Y-150000000D03*
X292500000Y-315000000D03*
X294075000Y-315000000D03*
D14*
X241500000Y-242586666D03*
X241500000Y-243546666D03*
D13*
X245000000Y-136625000D03*
X245000000Y-134975000D03*
D10*
X302500000Y-235000000D03*
X304075000Y-235000000D03*
D12*
X221175000Y-300000000D03*
X222825000Y-300000000D03*
D14*
X245000000Y-126453334D03*
X245000000Y-127413334D03*
D10*
X317500000Y-285000000D03*
X319075000Y-285000000D03*
X362500000Y-110000000D03*
X364075000Y-110000000D03*
X352500000Y-185000000D03*
X354075000Y-185000000D03*
X307500000Y-170000000D03*
X309075000Y-170000000D03*
X342500000Y-100000000D03*
X344075000Y-100000000D03*
X312500000Y-180000000D03*
X314075000Y-180000000D03*
X332500000Y-150000000D03*
X334075000Y-150000000D03*
X302500000Y-275000000D03*
X304075000Y-275000000D03*
X297500000Y-205000000D03*
X299075000Y-205000000D03*
D14*
X238000000Y-242586666D03*
X238000000Y-243546666D03*
D10*
X312500000Y-120000000D03*
X314075000Y-120000000D03*
X302500000Y-295000000D03*
X304075000Y-295000000D03*
X317500000Y-255000000D03*
X319075000Y-255000000D03*
X357500000Y-100000000D03*
X359075000Y-100000000D03*
X322500000Y-150000000D03*
X324075000Y-150000000D03*
D14*
X241500000Y-126453334D03*
X241500000Y-127413334D03*
D10*
X337500000Y-115000000D03*
X339075000Y-115000000D03*
X342500000Y-195000000D03*
X344075000Y-195000000D03*
X357500000Y-150000000D03*
X359075000Y-150000000D03*
X287500000Y-225000000D03*
X289075000Y-225000000D03*
X307500000Y-200000000D03*
X309075000Y-200000000D03*
X312500000Y-195000000D03*
X314075000Y-195000000D03*
X367500000Y-120000000D03*
X369075000Y-120000000D03*
X367500000Y-130000000D03*
X369075000Y-130000000D03*
X292500000Y-200000000D03*
X294075000Y-200000000D03*
X307500000Y-220000000D03*
X309075000Y-220000000D03*
X302500000Y-170000000D03*
X304075000Y-170000000D03*
X322500000Y-220000000D03*
X324075000Y-220000000D03*
X302500000Y-265000000D03*
X304075000Y-265000000D03*
X337500000Y-270000000D03*
X339075000Y-270000000D03*
X357500000Y-115000000D03*
X359075000Y-115000000D03*
X367500000Y-150000000D03*
X369075000Y-150000000D03*
X272500000Y-280000000D03*
X274075000Y-280000000D03*
X277500000Y-300000000D03*
X279075000Y-300000000D03*
X307500000Y-175000000D03*
X309075000Y-175000000D03*
X307500000Y-310000000D03*
X309075000Y-310000000D03*
X357500000Y-170000000D03*
X359075000Y-170000000D03*
X312500000Y-230000000D03*
X314075000Y-230000000D03*
X292500000Y-185000000D03*
X294075000Y-185000000D03*
X342500000Y-145000000D03*
X344075000Y-145000000D03*
X337500000Y-150000000D03*
X339075000Y-150000000D03*
X337500000Y-120000000D03*
X339075000Y-120000000D03*
X292500000Y-190000000D03*
X294075000Y-190000000D03*
X287500000Y-290000000D03*
X289075000Y-290000000D03*
X302500000Y-155000000D03*
X304075000Y-155000000D03*
X287500000Y-275000000D03*
X289075000Y-275000000D03*
X287500000Y-325000000D03*
X289075000Y-325000000D03*
X297500000Y-275000000D03*
X299075000Y-275000000D03*
X317500000Y-230000000D03*
X319075000Y-230000000D03*
X367500000Y-125000000D03*
X369075000Y-125000000D03*
X322500000Y-135000000D03*
X324075000Y-135000000D03*
X352500000Y-110000000D03*
X354075000Y-110000000D03*
X312500000Y-240000000D03*
X314075000Y-240000000D03*
X317500000Y-190000000D03*
X319075000Y-190000000D03*
X282500000Y-215000000D03*
X284075000Y-215000000D03*
X352500000Y-135000000D03*
X354075000Y-135000000D03*
X277500000Y-230000000D03*
X279075000Y-230000000D03*
X292500000Y-320000000D03*
X294075000Y-320000000D03*
X317500000Y-220000000D03*
X319075000Y-220000000D03*
X272500000Y-275000000D03*
X274075000Y-275000000D03*
X327500000Y-120000000D03*
X329075000Y-120000000D03*
X282500000Y-235000000D03*
X284075000Y-235000000D03*
X312500000Y-220000000D03*
X314075000Y-220000000D03*
X297500000Y-320000000D03*
X299075000Y-320000000D03*
X297500000Y-295000000D03*
X299075000Y-295000000D03*
X327500000Y-255000000D03*
X329075000Y-255000000D03*
X312500000Y-155000000D03*
X314075000Y-155000000D03*
D14*
X245000000Y-184520000D03*
X245000000Y-185480000D03*
D10*
X297500000Y-190000000D03*
X299075000Y-190000000D03*
X282500000Y-240000000D03*
X284075000Y-240000000D03*
X302500000Y-290000000D03*
X304075000Y-290000000D03*
X302500000Y-255000000D03*
X304075000Y-255000000D03*
X312500000Y-125000000D03*
X314075000Y-125000000D03*
X297500000Y-185000000D03*
X299075000Y-185000000D03*
X307500000Y-205000000D03*
X309075000Y-205000000D03*
X302500000Y-250000000D03*
X304075000Y-250000000D03*
X302500000Y-180000000D03*
X304075000Y-180000000D03*
X362500000Y-160000000D03*
X364075000Y-160000000D03*
X332500000Y-135000000D03*
X334075000Y-135000000D03*
X302500000Y-210000000D03*
X304075000Y-210000000D03*
X327500000Y-115000000D03*
X329075000Y-115000000D03*
X342500000Y-125000000D03*
X344075000Y-125000000D03*
X287500000Y-235000000D03*
X289075000Y-235000000D03*
X287500000Y-315000000D03*
X289075000Y-315000000D03*
X322500000Y-140000000D03*
X324075000Y-140000000D03*
X332500000Y-180000000D03*
X334075000Y-180000000D03*
X317500000Y-275000000D03*
X319075000Y-275000000D03*
X282500000Y-255000000D03*
X284075000Y-255000000D03*
X362500000Y-145000000D03*
X364075000Y-145000000D03*
X277500000Y-270000000D03*
X279075000Y-270000000D03*
X282500000Y-210000000D03*
X284075000Y-210000000D03*
X307500000Y-165000000D03*
X309075000Y-165000000D03*
X307500000Y-185000000D03*
X309075000Y-185000000D03*
X287500000Y-190000000D03*
X289075000Y-190000000D03*
X292500000Y-205000000D03*
X294075000Y-205000000D03*
X302500000Y-190000000D03*
X304075000Y-190000000D03*
X332500000Y-140000000D03*
X334075000Y-140000000D03*
X317500000Y-215000000D03*
X319075000Y-215000000D03*
X347500000Y-150000000D03*
X349075000Y-150000000D03*
X347500000Y-200000000D03*
X349075000Y-200000000D03*
X322500000Y-270000000D03*
X324075000Y-270000000D03*
X317500000Y-210000000D03*
X319075000Y-210000000D03*
X327500000Y-125000000D03*
X329075000Y-125000000D03*
X362500000Y-125000000D03*
X364075000Y-125000000D03*
D15*
X249425000Y-303625000D03*
X249425000Y-304775000D03*
X250575000Y-303625000D03*
X250575000Y-304775000D03*
D16*
X248062500Y-303000000D03*
X248062500Y-303400000D03*
X248062500Y-303800000D03*
X248062500Y-304200000D03*
X248062500Y-304600000D03*
X248062500Y-305000000D03*
X248062500Y-305400000D03*
D17*
X248800000Y-306137500D03*
X249200000Y-306137500D03*
X249600000Y-306137500D03*
X250000000Y-306137500D03*
X250400000Y-306137500D03*
X250800000Y-306137500D03*
X251200000Y-306137500D03*
D16*
X251937500Y-305400000D03*
X251937500Y-305000000D03*
X251937500Y-304600000D03*
X251937500Y-304200000D03*
X251937500Y-303800000D03*
X251937500Y-303400000D03*
X251937500Y-303000000D03*
D17*
X251200000Y-302262500D03*
X250800000Y-302262500D03*
X250400000Y-302262500D03*
X250000000Y-302262500D03*
X249600000Y-302262500D03*
X249200000Y-302262500D03*
X248800000Y-302262500D03*
D15*
X249425000Y-187491666D03*
X249425000Y-188641666D03*
X250575000Y-187491666D03*
X250575000Y-188641666D03*
D16*
X248062500Y-186866666D03*
X248062500Y-187266666D03*
X248062500Y-187666666D03*
X248062500Y-188066666D03*
X248062500Y-188466666D03*
X248062500Y-188866666D03*
X248062500Y-189266666D03*
D17*
X248800000Y-190004166D03*
X249200000Y-190004166D03*
X249600000Y-190004166D03*
X250000000Y-190004166D03*
X250400000Y-190004166D03*
X250800000Y-190004166D03*
X251200000Y-190004166D03*
D16*
X251937500Y-189266666D03*
X251937500Y-188866666D03*
X251937500Y-188466666D03*
X251937500Y-188066666D03*
X251937500Y-187666666D03*
X251937500Y-187266666D03*
X251937500Y-186866666D03*
D17*
X251200000Y-186129166D03*
X250800000Y-186129166D03*
X250400000Y-186129166D03*
X250000000Y-186129166D03*
X249600000Y-186129166D03*
X249200000Y-186129166D03*
X248800000Y-186129166D03*
D10*
X332500000Y-185000000D03*
X334075000Y-185000000D03*
X317500000Y-140000000D03*
X319075000Y-140000000D03*
X302500000Y-200000000D03*
X304075000Y-200000000D03*
X337500000Y-125000000D03*
X339075000Y-125000000D03*
X317500000Y-160000000D03*
X319075000Y-160000000D03*
X292500000Y-295000000D03*
X294075000Y-295000000D03*
X347500000Y-165000000D03*
X349075000Y-165000000D03*
X342500000Y-115000000D03*
X344075000Y-115000000D03*
X362500000Y-165000000D03*
X364075000Y-165000000D03*
X332500000Y-170000000D03*
X334075000Y-170000000D03*
X357500000Y-160000000D03*
X359075000Y-160000000D03*
X297500000Y-290000000D03*
X299075000Y-290000000D03*
X327500000Y-110000000D03*
X329075000Y-110000000D03*
X347500000Y-95000000D03*
X349075000Y-95000000D03*
X292500000Y-225000000D03*
X294075000Y-225000000D03*
X282500000Y-315000000D03*
X284075000Y-315000000D03*
X347500000Y-125000000D03*
X349075000Y-125000000D03*
X307500000Y-320000000D03*
X309075000Y-320000000D03*
X312500000Y-160000000D03*
X314075000Y-160000000D03*
X312500000Y-285000000D03*
X314075000Y-285000000D03*
X312500000Y-205000000D03*
X314075000Y-205000000D03*
X302500000Y-220000000D03*
X304075000Y-220000000D03*
X357500000Y-125000000D03*
X359075000Y-125000000D03*
X312500000Y-265000000D03*
X314075000Y-265000000D03*
X332500000Y-195000000D03*
X334075000Y-195000000D03*
X317500000Y-165000000D03*
X319075000Y-165000000D03*
X337500000Y-205000000D03*
X339075000Y-205000000D03*
X312500000Y-190000000D03*
X314075000Y-190000000D03*
X367500000Y-145000000D03*
X369075000Y-145000000D03*
X312500000Y-200000000D03*
X314075000Y-200000000D03*
X307500000Y-195000000D03*
X309075000Y-195000000D03*
X302500000Y-230000000D03*
X304075000Y-230000000D03*
X352500000Y-120000000D03*
X354075000Y-120000000D03*
X332500000Y-155000000D03*
X334075000Y-155000000D03*
X317500000Y-310000000D03*
X319075000Y-310000000D03*
D14*
X238000000Y-184520000D03*
X238000000Y-185480000D03*
D10*
X327500000Y-135000000D03*
X329075000Y-135000000D03*
X357500000Y-120000000D03*
X359075000Y-120000000D03*
X307500000Y-280000000D03*
X309075000Y-280000000D03*
X322500000Y-195000000D03*
X324075000Y-195000000D03*
X327500000Y-105000000D03*
X329075000Y-105000000D03*
X347500000Y-105000000D03*
X349075000Y-105000000D03*
X282500000Y-275000000D03*
X284075000Y-275000000D03*
X312500000Y-300000000D03*
X314075000Y-300000000D03*
X312500000Y-225000000D03*
X314075000Y-225000000D03*
X307500000Y-315000000D03*
X309075000Y-315000000D03*
X282500000Y-295000000D03*
X284075000Y-295000000D03*
X307500000Y-285000000D03*
X309075000Y-285000000D03*
D15*
X249425000Y-245558332D03*
X249425000Y-246708332D03*
X250575000Y-245558332D03*
X250575000Y-246708332D03*
D16*
X248062500Y-244933332D03*
X248062500Y-245333332D03*
X248062500Y-245733332D03*
X248062500Y-246133332D03*
X248062500Y-246533332D03*
X248062500Y-246933332D03*
X248062500Y-247333332D03*
D17*
X248800000Y-248070832D03*
X249200000Y-248070832D03*
X249600000Y-248070832D03*
X250000000Y-248070832D03*
X250400000Y-248070832D03*
X250800000Y-248070832D03*
X251200000Y-248070832D03*
D16*
X251937500Y-247333332D03*
X251937500Y-246933332D03*
X251937500Y-246533332D03*
X251937500Y-246133332D03*
X251937500Y-245733332D03*
X251937500Y-245333332D03*
X251937500Y-244933332D03*
D17*
X251200000Y-244195832D03*
X250800000Y-244195832D03*
X250400000Y-244195832D03*
X250000000Y-244195832D03*
X249600000Y-244195832D03*
X249200000Y-244195832D03*
X248800000Y-244195832D03*
D10*
X327500000Y-155000000D03*
X329075000Y-155000000D03*
X287500000Y-245000000D03*
X289075000Y-245000000D03*
X367500000Y-140000000D03*
X369075000Y-140000000D03*
X317500000Y-295000000D03*
X319075000Y-295000000D03*
X297500000Y-210000000D03*
X299075000Y-210000000D03*
X292500000Y-310000000D03*
X294075000Y-310000000D03*
X302500000Y-215000000D03*
X304075000Y-215000000D03*
X302500000Y-320000000D03*
X304075000Y-320000000D03*
X342500000Y-185000000D03*
X344075000Y-185000000D03*
X297500000Y-195000000D03*
X299075000Y-195000000D03*
X277500000Y-290000000D03*
X279075000Y-290000000D03*
X327500000Y-295000000D03*
X329075000Y-295000000D03*
X297500000Y-170000000D03*
X299075000Y-170000000D03*
X332500000Y-255000000D03*
X334075000Y-255000000D03*
X352500000Y-165000000D03*
X354075000Y-165000000D03*
X312500000Y-275000000D03*
X314075000Y-275000000D03*
X322500000Y-225000000D03*
X324075000Y-225000000D03*
X322500000Y-190000000D03*
X324075000Y-190000000D03*
X337500000Y-285000000D03*
X339075000Y-285000000D03*
X317500000Y-195000000D03*
X319075000Y-195000000D03*
X322500000Y-125000000D03*
X324075000Y-125000000D03*
X342500000Y-175000000D03*
X344075000Y-175000000D03*
X297500000Y-240000000D03*
X299075000Y-240000000D03*
X287500000Y-260000000D03*
X289075000Y-260000000D03*
X342500000Y-165000000D03*
X344075000Y-165000000D03*
X317500000Y-225000000D03*
X319075000Y-225000000D03*
X322500000Y-280000000D03*
X324075000Y-280000000D03*
X342500000Y-160000000D03*
X344075000Y-160000000D03*
X327500000Y-305000000D03*
X329075000Y-305000000D03*
X332500000Y-145000000D03*
X334075000Y-145000000D03*
X277500000Y-275000000D03*
X279075000Y-275000000D03*
X347500000Y-195000000D03*
X349075000Y-195000000D03*
X322500000Y-185000000D03*
X324075000Y-185000000D03*
X352500000Y-155000000D03*
X354075000Y-155000000D03*
X317500000Y-200000000D03*
X319075000Y-200000000D03*
X297500000Y-180000000D03*
X299075000Y-180000000D03*
X297500000Y-245000000D03*
X299075000Y-245000000D03*
X347500000Y-120000000D03*
X349075000Y-120000000D03*
X297500000Y-305000000D03*
X299075000Y-305000000D03*
X317500000Y-125000000D03*
X319075000Y-125000000D03*
X327500000Y-195000000D03*
X329075000Y-195000000D03*
X362500000Y-120000000D03*
X364075000Y-120000000D03*
X282500000Y-230000000D03*
X284075000Y-230000000D03*
X337500000Y-195000000D03*
X339075000Y-195000000D03*
D14*
X245000000Y-242586666D03*
X245000000Y-243546666D03*
X238000000Y-300653334D03*
X238000000Y-301613334D03*
D10*
X277500000Y-215000000D03*
X279075000Y-215000000D03*
X352500000Y-115000000D03*
X354075000Y-115000000D03*
X297500000Y-220000000D03*
X299075000Y-220000000D03*
X287500000Y-205000000D03*
X289075000Y-205000000D03*
X317500000Y-185000000D03*
X319075000Y-185000000D03*
X312500000Y-305000000D03*
X314075000Y-305000000D03*
X282500000Y-225000000D03*
X284075000Y-225000000D03*
X317500000Y-115000000D03*
X319075000Y-115000000D03*
X337500000Y-105000000D03*
X339075000Y-105000000D03*
X287500000Y-305000000D03*
X289075000Y-305000000D03*
X352500000Y-95000000D03*
X354075000Y-95000000D03*
X277500000Y-205000000D03*
X279075000Y-205000000D03*
X327500000Y-160000000D03*
X329075000Y-160000000D03*
X287500000Y-250000000D03*
X289075000Y-250000000D03*
X307500000Y-145000000D03*
X309075000Y-145000000D03*
X282500000Y-195000000D03*
X284075000Y-195000000D03*
X352500000Y-180000000D03*
X354075000Y-180000000D03*
X287500000Y-210000000D03*
X289075000Y-210000000D03*
D14*
X241500000Y-184520000D03*
X241500000Y-185480000D03*
D10*
X352500000Y-105000000D03*
X354075000Y-105000000D03*
X352500000Y-130000000D03*
X354075000Y-130000000D03*
X302500000Y-245000000D03*
X304075000Y-245000000D03*
X277500000Y-295000000D03*
X279075000Y-295000000D03*
X312500000Y-250000000D03*
X314075000Y-250000000D03*
X327500000Y-170000000D03*
X329075000Y-170000000D03*
D18*
X222825000Y-295000000D03*
X221175000Y-295000000D03*
D10*
X332500000Y-265000000D03*
X334075000Y-265000000D03*
X297500000Y-260000000D03*
X299075000Y-260000000D03*
X307500000Y-190000000D03*
X309075000Y-190000000D03*
X312500000Y-315000000D03*
X314075000Y-315000000D03*
X332500000Y-295000000D03*
X334075000Y-295000000D03*
X302500000Y-185000000D03*
X304075000Y-185000000D03*
X342500000Y-135000000D03*
X344075000Y-135000000D03*
M02*
