%TF.GenerationSoftware,KiCad,Pcbnew,7.0.9*%
%TF.CreationDate,2025-01-02T12:43:33+01:00*%
%TF.ProjectId,lightning-map,6c696768-746e-4696-9e67-2d6d61702e6b,rev?*%
%TF.SameCoordinates,Original*%
%TF.FileFunction,Drillmap*%
%TF.FilePolarity,Positive*%
%FSLAX45Y45*%
G04 Gerber Fmt 4.5, Leading zero omitted, Abs format (unit mm)*
G04 Created by KiCad (PCBNEW 7.0.9) date 2025-01-02 12:43:33*
%MOMM*%
%LPD*%
G01*
G04 APERTURE LIST*
%ADD10C,0.100000*%
%ADD11C,0.200000*%
G04 APERTURE END LIST*
D10*
X20750000Y-33900000D02*
X38500000Y-33900000D01*
X20750000Y-8100000D02*
X20750000Y-33900000D01*
X38500000Y-33900000D02*
X38500000Y-8100000D01*
X38500000Y-8100000D02*
X20750000Y-8100000D01*
D11*
X21005777Y-34216484D02*
X21005777Y-34016484D01*
X21005777Y-34016484D02*
X21053396Y-34016484D01*
X21053396Y-34016484D02*
X21081967Y-34026008D01*
X21081967Y-34026008D02*
X21101015Y-34045055D01*
X21101015Y-34045055D02*
X21110539Y-34064103D01*
X21110539Y-34064103D02*
X21120063Y-34102198D01*
X21120063Y-34102198D02*
X21120063Y-34130770D01*
X21120063Y-34130770D02*
X21110539Y-34168865D01*
X21110539Y-34168865D02*
X21101015Y-34187912D01*
X21101015Y-34187912D02*
X21081967Y-34206960D01*
X21081967Y-34206960D02*
X21053396Y-34216484D01*
X21053396Y-34216484D02*
X21005777Y-34216484D01*
X21205777Y-34216484D02*
X21205777Y-34083150D01*
X21205777Y-34121246D02*
X21215301Y-34102198D01*
X21215301Y-34102198D02*
X21224824Y-34092674D01*
X21224824Y-34092674D02*
X21243872Y-34083150D01*
X21243872Y-34083150D02*
X21262920Y-34083150D01*
X21329586Y-34216484D02*
X21329586Y-34083150D01*
X21329586Y-34016484D02*
X21320063Y-34026008D01*
X21320063Y-34026008D02*
X21329586Y-34035531D01*
X21329586Y-34035531D02*
X21339110Y-34026008D01*
X21339110Y-34026008D02*
X21329586Y-34016484D01*
X21329586Y-34016484D02*
X21329586Y-34035531D01*
X21453396Y-34216484D02*
X21434348Y-34206960D01*
X21434348Y-34206960D02*
X21424824Y-34187912D01*
X21424824Y-34187912D02*
X21424824Y-34016484D01*
X21558158Y-34216484D02*
X21539110Y-34206960D01*
X21539110Y-34206960D02*
X21529586Y-34187912D01*
X21529586Y-34187912D02*
X21529586Y-34016484D01*
X21786729Y-34216484D02*
X21786729Y-34016484D01*
X21786729Y-34016484D02*
X21853396Y-34159341D01*
X21853396Y-34159341D02*
X21920063Y-34016484D01*
X21920063Y-34016484D02*
X21920063Y-34216484D01*
X22101015Y-34216484D02*
X22101015Y-34111722D01*
X22101015Y-34111722D02*
X22091491Y-34092674D01*
X22091491Y-34092674D02*
X22072444Y-34083150D01*
X22072444Y-34083150D02*
X22034348Y-34083150D01*
X22034348Y-34083150D02*
X22015301Y-34092674D01*
X22101015Y-34206960D02*
X22081967Y-34216484D01*
X22081967Y-34216484D02*
X22034348Y-34216484D01*
X22034348Y-34216484D02*
X22015301Y-34206960D01*
X22015301Y-34206960D02*
X22005777Y-34187912D01*
X22005777Y-34187912D02*
X22005777Y-34168865D01*
X22005777Y-34168865D02*
X22015301Y-34149817D01*
X22015301Y-34149817D02*
X22034348Y-34140293D01*
X22034348Y-34140293D02*
X22081967Y-34140293D01*
X22081967Y-34140293D02*
X22101015Y-34130770D01*
X22196253Y-34083150D02*
X22196253Y-34283150D01*
X22196253Y-34092674D02*
X22215301Y-34083150D01*
X22215301Y-34083150D02*
X22253396Y-34083150D01*
X22253396Y-34083150D02*
X22272444Y-34092674D01*
X22272444Y-34092674D02*
X22281967Y-34102198D01*
X22281967Y-34102198D02*
X22291491Y-34121246D01*
X22291491Y-34121246D02*
X22291491Y-34178389D01*
X22291491Y-34178389D02*
X22281967Y-34197436D01*
X22281967Y-34197436D02*
X22272444Y-34206960D01*
X22272444Y-34206960D02*
X22253396Y-34216484D01*
X22253396Y-34216484D02*
X22215301Y-34216484D01*
X22215301Y-34216484D02*
X22196253Y-34206960D01*
X22377205Y-34197436D02*
X22386729Y-34206960D01*
X22386729Y-34206960D02*
X22377205Y-34216484D01*
X22377205Y-34216484D02*
X22367682Y-34206960D01*
X22367682Y-34206960D02*
X22377205Y-34197436D01*
X22377205Y-34197436D02*
X22377205Y-34216484D01*
X22377205Y-34092674D02*
X22386729Y-34102198D01*
X22386729Y-34102198D02*
X22377205Y-34111722D01*
X22377205Y-34111722D02*
X22367682Y-34102198D01*
X22367682Y-34102198D02*
X22377205Y-34092674D01*
X22377205Y-34092674D02*
X22377205Y-34111722D01*
M02*
