%TF.GenerationSoftware,KiCad,Pcbnew,7.0.9*%
%TF.CreationDate,2025-01-02T12:43:33+01:00*%
%TF.ProjectId,lightning-map,6c696768-746e-4696-9e67-2d6d61702e6b,rev?*%
%TF.SameCoordinates,Original*%
%TF.FileFunction,Drillmap*%
%TF.FilePolarity,Positive*%
%FSLAX45Y45*%
G04 Gerber Fmt 4.5, Leading zero omitted, Abs format (unit mm)*
G04 Created by KiCad (PCBNEW 7.0.9) date 2025-01-02 12:43:33*
%MOMM*%
%LPD*%
G01*
G04 APERTURE LIST*
%ADD10C,0.100000*%
%ADD11C,0.200000*%
%ADD12C,0.152000*%
G04 APERTURE END LIST*
D10*
X20750000Y-33900000D02*
X38500000Y-33900000D01*
X20750000Y-8100000D02*
X20750000Y-33900000D01*
X38500000Y-33900000D02*
X38500000Y-8100000D01*
X38500000Y-8100000D02*
X20750000Y-8100000D01*
D11*
D10*
X21935000Y-29480000D02*
X21975000Y-29520000D01*
X21975000Y-29480000D02*
X21935000Y-29520000D01*
X21935000Y-29980000D02*
X21975000Y-30020000D01*
X21975000Y-29980000D02*
X21935000Y-30020000D01*
X22375000Y-29980000D02*
X22415000Y-30020000D01*
X22415000Y-29980000D02*
X22375000Y-30020000D01*
X22380000Y-30480000D02*
X22420000Y-30520000D01*
X22420000Y-30480000D02*
X22380000Y-30520000D01*
X22395000Y-29480000D02*
X22435000Y-29520000D01*
X22435000Y-29480000D02*
X22395000Y-29520000D01*
X22480000Y-11420000D02*
X22520000Y-11460000D01*
X22520000Y-11420000D02*
X22480000Y-11460000D01*
X22480000Y-18535000D02*
X22520000Y-18575000D01*
X22520000Y-18535000D02*
X22480000Y-18575000D01*
X22480000Y-24345000D02*
X22520000Y-24385000D01*
X22520000Y-24345000D02*
X22480000Y-24385000D01*
X22480000Y-30130000D02*
X22520000Y-30170000D01*
X22520000Y-30130000D02*
X22480000Y-30170000D01*
X22988000Y-18680000D02*
X23028000Y-18720000D01*
X23028000Y-18680000D02*
X22988000Y-18720000D01*
X22988000Y-24495000D02*
X23028000Y-24535000D01*
X23028000Y-24495000D02*
X22988000Y-24535000D01*
X22988000Y-30290000D02*
X23028000Y-30330000D01*
X23028000Y-30290000D02*
X22988000Y-30330000D01*
X22990000Y-11415000D02*
X23030000Y-11455000D01*
X23030000Y-11415000D02*
X22990000Y-11455000D01*
X23496000Y-18835000D02*
X23536000Y-18875000D01*
X23536000Y-18835000D02*
X23496000Y-18875000D01*
X23496000Y-24625000D02*
X23536000Y-24665000D01*
X23536000Y-24625000D02*
X23496000Y-24665000D01*
X23496000Y-29980000D02*
X23536000Y-30020000D01*
X23536000Y-29980000D02*
X23496000Y-30020000D01*
X23496000Y-30430000D02*
X23536000Y-30470000D01*
X23536000Y-30430000D02*
X23496000Y-30470000D01*
X23560000Y-13875000D02*
X23600000Y-13915000D01*
X23600000Y-13875000D02*
X23560000Y-13915000D01*
X23585000Y-29480000D02*
X23625000Y-29520000D01*
X23625000Y-29480000D02*
X23585000Y-29520000D01*
X23655000Y-12625000D02*
X23695000Y-12665000D01*
X23695000Y-12625000D02*
X23655000Y-12665000D01*
X23655000Y-12795000D02*
X23695000Y-12835000D01*
X23695000Y-12795000D02*
X23655000Y-12835000D01*
X23655000Y-18430000D02*
X23695000Y-18470000D01*
X23695000Y-18430000D02*
X23655000Y-18470000D01*
X23655000Y-18606517D02*
X23695000Y-18646517D01*
X23695000Y-18606517D02*
X23655000Y-18646517D01*
X23655000Y-24240000D02*
X23695000Y-24280000D01*
X23695000Y-24240000D02*
X23655000Y-24280000D01*
X23655000Y-24420000D02*
X23695000Y-24460000D01*
X23695000Y-24420000D02*
X23655000Y-24460000D01*
X23655000Y-30045000D02*
X23695000Y-30085000D01*
X23695000Y-30045000D02*
X23655000Y-30085000D01*
X23655000Y-30220000D02*
X23695000Y-30260000D01*
X23695000Y-30220000D02*
X23655000Y-30260000D01*
X23690000Y-18816617D02*
X23730000Y-18856617D01*
X23730000Y-18816617D02*
X23690000Y-18856617D01*
X23690000Y-24623283D02*
X23730000Y-24663283D01*
X23730000Y-24623283D02*
X23690000Y-24663283D01*
X23690000Y-30429950D02*
X23730000Y-30469950D01*
X23730000Y-30429950D02*
X23690000Y-30469950D01*
X23885000Y-13695000D02*
X23925000Y-13735000D01*
X23925000Y-13695000D02*
X23885000Y-13735000D01*
X24060000Y-13650000D02*
X24100000Y-13690000D01*
X24100000Y-13650000D02*
X24060000Y-13690000D01*
X24270000Y-13440000D02*
X24310000Y-13480000D01*
X24310000Y-13440000D02*
X24270000Y-13480000D01*
X24480000Y-13795000D02*
X24520000Y-13835000D01*
X24520000Y-13795000D02*
X24480000Y-13835000D01*
X24480000Y-19630000D02*
X24520000Y-19670000D01*
X24520000Y-19630000D02*
X24480000Y-19670000D01*
X24580000Y-25430000D02*
X24620000Y-25470000D01*
X24620000Y-25430000D02*
X24580000Y-25470000D01*
X24580000Y-31245000D02*
X24620000Y-31285000D01*
X24620000Y-31245000D02*
X24580000Y-31285000D01*
X24605000Y-19000000D02*
X24645000Y-19040000D01*
X24645000Y-19000000D02*
X24605000Y-19040000D01*
X24700000Y-24840000D02*
X24740000Y-24880000D01*
X24740000Y-24840000D02*
X24700000Y-24880000D01*
X24712500Y-18237500D02*
X24752500Y-18277500D01*
X24752500Y-18237500D02*
X24712500Y-18277500D01*
X24720000Y-24270000D02*
X24760000Y-24310000D01*
X24760000Y-24270000D02*
X24720000Y-24310000D01*
X24795746Y-12259553D02*
X24835746Y-12299553D01*
X24835746Y-12259553D02*
X24795746Y-12299553D01*
X24809563Y-30071659D02*
X24849563Y-30111659D01*
X24849563Y-30071659D02*
X24809563Y-30111659D01*
X24835000Y-29975000D02*
X24875000Y-30015000D01*
X24875000Y-29975000D02*
X24835000Y-30015000D01*
X24860000Y-29840000D02*
X24900000Y-29880000D01*
X24900000Y-29840000D02*
X24860000Y-29880000D01*
X24876649Y-18086649D02*
X24916649Y-18126649D01*
X24916649Y-18086649D02*
X24876649Y-18126649D01*
X24895149Y-12270000D02*
X24935149Y-12310000D01*
X24935149Y-12270000D02*
X24895149Y-12310000D01*
X24945906Y-25335000D02*
X24985906Y-25375000D01*
X24985906Y-25335000D02*
X24945906Y-25375000D01*
X24953048Y-19201952D02*
X24993048Y-19241952D01*
X24993048Y-19201952D02*
X24953048Y-19241952D01*
X24995099Y-12270000D02*
X25035099Y-12310000D01*
X25035099Y-12270000D02*
X24995099Y-12310000D01*
X25048611Y-18013611D02*
X25088611Y-18053611D01*
X25088611Y-18013611D02*
X25048611Y-18053611D01*
X25095050Y-12270000D02*
X25135050Y-12310000D01*
X25135050Y-12270000D02*
X25095050Y-12310000D01*
X25114915Y-25405085D02*
X25154915Y-25445085D01*
X25154915Y-25405085D02*
X25114915Y-25445085D01*
X25150000Y-23875000D02*
X25190000Y-23915000D01*
X25190000Y-23875000D02*
X25150000Y-23915000D01*
X25195000Y-12270000D02*
X25235000Y-12310000D01*
X25235000Y-12270000D02*
X25195000Y-12310000D01*
X25215000Y-29710000D02*
X25255000Y-29750000D01*
X25255000Y-29710000D02*
X25215000Y-29750000D01*
X25225538Y-17935538D02*
X25265538Y-17975538D01*
X25265538Y-17935538D02*
X25225538Y-17975538D01*
X25250240Y-23880507D02*
X25290240Y-23920507D01*
X25290240Y-23880507D02*
X25250240Y-23920507D01*
X25295186Y-12271965D02*
X25335186Y-12311965D01*
X25335186Y-12271965D02*
X25295186Y-12311965D01*
X25305000Y-31610000D02*
X25345000Y-31650000D01*
X25345000Y-31610000D02*
X25305000Y-31650000D01*
X25310000Y-30885000D02*
X25350000Y-30925000D01*
X25350000Y-30885000D02*
X25310000Y-30925000D01*
X25310000Y-30985000D02*
X25350000Y-31025000D01*
X25350000Y-30985000D02*
X25310000Y-31025000D01*
X25310000Y-31090000D02*
X25350000Y-31130000D01*
X25350000Y-31090000D02*
X25310000Y-31130000D01*
X25310000Y-31195000D02*
X25350000Y-31235000D01*
X25350000Y-31195000D02*
X25310000Y-31235000D01*
X25310000Y-31295000D02*
X25350000Y-31335000D01*
X25350000Y-31295000D02*
X25310000Y-31335000D01*
X25310000Y-31400000D02*
X25350000Y-31440000D01*
X25350000Y-31400000D02*
X25310000Y-31440000D01*
X25310000Y-31505000D02*
X25350000Y-31545000D01*
X25350000Y-31505000D02*
X25310000Y-31545000D01*
X25315000Y-29710000D02*
X25355000Y-29750000D01*
X25355000Y-29710000D02*
X25315000Y-29750000D01*
X25350188Y-23879747D02*
X25390188Y-23919747D01*
X25390188Y-23879747D02*
X25350188Y-23919747D01*
X25375509Y-14064800D02*
X25415509Y-14104800D01*
X25415509Y-14064800D02*
X25375509Y-14104800D01*
X25380000Y-13560000D02*
X25420000Y-13600000D01*
X25420000Y-13560000D02*
X25380000Y-13600000D01*
X25380000Y-13659950D02*
X25420000Y-13699950D01*
X25420000Y-13659950D02*
X25380000Y-13699950D01*
X25380000Y-13865000D02*
X25420000Y-13905000D01*
X25420000Y-13865000D02*
X25380000Y-13905000D01*
X25380000Y-13964950D02*
X25420000Y-14004950D01*
X25420000Y-13964950D02*
X25380000Y-14004950D01*
X25383069Y-13761944D02*
X25423069Y-13801944D01*
X25423069Y-13761944D02*
X25383069Y-13801944D01*
X25398038Y-12268038D02*
X25438038Y-12308038D01*
X25438038Y-12268038D02*
X25398038Y-12308038D01*
X25404462Y-24464462D02*
X25444462Y-24504462D01*
X25444462Y-24464462D02*
X25404462Y-24504462D01*
X25405000Y-29630000D02*
X25445000Y-29670000D01*
X25445000Y-29630000D02*
X25405000Y-29670000D01*
X25425000Y-30225000D02*
X25465000Y-30265000D01*
X25465000Y-30225000D02*
X25425000Y-30265000D01*
X25450000Y-23885000D02*
X25490000Y-23925000D01*
X25490000Y-23885000D02*
X25450000Y-23925000D01*
X25470000Y-13320000D02*
X25510000Y-13360000D01*
X25510000Y-13320000D02*
X25470000Y-13360000D01*
X25490000Y-30730000D02*
X25530000Y-30770000D01*
X25530000Y-30730000D02*
X25490000Y-30770000D01*
X25497938Y-12271201D02*
X25537938Y-12311201D01*
X25537938Y-12271201D02*
X25497938Y-12311201D01*
X25505000Y-12830000D02*
X25545000Y-12870000D01*
X25545000Y-12830000D02*
X25505000Y-12870000D01*
X25505000Y-18625000D02*
X25545000Y-18665000D01*
X25545000Y-18625000D02*
X25505000Y-18665000D01*
X25534462Y-30314462D02*
X25574462Y-30354462D01*
X25574462Y-30314462D02*
X25534462Y-30354462D01*
X25547500Y-25592500D02*
X25587500Y-25632500D01*
X25587500Y-25592500D02*
X25547500Y-25632500D01*
X25555000Y-25485000D02*
X25595000Y-25525000D01*
X25595000Y-25485000D02*
X25555000Y-25525000D01*
X25595000Y-30155000D02*
X25635000Y-30195000D01*
X25635000Y-30155000D02*
X25595000Y-30195000D01*
X25600502Y-17860503D02*
X25640502Y-17900503D01*
X25640502Y-17860503D02*
X25600502Y-17900503D01*
X25610000Y-24955000D02*
X25650000Y-24995000D01*
X25650000Y-24955000D02*
X25610000Y-24995000D01*
X25630000Y-12580000D02*
X25670000Y-12620000D01*
X25670000Y-12580000D02*
X25630000Y-12620000D01*
X25630000Y-24345000D02*
X25670000Y-24385000D01*
X25670000Y-24345000D02*
X25630000Y-24385000D01*
X25635000Y-18700000D02*
X25675000Y-18740000D01*
X25675000Y-18700000D02*
X25635000Y-18740000D01*
X25635000Y-24465000D02*
X25675000Y-24505000D01*
X25675000Y-24465000D02*
X25635000Y-24505000D01*
X25645000Y-19300000D02*
X25685000Y-19340000D01*
X25685000Y-19300000D02*
X25645000Y-19340000D01*
X25660000Y-29555000D02*
X25700000Y-29595000D01*
X25700000Y-29555000D02*
X25660000Y-29595000D01*
X25665000Y-23800000D02*
X25705000Y-23840000D01*
X25705000Y-23800000D02*
X25665000Y-23840000D01*
X25670000Y-12760000D02*
X25710000Y-12800000D01*
X25710000Y-12760000D02*
X25670000Y-12800000D01*
X25675000Y-18550000D02*
X25715000Y-18590000D01*
X25715000Y-18550000D02*
X25675000Y-18590000D01*
X25675594Y-24556336D02*
X25715594Y-24596336D01*
X25715594Y-24556336D02*
X25675594Y-24596336D01*
X25695000Y-12870000D02*
X25735000Y-12910000D01*
X25735000Y-12870000D02*
X25695000Y-12910000D01*
X25702500Y-17857500D02*
X25742500Y-17897500D01*
X25742500Y-17857500D02*
X25702500Y-17897500D01*
X25750000Y-18730000D02*
X25790000Y-18770000D01*
X25790000Y-18730000D02*
X25750000Y-18770000D01*
X25818481Y-19374557D02*
X25858481Y-19414557D01*
X25858481Y-19374557D02*
X25818481Y-19414557D01*
X25882599Y-23702401D02*
X25922599Y-23742401D01*
X25922599Y-23702401D02*
X25882599Y-23742401D01*
X25940000Y-19444507D02*
X25980000Y-19484507D01*
X25980000Y-19444507D02*
X25940000Y-19484507D01*
X26070000Y-23785000D02*
X26110000Y-23825000D01*
X26110000Y-23785000D02*
X26070000Y-23825000D01*
X26142500Y-29395050D02*
X26182500Y-29435050D01*
X26182500Y-29395050D02*
X26142500Y-29435050D01*
X26200000Y-17360000D02*
X26240000Y-17400000D01*
X26240000Y-17360000D02*
X26200000Y-17400000D01*
X26225000Y-19515000D02*
X26265000Y-19555000D01*
X26265000Y-19515000D02*
X26225000Y-19555000D01*
X26315000Y-19585000D02*
X26355000Y-19625000D01*
X26355000Y-19585000D02*
X26315000Y-19625000D01*
X26425000Y-17205000D02*
X26465000Y-17245000D01*
X26465000Y-17205000D02*
X26425000Y-17245000D01*
X26625000Y-19660000D02*
X26665000Y-19700000D01*
X26665000Y-19660000D02*
X26625000Y-19700000D01*
X26705000Y-19730000D02*
X26745000Y-19770000D01*
X26745000Y-19730000D02*
X26705000Y-19770000D01*
X26775000Y-29849900D02*
X26815000Y-29889900D01*
X26815000Y-29849900D02*
X26775000Y-29889900D01*
X26818924Y-26650000D02*
X26858924Y-26690000D01*
X26858924Y-26650000D02*
X26818924Y-26690000D01*
X26860000Y-23100000D02*
X26900000Y-23140000D01*
X26900000Y-23100000D02*
X26860000Y-23140000D01*
X26875000Y-14820000D02*
X26915000Y-14860000D01*
X26915000Y-14820000D02*
X26875000Y-14860000D01*
X26905000Y-17060050D02*
X26945000Y-17100050D01*
X26945000Y-17060050D02*
X26905000Y-17100050D01*
X26980000Y-26780000D02*
X27020000Y-26820000D01*
X27020000Y-26780000D02*
X26980000Y-26820000D01*
X26995000Y-26580000D02*
X27035000Y-26620000D01*
X27035000Y-26580000D02*
X26995000Y-26620000D01*
X27055000Y-15110000D02*
X27095000Y-15150000D01*
X27095000Y-15110000D02*
X27055000Y-15150000D01*
X27075000Y-26120000D02*
X27115000Y-26160000D01*
X27115000Y-26120000D02*
X27075000Y-26160000D01*
X27075000Y-27710000D02*
X27115000Y-27750000D01*
X27115000Y-27710000D02*
X27075000Y-27750000D01*
X27230000Y-27260675D02*
X27270000Y-27300675D01*
X27270000Y-27260675D02*
X27230000Y-27300675D01*
X27230000Y-27710000D02*
X27270000Y-27750000D01*
X27270000Y-27710000D02*
X27230000Y-27750000D01*
X27230000Y-28730000D02*
X27270000Y-28770000D01*
X27270000Y-28730000D02*
X27230000Y-28770000D01*
X27230000Y-29710000D02*
X27270000Y-29750000D01*
X27270000Y-29710000D02*
X27230000Y-29750000D01*
X27390000Y-26340000D02*
X27430000Y-26380000D01*
X27430000Y-26340000D02*
X27390000Y-26380000D01*
X27470000Y-25650000D02*
X27510000Y-25690000D01*
X27510000Y-25650000D02*
X27470000Y-25690000D01*
X27540000Y-26780000D02*
X27580000Y-26820000D01*
X27580000Y-26780000D02*
X27540000Y-26820000D01*
X27560000Y-20210000D02*
X27600000Y-20250000D01*
X27600000Y-20210000D02*
X27560000Y-20250000D01*
X27600000Y-24099950D02*
X27640000Y-24139950D01*
X27640000Y-24099950D02*
X27600000Y-24139950D01*
X27630000Y-29300000D02*
X27670000Y-29340000D01*
X27670000Y-29300000D02*
X27630000Y-29340000D01*
X27650000Y-19840000D02*
X27690000Y-19880000D01*
X27690000Y-19840000D02*
X27650000Y-19880000D01*
X27660000Y-26580000D02*
X27700000Y-26620000D01*
X27700000Y-26580000D02*
X27660000Y-26620000D01*
X27690000Y-30700000D02*
X27730000Y-30740000D01*
X27730000Y-30700000D02*
X27690000Y-30740000D01*
X27730000Y-20120000D02*
X27770000Y-20160000D01*
X27770000Y-20120000D02*
X27730000Y-20160000D01*
X27730000Y-23089324D02*
X27770000Y-23129324D01*
X27770000Y-23089324D02*
X27730000Y-23129324D01*
X27730000Y-26340000D02*
X27770000Y-26380000D01*
X27770000Y-26340000D02*
X27730000Y-26380000D01*
X27730000Y-27260675D02*
X27770000Y-27300675D01*
X27770000Y-27260675D02*
X27730000Y-27300675D01*
X27730000Y-27710000D02*
X27770000Y-27750000D01*
X27770000Y-27710000D02*
X27730000Y-27750000D01*
X27730000Y-28730000D02*
X27770000Y-28770000D01*
X27770000Y-28730000D02*
X27730000Y-28770000D01*
X27730000Y-29630000D02*
X27770000Y-29670000D01*
X27770000Y-29630000D02*
X27730000Y-29670000D01*
X27800000Y-21690000D02*
X27840000Y-21730000D01*
X27840000Y-21690000D02*
X27800000Y-21730000D01*
X27800000Y-29710000D02*
X27840000Y-29750000D01*
X27840000Y-29710000D02*
X27800000Y-29750000D01*
X27840000Y-22700000D02*
X27880000Y-22740000D01*
X27880000Y-22700000D02*
X27840000Y-22740000D01*
X27887500Y-21840000D02*
X27927500Y-21880000D01*
X27927500Y-21840000D02*
X27887500Y-21880000D01*
X27890000Y-19132229D02*
X27930000Y-19172229D01*
X27930000Y-19132229D02*
X27890000Y-19172229D01*
X27890000Y-20690000D02*
X27930000Y-20730000D01*
X27930000Y-20690000D02*
X27890000Y-20730000D01*
X27890000Y-26780000D02*
X27930000Y-26820000D01*
X27930000Y-26780000D02*
X27890000Y-26820000D01*
X27890000Y-27190000D02*
X27930000Y-27230000D01*
X27930000Y-27190000D02*
X27890000Y-27230000D01*
X27890000Y-29200000D02*
X27930000Y-29240000D01*
X27930000Y-29200000D02*
X27890000Y-29240000D01*
X27890000Y-30200000D02*
X27930000Y-30240000D01*
X27930000Y-30200000D02*
X27890000Y-30240000D01*
X27960000Y-23230000D02*
X28000000Y-23270000D01*
X28000000Y-23230000D02*
X27960000Y-23270000D01*
X27980000Y-29849950D02*
X28020000Y-29889950D01*
X28020000Y-29849950D02*
X27980000Y-29889950D01*
X28020000Y-23702401D02*
X28060000Y-23742401D01*
X28060000Y-23702401D02*
X28020000Y-23742401D01*
X28040000Y-26780000D02*
X28080000Y-26820000D01*
X28080000Y-26780000D02*
X28040000Y-26820000D01*
X28060000Y-29780000D02*
X28100000Y-29820000D01*
X28100000Y-29780000D02*
X28060000Y-29820000D01*
X28080000Y-20210000D02*
X28120000Y-20250000D01*
X28120000Y-20210000D02*
X28080000Y-20250000D01*
X28080000Y-23159324D02*
X28120000Y-23199324D01*
X28120000Y-23159324D02*
X28080000Y-23199324D01*
X28110000Y-26580000D02*
X28150000Y-26620000D01*
X28150000Y-26580000D02*
X28110000Y-26620000D01*
X28160000Y-23300000D02*
X28200000Y-23340000D01*
X28200000Y-23300000D02*
X28160000Y-23340000D01*
X28230000Y-19310000D02*
X28270000Y-19350000D01*
X28270000Y-19310000D02*
X28230000Y-19350000D01*
X28230000Y-20120000D02*
X28270000Y-20160000D01*
X28270000Y-20120000D02*
X28230000Y-20160000D01*
X28230000Y-20310000D02*
X28270000Y-20350000D01*
X28270000Y-20310000D02*
X28230000Y-20350000D01*
X28230000Y-21690000D02*
X28270000Y-21730000D01*
X28270000Y-21690000D02*
X28230000Y-21730000D01*
X28230000Y-21840000D02*
X28270000Y-21880000D01*
X28270000Y-21840000D02*
X28230000Y-21880000D01*
X28230000Y-23089324D02*
X28270000Y-23129324D01*
X28270000Y-23089324D02*
X28230000Y-23129324D01*
X28230000Y-24140000D02*
X28270000Y-24180000D01*
X28270000Y-24140000D02*
X28230000Y-24180000D01*
X28230000Y-25150000D02*
X28270000Y-25190000D01*
X28270000Y-25150000D02*
X28230000Y-25190000D01*
X28230000Y-25650000D02*
X28270000Y-25690000D01*
X28270000Y-25650000D02*
X28230000Y-25690000D01*
X28230000Y-26340000D02*
X28270000Y-26380000D01*
X28270000Y-26340000D02*
X28230000Y-26380000D01*
X28230000Y-27260675D02*
X28270000Y-27300675D01*
X28270000Y-27260675D02*
X28230000Y-27300675D01*
X28230000Y-27710000D02*
X28270000Y-27750000D01*
X28270000Y-27710000D02*
X28230000Y-27750000D01*
X28230000Y-28730000D02*
X28270000Y-28770000D01*
X28270000Y-28730000D02*
X28230000Y-28770000D01*
X28230000Y-29200000D02*
X28270000Y-29240000D01*
X28270000Y-29200000D02*
X28230000Y-29240000D01*
X28230000Y-29630000D02*
X28270000Y-29670000D01*
X28270000Y-29630000D02*
X28230000Y-29670000D01*
X28230000Y-30200000D02*
X28270000Y-30240000D01*
X28270000Y-30200000D02*
X28230000Y-30240000D01*
X28230000Y-30700000D02*
X28270000Y-30740000D01*
X28270000Y-30700000D02*
X28230000Y-30740000D01*
X28230000Y-31139462D02*
X28270000Y-31179462D01*
X28270000Y-31139462D02*
X28230000Y-31179462D01*
X28230000Y-32260000D02*
X28270000Y-32300000D01*
X28270000Y-32260000D02*
X28230000Y-32300000D01*
X28290000Y-19731402D02*
X28330000Y-19771402D01*
X28330000Y-19731402D02*
X28290000Y-19771402D01*
X28390000Y-19647229D02*
X28430000Y-19687229D01*
X28430000Y-19647229D02*
X28390000Y-19687229D01*
X28390000Y-24710000D02*
X28430000Y-24750000D01*
X28430000Y-24710000D02*
X28390000Y-24750000D01*
X28390000Y-28730000D02*
X28430000Y-28770000D01*
X28430000Y-28730000D02*
X28390000Y-28770000D01*
X28390000Y-29300000D02*
X28430000Y-29340000D01*
X28430000Y-29300000D02*
X28390000Y-29340000D01*
X28390000Y-32190000D02*
X28430000Y-32230000D01*
X28430000Y-32190000D02*
X28390000Y-32230000D01*
X28470000Y-26190000D02*
X28510000Y-26230000D01*
X28510000Y-26190000D02*
X28470000Y-26230000D01*
X28480000Y-19840000D02*
X28520000Y-19880000D01*
X28520000Y-19840000D02*
X28480000Y-19880000D01*
X28490000Y-22810000D02*
X28530000Y-22850000D01*
X28530000Y-22810000D02*
X28490000Y-22850000D01*
X28539462Y-23159462D02*
X28579462Y-23199462D01*
X28579462Y-23159462D02*
X28539462Y-23199462D01*
X28540000Y-30200000D02*
X28580000Y-30240000D01*
X28580000Y-30200000D02*
X28540000Y-30240000D01*
X28570000Y-20210000D02*
X28610000Y-20250000D01*
X28610000Y-20210000D02*
X28570000Y-20250000D01*
X28580000Y-26110000D02*
X28620000Y-26150000D01*
X28620000Y-26110000D02*
X28580000Y-26150000D01*
X28610000Y-19731402D02*
X28650000Y-19771402D01*
X28650000Y-19731402D02*
X28610000Y-19771402D01*
X28650000Y-29300000D02*
X28690000Y-29340000D01*
X28690000Y-29300000D02*
X28650000Y-29340000D01*
X28660000Y-26780000D02*
X28700000Y-26820000D01*
X28700000Y-26780000D02*
X28660000Y-26820000D01*
X28730000Y-19310000D02*
X28770000Y-19350000D01*
X28770000Y-19310000D02*
X28730000Y-19350000D01*
X28730000Y-20120000D02*
X28770000Y-20160000D01*
X28770000Y-20120000D02*
X28730000Y-20160000D01*
X28730000Y-20310000D02*
X28770000Y-20350000D01*
X28770000Y-20310000D02*
X28730000Y-20350000D01*
X28730000Y-21690000D02*
X28770000Y-21730000D01*
X28770000Y-21690000D02*
X28730000Y-21730000D01*
X28730000Y-21840000D02*
X28770000Y-21880000D01*
X28770000Y-21840000D02*
X28730000Y-21880000D01*
X28730000Y-23089324D02*
X28770000Y-23129324D01*
X28770000Y-23089324D02*
X28730000Y-23129324D01*
X28730000Y-23300000D02*
X28770000Y-23340000D01*
X28770000Y-23300000D02*
X28730000Y-23340000D01*
X28730000Y-23702401D02*
X28770000Y-23742401D01*
X28770000Y-23702401D02*
X28730000Y-23742401D01*
X28730000Y-24140000D02*
X28770000Y-24180000D01*
X28770000Y-24140000D02*
X28730000Y-24180000D01*
X28730000Y-25150000D02*
X28770000Y-25190000D01*
X28770000Y-25150000D02*
X28730000Y-25190000D01*
X28730000Y-25650000D02*
X28770000Y-25690000D01*
X28770000Y-25650000D02*
X28730000Y-25690000D01*
X28730000Y-26340000D02*
X28770000Y-26380000D01*
X28770000Y-26340000D02*
X28730000Y-26380000D01*
X28730000Y-26650000D02*
X28770000Y-26690000D01*
X28770000Y-26650000D02*
X28730000Y-26690000D01*
X28730000Y-27260675D02*
X28770000Y-27300675D01*
X28770000Y-27260675D02*
X28730000Y-27300675D01*
X28730000Y-27710000D02*
X28770000Y-27750000D01*
X28770000Y-27710000D02*
X28730000Y-27750000D01*
X28730000Y-28730000D02*
X28770000Y-28770000D01*
X28770000Y-28730000D02*
X28730000Y-28770000D01*
X28730000Y-29200000D02*
X28770000Y-29240000D01*
X28770000Y-29200000D02*
X28730000Y-29240000D01*
X28730000Y-29630000D02*
X28770000Y-29670000D01*
X28770000Y-29630000D02*
X28730000Y-29670000D01*
X28730000Y-31139462D02*
X28770000Y-31179462D01*
X28770000Y-31139462D02*
X28730000Y-31179462D01*
X28730000Y-32260000D02*
X28770000Y-32300000D01*
X28770000Y-32260000D02*
X28730000Y-32300000D01*
X28800000Y-24710000D02*
X28840000Y-24750000D01*
X28840000Y-24710000D02*
X28800000Y-24750000D01*
X28800000Y-29710000D02*
X28840000Y-29750000D01*
X28840000Y-29710000D02*
X28800000Y-29750000D01*
X28890000Y-26110000D02*
X28930000Y-26150000D01*
X28930000Y-26110000D02*
X28890000Y-26150000D01*
X28890000Y-27190000D02*
X28930000Y-27230000D01*
X28930000Y-27190000D02*
X28890000Y-27230000D01*
X28890000Y-29849950D02*
X28930000Y-29889950D01*
X28930000Y-29849950D02*
X28890000Y-29889950D01*
X28890000Y-30700000D02*
X28930000Y-30740000D01*
X28930000Y-30700000D02*
X28890000Y-30740000D01*
X28890000Y-32120000D02*
X28930000Y-32160000D01*
X28930000Y-32120000D02*
X28890000Y-32160000D01*
X28961250Y-23230000D02*
X29001250Y-23270000D01*
X29001250Y-23230000D02*
X28961250Y-23270000D01*
X28980000Y-19840000D02*
X29020000Y-19880000D01*
X29020000Y-19840000D02*
X28980000Y-19880000D01*
X28990000Y-31630050D02*
X29030000Y-31670050D01*
X29030000Y-31630050D02*
X28990000Y-31670050D01*
X29000000Y-26580000D02*
X29040000Y-26620000D01*
X29040000Y-26580000D02*
X29000000Y-26620000D01*
X29030000Y-29380000D02*
X29070000Y-29420000D01*
X29070000Y-29380000D02*
X29030000Y-29420000D01*
X29030000Y-29550000D02*
X29070000Y-29590000D01*
X29070000Y-29550000D02*
X29030000Y-29590000D01*
X29080000Y-20210000D02*
X29120000Y-20250000D01*
X29120000Y-20210000D02*
X29080000Y-20250000D01*
X29080000Y-23159324D02*
X29120000Y-23199324D01*
X29120000Y-23159324D02*
X29080000Y-23199324D01*
X29090000Y-22180000D02*
X29130000Y-22220000D01*
X29130000Y-22180000D02*
X29090000Y-22220000D01*
X29230000Y-16790000D02*
X29270000Y-16830000D01*
X29270000Y-16790000D02*
X29230000Y-16830000D01*
X29230000Y-17760000D02*
X29270000Y-17800000D01*
X29270000Y-17760000D02*
X29230000Y-17800000D01*
X29230000Y-18100000D02*
X29270000Y-18140000D01*
X29270000Y-18100000D02*
X29230000Y-18140000D01*
X29230000Y-19132229D02*
X29270000Y-19172229D01*
X29270000Y-19132229D02*
X29230000Y-19172229D01*
X29230000Y-19310000D02*
X29270000Y-19350000D01*
X29270000Y-19310000D02*
X29230000Y-19350000D01*
X29230000Y-20120000D02*
X29270000Y-20160000D01*
X29270000Y-20120000D02*
X29230000Y-20160000D01*
X29230000Y-20310000D02*
X29270000Y-20350000D01*
X29270000Y-20310000D02*
X29230000Y-20350000D01*
X29230000Y-21690000D02*
X29270000Y-21730000D01*
X29270000Y-21690000D02*
X29230000Y-21730000D01*
X29230000Y-21840000D02*
X29270000Y-21880000D01*
X29270000Y-21840000D02*
X29230000Y-21880000D01*
X29230000Y-22810000D02*
X29270000Y-22850000D01*
X29270000Y-22810000D02*
X29230000Y-22850000D01*
X29230000Y-23300000D02*
X29270000Y-23340000D01*
X29270000Y-23300000D02*
X29230000Y-23340000D01*
X29230000Y-24140000D02*
X29270000Y-24180000D01*
X29270000Y-24140000D02*
X29230000Y-24180000D01*
X29230000Y-25150000D02*
X29270000Y-25190000D01*
X29270000Y-25150000D02*
X29230000Y-25190000D01*
X29230000Y-25650000D02*
X29270000Y-25690000D01*
X29270000Y-25650000D02*
X29230000Y-25690000D01*
X29230000Y-26190000D02*
X29270000Y-26230000D01*
X29270000Y-26190000D02*
X29230000Y-26230000D01*
X29230000Y-26340000D02*
X29270000Y-26380000D01*
X29270000Y-26340000D02*
X29230000Y-26380000D01*
X29230000Y-27260675D02*
X29270000Y-27300675D01*
X29270000Y-27260675D02*
X29230000Y-27300675D01*
X29230000Y-27710000D02*
X29270000Y-27750000D01*
X29270000Y-27710000D02*
X29230000Y-27750000D01*
X29230000Y-28730000D02*
X29270000Y-28770000D01*
X29270000Y-28730000D02*
X29230000Y-28770000D01*
X29230000Y-29200000D02*
X29270000Y-29240000D01*
X29270000Y-29200000D02*
X29230000Y-29240000D01*
X29230000Y-29630000D02*
X29270000Y-29670000D01*
X29270000Y-29630000D02*
X29230000Y-29670000D01*
X29230000Y-29780000D02*
X29270000Y-29820000D01*
X29270000Y-29780000D02*
X29230000Y-29820000D01*
X29230000Y-30200000D02*
X29270000Y-30240000D01*
X29270000Y-30200000D02*
X29230000Y-30240000D01*
X29230000Y-31139462D02*
X29270000Y-31179462D01*
X29270000Y-31139462D02*
X29230000Y-31179462D01*
X29230000Y-32260000D02*
X29270000Y-32300000D01*
X29270000Y-32260000D02*
X29230000Y-32300000D01*
X29380000Y-23702401D02*
X29420000Y-23742401D01*
X29420000Y-23702401D02*
X29380000Y-23742401D01*
X29380000Y-26650000D02*
X29420000Y-26690000D01*
X29420000Y-26650000D02*
X29380000Y-26690000D01*
X29380000Y-30700000D02*
X29420000Y-30740000D01*
X29420000Y-30700000D02*
X29380000Y-30740000D01*
X29387500Y-23230000D02*
X29427500Y-23270000D01*
X29427500Y-23230000D02*
X29387500Y-23270000D01*
X29390000Y-18230000D02*
X29430000Y-18270000D01*
X29430000Y-18230000D02*
X29390000Y-18270000D01*
X29390000Y-19840000D02*
X29430000Y-19880000D01*
X29430000Y-19840000D02*
X29390000Y-19880000D01*
X29390000Y-20690000D02*
X29430000Y-20730000D01*
X29430000Y-20690000D02*
X29390000Y-20730000D01*
X29390000Y-32110000D02*
X29430000Y-32150000D01*
X29430000Y-32110000D02*
X29390000Y-32150000D01*
X29420000Y-21690000D02*
X29460000Y-21730000D01*
X29460000Y-21690000D02*
X29420000Y-21730000D01*
X29460000Y-29849950D02*
X29500000Y-29889950D01*
X29500000Y-29849950D02*
X29460000Y-29889950D01*
X29510000Y-31560000D02*
X29550000Y-31600000D01*
X29550000Y-31560000D02*
X29510000Y-31600000D01*
X29520000Y-16660000D02*
X29560000Y-16700000D01*
X29560000Y-16660000D02*
X29520000Y-16700000D01*
X29550000Y-26780000D02*
X29590000Y-26820000D01*
X29590000Y-26780000D02*
X29550000Y-26820000D01*
X29550000Y-28730000D02*
X29590000Y-28770000D01*
X29590000Y-28730000D02*
X29550000Y-28770000D01*
X29560000Y-19647229D02*
X29600000Y-19687229D01*
X29600000Y-19647229D02*
X29560000Y-19687229D01*
X29600000Y-23159324D02*
X29640000Y-23199324D01*
X29640000Y-23159324D02*
X29600000Y-23199324D01*
X29630000Y-16790000D02*
X29670000Y-16830000D01*
X29670000Y-16790000D02*
X29630000Y-16830000D01*
X29653216Y-32190050D02*
X29693216Y-32230050D01*
X29693216Y-32190050D02*
X29653216Y-32230050D01*
X29660000Y-14110000D02*
X29700000Y-14150000D01*
X29700000Y-14110000D02*
X29660000Y-14150000D01*
X29710000Y-29780000D02*
X29750000Y-29820000D01*
X29750000Y-29780000D02*
X29710000Y-29820000D01*
X29730000Y-15300000D02*
X29770000Y-15340000D01*
X29770000Y-15300000D02*
X29730000Y-15340000D01*
X29730000Y-15740000D02*
X29770000Y-15780000D01*
X29770000Y-15740000D02*
X29730000Y-15780000D01*
X29730000Y-17120050D02*
X29770000Y-17160050D01*
X29770000Y-17120050D02*
X29730000Y-17160050D01*
X29730000Y-17760000D02*
X29770000Y-17800000D01*
X29770000Y-17760000D02*
X29730000Y-17800000D01*
X29730000Y-18230000D02*
X29770000Y-18270000D01*
X29770000Y-18230000D02*
X29730000Y-18270000D01*
X29730000Y-19132229D02*
X29770000Y-19172229D01*
X29770000Y-19132229D02*
X29730000Y-19172229D01*
X29730000Y-19310000D02*
X29770000Y-19350000D01*
X29770000Y-19310000D02*
X29730000Y-19350000D01*
X29730000Y-20120000D02*
X29770000Y-20160000D01*
X29770000Y-20120000D02*
X29730000Y-20160000D01*
X29730000Y-20690000D02*
X29770000Y-20730000D01*
X29770000Y-20690000D02*
X29730000Y-20730000D01*
X29730000Y-21690000D02*
X29770000Y-21730000D01*
X29770000Y-21690000D02*
X29730000Y-21730000D01*
X29730000Y-21840000D02*
X29770000Y-21880000D01*
X29770000Y-21840000D02*
X29730000Y-21880000D01*
X29730000Y-22810000D02*
X29770000Y-22850000D01*
X29770000Y-22810000D02*
X29730000Y-22850000D01*
X29730000Y-23300000D02*
X29770000Y-23340000D01*
X29770000Y-23300000D02*
X29730000Y-23340000D01*
X29730000Y-23702401D02*
X29770000Y-23742401D01*
X29770000Y-23702401D02*
X29730000Y-23742401D01*
X29730000Y-24140000D02*
X29770000Y-24180000D01*
X29770000Y-24140000D02*
X29730000Y-24180000D01*
X29730000Y-25150000D02*
X29770000Y-25190000D01*
X29770000Y-25150000D02*
X29730000Y-25190000D01*
X29730000Y-25650000D02*
X29770000Y-25690000D01*
X29770000Y-25650000D02*
X29730000Y-25690000D01*
X29730000Y-26190000D02*
X29770000Y-26230000D01*
X29770000Y-26190000D02*
X29730000Y-26230000D01*
X29730000Y-26340000D02*
X29770000Y-26380000D01*
X29770000Y-26340000D02*
X29730000Y-26380000D01*
X29730000Y-26650000D02*
X29770000Y-26690000D01*
X29770000Y-26650000D02*
X29730000Y-26690000D01*
X29730000Y-27190000D02*
X29770000Y-27230000D01*
X29770000Y-27190000D02*
X29730000Y-27230000D01*
X29730000Y-27710000D02*
X29770000Y-27750000D01*
X29770000Y-27710000D02*
X29730000Y-27750000D01*
X29730000Y-29200000D02*
X29770000Y-29240000D01*
X29770000Y-29200000D02*
X29730000Y-29240000D01*
X29730000Y-29630000D02*
X29770000Y-29670000D01*
X29770000Y-29630000D02*
X29730000Y-29670000D01*
X29730000Y-30200000D02*
X29770000Y-30240000D01*
X29770000Y-30200000D02*
X29730000Y-30240000D01*
X29730000Y-31139462D02*
X29770000Y-31179462D01*
X29770000Y-31139462D02*
X29730000Y-31179462D01*
X29730000Y-32260000D02*
X29770000Y-32300000D01*
X29770000Y-32260000D02*
X29730000Y-32300000D01*
X29800000Y-20310000D02*
X29840000Y-20350000D01*
X29840000Y-20310000D02*
X29800000Y-20350000D01*
X29810000Y-17190000D02*
X29850000Y-17230000D01*
X29850000Y-17190000D02*
X29810000Y-17230000D01*
X29820000Y-27260675D02*
X29860000Y-27300675D01*
X29860000Y-27260675D02*
X29820000Y-27300675D01*
X29880000Y-22180000D02*
X29920000Y-22220000D01*
X29920000Y-22180000D02*
X29880000Y-22220000D01*
X29880000Y-30700000D02*
X29920000Y-30740000D01*
X29920000Y-30700000D02*
X29880000Y-30740000D01*
X29890000Y-15620000D02*
X29930000Y-15660000D01*
X29930000Y-15620000D02*
X29890000Y-15660000D01*
X29890000Y-16110000D02*
X29930000Y-16150000D01*
X29930000Y-16110000D02*
X29890000Y-16150000D01*
X29890000Y-16660000D02*
X29930000Y-16700000D01*
X29930000Y-16660000D02*
X29890000Y-16700000D01*
X29890000Y-19840000D02*
X29930000Y-19880000D01*
X29930000Y-19840000D02*
X29890000Y-19880000D01*
X29890000Y-23230000D02*
X29930000Y-23270000D01*
X29930000Y-23230000D02*
X29890000Y-23270000D01*
X29890000Y-28730000D02*
X29930000Y-28770000D01*
X29930000Y-28730000D02*
X29890000Y-28770000D01*
X29890000Y-29300000D02*
X29930000Y-29340000D01*
X29930000Y-29300000D02*
X29890000Y-29340000D01*
X29890000Y-29710000D02*
X29930000Y-29750000D01*
X29930000Y-29710000D02*
X29890000Y-29750000D01*
X29890000Y-31840000D02*
X29930000Y-31880000D01*
X29930000Y-31840000D02*
X29890000Y-31880000D01*
X29970000Y-23159324D02*
X30010000Y-23199324D01*
X30010000Y-23159324D02*
X29970000Y-23199324D01*
X29970000Y-27120050D02*
X30010000Y-27160050D01*
X30010000Y-27120050D02*
X29970000Y-27160050D01*
X29970050Y-26850000D02*
X30010050Y-26890000D01*
X30010050Y-26850000D02*
X29970050Y-26890000D01*
X29980000Y-18100000D02*
X30020000Y-18140000D01*
X30020000Y-18100000D02*
X29980000Y-18140000D01*
X29990000Y-20210000D02*
X30030000Y-20250000D01*
X30030000Y-20210000D02*
X29990000Y-20250000D01*
X30010000Y-16180000D02*
X30050000Y-16220000D01*
X30050000Y-16180000D02*
X30010000Y-16220000D01*
X30030000Y-17190000D02*
X30070000Y-17230000D01*
X30070000Y-17190000D02*
X30030000Y-17230000D01*
X30070000Y-19647229D02*
X30110000Y-19687229D01*
X30110000Y-19647229D02*
X30070000Y-19687229D01*
X30100000Y-15439950D02*
X30140000Y-15479950D01*
X30140000Y-15439950D02*
X30100000Y-15479950D01*
X30110000Y-23089324D02*
X30150000Y-23129324D01*
X30150000Y-23089324D02*
X30110000Y-23129324D01*
X30110000Y-26650000D02*
X30150000Y-26690000D01*
X30150000Y-26650000D02*
X30110000Y-26690000D01*
X30140000Y-26190000D02*
X30180000Y-26230000D01*
X30180000Y-26190000D02*
X30140000Y-26230000D01*
X30150000Y-23300000D02*
X30190000Y-23340000D01*
X30190000Y-23300000D02*
X30150000Y-23340000D01*
X30160000Y-14220000D02*
X30200000Y-14260000D01*
X30200000Y-14220000D02*
X30160000Y-14260000D01*
X30180000Y-16790000D02*
X30220000Y-16830000D01*
X30220000Y-16790000D02*
X30180000Y-16830000D01*
X30230000Y-15300000D02*
X30270000Y-15340000D01*
X30270000Y-15300000D02*
X30230000Y-15340000D01*
X30230000Y-15740000D02*
X30270000Y-15780000D01*
X30270000Y-15740000D02*
X30230000Y-15780000D01*
X30230000Y-17120050D02*
X30270000Y-17160050D01*
X30270000Y-17120050D02*
X30230000Y-17160050D01*
X30230000Y-17760000D02*
X30270000Y-17800000D01*
X30270000Y-17760000D02*
X30230000Y-17800000D01*
X30230000Y-18230000D02*
X30270000Y-18270000D01*
X30270000Y-18230000D02*
X30230000Y-18270000D01*
X30230000Y-19132229D02*
X30270000Y-19172229D01*
X30270000Y-19132229D02*
X30230000Y-19172229D01*
X30230000Y-19310000D02*
X30270000Y-19350000D01*
X30270000Y-19310000D02*
X30230000Y-19350000D01*
X30230000Y-20120000D02*
X30270000Y-20160000D01*
X30270000Y-20120000D02*
X30230000Y-20160000D01*
X30230000Y-20310000D02*
X30270000Y-20350000D01*
X30270000Y-20310000D02*
X30230000Y-20350000D01*
X30230000Y-20690000D02*
X30270000Y-20730000D01*
X30270000Y-20690000D02*
X30230000Y-20730000D01*
X30230000Y-21690000D02*
X30270000Y-21730000D01*
X30270000Y-21690000D02*
X30230000Y-21730000D01*
X30230000Y-21840000D02*
X30270000Y-21880000D01*
X30270000Y-21840000D02*
X30230000Y-21880000D01*
X30230000Y-22810000D02*
X30270000Y-22850000D01*
X30270000Y-22810000D02*
X30230000Y-22850000D01*
X30230000Y-23702401D02*
X30270000Y-23742401D01*
X30270000Y-23702401D02*
X30230000Y-23742401D01*
X30230000Y-25150000D02*
X30270000Y-25190000D01*
X30270000Y-25150000D02*
X30230000Y-25190000D01*
X30230000Y-25650000D02*
X30270000Y-25690000D01*
X30270000Y-25650000D02*
X30230000Y-25690000D01*
X30230000Y-26340000D02*
X30270000Y-26380000D01*
X30270000Y-26340000D02*
X30230000Y-26380000D01*
X30230000Y-27190000D02*
X30270000Y-27230000D01*
X30270000Y-27190000D02*
X30230000Y-27230000D01*
X30230000Y-27710000D02*
X30270000Y-27750000D01*
X30270000Y-27710000D02*
X30230000Y-27750000D01*
X30230000Y-29200000D02*
X30270000Y-29240000D01*
X30270000Y-29200000D02*
X30230000Y-29240000D01*
X30230000Y-29630000D02*
X30270000Y-29670000D01*
X30270000Y-29630000D02*
X30230000Y-29670000D01*
X30230000Y-29780000D02*
X30270000Y-29820000D01*
X30270000Y-29780000D02*
X30230000Y-29820000D01*
X30230000Y-30200000D02*
X30270000Y-30240000D01*
X30270000Y-30200000D02*
X30230000Y-30240000D01*
X30230000Y-31139462D02*
X30270000Y-31179462D01*
X30270000Y-31139462D02*
X30230000Y-31179462D01*
X30230000Y-32260000D02*
X30270000Y-32300000D01*
X30270000Y-32260000D02*
X30230000Y-32300000D01*
X30240000Y-24140000D02*
X30280000Y-24180000D01*
X30280000Y-24140000D02*
X30240000Y-24180000D01*
X30383700Y-22180000D02*
X30423700Y-22220000D01*
X30423700Y-22180000D02*
X30383700Y-22220000D01*
X30390000Y-15620000D02*
X30430000Y-15660000D01*
X30430000Y-15620000D02*
X30390000Y-15660000D01*
X30390000Y-17190000D02*
X30430000Y-17230000D01*
X30430000Y-17190000D02*
X30390000Y-17230000D01*
X30390000Y-29849950D02*
X30430000Y-29889950D01*
X30430000Y-29849950D02*
X30390000Y-29889950D01*
X30390000Y-30700000D02*
X30430000Y-30740000D01*
X30430000Y-30700000D02*
X30390000Y-30740000D01*
X30390000Y-31770000D02*
X30430000Y-31810000D01*
X30430000Y-31770000D02*
X30390000Y-31810000D01*
X30420000Y-14820000D02*
X30460000Y-14860000D01*
X30460000Y-14820000D02*
X30420000Y-14860000D01*
X30460000Y-21690000D02*
X30500000Y-21730000D01*
X30500000Y-21690000D02*
X30460000Y-21730000D01*
X30470000Y-23159274D02*
X30510000Y-23199274D01*
X30510000Y-23159274D02*
X30470000Y-23199274D01*
X30480000Y-29780000D02*
X30520000Y-29820000D01*
X30520000Y-29780000D02*
X30480000Y-29820000D01*
X30500000Y-14680000D02*
X30540000Y-14720000D01*
X30540000Y-14680000D02*
X30500000Y-14720000D01*
X30500000Y-20210000D02*
X30540000Y-20250000D01*
X30540000Y-20210000D02*
X30500000Y-20250000D01*
X30520000Y-27260675D02*
X30560000Y-27300675D01*
X30560000Y-27260675D02*
X30520000Y-27300675D01*
X30570000Y-15439950D02*
X30610000Y-15479950D01*
X30610000Y-15439950D02*
X30570000Y-15479950D01*
X30600000Y-26780000D02*
X30640000Y-26820000D01*
X30640000Y-26780000D02*
X30600000Y-26820000D01*
X30620000Y-19731402D02*
X30660000Y-19771402D01*
X30660000Y-19731402D02*
X30620000Y-19771402D01*
X30690000Y-30200000D02*
X30730000Y-30240000D01*
X30730000Y-30200000D02*
X30690000Y-30240000D01*
X30730000Y-15300000D02*
X30770000Y-15340000D01*
X30770000Y-15300000D02*
X30730000Y-15340000D01*
X30730000Y-15740000D02*
X30770000Y-15780000D01*
X30770000Y-15740000D02*
X30730000Y-15780000D01*
X30730000Y-17120050D02*
X30770000Y-17160050D01*
X30770000Y-17120050D02*
X30730000Y-17160050D01*
X30730000Y-17600000D02*
X30770000Y-17640000D01*
X30770000Y-17600000D02*
X30730000Y-17640000D01*
X30730000Y-17760000D02*
X30770000Y-17800000D01*
X30770000Y-17760000D02*
X30730000Y-17800000D01*
X30730000Y-18230000D02*
X30770000Y-18270000D01*
X30770000Y-18230000D02*
X30730000Y-18270000D01*
X30730000Y-18830000D02*
X30770000Y-18870000D01*
X30770000Y-18830000D02*
X30730000Y-18870000D01*
X30730000Y-19310000D02*
X30770000Y-19350000D01*
X30770000Y-19310000D02*
X30730000Y-19350000D01*
X30730000Y-20120000D02*
X30770000Y-20160000D01*
X30770000Y-20120000D02*
X30730000Y-20160000D01*
X30730000Y-20310000D02*
X30770000Y-20350000D01*
X30770000Y-20310000D02*
X30730000Y-20350000D01*
X30730000Y-20690000D02*
X30770000Y-20730000D01*
X30770000Y-20690000D02*
X30730000Y-20730000D01*
X30730000Y-21690000D02*
X30770000Y-21730000D01*
X30770000Y-21690000D02*
X30730000Y-21730000D01*
X30730000Y-22810000D02*
X30770000Y-22850000D01*
X30770000Y-22810000D02*
X30730000Y-22850000D01*
X30730000Y-23300000D02*
X30770000Y-23340000D01*
X30770000Y-23300000D02*
X30730000Y-23340000D01*
X30730000Y-23702401D02*
X30770000Y-23742401D01*
X30770000Y-23702401D02*
X30730000Y-23742401D01*
X30730000Y-25150000D02*
X30770000Y-25190000D01*
X30770000Y-25150000D02*
X30730000Y-25190000D01*
X30730000Y-25650000D02*
X30770000Y-25690000D01*
X30770000Y-25650000D02*
X30730000Y-25690000D01*
X30730000Y-26340000D02*
X30770000Y-26380000D01*
X30770000Y-26340000D02*
X30730000Y-26380000D01*
X30730000Y-26650000D02*
X30770000Y-26690000D01*
X30770000Y-26650000D02*
X30730000Y-26690000D01*
X30730000Y-27190000D02*
X30770000Y-27230000D01*
X30770000Y-27190000D02*
X30730000Y-27230000D01*
X30730000Y-27710000D02*
X30770000Y-27750000D01*
X30770000Y-27710000D02*
X30730000Y-27750000D01*
X30730000Y-29100000D02*
X30770000Y-29140000D01*
X30770000Y-29100000D02*
X30730000Y-29140000D01*
X30730000Y-29300000D02*
X30770000Y-29340000D01*
X30770000Y-29300000D02*
X30730000Y-29340000D01*
X30730000Y-29780000D02*
X30770000Y-29820000D01*
X30770000Y-29780000D02*
X30730000Y-29820000D01*
X30730000Y-31139462D02*
X30770000Y-31179462D01*
X30770000Y-31139462D02*
X30730000Y-31179462D01*
X30730000Y-32260000D02*
X30770000Y-32300000D01*
X30770000Y-32260000D02*
X30730000Y-32300000D01*
X30740000Y-24140000D02*
X30780000Y-24180000D01*
X30780000Y-24140000D02*
X30740000Y-24180000D01*
X30810000Y-16180000D02*
X30850000Y-16220000D01*
X30850000Y-16180000D02*
X30810000Y-16220000D01*
X30810000Y-26190000D02*
X30850000Y-26230000D01*
X30850000Y-26190000D02*
X30810000Y-26230000D01*
X30880000Y-26110000D02*
X30920000Y-26150000D01*
X30920000Y-26110000D02*
X30880000Y-26150000D01*
X30887500Y-15190000D02*
X30927500Y-15230000D01*
X30927500Y-15190000D02*
X30887500Y-15230000D01*
X30890000Y-15370000D02*
X30930000Y-15410000D01*
X30930000Y-15370000D02*
X30890000Y-15410000D01*
X30890000Y-16660000D02*
X30930000Y-16700000D01*
X30930000Y-16660000D02*
X30890000Y-16700000D01*
X30890000Y-19132229D02*
X30930000Y-19172229D01*
X30930000Y-19132229D02*
X30890000Y-19172229D01*
X30890000Y-20210000D02*
X30930000Y-20250000D01*
X30930000Y-20210000D02*
X30890000Y-20250000D01*
X30890000Y-23089324D02*
X30930000Y-23129324D01*
X30930000Y-23089324D02*
X30890000Y-23129324D01*
X30890000Y-29630000D02*
X30930000Y-29670000D01*
X30930000Y-29630000D02*
X30890000Y-29670000D01*
X30890000Y-31700000D02*
X30930000Y-31740000D01*
X30930000Y-31700000D02*
X30890000Y-31740000D01*
X30920000Y-11494115D02*
X30960000Y-11534115D01*
X30960000Y-11494115D02*
X30920000Y-11534115D01*
X30970000Y-19840000D02*
X31010000Y-19880000D01*
X31010000Y-19840000D02*
X30970000Y-19880000D01*
X30970000Y-23230000D02*
X31010000Y-23270000D01*
X31010000Y-23230000D02*
X30970000Y-23270000D01*
X30970000Y-30700000D02*
X31010000Y-30740000D01*
X31010000Y-30700000D02*
X30970000Y-30740000D01*
X30990000Y-12350000D02*
X31030000Y-12390000D01*
X31030000Y-12350000D02*
X30990000Y-12390000D01*
X30990000Y-15110000D02*
X31030000Y-15150000D01*
X31030000Y-15110000D02*
X30990000Y-15150000D01*
X31010000Y-16790000D02*
X31050000Y-16830000D01*
X31050000Y-16790000D02*
X31010000Y-16830000D01*
X31070000Y-28730000D02*
X31110000Y-28770000D01*
X31110000Y-28730000D02*
X31070000Y-28770000D01*
X31080000Y-15440000D02*
X31120000Y-15480000D01*
X31120000Y-15440000D02*
X31080000Y-15480000D01*
X31120000Y-11414115D02*
X31160000Y-11454115D01*
X31160000Y-11414115D02*
X31120000Y-11454115D01*
X31140000Y-23089324D02*
X31180000Y-23129324D01*
X31180000Y-23089324D02*
X31140000Y-23129324D01*
X31140000Y-24140000D02*
X31180000Y-24180000D01*
X31180000Y-24140000D02*
X31140000Y-24180000D01*
X31150000Y-25650000D02*
X31190000Y-25690000D01*
X31190000Y-25650000D02*
X31150000Y-25690000D01*
X31230000Y-12350000D02*
X31270000Y-12390000D01*
X31270000Y-12350000D02*
X31230000Y-12390000D01*
X31230000Y-14680000D02*
X31270000Y-14720000D01*
X31270000Y-14680000D02*
X31230000Y-14720000D01*
X31230000Y-15300000D02*
X31270000Y-15340000D01*
X31270000Y-15300000D02*
X31230000Y-15340000D01*
X31230000Y-15740000D02*
X31270000Y-15780000D01*
X31270000Y-15740000D02*
X31230000Y-15780000D01*
X31230000Y-17120050D02*
X31270000Y-17160050D01*
X31270000Y-17120050D02*
X31230000Y-17160050D01*
X31230000Y-17600000D02*
X31270000Y-17640000D01*
X31270000Y-17600000D02*
X31230000Y-17640000D01*
X31230000Y-17760000D02*
X31270000Y-17800000D01*
X31270000Y-17760000D02*
X31230000Y-17800000D01*
X31230000Y-18230000D02*
X31270000Y-18270000D01*
X31270000Y-18230000D02*
X31230000Y-18270000D01*
X31230000Y-19647229D02*
X31270000Y-19687229D01*
X31270000Y-19647229D02*
X31230000Y-19687229D01*
X31230000Y-20120000D02*
X31270000Y-20160000D01*
X31270000Y-20120000D02*
X31230000Y-20160000D01*
X31230000Y-20310000D02*
X31270000Y-20350000D01*
X31270000Y-20310000D02*
X31230000Y-20350000D01*
X31230000Y-20690000D02*
X31270000Y-20730000D01*
X31270000Y-20690000D02*
X31230000Y-20730000D01*
X31230000Y-21690000D02*
X31270000Y-21730000D01*
X31270000Y-21690000D02*
X31230000Y-21730000D01*
X31230000Y-22810000D02*
X31270000Y-22850000D01*
X31270000Y-22810000D02*
X31230000Y-22850000D01*
X31230000Y-23300000D02*
X31270000Y-23340000D01*
X31270000Y-23300000D02*
X31230000Y-23340000D01*
X31230000Y-25150000D02*
X31270000Y-25190000D01*
X31270000Y-25150000D02*
X31230000Y-25190000D01*
X31230000Y-26190000D02*
X31270000Y-26230000D01*
X31270000Y-26190000D02*
X31230000Y-26230000D01*
X31230000Y-26580000D02*
X31270000Y-26620000D01*
X31270000Y-26580000D02*
X31230000Y-26620000D01*
X31230000Y-27190000D02*
X31270000Y-27230000D01*
X31270000Y-27190000D02*
X31230000Y-27230000D01*
X31230000Y-29200000D02*
X31270000Y-29240000D01*
X31270000Y-29200000D02*
X31230000Y-29240000D01*
X31230000Y-29300000D02*
X31270000Y-29340000D01*
X31270000Y-29300000D02*
X31230000Y-29340000D01*
X31230000Y-29780000D02*
X31270000Y-29820000D01*
X31270000Y-29780000D02*
X31230000Y-29820000D01*
X31230000Y-30200000D02*
X31270000Y-30240000D01*
X31270000Y-30200000D02*
X31230000Y-30240000D01*
X31230000Y-31139462D02*
X31270000Y-31179462D01*
X31270000Y-31139462D02*
X31230000Y-31179462D01*
X31243800Y-11568261D02*
X31283800Y-11608261D01*
X31283800Y-11568261D02*
X31243800Y-11608261D01*
X31310000Y-22180000D02*
X31350000Y-22220000D01*
X31350000Y-22180000D02*
X31310000Y-22220000D01*
X31310000Y-26650000D02*
X31350000Y-26690000D01*
X31350000Y-26650000D02*
X31310000Y-26690000D01*
X31333852Y-13081494D02*
X31373852Y-13121494D01*
X31373852Y-13081494D02*
X31333852Y-13121494D01*
X31390000Y-11640000D02*
X31430000Y-11680000D01*
X31430000Y-11640000D02*
X31390000Y-11680000D01*
X31390000Y-14820000D02*
X31430000Y-14860000D01*
X31430000Y-14820000D02*
X31390000Y-14860000D01*
X31390000Y-15220000D02*
X31430000Y-15260000D01*
X31430000Y-15220000D02*
X31390000Y-15260000D01*
X31390000Y-16790000D02*
X31430000Y-16830000D01*
X31430000Y-16790000D02*
X31390000Y-16830000D01*
X31390000Y-17190000D02*
X31430000Y-17230000D01*
X31430000Y-17190000D02*
X31390000Y-17230000D01*
X31390000Y-18100000D02*
X31430000Y-18140000D01*
X31430000Y-18100000D02*
X31390000Y-18140000D01*
X31390000Y-19310000D02*
X31430000Y-19350000D01*
X31430000Y-19310000D02*
X31390000Y-19350000D01*
X31390000Y-20210000D02*
X31430000Y-20250000D01*
X31430000Y-20210000D02*
X31390000Y-20250000D01*
X31390000Y-23702401D02*
X31430000Y-23742401D01*
X31430000Y-23702401D02*
X31390000Y-23742401D01*
X31390000Y-24140000D02*
X31430000Y-24180000D01*
X31430000Y-24140000D02*
X31390000Y-24180000D01*
X31390000Y-25650000D02*
X31430000Y-25690000D01*
X31430000Y-25650000D02*
X31390000Y-25690000D01*
X31390000Y-27260675D02*
X31430000Y-27300675D01*
X31430000Y-27260675D02*
X31390000Y-27300675D01*
X31390000Y-29710000D02*
X31430000Y-29750000D01*
X31430000Y-29710000D02*
X31390000Y-29750000D01*
X31390000Y-30700000D02*
X31430000Y-30740000D01*
X31430000Y-30700000D02*
X31390000Y-30740000D01*
X31390000Y-31139462D02*
X31430000Y-31179462D01*
X31430000Y-31139462D02*
X31390000Y-31179462D01*
X31460000Y-11314215D02*
X31500000Y-11354215D01*
X31500000Y-11314215D02*
X31460000Y-11354215D01*
X31460000Y-23159324D02*
X31500000Y-23199324D01*
X31500000Y-23159324D02*
X31460000Y-23199324D01*
X31460000Y-26340000D02*
X31500000Y-26380000D01*
X31500000Y-26340000D02*
X31460000Y-26380000D01*
X31470000Y-17600000D02*
X31510000Y-17640000D01*
X31510000Y-17600000D02*
X31470000Y-17640000D01*
X31490000Y-15740000D02*
X31530000Y-15780000D01*
X31530000Y-15740000D02*
X31490000Y-15780000D01*
X31531200Y-11770000D02*
X31571200Y-11810000D01*
X31571200Y-11770000D02*
X31531200Y-11810000D01*
X31550000Y-29300000D02*
X31590000Y-29340000D01*
X31590000Y-29300000D02*
X31550000Y-29340000D01*
X31560000Y-13090000D02*
X31600000Y-13130000D01*
X31600000Y-13090000D02*
X31560000Y-13130000D01*
X31560000Y-23229274D02*
X31600000Y-23269274D01*
X31600000Y-23229274D02*
X31560000Y-23269274D01*
X31560000Y-29710000D02*
X31600000Y-29750000D01*
X31600000Y-29710000D02*
X31560000Y-29750000D01*
X31590000Y-28730000D02*
X31630000Y-28770000D01*
X31630000Y-28730000D02*
X31590000Y-28770000D01*
X31620000Y-11640000D02*
X31660000Y-11680000D01*
X31660000Y-11640000D02*
X31620000Y-11680000D01*
X31630000Y-26649950D02*
X31670000Y-26689950D01*
X31670000Y-26649950D02*
X31630000Y-26689950D01*
X31630000Y-29849950D02*
X31670000Y-29889950D01*
X31670000Y-29849950D02*
X31630000Y-29889950D01*
X31650000Y-23159324D02*
X31690000Y-23199324D01*
X31690000Y-23159324D02*
X31650000Y-23199324D01*
X31660000Y-15370000D02*
X31700000Y-15410000D01*
X31700000Y-15370000D02*
X31660000Y-15410000D01*
X31730000Y-11590000D02*
X31770000Y-11630000D01*
X31770000Y-11590000D02*
X31730000Y-11630000D01*
X31730000Y-13090000D02*
X31770000Y-13130000D01*
X31770000Y-13090000D02*
X31730000Y-13130000D01*
X31730000Y-13620000D02*
X31770000Y-13660000D01*
X31770000Y-13620000D02*
X31730000Y-13660000D01*
X31730000Y-14680000D02*
X31770000Y-14720000D01*
X31770000Y-14680000D02*
X31730000Y-14720000D01*
X31730000Y-15740000D02*
X31770000Y-15780000D01*
X31770000Y-15740000D02*
X31730000Y-15780000D01*
X31730000Y-17120050D02*
X31770000Y-17160050D01*
X31770000Y-17120050D02*
X31730000Y-17160050D01*
X31730000Y-17600000D02*
X31770000Y-17640000D01*
X31770000Y-17600000D02*
X31730000Y-17640000D01*
X31730000Y-17760000D02*
X31770000Y-17800000D01*
X31770000Y-17760000D02*
X31730000Y-17800000D01*
X31730000Y-19647229D02*
X31770000Y-19687229D01*
X31770000Y-19647229D02*
X31730000Y-19687229D01*
X31730000Y-19840000D02*
X31770000Y-19880000D01*
X31770000Y-19840000D02*
X31730000Y-19880000D01*
X31730000Y-20310000D02*
X31770000Y-20350000D01*
X31770000Y-20310000D02*
X31730000Y-20350000D01*
X31730000Y-22810000D02*
X31770000Y-22850000D01*
X31770000Y-22810000D02*
X31730000Y-22850000D01*
X31730000Y-23300000D02*
X31770000Y-23340000D01*
X31770000Y-23300000D02*
X31730000Y-23340000D01*
X31730000Y-23702401D02*
X31770000Y-23742401D01*
X31770000Y-23702401D02*
X31730000Y-23742401D01*
X31730000Y-25150000D02*
X31770000Y-25190000D01*
X31770000Y-25150000D02*
X31730000Y-25190000D01*
X31730000Y-26190000D02*
X31770000Y-26230000D01*
X31770000Y-26190000D02*
X31730000Y-26230000D01*
X31730000Y-26580000D02*
X31770000Y-26620000D01*
X31770000Y-26580000D02*
X31730000Y-26620000D01*
X31730000Y-27190000D02*
X31770000Y-27230000D01*
X31770000Y-27190000D02*
X31730000Y-27230000D01*
X31730000Y-29200000D02*
X31770000Y-29240000D01*
X31770000Y-29200000D02*
X31730000Y-29240000D01*
X31730000Y-29300000D02*
X31770000Y-29340000D01*
X31770000Y-29300000D02*
X31730000Y-29340000D01*
X31730000Y-31140000D02*
X31770000Y-31180000D01*
X31770000Y-31140000D02*
X31730000Y-31180000D01*
X31740000Y-14820000D02*
X31780000Y-14860000D01*
X31780000Y-14820000D02*
X31740000Y-14860000D01*
X31810000Y-15300000D02*
X31850000Y-15340000D01*
X31850000Y-15300000D02*
X31810000Y-15340000D01*
X31810000Y-24140000D02*
X31850000Y-24180000D01*
X31850000Y-24140000D02*
X31810000Y-24180000D01*
X31830000Y-18230000D02*
X31870000Y-18270000D01*
X31870000Y-18230000D02*
X31830000Y-18270000D01*
X31840000Y-29780000D02*
X31880000Y-29820000D01*
X31880000Y-29780000D02*
X31840000Y-29820000D01*
X31887500Y-11819950D02*
X31927500Y-11859950D01*
X31927500Y-11819950D02*
X31887500Y-11859950D01*
X31890000Y-12350000D02*
X31930000Y-12390000D01*
X31930000Y-12350000D02*
X31890000Y-12390000D01*
X31890000Y-15110000D02*
X31930000Y-15150000D01*
X31930000Y-15110000D02*
X31890000Y-15150000D01*
X31890000Y-15740000D02*
X31930000Y-15780000D01*
X31930000Y-15740000D02*
X31890000Y-15780000D01*
X31890000Y-19731402D02*
X31930000Y-19771402D01*
X31930000Y-19731402D02*
X31890000Y-19771402D01*
X31890000Y-20690000D02*
X31930000Y-20730000D01*
X31930000Y-20690000D02*
X31890000Y-20730000D01*
X31890000Y-21690000D02*
X31930000Y-21730000D01*
X31930000Y-21690000D02*
X31890000Y-21730000D01*
X31890000Y-30200000D02*
X31930000Y-30240000D01*
X31930000Y-30200000D02*
X31890000Y-30240000D01*
X31930000Y-26780000D02*
X31970000Y-26820000D01*
X31970000Y-26780000D02*
X31930000Y-26820000D01*
X31960000Y-23089324D02*
X32000000Y-23129324D01*
X32000000Y-23089324D02*
X31960000Y-23129324D01*
X31960000Y-25650000D02*
X32000000Y-25690000D01*
X32000000Y-25650000D02*
X31960000Y-25690000D01*
X31960000Y-27260675D02*
X32000000Y-27300675D01*
X32000000Y-27260675D02*
X31960000Y-27300675D01*
X31990000Y-22810000D02*
X32030000Y-22850000D01*
X32030000Y-22810000D02*
X31990000Y-22850000D01*
X32000000Y-19132229D02*
X32040000Y-19172229D01*
X32040000Y-19132229D02*
X32000000Y-19172229D01*
X32020000Y-11590000D02*
X32060000Y-11630000D01*
X32060000Y-11590000D02*
X32020000Y-11630000D01*
X32020000Y-16660000D02*
X32060000Y-16700000D01*
X32060000Y-16660000D02*
X32020000Y-16700000D01*
X32030000Y-20120000D02*
X32070000Y-20160000D01*
X32070000Y-20120000D02*
X32030000Y-20160000D01*
X32040000Y-23159274D02*
X32080000Y-23199274D01*
X32080000Y-23159274D02*
X32040000Y-23199274D01*
X32080000Y-26780000D02*
X32120000Y-26820000D01*
X32120000Y-26780000D02*
X32080000Y-26820000D01*
X32090000Y-16790000D02*
X32130000Y-16830000D01*
X32130000Y-16790000D02*
X32090000Y-16830000D01*
X32100000Y-11454115D02*
X32140000Y-11494115D01*
X32140000Y-11454115D02*
X32100000Y-11494115D01*
X32120000Y-26580000D02*
X32160000Y-26620000D01*
X32160000Y-26580000D02*
X32120000Y-26620000D01*
X32130000Y-14220000D02*
X32170000Y-14260000D01*
X32170000Y-14220000D02*
X32130000Y-14260000D01*
X32140000Y-22810000D02*
X32180000Y-22850000D01*
X32180000Y-22810000D02*
X32140000Y-22850000D01*
X32150000Y-15740000D02*
X32190000Y-15780000D01*
X32190000Y-15740000D02*
X32150000Y-15780000D01*
X32230000Y-11659950D02*
X32270000Y-11699950D01*
X32270000Y-11659950D02*
X32230000Y-11699950D01*
X32230000Y-13090000D02*
X32270000Y-13130000D01*
X32270000Y-13090000D02*
X32230000Y-13130000D01*
X32230000Y-13620000D02*
X32270000Y-13660000D01*
X32270000Y-13620000D02*
X32230000Y-13660000D01*
X32230000Y-14680000D02*
X32270000Y-14720000D01*
X32270000Y-14680000D02*
X32230000Y-14720000D01*
X32230000Y-15220000D02*
X32270000Y-15260000D01*
X32270000Y-15220000D02*
X32230000Y-15260000D01*
X32230000Y-17120050D02*
X32270000Y-17160050D01*
X32270000Y-17120050D02*
X32230000Y-17160050D01*
X32230000Y-17600000D02*
X32270000Y-17640000D01*
X32270000Y-17600000D02*
X32230000Y-17640000D01*
X32230000Y-18100000D02*
X32270000Y-18140000D01*
X32270000Y-18100000D02*
X32230000Y-18140000D01*
X32230000Y-18230000D02*
X32270000Y-18270000D01*
X32270000Y-18230000D02*
X32230000Y-18270000D01*
X32230000Y-19647229D02*
X32270000Y-19687229D01*
X32270000Y-19647229D02*
X32230000Y-19687229D01*
X32230000Y-19840000D02*
X32270000Y-19880000D01*
X32270000Y-19840000D02*
X32230000Y-19880000D01*
X32230000Y-20210000D02*
X32270000Y-20250000D01*
X32270000Y-20210000D02*
X32230000Y-20250000D01*
X32230000Y-20690000D02*
X32270000Y-20730000D01*
X32270000Y-20690000D02*
X32230000Y-20730000D01*
X32230000Y-23300000D02*
X32270000Y-23340000D01*
X32270000Y-23300000D02*
X32230000Y-23340000D01*
X32230000Y-26190000D02*
X32270000Y-26230000D01*
X32270000Y-26190000D02*
X32230000Y-26230000D01*
X32230000Y-27190000D02*
X32270000Y-27230000D01*
X32270000Y-27190000D02*
X32230000Y-27230000D01*
X32230000Y-28730000D02*
X32270000Y-28770000D01*
X32270000Y-28730000D02*
X32230000Y-28770000D01*
X32233800Y-26650000D02*
X32273800Y-26690000D01*
X32273800Y-26650000D02*
X32233800Y-26690000D01*
X32270000Y-12640000D02*
X32310000Y-12680000D01*
X32310000Y-12640000D02*
X32270000Y-12680000D01*
X32299324Y-23089324D02*
X32339324Y-23129324D01*
X32339324Y-23089324D02*
X32299324Y-23129324D01*
X32310000Y-15370000D02*
X32350000Y-15410000D01*
X32350000Y-15370000D02*
X32310000Y-15410000D01*
X32310000Y-16180000D02*
X32350000Y-16220000D01*
X32350000Y-16180000D02*
X32310000Y-16220000D01*
X32310000Y-27710000D02*
X32350000Y-27750000D01*
X32350000Y-27710000D02*
X32310000Y-27750000D01*
X32320000Y-12350000D02*
X32360000Y-12390000D01*
X32360000Y-12350000D02*
X32320000Y-12390000D01*
X32380000Y-15110000D02*
X32420000Y-15150000D01*
X32420000Y-15110000D02*
X32380000Y-15150000D01*
X32390000Y-14820000D02*
X32430000Y-14860000D01*
X32430000Y-14820000D02*
X32390000Y-14860000D01*
X32390000Y-19310000D02*
X32430000Y-19350000D01*
X32430000Y-19310000D02*
X32390000Y-19350000D01*
X32390000Y-19731402D02*
X32430000Y-19771402D01*
X32430000Y-19731402D02*
X32390000Y-19771402D01*
X32390000Y-26190000D02*
X32430000Y-26230000D01*
X32430000Y-26190000D02*
X32390000Y-26230000D01*
X32400000Y-19132229D02*
X32440000Y-19172229D01*
X32440000Y-19132229D02*
X32400000Y-19172229D01*
X32460000Y-26650000D02*
X32500000Y-26690000D01*
X32500000Y-26650000D02*
X32460000Y-26690000D01*
X32470000Y-11770000D02*
X32510000Y-11810000D01*
X32510000Y-11770000D02*
X32470000Y-11810000D01*
X32480000Y-26340000D02*
X32520000Y-26380000D01*
X32520000Y-26340000D02*
X32480000Y-26380000D01*
X32500000Y-17760000D02*
X32540000Y-17800000D01*
X32540000Y-17760000D02*
X32500000Y-17800000D01*
X32510000Y-15440000D02*
X32550000Y-15480000D01*
X32550000Y-15440000D02*
X32510000Y-15480000D01*
X32530000Y-20120000D02*
X32570000Y-20160000D01*
X32570000Y-20120000D02*
X32530000Y-20160000D01*
X32550000Y-26780000D02*
X32590000Y-26820000D01*
X32590000Y-26780000D02*
X32550000Y-26820000D01*
X32579950Y-15220000D02*
X32619950Y-15260000D01*
X32619950Y-15220000D02*
X32579950Y-15260000D01*
X32600000Y-25650000D02*
X32640000Y-25690000D01*
X32640000Y-25650000D02*
X32600000Y-25690000D01*
X32610000Y-18100000D02*
X32650000Y-18140000D01*
X32650000Y-18100000D02*
X32610000Y-18140000D01*
X32640000Y-11660000D02*
X32680000Y-11700000D01*
X32680000Y-11660000D02*
X32640000Y-11700000D01*
X32650000Y-14820000D02*
X32690000Y-14860000D01*
X32690000Y-14820000D02*
X32650000Y-14860000D01*
X32730000Y-10350000D02*
X32770000Y-10390000D01*
X32770000Y-10350000D02*
X32730000Y-10390000D01*
X32730000Y-11590000D02*
X32770000Y-11630000D01*
X32770000Y-11590000D02*
X32730000Y-11630000D01*
X32730000Y-12640000D02*
X32770000Y-12680000D01*
X32770000Y-12640000D02*
X32730000Y-12680000D01*
X32730000Y-13090000D02*
X32770000Y-13130000D01*
X32770000Y-13090000D02*
X32730000Y-13130000D01*
X32730000Y-13620000D02*
X32770000Y-13660000D01*
X32770000Y-13620000D02*
X32730000Y-13660000D01*
X32730000Y-14680000D02*
X32770000Y-14720000D01*
X32770000Y-14680000D02*
X32730000Y-14720000D01*
X32730000Y-16180000D02*
X32770000Y-16220000D01*
X32770000Y-16180000D02*
X32730000Y-16220000D01*
X32730000Y-17120050D02*
X32770000Y-17160050D01*
X32770000Y-17120050D02*
X32730000Y-17160050D01*
X32730000Y-17600000D02*
X32770000Y-17640000D01*
X32770000Y-17600000D02*
X32730000Y-17640000D01*
X32730000Y-18230000D02*
X32770000Y-18270000D01*
X32770000Y-18230000D02*
X32730000Y-18270000D01*
X32730000Y-19647229D02*
X32770000Y-19687229D01*
X32770000Y-19647229D02*
X32730000Y-19687229D01*
X32730000Y-19840000D02*
X32770000Y-19880000D01*
X32770000Y-19840000D02*
X32730000Y-19880000D01*
X32730000Y-20210000D02*
X32770000Y-20250000D01*
X32770000Y-20210000D02*
X32730000Y-20250000D01*
X32730000Y-20690000D02*
X32770000Y-20730000D01*
X32770000Y-20690000D02*
X32730000Y-20730000D01*
X32730000Y-26190000D02*
X32770000Y-26230000D01*
X32770000Y-26190000D02*
X32730000Y-26230000D01*
X32730000Y-26580000D02*
X32770000Y-26620000D01*
X32770000Y-26580000D02*
X32730000Y-26620000D01*
X32730000Y-27190000D02*
X32770000Y-27230000D01*
X32770000Y-27190000D02*
X32730000Y-27230000D01*
X32730000Y-29300000D02*
X32770000Y-29340000D01*
X32770000Y-29300000D02*
X32730000Y-29340000D01*
X32730000Y-29780000D02*
X32770000Y-29820000D01*
X32770000Y-29780000D02*
X32730000Y-29820000D01*
X32730000Y-30300000D02*
X32770000Y-30340000D01*
X32770000Y-30300000D02*
X32730000Y-30340000D01*
X32730000Y-30700000D02*
X32770000Y-30740000D01*
X32770000Y-30700000D02*
X32730000Y-30740000D01*
X32810000Y-16790000D02*
X32850000Y-16830000D01*
X32850000Y-16790000D02*
X32810000Y-16830000D01*
X32810000Y-27260675D02*
X32850000Y-27300675D01*
X32850000Y-27260675D02*
X32810000Y-27300675D01*
X32820000Y-19310000D02*
X32860000Y-19350000D01*
X32860000Y-19310000D02*
X32820000Y-19350000D01*
X32820000Y-26780000D02*
X32860000Y-26820000D01*
X32860000Y-26780000D02*
X32820000Y-26820000D01*
X32883700Y-26110000D02*
X32923700Y-26150000D01*
X32923700Y-26110000D02*
X32883700Y-26150000D01*
X32890000Y-11730000D02*
X32930000Y-11770000D01*
X32930000Y-11730000D02*
X32890000Y-11770000D01*
X32890000Y-14110000D02*
X32930000Y-14150000D01*
X32930000Y-14110000D02*
X32890000Y-14150000D01*
X32890000Y-19731402D02*
X32930000Y-19771402D01*
X32930000Y-19731402D02*
X32890000Y-19771402D01*
X32890000Y-26340000D02*
X32930000Y-26380000D01*
X32930000Y-26340000D02*
X32890000Y-26380000D01*
X32890000Y-29630000D02*
X32930000Y-29670000D01*
X32930000Y-29630000D02*
X32890000Y-29670000D01*
X32890000Y-30110000D02*
X32930000Y-30150000D01*
X32930000Y-30110000D02*
X32890000Y-30150000D01*
X32890936Y-15370092D02*
X32930936Y-15410092D01*
X32930936Y-15370092D02*
X32890936Y-15410092D01*
X32960000Y-10260000D02*
X33000000Y-10300000D01*
X33000000Y-10260000D02*
X32960000Y-10300000D01*
X32960000Y-17190000D02*
X33000000Y-17230000D01*
X33000000Y-17190000D02*
X32960000Y-17230000D01*
X32980050Y-11590000D02*
X33020050Y-11630000D01*
X33020050Y-11590000D02*
X32980050Y-11630000D01*
X33000000Y-20310000D02*
X33040000Y-20350000D01*
X33040000Y-20310000D02*
X33000000Y-20350000D01*
X33020000Y-20120000D02*
X33060000Y-20160000D01*
X33060000Y-20120000D02*
X33020000Y-20160000D01*
X33050000Y-11314215D02*
X33090000Y-11354215D01*
X33090000Y-11314215D02*
X33050000Y-11354215D01*
X33070000Y-15370000D02*
X33110000Y-15410000D01*
X33110000Y-15370000D02*
X33070000Y-15410000D01*
X33110000Y-17190000D02*
X33150000Y-17230000D01*
X33150000Y-17190000D02*
X33110000Y-17230000D01*
X33150000Y-17760000D02*
X33190000Y-17800000D01*
X33190000Y-17760000D02*
X33150000Y-17800000D01*
X33180000Y-26280000D02*
X33220000Y-26320000D01*
X33220000Y-26280000D02*
X33180000Y-26320000D01*
X33220000Y-11800000D02*
X33260000Y-11840000D01*
X33260000Y-11800000D02*
X33220000Y-11840000D01*
X33230000Y-12640000D02*
X33270000Y-12680000D01*
X33270000Y-12640000D02*
X33230000Y-12680000D01*
X33230000Y-13090000D02*
X33270000Y-13130000D01*
X33270000Y-13090000D02*
X33230000Y-13130000D01*
X33230000Y-13620000D02*
X33270000Y-13660000D01*
X33270000Y-13620000D02*
X33230000Y-13660000D01*
X33230000Y-14220000D02*
X33270000Y-14260000D01*
X33270000Y-14220000D02*
X33230000Y-14260000D01*
X33230000Y-14680000D02*
X33270000Y-14720000D01*
X33270000Y-14680000D02*
X33230000Y-14720000D01*
X33230000Y-15220000D02*
X33270000Y-15260000D01*
X33270000Y-15220000D02*
X33230000Y-15260000D01*
X33230000Y-16180000D02*
X33270000Y-16220000D01*
X33270000Y-16180000D02*
X33230000Y-16220000D01*
X33230000Y-16660000D02*
X33270000Y-16700000D01*
X33270000Y-16660000D02*
X33230000Y-16700000D01*
X33230000Y-17120050D02*
X33270000Y-17160050D01*
X33270000Y-17120050D02*
X33230000Y-17160050D01*
X33230000Y-17600000D02*
X33270000Y-17640000D01*
X33270000Y-17600000D02*
X33230000Y-17640000D01*
X33230000Y-18100000D02*
X33270000Y-18140000D01*
X33270000Y-18100000D02*
X33230000Y-18140000D01*
X33230000Y-18230000D02*
X33270000Y-18270000D01*
X33270000Y-18230000D02*
X33230000Y-18270000D01*
X33230000Y-19647229D02*
X33270000Y-19687229D01*
X33270000Y-19647229D02*
X33230000Y-19687229D01*
X33230000Y-19840000D02*
X33270000Y-19880000D01*
X33270000Y-19840000D02*
X33230000Y-19880000D01*
X33230000Y-20210000D02*
X33270000Y-20250000D01*
X33270000Y-20210000D02*
X33230000Y-20250000D01*
X33230000Y-20690000D02*
X33270000Y-20730000D01*
X33270000Y-20690000D02*
X33230000Y-20730000D01*
X33230000Y-26580000D02*
X33270000Y-26620000D01*
X33270000Y-26580000D02*
X33230000Y-26620000D01*
X33230000Y-27190000D02*
X33270000Y-27230000D01*
X33270000Y-27190000D02*
X33230000Y-27230000D01*
X33230000Y-29300000D02*
X33270000Y-29340000D01*
X33270000Y-29300000D02*
X33230000Y-29340000D01*
X33230000Y-29780000D02*
X33270000Y-29820000D01*
X33270000Y-29780000D02*
X33230000Y-29820000D01*
X33290000Y-30200000D02*
X33330000Y-30240000D01*
X33330000Y-30200000D02*
X33290000Y-30240000D01*
X33310000Y-11660000D02*
X33350000Y-11700000D01*
X33350000Y-11660000D02*
X33310000Y-11700000D01*
X33310000Y-15300000D02*
X33350000Y-15340000D01*
X33350000Y-15300000D02*
X33310000Y-15340000D01*
X33320000Y-27260675D02*
X33360000Y-27300675D01*
X33360000Y-27260675D02*
X33320000Y-27300675D01*
X33350000Y-25700000D02*
X33390000Y-25740000D01*
X33390000Y-25700000D02*
X33350000Y-25740000D01*
X33380000Y-26650000D02*
X33420000Y-26690000D01*
X33420000Y-26650000D02*
X33380000Y-26690000D01*
X33380000Y-26780000D02*
X33420000Y-26820000D01*
X33420000Y-26780000D02*
X33380000Y-26820000D01*
X33387500Y-11590000D02*
X33427500Y-11630000D01*
X33427500Y-11590000D02*
X33387500Y-11630000D01*
X33390000Y-10260000D02*
X33430000Y-10300000D01*
X33430000Y-10260000D02*
X33390000Y-10300000D01*
X33390000Y-17760000D02*
X33430000Y-17800000D01*
X33430000Y-17760000D02*
X33390000Y-17800000D01*
X33390000Y-27710000D02*
X33430000Y-27750000D01*
X33430000Y-27710000D02*
X33390000Y-27750000D01*
X33390000Y-28730000D02*
X33430000Y-28770000D01*
X33430000Y-28730000D02*
X33390000Y-28770000D01*
X33390000Y-29850000D02*
X33430000Y-29890000D01*
X33430000Y-29850000D02*
X33390000Y-29890000D01*
X33490000Y-13090000D02*
X33530000Y-13130000D01*
X33530000Y-13090000D02*
X33490000Y-13130000D01*
X33503219Y-15439950D02*
X33543219Y-15479950D01*
X33543219Y-15439950D02*
X33503219Y-15479950D01*
X33520000Y-19310000D02*
X33560000Y-19350000D01*
X33560000Y-19310000D02*
X33520000Y-19350000D01*
X33550000Y-18230000D02*
X33590000Y-18270000D01*
X33590000Y-18230000D02*
X33550000Y-18270000D01*
X33550000Y-29630000D02*
X33590000Y-29670000D01*
X33590000Y-29630000D02*
X33550000Y-29670000D01*
X33590000Y-15370000D02*
X33630000Y-15410000D01*
X33630000Y-15370000D02*
X33590000Y-15410000D01*
X33620000Y-11730000D02*
X33660000Y-11770000D01*
X33660000Y-11730000D02*
X33620000Y-11770000D01*
X33630000Y-16790000D02*
X33670000Y-16830000D01*
X33670000Y-16790000D02*
X33630000Y-16830000D01*
X33650000Y-19132229D02*
X33690000Y-19172229D01*
X33690000Y-19132229D02*
X33650000Y-19172229D01*
X33700000Y-11660000D02*
X33740000Y-11700000D01*
X33740000Y-11660000D02*
X33700000Y-11700000D01*
X33700000Y-26580000D02*
X33740000Y-26620000D01*
X33740000Y-26580000D02*
X33700000Y-26620000D01*
X33730000Y-12640000D02*
X33770000Y-12680000D01*
X33770000Y-12640000D02*
X33730000Y-12680000D01*
X33730000Y-13620000D02*
X33770000Y-13660000D01*
X33770000Y-13620000D02*
X33730000Y-13660000D01*
X33730000Y-14220000D02*
X33770000Y-14260000D01*
X33770000Y-14220000D02*
X33730000Y-14260000D01*
X33730000Y-14680000D02*
X33770000Y-14720000D01*
X33770000Y-14680000D02*
X33730000Y-14720000D01*
X33730000Y-15170000D02*
X33770000Y-15210000D01*
X33770000Y-15170000D02*
X33730000Y-15210000D01*
X33730000Y-16180000D02*
X33770000Y-16220000D01*
X33770000Y-16180000D02*
X33730000Y-16220000D01*
X33730000Y-16660000D02*
X33770000Y-16700000D01*
X33770000Y-16660000D02*
X33730000Y-16700000D01*
X33730000Y-17600000D02*
X33770000Y-17640000D01*
X33770000Y-17600000D02*
X33730000Y-17640000D01*
X33730000Y-18100000D02*
X33770000Y-18140000D01*
X33770000Y-18100000D02*
X33730000Y-18140000D01*
X33730000Y-18830000D02*
X33770000Y-18870000D01*
X33770000Y-18830000D02*
X33730000Y-18870000D01*
X33730000Y-19647229D02*
X33770000Y-19687229D01*
X33770000Y-19647229D02*
X33730000Y-19687229D01*
X33730000Y-19840000D02*
X33770000Y-19880000D01*
X33770000Y-19840000D02*
X33730000Y-19880000D01*
X33730000Y-20210000D02*
X33770000Y-20250000D01*
X33770000Y-20210000D02*
X33730000Y-20250000D01*
X33730000Y-27260000D02*
X33770000Y-27300000D01*
X33770000Y-27260000D02*
X33730000Y-27300000D01*
X33740000Y-29550000D02*
X33780000Y-29590000D01*
X33780000Y-29550000D02*
X33740000Y-29590000D01*
X33780000Y-11800000D02*
X33820000Y-11840000D01*
X33820000Y-11800000D02*
X33780000Y-11840000D01*
X33790000Y-11590000D02*
X33830000Y-11630000D01*
X33830000Y-11590000D02*
X33790000Y-11630000D01*
X33890000Y-11369950D02*
X33930000Y-11409950D01*
X33930000Y-11369950D02*
X33890000Y-11409950D01*
X33890000Y-13090000D02*
X33930000Y-13130000D01*
X33930000Y-13090000D02*
X33890000Y-13130000D01*
X33890000Y-20120000D02*
X33930000Y-20160000D01*
X33930000Y-20120000D02*
X33890000Y-20160000D01*
X33960000Y-17190000D02*
X34000000Y-17230000D01*
X34000000Y-17190000D02*
X33960000Y-17230000D01*
X33960000Y-20310000D02*
X34000000Y-20350000D01*
X34000000Y-20310000D02*
X33960000Y-20350000D01*
X33960000Y-26190000D02*
X34000000Y-26230000D01*
X34000000Y-26190000D02*
X33960000Y-26230000D01*
X34000000Y-11800000D02*
X34040000Y-11840000D01*
X34040000Y-11800000D02*
X34000000Y-11840000D01*
X34000444Y-15369950D02*
X34040444Y-15409950D01*
X34040444Y-15369950D02*
X34000444Y-15409950D01*
X34040000Y-17120050D02*
X34080000Y-17160050D01*
X34080000Y-17120050D02*
X34040000Y-17160050D01*
X34060000Y-20210000D02*
X34100000Y-20250000D01*
X34100000Y-20210000D02*
X34060000Y-20250000D01*
X34090000Y-15170000D02*
X34130000Y-15210000D01*
X34130000Y-15170000D02*
X34090000Y-15210000D01*
X34110000Y-14820000D02*
X34150000Y-14860000D01*
X34150000Y-14820000D02*
X34110000Y-14860000D01*
X34140000Y-11730000D02*
X34180000Y-11770000D01*
X34180000Y-11730000D02*
X34140000Y-11770000D01*
X34140000Y-19132229D02*
X34180000Y-19172229D01*
X34180000Y-19132229D02*
X34140000Y-19172229D01*
X34230000Y-11660000D02*
X34270000Y-11700000D01*
X34270000Y-11660000D02*
X34230000Y-11700000D01*
X34230000Y-12640000D02*
X34270000Y-12680000D01*
X34270000Y-12640000D02*
X34230000Y-12680000D01*
X34230000Y-13090000D02*
X34270000Y-13130000D01*
X34270000Y-13090000D02*
X34230000Y-13130000D01*
X34230000Y-13620000D02*
X34270000Y-13660000D01*
X34270000Y-13620000D02*
X34230000Y-13660000D01*
X34230000Y-14220000D02*
X34270000Y-14260000D01*
X34270000Y-14220000D02*
X34230000Y-14260000D01*
X34230000Y-14680000D02*
X34270000Y-14720000D01*
X34270000Y-14680000D02*
X34230000Y-14720000D01*
X34230000Y-16180000D02*
X34270000Y-16220000D01*
X34270000Y-16180000D02*
X34230000Y-16220000D01*
X34230000Y-16660000D02*
X34270000Y-16700000D01*
X34270000Y-16660000D02*
X34230000Y-16700000D01*
X34230000Y-16790000D02*
X34270000Y-16830000D01*
X34270000Y-16790000D02*
X34230000Y-16830000D01*
X34230000Y-17600000D02*
X34270000Y-17640000D01*
X34270000Y-17600000D02*
X34230000Y-17640000D01*
X34230000Y-18100000D02*
X34270000Y-18140000D01*
X34270000Y-18100000D02*
X34230000Y-18140000D01*
X34230000Y-18830000D02*
X34270000Y-18870000D01*
X34270000Y-18830000D02*
X34230000Y-18870000D01*
X34230000Y-19647229D02*
X34270000Y-19687229D01*
X34270000Y-19647229D02*
X34230000Y-19687229D01*
X34230000Y-19840000D02*
X34270000Y-19880000D01*
X34270000Y-19840000D02*
X34230000Y-19880000D01*
X34280000Y-15309950D02*
X34320000Y-15349950D01*
X34320000Y-15309950D02*
X34280000Y-15349950D01*
X34380000Y-10260000D02*
X34420000Y-10300000D01*
X34420000Y-10260000D02*
X34380000Y-10300000D01*
X34380000Y-20310000D02*
X34420000Y-20350000D01*
X34420000Y-20310000D02*
X34380000Y-20350000D01*
X34387500Y-15239950D02*
X34427500Y-15279950D01*
X34427500Y-15239950D02*
X34387500Y-15279950D01*
X34390000Y-11800000D02*
X34430000Y-11840000D01*
X34430000Y-11800000D02*
X34390000Y-11840000D01*
X34390000Y-12340000D02*
X34430000Y-12380000D01*
X34430000Y-12340000D02*
X34390000Y-12380000D01*
X34390000Y-14110000D02*
X34430000Y-14150000D01*
X34430000Y-14110000D02*
X34390000Y-14150000D01*
X34390000Y-17190000D02*
X34430000Y-17230000D01*
X34430000Y-17190000D02*
X34390000Y-17230000D01*
X34440000Y-20690000D02*
X34480000Y-20730000D01*
X34480000Y-20690000D02*
X34440000Y-20730000D01*
X34470000Y-20210000D02*
X34510000Y-20250000D01*
X34510000Y-20210000D02*
X34470000Y-20250000D01*
X34500000Y-15390000D02*
X34540000Y-15430000D01*
X34540000Y-15390000D02*
X34500000Y-15430000D01*
X34520000Y-17120050D02*
X34560000Y-17160050D01*
X34560000Y-17120050D02*
X34520000Y-17160050D01*
X34530000Y-18230000D02*
X34570000Y-18270000D01*
X34570000Y-18230000D02*
X34530000Y-18270000D01*
X34590000Y-10340000D02*
X34630000Y-10380000D01*
X34630000Y-10340000D02*
X34590000Y-10380000D01*
X34590000Y-15310000D02*
X34630000Y-15350000D01*
X34630000Y-15310000D02*
X34590000Y-15350000D01*
X34630000Y-16790000D02*
X34670000Y-16830000D01*
X34670000Y-16790000D02*
X34630000Y-16830000D01*
X34650000Y-11730000D02*
X34690000Y-11770000D01*
X34690000Y-11730000D02*
X34650000Y-11770000D01*
X34650000Y-14220000D02*
X34690000Y-14260000D01*
X34690000Y-14220000D02*
X34650000Y-14260000D01*
X34650000Y-19310000D02*
X34690000Y-19350000D01*
X34690000Y-19310000D02*
X34650000Y-19350000D01*
X34660000Y-10260000D02*
X34700000Y-10300000D01*
X34700000Y-10260000D02*
X34660000Y-10300000D01*
X34730000Y-11110000D02*
X34770000Y-11150000D01*
X34770000Y-11110000D02*
X34730000Y-11150000D01*
X34730000Y-11660000D02*
X34770000Y-11700000D01*
X34770000Y-11660000D02*
X34730000Y-11700000D01*
X34730000Y-12340000D02*
X34770000Y-12380000D01*
X34770000Y-12340000D02*
X34730000Y-12380000D01*
X34730000Y-12640000D02*
X34770000Y-12680000D01*
X34770000Y-12640000D02*
X34730000Y-12680000D01*
X34730000Y-13090000D02*
X34770000Y-13130000D01*
X34770000Y-13090000D02*
X34730000Y-13130000D01*
X34730000Y-13620000D02*
X34770000Y-13660000D01*
X34770000Y-13620000D02*
X34730000Y-13660000D01*
X34730000Y-15220000D02*
X34770000Y-15260000D01*
X34770000Y-15220000D02*
X34730000Y-15260000D01*
X34730000Y-16180000D02*
X34770000Y-16220000D01*
X34770000Y-16180000D02*
X34730000Y-16220000D01*
X34730000Y-16660000D02*
X34770000Y-16700000D01*
X34770000Y-16660000D02*
X34730000Y-16700000D01*
X34730000Y-17760000D02*
X34770000Y-17800000D01*
X34770000Y-17760000D02*
X34730000Y-17800000D01*
X34730000Y-18100000D02*
X34770000Y-18140000D01*
X34770000Y-18100000D02*
X34730000Y-18140000D01*
X34730000Y-19650000D02*
X34770000Y-19690000D01*
X34770000Y-19650000D02*
X34730000Y-19690000D01*
X34730000Y-19840000D02*
X34770000Y-19880000D01*
X34770000Y-19840000D02*
X34730000Y-19880000D01*
X34810000Y-11590000D02*
X34850000Y-11630000D01*
X34850000Y-11590000D02*
X34810000Y-11630000D01*
X34880000Y-20210000D02*
X34920000Y-20250000D01*
X34920000Y-20210000D02*
X34880000Y-20250000D01*
X34890000Y-10260000D02*
X34930000Y-10300000D01*
X34930000Y-10260000D02*
X34890000Y-10300000D01*
X34890000Y-11730000D02*
X34930000Y-11770000D01*
X34930000Y-11730000D02*
X34890000Y-11770000D01*
X34890000Y-15340000D02*
X34930000Y-15380000D01*
X34930000Y-15340000D02*
X34890000Y-15380000D01*
X34890000Y-16790000D02*
X34930000Y-16830000D01*
X34930000Y-16790000D02*
X34890000Y-16830000D01*
X34890000Y-19130000D02*
X34930000Y-19170000D01*
X34930000Y-19130000D02*
X34890000Y-19170000D01*
X34890000Y-19731402D02*
X34930000Y-19771402D01*
X34930000Y-19731402D02*
X34890000Y-19771402D01*
X34960000Y-15100000D02*
X35000000Y-15140000D01*
X35000000Y-15100000D02*
X34960000Y-15140000D01*
X34960000Y-17600000D02*
X35000000Y-17640000D01*
X35000000Y-17600000D02*
X34960000Y-17640000D01*
X35020000Y-11414115D02*
X35060000Y-11454115D01*
X35060000Y-11414115D02*
X35020000Y-11454115D01*
X35050000Y-15440675D02*
X35090000Y-15480675D01*
X35090000Y-15440675D02*
X35050000Y-15480675D01*
X35130000Y-15370000D02*
X35170000Y-15410000D01*
X35170000Y-15370000D02*
X35130000Y-15410000D01*
X35170000Y-19250000D02*
X35210000Y-19290000D01*
X35210000Y-19250000D02*
X35170000Y-19290000D01*
X35220000Y-10340000D02*
X35260000Y-10380000D01*
X35260000Y-10340000D02*
X35220000Y-10380000D01*
X35230000Y-11110000D02*
X35270000Y-11150000D01*
X35270000Y-11110000D02*
X35230000Y-11150000D01*
X35230000Y-11669950D02*
X35270000Y-11709950D01*
X35270000Y-11669950D02*
X35230000Y-11709950D01*
X35230000Y-12340000D02*
X35270000Y-12380000D01*
X35270000Y-12340000D02*
X35230000Y-12380000D01*
X35230000Y-12640000D02*
X35270000Y-12680000D01*
X35270000Y-12640000D02*
X35230000Y-12680000D01*
X35230000Y-13090000D02*
X35270000Y-13130000D01*
X35270000Y-13090000D02*
X35230000Y-13130000D01*
X35230000Y-13620000D02*
X35270000Y-13660000D01*
X35270000Y-13620000D02*
X35230000Y-13660000D01*
X35230000Y-14220000D02*
X35270000Y-14260000D01*
X35270000Y-14220000D02*
X35230000Y-14260000D01*
X35230000Y-15220000D02*
X35270000Y-15260000D01*
X35270000Y-15220000D02*
X35230000Y-15260000D01*
X35230000Y-16180000D02*
X35270000Y-16220000D01*
X35270000Y-16180000D02*
X35230000Y-16220000D01*
X35230000Y-16660000D02*
X35270000Y-16700000D01*
X35270000Y-16660000D02*
X35230000Y-16700000D01*
X35230000Y-16790000D02*
X35270000Y-16830000D01*
X35270000Y-16790000D02*
X35230000Y-16830000D01*
X35230000Y-18100000D02*
X35270000Y-18140000D01*
X35270000Y-18100000D02*
X35230000Y-18140000D01*
X35240000Y-19510000D02*
X35280000Y-19550000D01*
X35280000Y-19510000D02*
X35240000Y-19550000D01*
X35310000Y-14110000D02*
X35350000Y-14150000D01*
X35350000Y-14110000D02*
X35310000Y-14150000D01*
X35310000Y-15740000D02*
X35350000Y-15780000D01*
X35350000Y-15740000D02*
X35310000Y-15780000D01*
X35310000Y-17120050D02*
X35350000Y-17160050D01*
X35350000Y-17120050D02*
X35310000Y-17160050D01*
X35320000Y-17760000D02*
X35360000Y-17800000D01*
X35360000Y-17760000D02*
X35320000Y-17800000D01*
X35380000Y-15300000D02*
X35420000Y-15340000D01*
X35420000Y-15300000D02*
X35380000Y-15340000D01*
X35387500Y-11314215D02*
X35427500Y-11354215D01*
X35427500Y-11314215D02*
X35387500Y-11354215D01*
X35390000Y-10260000D02*
X35430000Y-10300000D01*
X35430000Y-10260000D02*
X35390000Y-10300000D01*
X35390000Y-14820000D02*
X35430000Y-14860000D01*
X35430000Y-14820000D02*
X35390000Y-14860000D01*
X35390000Y-17190000D02*
X35430000Y-17230000D01*
X35430000Y-17190000D02*
X35390000Y-17230000D01*
X35470000Y-17600000D02*
X35510000Y-17640000D01*
X35510000Y-17600000D02*
X35470000Y-17640000D01*
X35490000Y-11560000D02*
X35530000Y-11600000D01*
X35530000Y-11560000D02*
X35490000Y-11600000D01*
X35560000Y-10330000D02*
X35600000Y-10370000D01*
X35600000Y-10330000D02*
X35560000Y-10370000D01*
X35580000Y-11454115D02*
X35620000Y-11494115D01*
X35620000Y-11454115D02*
X35580000Y-11494115D01*
X35580000Y-15440675D02*
X35620000Y-15480675D01*
X35620000Y-15440675D02*
X35580000Y-15480675D01*
X35640000Y-11800000D02*
X35680000Y-11840000D01*
X35680000Y-11800000D02*
X35640000Y-11840000D01*
X35650000Y-15300000D02*
X35690000Y-15340000D01*
X35690000Y-15300000D02*
X35650000Y-15340000D01*
X35730000Y-10260000D02*
X35770000Y-10300000D01*
X35770000Y-10260000D02*
X35730000Y-10300000D01*
X35730000Y-11110000D02*
X35770000Y-11150000D01*
X35770000Y-11110000D02*
X35730000Y-11150000D01*
X35730000Y-12340000D02*
X35770000Y-12380000D01*
X35770000Y-12340000D02*
X35730000Y-12380000D01*
X35730000Y-13090000D02*
X35770000Y-13130000D01*
X35770000Y-13090000D02*
X35730000Y-13130000D01*
X35730000Y-14220000D02*
X35770000Y-14260000D01*
X35770000Y-14220000D02*
X35730000Y-14260000D01*
X35730000Y-15220000D02*
X35770000Y-15260000D01*
X35770000Y-15220000D02*
X35730000Y-15260000D01*
X35730000Y-16180000D02*
X35770000Y-16220000D01*
X35770000Y-16180000D02*
X35730000Y-16220000D01*
X35730000Y-16660000D02*
X35770000Y-16700000D01*
X35770000Y-16660000D02*
X35730000Y-16700000D01*
X35730000Y-16790000D02*
X35770000Y-16830000D01*
X35770000Y-16790000D02*
X35730000Y-16830000D01*
X35750000Y-17420000D02*
X35790000Y-17460000D01*
X35790000Y-17420000D02*
X35750000Y-17460000D01*
X35840000Y-17570000D02*
X35880000Y-17610000D01*
X35880000Y-17570000D02*
X35840000Y-17610000D01*
X35890000Y-11600000D02*
X35930000Y-11640000D01*
X35930000Y-11600000D02*
X35890000Y-11640000D01*
X35890000Y-12640000D02*
X35930000Y-12680000D01*
X35930000Y-12640000D02*
X35890000Y-12680000D01*
X35890000Y-13620000D02*
X35930000Y-13660000D01*
X35930000Y-13620000D02*
X35890000Y-13660000D01*
X35890000Y-15100000D02*
X35930000Y-15140000D01*
X35930000Y-15100000D02*
X35890000Y-15140000D01*
X35890000Y-15740000D02*
X35930000Y-15780000D01*
X35930000Y-15740000D02*
X35890000Y-15780000D01*
X35940000Y-17740000D02*
X35980000Y-17780000D01*
X35980000Y-17740000D02*
X35940000Y-17780000D01*
X35960000Y-10260000D02*
X36000000Y-10300000D01*
X36000000Y-10260000D02*
X35960000Y-10300000D01*
X36000000Y-11669950D02*
X36040000Y-11709950D01*
X36040000Y-11669950D02*
X36000000Y-11709950D01*
X36050000Y-17860000D02*
X36090000Y-17900000D01*
X36090000Y-17860000D02*
X36050000Y-17900000D01*
X36110000Y-15440675D02*
X36150000Y-15480675D01*
X36150000Y-15440675D02*
X36110000Y-15480675D01*
X36136675Y-11414077D02*
X36176675Y-11454077D01*
X36176675Y-11414077D02*
X36136675Y-11454077D01*
X36230000Y-10330000D02*
X36270000Y-10370000D01*
X36270000Y-10330000D02*
X36230000Y-10370000D01*
X36230000Y-11110000D02*
X36270000Y-11150000D01*
X36270000Y-11110000D02*
X36230000Y-11150000D01*
X36230000Y-11600000D02*
X36270000Y-11640000D01*
X36270000Y-11600000D02*
X36230000Y-11640000D01*
X36230000Y-12340000D02*
X36270000Y-12380000D01*
X36270000Y-12340000D02*
X36230000Y-12380000D01*
X36230000Y-13090000D02*
X36270000Y-13130000D01*
X36270000Y-13090000D02*
X36230000Y-13130000D01*
X36230000Y-14220000D02*
X36270000Y-14260000D01*
X36270000Y-14220000D02*
X36230000Y-14260000D01*
X36230000Y-15300000D02*
X36270000Y-15340000D01*
X36270000Y-15300000D02*
X36230000Y-15340000D01*
X36230000Y-15740000D02*
X36270000Y-15780000D01*
X36270000Y-15740000D02*
X36230000Y-15780000D01*
X36230000Y-16180000D02*
X36270000Y-16220000D01*
X36270000Y-16180000D02*
X36230000Y-16220000D01*
X36230000Y-16660000D02*
X36270000Y-16700000D01*
X36270000Y-16660000D02*
X36230000Y-16700000D01*
X36280000Y-16910000D02*
X36320000Y-16950000D01*
X36320000Y-16910000D02*
X36280000Y-16950000D01*
X36310000Y-11800000D02*
X36350000Y-11840000D01*
X36350000Y-11800000D02*
X36310000Y-11840000D01*
X36320000Y-15220000D02*
X36360000Y-15260000D01*
X36360000Y-15220000D02*
X36320000Y-15260000D01*
X36380000Y-10260000D02*
X36420000Y-10300000D01*
X36420000Y-10260000D02*
X36380000Y-10300000D01*
X36383700Y-14680000D02*
X36423700Y-14720000D01*
X36423700Y-14680000D02*
X36383700Y-14720000D01*
X36390000Y-14820000D02*
X36430000Y-14860000D01*
X36430000Y-14820000D02*
X36390000Y-14860000D01*
X36390000Y-15100000D02*
X36430000Y-15140000D01*
X36430000Y-15100000D02*
X36390000Y-15140000D01*
X36610000Y-15439950D02*
X36650000Y-15479950D01*
X36650000Y-15439950D02*
X36610000Y-15479950D01*
X36650000Y-12640000D02*
X36690000Y-12680000D01*
X36690000Y-12640000D02*
X36650000Y-12680000D01*
X36710000Y-14820000D02*
X36750000Y-14860000D01*
X36750000Y-14820000D02*
X36710000Y-14860000D01*
X36720000Y-12340000D02*
X36760000Y-12380000D01*
X36760000Y-12340000D02*
X36720000Y-12380000D01*
X36720000Y-15740000D02*
X36760000Y-15780000D01*
X36760000Y-15740000D02*
X36720000Y-15780000D01*
X36730000Y-11110000D02*
X36770000Y-11150000D01*
X36770000Y-11110000D02*
X36730000Y-11150000D01*
X36730000Y-11600000D02*
X36770000Y-11640000D01*
X36770000Y-11600000D02*
X36730000Y-11640000D01*
X36730000Y-13090000D02*
X36770000Y-13130000D01*
X36770000Y-13090000D02*
X36730000Y-13130000D01*
X36730000Y-14220000D02*
X36770000Y-14260000D01*
X36770000Y-14220000D02*
X36730000Y-14260000D01*
X36730000Y-15300000D02*
X36770000Y-15340000D01*
X36770000Y-15300000D02*
X36730000Y-15340000D01*
X36730000Y-16660000D02*
X36770000Y-16700000D01*
X36770000Y-16660000D02*
X36730000Y-16700000D01*
X36880000Y-11314215D02*
X36920000Y-11354215D01*
X36920000Y-11314215D02*
X36880000Y-11354215D01*
X36880000Y-16170000D02*
X36920000Y-16210000D01*
X36920000Y-16170000D02*
X36880000Y-16210000D01*
X36890000Y-14110000D02*
X36930000Y-14150000D01*
X36930000Y-14110000D02*
X36890000Y-14150000D01*
X36970000Y-11590000D02*
X37010000Y-11630000D01*
X37010000Y-11590000D02*
X36970000Y-11630000D01*
X36970000Y-15210000D02*
X37010000Y-15250000D01*
X37010000Y-15210000D02*
X36970000Y-15250000D01*
D12*
X22576000Y-10700000D02*
G75*
G03*
X22576000Y-10700000I-76000J0D01*
G01*
X22576000Y-32000000D02*
G75*
G03*
X22576000Y-32000000I-76000J0D01*
G01*
X23084000Y-10700000D02*
G75*
G03*
X23084000Y-10700000I-76000J0D01*
G01*
X23084000Y-32000000D02*
G75*
G03*
X23084000Y-32000000I-76000J0D01*
G01*
X23592000Y-32000000D02*
G75*
G03*
X23592000Y-32000000I-76000J0D01*
G01*
X24100000Y-32000000D02*
G75*
G03*
X24100000Y-32000000I-76000J0D01*
G01*
D11*
X21005777Y-34216484D02*
X21005777Y-34016484D01*
X21005777Y-34016484D02*
X21053396Y-34016484D01*
X21053396Y-34016484D02*
X21081967Y-34026008D01*
X21081967Y-34026008D02*
X21101015Y-34045055D01*
X21101015Y-34045055D02*
X21110539Y-34064103D01*
X21110539Y-34064103D02*
X21120063Y-34102198D01*
X21120063Y-34102198D02*
X21120063Y-34130770D01*
X21120063Y-34130770D02*
X21110539Y-34168865D01*
X21110539Y-34168865D02*
X21101015Y-34187912D01*
X21101015Y-34187912D02*
X21081967Y-34206960D01*
X21081967Y-34206960D02*
X21053396Y-34216484D01*
X21053396Y-34216484D02*
X21005777Y-34216484D01*
X21205777Y-34216484D02*
X21205777Y-34083150D01*
X21205777Y-34121246D02*
X21215301Y-34102198D01*
X21215301Y-34102198D02*
X21224824Y-34092674D01*
X21224824Y-34092674D02*
X21243872Y-34083150D01*
X21243872Y-34083150D02*
X21262920Y-34083150D01*
X21329586Y-34216484D02*
X21329586Y-34083150D01*
X21329586Y-34016484D02*
X21320063Y-34026008D01*
X21320063Y-34026008D02*
X21329586Y-34035531D01*
X21329586Y-34035531D02*
X21339110Y-34026008D01*
X21339110Y-34026008D02*
X21329586Y-34016484D01*
X21329586Y-34016484D02*
X21329586Y-34035531D01*
X21453396Y-34216484D02*
X21434348Y-34206960D01*
X21434348Y-34206960D02*
X21424824Y-34187912D01*
X21424824Y-34187912D02*
X21424824Y-34016484D01*
X21558158Y-34216484D02*
X21539110Y-34206960D01*
X21539110Y-34206960D02*
X21529586Y-34187912D01*
X21529586Y-34187912D02*
X21529586Y-34016484D01*
X21786729Y-34216484D02*
X21786729Y-34016484D01*
X21786729Y-34016484D02*
X21853396Y-34159341D01*
X21853396Y-34159341D02*
X21920063Y-34016484D01*
X21920063Y-34016484D02*
X21920063Y-34216484D01*
X22101015Y-34216484D02*
X22101015Y-34111722D01*
X22101015Y-34111722D02*
X22091491Y-34092674D01*
X22091491Y-34092674D02*
X22072444Y-34083150D01*
X22072444Y-34083150D02*
X22034348Y-34083150D01*
X22034348Y-34083150D02*
X22015301Y-34092674D01*
X22101015Y-34206960D02*
X22081967Y-34216484D01*
X22081967Y-34216484D02*
X22034348Y-34216484D01*
X22034348Y-34216484D02*
X22015301Y-34206960D01*
X22015301Y-34206960D02*
X22005777Y-34187912D01*
X22005777Y-34187912D02*
X22005777Y-34168865D01*
X22005777Y-34168865D02*
X22015301Y-34149817D01*
X22015301Y-34149817D02*
X22034348Y-34140293D01*
X22034348Y-34140293D02*
X22081967Y-34140293D01*
X22081967Y-34140293D02*
X22101015Y-34130770D01*
X22196253Y-34083150D02*
X22196253Y-34283150D01*
X22196253Y-34092674D02*
X22215301Y-34083150D01*
X22215301Y-34083150D02*
X22253396Y-34083150D01*
X22253396Y-34083150D02*
X22272444Y-34092674D01*
X22272444Y-34092674D02*
X22281967Y-34102198D01*
X22281967Y-34102198D02*
X22291491Y-34121246D01*
X22291491Y-34121246D02*
X22291491Y-34178389D01*
X22291491Y-34178389D02*
X22281967Y-34197436D01*
X22281967Y-34197436D02*
X22272444Y-34206960D01*
X22272444Y-34206960D02*
X22253396Y-34216484D01*
X22253396Y-34216484D02*
X22215301Y-34216484D01*
X22215301Y-34216484D02*
X22196253Y-34206960D01*
X22377205Y-34197436D02*
X22386729Y-34206960D01*
X22386729Y-34206960D02*
X22377205Y-34216484D01*
X22377205Y-34216484D02*
X22367682Y-34206960D01*
X22367682Y-34206960D02*
X22377205Y-34197436D01*
X22377205Y-34197436D02*
X22377205Y-34216484D01*
X22377205Y-34092674D02*
X22386729Y-34102198D01*
X22386729Y-34102198D02*
X22377205Y-34111722D01*
X22377205Y-34111722D02*
X22367682Y-34102198D01*
X22367682Y-34102198D02*
X22377205Y-34092674D01*
X22377205Y-34092674D02*
X22377205Y-34111722D01*
D10*
X20705000Y-34525000D02*
X20745000Y-34565000D01*
X20745000Y-34525000D02*
X20705000Y-34565000D01*
D11*
X21043872Y-34436484D02*
X21062920Y-34436484D01*
X21062920Y-34436484D02*
X21081967Y-34446008D01*
X21081967Y-34446008D02*
X21091491Y-34455531D01*
X21091491Y-34455531D02*
X21101015Y-34474579D01*
X21101015Y-34474579D02*
X21110539Y-34512674D01*
X21110539Y-34512674D02*
X21110539Y-34560293D01*
X21110539Y-34560293D02*
X21101015Y-34598389D01*
X21101015Y-34598389D02*
X21091491Y-34617436D01*
X21091491Y-34617436D02*
X21081967Y-34626960D01*
X21081967Y-34626960D02*
X21062920Y-34636484D01*
X21062920Y-34636484D02*
X21043872Y-34636484D01*
X21043872Y-34636484D02*
X21024824Y-34626960D01*
X21024824Y-34626960D02*
X21015301Y-34617436D01*
X21015301Y-34617436D02*
X21005777Y-34598389D01*
X21005777Y-34598389D02*
X20996253Y-34560293D01*
X20996253Y-34560293D02*
X20996253Y-34512674D01*
X20996253Y-34512674D02*
X21005777Y-34474579D01*
X21005777Y-34474579D02*
X21015301Y-34455531D01*
X21015301Y-34455531D02*
X21024824Y-34446008D01*
X21024824Y-34446008D02*
X21043872Y-34436484D01*
X21196253Y-34617436D02*
X21205777Y-34626960D01*
X21205777Y-34626960D02*
X21196253Y-34636484D01*
X21196253Y-34636484D02*
X21186729Y-34626960D01*
X21186729Y-34626960D02*
X21196253Y-34617436D01*
X21196253Y-34617436D02*
X21196253Y-34636484D01*
X21377205Y-34503150D02*
X21377205Y-34636484D01*
X21329586Y-34426960D02*
X21281967Y-34569817D01*
X21281967Y-34569817D02*
X21405777Y-34569817D01*
X21520063Y-34436484D02*
X21539110Y-34436484D01*
X21539110Y-34436484D02*
X21558158Y-34446008D01*
X21558158Y-34446008D02*
X21567682Y-34455531D01*
X21567682Y-34455531D02*
X21577205Y-34474579D01*
X21577205Y-34474579D02*
X21586729Y-34512674D01*
X21586729Y-34512674D02*
X21586729Y-34560293D01*
X21586729Y-34560293D02*
X21577205Y-34598389D01*
X21577205Y-34598389D02*
X21567682Y-34617436D01*
X21567682Y-34617436D02*
X21558158Y-34626960D01*
X21558158Y-34626960D02*
X21539110Y-34636484D01*
X21539110Y-34636484D02*
X21520063Y-34636484D01*
X21520063Y-34636484D02*
X21501015Y-34626960D01*
X21501015Y-34626960D02*
X21491491Y-34617436D01*
X21491491Y-34617436D02*
X21481967Y-34598389D01*
X21481967Y-34598389D02*
X21472444Y-34560293D01*
X21472444Y-34560293D02*
X21472444Y-34512674D01*
X21472444Y-34512674D02*
X21481967Y-34474579D01*
X21481967Y-34474579D02*
X21491491Y-34455531D01*
X21491491Y-34455531D02*
X21501015Y-34446008D01*
X21501015Y-34446008D02*
X21520063Y-34436484D01*
X21710539Y-34436484D02*
X21729586Y-34436484D01*
X21729586Y-34436484D02*
X21748634Y-34446008D01*
X21748634Y-34446008D02*
X21758158Y-34455531D01*
X21758158Y-34455531D02*
X21767682Y-34474579D01*
X21767682Y-34474579D02*
X21777205Y-34512674D01*
X21777205Y-34512674D02*
X21777205Y-34560293D01*
X21777205Y-34560293D02*
X21767682Y-34598389D01*
X21767682Y-34598389D02*
X21758158Y-34617436D01*
X21758158Y-34617436D02*
X21748634Y-34626960D01*
X21748634Y-34626960D02*
X21729586Y-34636484D01*
X21729586Y-34636484D02*
X21710539Y-34636484D01*
X21710539Y-34636484D02*
X21691491Y-34626960D01*
X21691491Y-34626960D02*
X21681967Y-34617436D01*
X21681967Y-34617436D02*
X21672444Y-34598389D01*
X21672444Y-34598389D02*
X21662920Y-34560293D01*
X21662920Y-34560293D02*
X21662920Y-34512674D01*
X21662920Y-34512674D02*
X21672444Y-34474579D01*
X21672444Y-34474579D02*
X21681967Y-34455531D01*
X21681967Y-34455531D02*
X21691491Y-34446008D01*
X21691491Y-34446008D02*
X21710539Y-34436484D01*
X21862920Y-34636484D02*
X21862920Y-34503150D01*
X21862920Y-34522198D02*
X21872444Y-34512674D01*
X21872444Y-34512674D02*
X21891491Y-34503150D01*
X21891491Y-34503150D02*
X21920063Y-34503150D01*
X21920063Y-34503150D02*
X21939110Y-34512674D01*
X21939110Y-34512674D02*
X21948634Y-34531722D01*
X21948634Y-34531722D02*
X21948634Y-34636484D01*
X21948634Y-34531722D02*
X21958158Y-34512674D01*
X21958158Y-34512674D02*
X21977205Y-34503150D01*
X21977205Y-34503150D02*
X22005777Y-34503150D01*
X22005777Y-34503150D02*
X22024825Y-34512674D01*
X22024825Y-34512674D02*
X22034348Y-34531722D01*
X22034348Y-34531722D02*
X22034348Y-34636484D01*
X22129586Y-34636484D02*
X22129586Y-34503150D01*
X22129586Y-34522198D02*
X22139110Y-34512674D01*
X22139110Y-34512674D02*
X22158158Y-34503150D01*
X22158158Y-34503150D02*
X22186729Y-34503150D01*
X22186729Y-34503150D02*
X22205777Y-34512674D01*
X22205777Y-34512674D02*
X22215301Y-34531722D01*
X22215301Y-34531722D02*
X22215301Y-34636484D01*
X22215301Y-34531722D02*
X22224825Y-34512674D01*
X22224825Y-34512674D02*
X22243872Y-34503150D01*
X22243872Y-34503150D02*
X22272444Y-34503150D01*
X22272444Y-34503150D02*
X22291491Y-34512674D01*
X22291491Y-34512674D02*
X22301015Y-34531722D01*
X22301015Y-34531722D02*
X22301015Y-34636484D01*
X22691491Y-34426960D02*
X22520063Y-34684103D01*
X22948634Y-34436484D02*
X22967682Y-34436484D01*
X22967682Y-34436484D02*
X22986729Y-34446008D01*
X22986729Y-34446008D02*
X22996253Y-34455531D01*
X22996253Y-34455531D02*
X23005777Y-34474579D01*
X23005777Y-34474579D02*
X23015301Y-34512674D01*
X23015301Y-34512674D02*
X23015301Y-34560293D01*
X23015301Y-34560293D02*
X23005777Y-34598389D01*
X23005777Y-34598389D02*
X22996253Y-34617436D01*
X22996253Y-34617436D02*
X22986729Y-34626960D01*
X22986729Y-34626960D02*
X22967682Y-34636484D01*
X22967682Y-34636484D02*
X22948634Y-34636484D01*
X22948634Y-34636484D02*
X22929586Y-34626960D01*
X22929586Y-34626960D02*
X22920063Y-34617436D01*
X22920063Y-34617436D02*
X22910539Y-34598389D01*
X22910539Y-34598389D02*
X22901015Y-34560293D01*
X22901015Y-34560293D02*
X22901015Y-34512674D01*
X22901015Y-34512674D02*
X22910539Y-34474579D01*
X22910539Y-34474579D02*
X22920063Y-34455531D01*
X22920063Y-34455531D02*
X22929586Y-34446008D01*
X22929586Y-34446008D02*
X22948634Y-34436484D01*
X23101015Y-34617436D02*
X23110539Y-34626960D01*
X23110539Y-34626960D02*
X23101015Y-34636484D01*
X23101015Y-34636484D02*
X23091491Y-34626960D01*
X23091491Y-34626960D02*
X23101015Y-34617436D01*
X23101015Y-34617436D02*
X23101015Y-34636484D01*
X23234348Y-34436484D02*
X23253396Y-34436484D01*
X23253396Y-34436484D02*
X23272444Y-34446008D01*
X23272444Y-34446008D02*
X23281967Y-34455531D01*
X23281967Y-34455531D02*
X23291491Y-34474579D01*
X23291491Y-34474579D02*
X23301015Y-34512674D01*
X23301015Y-34512674D02*
X23301015Y-34560293D01*
X23301015Y-34560293D02*
X23291491Y-34598389D01*
X23291491Y-34598389D02*
X23281967Y-34617436D01*
X23281967Y-34617436D02*
X23272444Y-34626960D01*
X23272444Y-34626960D02*
X23253396Y-34636484D01*
X23253396Y-34636484D02*
X23234348Y-34636484D01*
X23234348Y-34636484D02*
X23215301Y-34626960D01*
X23215301Y-34626960D02*
X23205777Y-34617436D01*
X23205777Y-34617436D02*
X23196253Y-34598389D01*
X23196253Y-34598389D02*
X23186729Y-34560293D01*
X23186729Y-34560293D02*
X23186729Y-34512674D01*
X23186729Y-34512674D02*
X23196253Y-34474579D01*
X23196253Y-34474579D02*
X23205777Y-34455531D01*
X23205777Y-34455531D02*
X23215301Y-34446008D01*
X23215301Y-34446008D02*
X23234348Y-34436484D01*
X23491491Y-34636484D02*
X23377206Y-34636484D01*
X23434348Y-34636484D02*
X23434348Y-34436484D01*
X23434348Y-34436484D02*
X23415301Y-34465055D01*
X23415301Y-34465055D02*
X23396253Y-34484103D01*
X23396253Y-34484103D02*
X23377206Y-34493627D01*
X23672444Y-34436484D02*
X23577206Y-34436484D01*
X23577206Y-34436484D02*
X23567682Y-34531722D01*
X23567682Y-34531722D02*
X23577206Y-34522198D01*
X23577206Y-34522198D02*
X23596253Y-34512674D01*
X23596253Y-34512674D02*
X23643872Y-34512674D01*
X23643872Y-34512674D02*
X23662920Y-34522198D01*
X23662920Y-34522198D02*
X23672444Y-34531722D01*
X23672444Y-34531722D02*
X23681967Y-34550770D01*
X23681967Y-34550770D02*
X23681967Y-34598389D01*
X23681967Y-34598389D02*
X23672444Y-34617436D01*
X23672444Y-34617436D02*
X23662920Y-34626960D01*
X23662920Y-34626960D02*
X23643872Y-34636484D01*
X23643872Y-34636484D02*
X23596253Y-34636484D01*
X23596253Y-34636484D02*
X23577206Y-34626960D01*
X23577206Y-34626960D02*
X23567682Y-34617436D01*
X23748634Y-34436484D02*
X23881967Y-34436484D01*
X23881967Y-34436484D02*
X23796253Y-34636484D01*
X23948634Y-34436484D02*
X23948634Y-34474579D01*
X24024825Y-34436484D02*
X24024825Y-34474579D01*
X24320063Y-34712674D02*
X24310539Y-34703150D01*
X24310539Y-34703150D02*
X24291491Y-34674579D01*
X24291491Y-34674579D02*
X24281968Y-34655531D01*
X24281968Y-34655531D02*
X24272444Y-34626960D01*
X24272444Y-34626960D02*
X24262920Y-34579341D01*
X24262920Y-34579341D02*
X24262920Y-34541246D01*
X24262920Y-34541246D02*
X24272444Y-34493627D01*
X24272444Y-34493627D02*
X24281968Y-34465055D01*
X24281968Y-34465055D02*
X24291491Y-34446008D01*
X24291491Y-34446008D02*
X24310539Y-34417436D01*
X24310539Y-34417436D02*
X24320063Y-34407912D01*
X24424825Y-34522198D02*
X24405777Y-34512674D01*
X24405777Y-34512674D02*
X24396253Y-34503150D01*
X24396253Y-34503150D02*
X24386729Y-34484103D01*
X24386729Y-34484103D02*
X24386729Y-34474579D01*
X24386729Y-34474579D02*
X24396253Y-34455531D01*
X24396253Y-34455531D02*
X24405777Y-34446008D01*
X24405777Y-34446008D02*
X24424825Y-34436484D01*
X24424825Y-34436484D02*
X24462920Y-34436484D01*
X24462920Y-34436484D02*
X24481968Y-34446008D01*
X24481968Y-34446008D02*
X24491491Y-34455531D01*
X24491491Y-34455531D02*
X24501015Y-34474579D01*
X24501015Y-34474579D02*
X24501015Y-34484103D01*
X24501015Y-34484103D02*
X24491491Y-34503150D01*
X24491491Y-34503150D02*
X24481968Y-34512674D01*
X24481968Y-34512674D02*
X24462920Y-34522198D01*
X24462920Y-34522198D02*
X24424825Y-34522198D01*
X24424825Y-34522198D02*
X24405777Y-34531722D01*
X24405777Y-34531722D02*
X24396253Y-34541246D01*
X24396253Y-34541246D02*
X24386729Y-34560293D01*
X24386729Y-34560293D02*
X24386729Y-34598389D01*
X24386729Y-34598389D02*
X24396253Y-34617436D01*
X24396253Y-34617436D02*
X24405777Y-34626960D01*
X24405777Y-34626960D02*
X24424825Y-34636484D01*
X24424825Y-34636484D02*
X24462920Y-34636484D01*
X24462920Y-34636484D02*
X24481968Y-34626960D01*
X24481968Y-34626960D02*
X24491491Y-34617436D01*
X24491491Y-34617436D02*
X24501015Y-34598389D01*
X24501015Y-34598389D02*
X24501015Y-34560293D01*
X24501015Y-34560293D02*
X24491491Y-34541246D01*
X24491491Y-34541246D02*
X24481968Y-34531722D01*
X24481968Y-34531722D02*
X24462920Y-34522198D01*
X24672444Y-34503150D02*
X24672444Y-34636484D01*
X24624825Y-34426960D02*
X24577206Y-34569817D01*
X24577206Y-34569817D02*
X24701015Y-34569817D01*
X24758158Y-34436484D02*
X24891491Y-34436484D01*
X24891491Y-34436484D02*
X24805777Y-34636484D01*
X25120063Y-34636484D02*
X25120063Y-34436484D01*
X25205777Y-34636484D02*
X25205777Y-34531722D01*
X25205777Y-34531722D02*
X25196253Y-34512674D01*
X25196253Y-34512674D02*
X25177206Y-34503150D01*
X25177206Y-34503150D02*
X25148634Y-34503150D01*
X25148634Y-34503150D02*
X25129587Y-34512674D01*
X25129587Y-34512674D02*
X25120063Y-34522198D01*
X25329587Y-34636484D02*
X25310539Y-34626960D01*
X25310539Y-34626960D02*
X25301015Y-34617436D01*
X25301015Y-34617436D02*
X25291491Y-34598389D01*
X25291491Y-34598389D02*
X25291491Y-34541246D01*
X25291491Y-34541246D02*
X25301015Y-34522198D01*
X25301015Y-34522198D02*
X25310539Y-34512674D01*
X25310539Y-34512674D02*
X25329587Y-34503150D01*
X25329587Y-34503150D02*
X25358158Y-34503150D01*
X25358158Y-34503150D02*
X25377206Y-34512674D01*
X25377206Y-34512674D02*
X25386730Y-34522198D01*
X25386730Y-34522198D02*
X25396253Y-34541246D01*
X25396253Y-34541246D02*
X25396253Y-34598389D01*
X25396253Y-34598389D02*
X25386730Y-34617436D01*
X25386730Y-34617436D02*
X25377206Y-34626960D01*
X25377206Y-34626960D02*
X25358158Y-34636484D01*
X25358158Y-34636484D02*
X25329587Y-34636484D01*
X25510539Y-34636484D02*
X25491491Y-34626960D01*
X25491491Y-34626960D02*
X25481968Y-34607912D01*
X25481968Y-34607912D02*
X25481968Y-34436484D01*
X25662920Y-34626960D02*
X25643872Y-34636484D01*
X25643872Y-34636484D02*
X25605777Y-34636484D01*
X25605777Y-34636484D02*
X25586730Y-34626960D01*
X25586730Y-34626960D02*
X25577206Y-34607912D01*
X25577206Y-34607912D02*
X25577206Y-34531722D01*
X25577206Y-34531722D02*
X25586730Y-34512674D01*
X25586730Y-34512674D02*
X25605777Y-34503150D01*
X25605777Y-34503150D02*
X25643872Y-34503150D01*
X25643872Y-34503150D02*
X25662920Y-34512674D01*
X25662920Y-34512674D02*
X25672444Y-34531722D01*
X25672444Y-34531722D02*
X25672444Y-34550770D01*
X25672444Y-34550770D02*
X25577206Y-34569817D01*
X25748634Y-34626960D02*
X25767682Y-34636484D01*
X25767682Y-34636484D02*
X25805777Y-34636484D01*
X25805777Y-34636484D02*
X25824825Y-34626960D01*
X25824825Y-34626960D02*
X25834349Y-34607912D01*
X25834349Y-34607912D02*
X25834349Y-34598389D01*
X25834349Y-34598389D02*
X25824825Y-34579341D01*
X25824825Y-34579341D02*
X25805777Y-34569817D01*
X25805777Y-34569817D02*
X25777206Y-34569817D01*
X25777206Y-34569817D02*
X25758158Y-34560293D01*
X25758158Y-34560293D02*
X25748634Y-34541246D01*
X25748634Y-34541246D02*
X25748634Y-34531722D01*
X25748634Y-34531722D02*
X25758158Y-34512674D01*
X25758158Y-34512674D02*
X25777206Y-34503150D01*
X25777206Y-34503150D02*
X25805777Y-34503150D01*
X25805777Y-34503150D02*
X25824825Y-34512674D01*
X25901015Y-34712674D02*
X25910539Y-34703150D01*
X25910539Y-34703150D02*
X25929587Y-34674579D01*
X25929587Y-34674579D02*
X25939111Y-34655531D01*
X25939111Y-34655531D02*
X25948634Y-34626960D01*
X25948634Y-34626960D02*
X25958158Y-34579341D01*
X25958158Y-34579341D02*
X25958158Y-34541246D01*
X25958158Y-34541246D02*
X25948634Y-34493627D01*
X25948634Y-34493627D02*
X25939111Y-34465055D01*
X25939111Y-34465055D02*
X25929587Y-34446008D01*
X25929587Y-34446008D02*
X25910539Y-34417436D01*
X25910539Y-34417436D02*
X25901015Y-34407912D01*
D12*
X20745000Y-34809000D02*
G75*
G03*
X20745000Y-34809000I-76000J0D01*
G01*
D11*
X21110539Y-34900484D02*
X20996253Y-34900484D01*
X21053396Y-34900484D02*
X21053396Y-34700484D01*
X21053396Y-34700484D02*
X21034348Y-34729055D01*
X21034348Y-34729055D02*
X21015301Y-34748103D01*
X21015301Y-34748103D02*
X20996253Y-34757627D01*
X21196253Y-34881436D02*
X21205777Y-34890960D01*
X21205777Y-34890960D02*
X21196253Y-34900484D01*
X21196253Y-34900484D02*
X21186729Y-34890960D01*
X21186729Y-34890960D02*
X21196253Y-34881436D01*
X21196253Y-34881436D02*
X21196253Y-34900484D01*
X21386729Y-34700484D02*
X21291491Y-34700484D01*
X21291491Y-34700484D02*
X21281967Y-34795722D01*
X21281967Y-34795722D02*
X21291491Y-34786198D01*
X21291491Y-34786198D02*
X21310539Y-34776674D01*
X21310539Y-34776674D02*
X21358158Y-34776674D01*
X21358158Y-34776674D02*
X21377205Y-34786198D01*
X21377205Y-34786198D02*
X21386729Y-34795722D01*
X21386729Y-34795722D02*
X21396253Y-34814770D01*
X21396253Y-34814770D02*
X21396253Y-34862389D01*
X21396253Y-34862389D02*
X21386729Y-34881436D01*
X21386729Y-34881436D02*
X21377205Y-34890960D01*
X21377205Y-34890960D02*
X21358158Y-34900484D01*
X21358158Y-34900484D02*
X21310539Y-34900484D01*
X21310539Y-34900484D02*
X21291491Y-34890960D01*
X21291491Y-34890960D02*
X21281967Y-34881436D01*
X21472444Y-34719531D02*
X21481967Y-34710008D01*
X21481967Y-34710008D02*
X21501015Y-34700484D01*
X21501015Y-34700484D02*
X21548634Y-34700484D01*
X21548634Y-34700484D02*
X21567682Y-34710008D01*
X21567682Y-34710008D02*
X21577205Y-34719531D01*
X21577205Y-34719531D02*
X21586729Y-34738579D01*
X21586729Y-34738579D02*
X21586729Y-34757627D01*
X21586729Y-34757627D02*
X21577205Y-34786198D01*
X21577205Y-34786198D02*
X21462920Y-34900484D01*
X21462920Y-34900484D02*
X21586729Y-34900484D01*
X21710539Y-34700484D02*
X21729586Y-34700484D01*
X21729586Y-34700484D02*
X21748634Y-34710008D01*
X21748634Y-34710008D02*
X21758158Y-34719531D01*
X21758158Y-34719531D02*
X21767682Y-34738579D01*
X21767682Y-34738579D02*
X21777205Y-34776674D01*
X21777205Y-34776674D02*
X21777205Y-34824293D01*
X21777205Y-34824293D02*
X21767682Y-34862389D01*
X21767682Y-34862389D02*
X21758158Y-34881436D01*
X21758158Y-34881436D02*
X21748634Y-34890960D01*
X21748634Y-34890960D02*
X21729586Y-34900484D01*
X21729586Y-34900484D02*
X21710539Y-34900484D01*
X21710539Y-34900484D02*
X21691491Y-34890960D01*
X21691491Y-34890960D02*
X21681967Y-34881436D01*
X21681967Y-34881436D02*
X21672444Y-34862389D01*
X21672444Y-34862389D02*
X21662920Y-34824293D01*
X21662920Y-34824293D02*
X21662920Y-34776674D01*
X21662920Y-34776674D02*
X21672444Y-34738579D01*
X21672444Y-34738579D02*
X21681967Y-34719531D01*
X21681967Y-34719531D02*
X21691491Y-34710008D01*
X21691491Y-34710008D02*
X21710539Y-34700484D01*
X21862920Y-34900484D02*
X21862920Y-34767150D01*
X21862920Y-34786198D02*
X21872444Y-34776674D01*
X21872444Y-34776674D02*
X21891491Y-34767150D01*
X21891491Y-34767150D02*
X21920063Y-34767150D01*
X21920063Y-34767150D02*
X21939110Y-34776674D01*
X21939110Y-34776674D02*
X21948634Y-34795722D01*
X21948634Y-34795722D02*
X21948634Y-34900484D01*
X21948634Y-34795722D02*
X21958158Y-34776674D01*
X21958158Y-34776674D02*
X21977205Y-34767150D01*
X21977205Y-34767150D02*
X22005777Y-34767150D01*
X22005777Y-34767150D02*
X22024825Y-34776674D01*
X22024825Y-34776674D02*
X22034348Y-34795722D01*
X22034348Y-34795722D02*
X22034348Y-34900484D01*
X22129586Y-34900484D02*
X22129586Y-34767150D01*
X22129586Y-34786198D02*
X22139110Y-34776674D01*
X22139110Y-34776674D02*
X22158158Y-34767150D01*
X22158158Y-34767150D02*
X22186729Y-34767150D01*
X22186729Y-34767150D02*
X22205777Y-34776674D01*
X22205777Y-34776674D02*
X22215301Y-34795722D01*
X22215301Y-34795722D02*
X22215301Y-34900484D01*
X22215301Y-34795722D02*
X22224825Y-34776674D01*
X22224825Y-34776674D02*
X22243872Y-34767150D01*
X22243872Y-34767150D02*
X22272444Y-34767150D01*
X22272444Y-34767150D02*
X22291491Y-34776674D01*
X22291491Y-34776674D02*
X22301015Y-34795722D01*
X22301015Y-34795722D02*
X22301015Y-34900484D01*
X22691491Y-34690960D02*
X22520063Y-34948103D01*
X22948634Y-34700484D02*
X22967682Y-34700484D01*
X22967682Y-34700484D02*
X22986729Y-34710008D01*
X22986729Y-34710008D02*
X22996253Y-34719531D01*
X22996253Y-34719531D02*
X23005777Y-34738579D01*
X23005777Y-34738579D02*
X23015301Y-34776674D01*
X23015301Y-34776674D02*
X23015301Y-34824293D01*
X23015301Y-34824293D02*
X23005777Y-34862389D01*
X23005777Y-34862389D02*
X22996253Y-34881436D01*
X22996253Y-34881436D02*
X22986729Y-34890960D01*
X22986729Y-34890960D02*
X22967682Y-34900484D01*
X22967682Y-34900484D02*
X22948634Y-34900484D01*
X22948634Y-34900484D02*
X22929586Y-34890960D01*
X22929586Y-34890960D02*
X22920063Y-34881436D01*
X22920063Y-34881436D02*
X22910539Y-34862389D01*
X22910539Y-34862389D02*
X22901015Y-34824293D01*
X22901015Y-34824293D02*
X22901015Y-34776674D01*
X22901015Y-34776674D02*
X22910539Y-34738579D01*
X22910539Y-34738579D02*
X22920063Y-34719531D01*
X22920063Y-34719531D02*
X22929586Y-34710008D01*
X22929586Y-34710008D02*
X22948634Y-34700484D01*
X23101015Y-34881436D02*
X23110539Y-34890960D01*
X23110539Y-34890960D02*
X23101015Y-34900484D01*
X23101015Y-34900484D02*
X23091491Y-34890960D01*
X23091491Y-34890960D02*
X23101015Y-34881436D01*
X23101015Y-34881436D02*
X23101015Y-34900484D01*
X23234348Y-34700484D02*
X23253396Y-34700484D01*
X23253396Y-34700484D02*
X23272444Y-34710008D01*
X23272444Y-34710008D02*
X23281967Y-34719531D01*
X23281967Y-34719531D02*
X23291491Y-34738579D01*
X23291491Y-34738579D02*
X23301015Y-34776674D01*
X23301015Y-34776674D02*
X23301015Y-34824293D01*
X23301015Y-34824293D02*
X23291491Y-34862389D01*
X23291491Y-34862389D02*
X23281967Y-34881436D01*
X23281967Y-34881436D02*
X23272444Y-34890960D01*
X23272444Y-34890960D02*
X23253396Y-34900484D01*
X23253396Y-34900484D02*
X23234348Y-34900484D01*
X23234348Y-34900484D02*
X23215301Y-34890960D01*
X23215301Y-34890960D02*
X23205777Y-34881436D01*
X23205777Y-34881436D02*
X23196253Y-34862389D01*
X23196253Y-34862389D02*
X23186729Y-34824293D01*
X23186729Y-34824293D02*
X23186729Y-34776674D01*
X23186729Y-34776674D02*
X23196253Y-34738579D01*
X23196253Y-34738579D02*
X23205777Y-34719531D01*
X23205777Y-34719531D02*
X23215301Y-34710008D01*
X23215301Y-34710008D02*
X23234348Y-34700484D01*
X23481967Y-34700484D02*
X23386729Y-34700484D01*
X23386729Y-34700484D02*
X23377206Y-34795722D01*
X23377206Y-34795722D02*
X23386729Y-34786198D01*
X23386729Y-34786198D02*
X23405777Y-34776674D01*
X23405777Y-34776674D02*
X23453396Y-34776674D01*
X23453396Y-34776674D02*
X23472444Y-34786198D01*
X23472444Y-34786198D02*
X23481967Y-34795722D01*
X23481967Y-34795722D02*
X23491491Y-34814770D01*
X23491491Y-34814770D02*
X23491491Y-34862389D01*
X23491491Y-34862389D02*
X23481967Y-34881436D01*
X23481967Y-34881436D02*
X23472444Y-34890960D01*
X23472444Y-34890960D02*
X23453396Y-34900484D01*
X23453396Y-34900484D02*
X23405777Y-34900484D01*
X23405777Y-34900484D02*
X23386729Y-34890960D01*
X23386729Y-34890960D02*
X23377206Y-34881436D01*
X23586729Y-34900484D02*
X23624825Y-34900484D01*
X23624825Y-34900484D02*
X23643872Y-34890960D01*
X23643872Y-34890960D02*
X23653396Y-34881436D01*
X23653396Y-34881436D02*
X23672444Y-34852865D01*
X23672444Y-34852865D02*
X23681967Y-34814770D01*
X23681967Y-34814770D02*
X23681967Y-34738579D01*
X23681967Y-34738579D02*
X23672444Y-34719531D01*
X23672444Y-34719531D02*
X23662920Y-34710008D01*
X23662920Y-34710008D02*
X23643872Y-34700484D01*
X23643872Y-34700484D02*
X23605777Y-34700484D01*
X23605777Y-34700484D02*
X23586729Y-34710008D01*
X23586729Y-34710008D02*
X23577206Y-34719531D01*
X23577206Y-34719531D02*
X23567682Y-34738579D01*
X23567682Y-34738579D02*
X23567682Y-34786198D01*
X23567682Y-34786198D02*
X23577206Y-34805246D01*
X23577206Y-34805246D02*
X23586729Y-34814770D01*
X23586729Y-34814770D02*
X23605777Y-34824293D01*
X23605777Y-34824293D02*
X23643872Y-34824293D01*
X23643872Y-34824293D02*
X23662920Y-34814770D01*
X23662920Y-34814770D02*
X23672444Y-34805246D01*
X23672444Y-34805246D02*
X23681967Y-34786198D01*
X23796253Y-34786198D02*
X23777206Y-34776674D01*
X23777206Y-34776674D02*
X23767682Y-34767150D01*
X23767682Y-34767150D02*
X23758158Y-34748103D01*
X23758158Y-34748103D02*
X23758158Y-34738579D01*
X23758158Y-34738579D02*
X23767682Y-34719531D01*
X23767682Y-34719531D02*
X23777206Y-34710008D01*
X23777206Y-34710008D02*
X23796253Y-34700484D01*
X23796253Y-34700484D02*
X23834348Y-34700484D01*
X23834348Y-34700484D02*
X23853396Y-34710008D01*
X23853396Y-34710008D02*
X23862920Y-34719531D01*
X23862920Y-34719531D02*
X23872444Y-34738579D01*
X23872444Y-34738579D02*
X23872444Y-34748103D01*
X23872444Y-34748103D02*
X23862920Y-34767150D01*
X23862920Y-34767150D02*
X23853396Y-34776674D01*
X23853396Y-34776674D02*
X23834348Y-34786198D01*
X23834348Y-34786198D02*
X23796253Y-34786198D01*
X23796253Y-34786198D02*
X23777206Y-34795722D01*
X23777206Y-34795722D02*
X23767682Y-34805246D01*
X23767682Y-34805246D02*
X23758158Y-34824293D01*
X23758158Y-34824293D02*
X23758158Y-34862389D01*
X23758158Y-34862389D02*
X23767682Y-34881436D01*
X23767682Y-34881436D02*
X23777206Y-34890960D01*
X23777206Y-34890960D02*
X23796253Y-34900484D01*
X23796253Y-34900484D02*
X23834348Y-34900484D01*
X23834348Y-34900484D02*
X23853396Y-34890960D01*
X23853396Y-34890960D02*
X23862920Y-34881436D01*
X23862920Y-34881436D02*
X23872444Y-34862389D01*
X23872444Y-34862389D02*
X23872444Y-34824293D01*
X23872444Y-34824293D02*
X23862920Y-34805246D01*
X23862920Y-34805246D02*
X23853396Y-34795722D01*
X23853396Y-34795722D02*
X23834348Y-34786198D01*
X23948634Y-34700484D02*
X23948634Y-34738579D01*
X24024825Y-34700484D02*
X24024825Y-34738579D01*
X24320063Y-34976674D02*
X24310539Y-34967150D01*
X24310539Y-34967150D02*
X24291491Y-34938579D01*
X24291491Y-34938579D02*
X24281968Y-34919531D01*
X24281968Y-34919531D02*
X24272444Y-34890960D01*
X24272444Y-34890960D02*
X24262920Y-34843341D01*
X24262920Y-34843341D02*
X24262920Y-34805246D01*
X24262920Y-34805246D02*
X24272444Y-34757627D01*
X24272444Y-34757627D02*
X24281968Y-34729055D01*
X24281968Y-34729055D02*
X24291491Y-34710008D01*
X24291491Y-34710008D02*
X24310539Y-34681436D01*
X24310539Y-34681436D02*
X24320063Y-34671912D01*
X24481968Y-34700484D02*
X24443872Y-34700484D01*
X24443872Y-34700484D02*
X24424825Y-34710008D01*
X24424825Y-34710008D02*
X24415301Y-34719531D01*
X24415301Y-34719531D02*
X24396253Y-34748103D01*
X24396253Y-34748103D02*
X24386729Y-34786198D01*
X24386729Y-34786198D02*
X24386729Y-34862389D01*
X24386729Y-34862389D02*
X24396253Y-34881436D01*
X24396253Y-34881436D02*
X24405777Y-34890960D01*
X24405777Y-34890960D02*
X24424825Y-34900484D01*
X24424825Y-34900484D02*
X24462920Y-34900484D01*
X24462920Y-34900484D02*
X24481968Y-34890960D01*
X24481968Y-34890960D02*
X24491491Y-34881436D01*
X24491491Y-34881436D02*
X24501015Y-34862389D01*
X24501015Y-34862389D02*
X24501015Y-34814770D01*
X24501015Y-34814770D02*
X24491491Y-34795722D01*
X24491491Y-34795722D02*
X24481968Y-34786198D01*
X24481968Y-34786198D02*
X24462920Y-34776674D01*
X24462920Y-34776674D02*
X24424825Y-34776674D01*
X24424825Y-34776674D02*
X24405777Y-34786198D01*
X24405777Y-34786198D02*
X24396253Y-34795722D01*
X24396253Y-34795722D02*
X24386729Y-34814770D01*
X24739110Y-34900484D02*
X24739110Y-34700484D01*
X24824825Y-34900484D02*
X24824825Y-34795722D01*
X24824825Y-34795722D02*
X24815301Y-34776674D01*
X24815301Y-34776674D02*
X24796253Y-34767150D01*
X24796253Y-34767150D02*
X24767682Y-34767150D01*
X24767682Y-34767150D02*
X24748634Y-34776674D01*
X24748634Y-34776674D02*
X24739110Y-34786198D01*
X24948634Y-34900484D02*
X24929587Y-34890960D01*
X24929587Y-34890960D02*
X24920063Y-34881436D01*
X24920063Y-34881436D02*
X24910539Y-34862389D01*
X24910539Y-34862389D02*
X24910539Y-34805246D01*
X24910539Y-34805246D02*
X24920063Y-34786198D01*
X24920063Y-34786198D02*
X24929587Y-34776674D01*
X24929587Y-34776674D02*
X24948634Y-34767150D01*
X24948634Y-34767150D02*
X24977206Y-34767150D01*
X24977206Y-34767150D02*
X24996253Y-34776674D01*
X24996253Y-34776674D02*
X25005777Y-34786198D01*
X25005777Y-34786198D02*
X25015301Y-34805246D01*
X25015301Y-34805246D02*
X25015301Y-34862389D01*
X25015301Y-34862389D02*
X25005777Y-34881436D01*
X25005777Y-34881436D02*
X24996253Y-34890960D01*
X24996253Y-34890960D02*
X24977206Y-34900484D01*
X24977206Y-34900484D02*
X24948634Y-34900484D01*
X25129587Y-34900484D02*
X25110539Y-34890960D01*
X25110539Y-34890960D02*
X25101015Y-34871912D01*
X25101015Y-34871912D02*
X25101015Y-34700484D01*
X25281968Y-34890960D02*
X25262920Y-34900484D01*
X25262920Y-34900484D02*
X25224825Y-34900484D01*
X25224825Y-34900484D02*
X25205777Y-34890960D01*
X25205777Y-34890960D02*
X25196253Y-34871912D01*
X25196253Y-34871912D02*
X25196253Y-34795722D01*
X25196253Y-34795722D02*
X25205777Y-34776674D01*
X25205777Y-34776674D02*
X25224825Y-34767150D01*
X25224825Y-34767150D02*
X25262920Y-34767150D01*
X25262920Y-34767150D02*
X25281968Y-34776674D01*
X25281968Y-34776674D02*
X25291491Y-34795722D01*
X25291491Y-34795722D02*
X25291491Y-34814770D01*
X25291491Y-34814770D02*
X25196253Y-34833817D01*
X25367682Y-34890960D02*
X25386730Y-34900484D01*
X25386730Y-34900484D02*
X25424825Y-34900484D01*
X25424825Y-34900484D02*
X25443872Y-34890960D01*
X25443872Y-34890960D02*
X25453396Y-34871912D01*
X25453396Y-34871912D02*
X25453396Y-34862389D01*
X25453396Y-34862389D02*
X25443872Y-34843341D01*
X25443872Y-34843341D02*
X25424825Y-34833817D01*
X25424825Y-34833817D02*
X25396253Y-34833817D01*
X25396253Y-34833817D02*
X25377206Y-34824293D01*
X25377206Y-34824293D02*
X25367682Y-34805246D01*
X25367682Y-34805246D02*
X25367682Y-34795722D01*
X25367682Y-34795722D02*
X25377206Y-34776674D01*
X25377206Y-34776674D02*
X25396253Y-34767150D01*
X25396253Y-34767150D02*
X25424825Y-34767150D01*
X25424825Y-34767150D02*
X25443872Y-34776674D01*
X25520063Y-34976674D02*
X25529587Y-34967150D01*
X25529587Y-34967150D02*
X25548634Y-34938579D01*
X25548634Y-34938579D02*
X25558158Y-34919531D01*
X25558158Y-34919531D02*
X25567682Y-34890960D01*
X25567682Y-34890960D02*
X25577206Y-34843341D01*
X25577206Y-34843341D02*
X25577206Y-34805246D01*
X25577206Y-34805246D02*
X25567682Y-34757627D01*
X25567682Y-34757627D02*
X25558158Y-34729055D01*
X25558158Y-34729055D02*
X25548634Y-34710008D01*
X25548634Y-34710008D02*
X25529587Y-34681436D01*
X25529587Y-34681436D02*
X25520063Y-34671912D01*
M02*
