G04 #@! TF.GenerationSoftware,KiCad,Pcbnew,7.0.9*
G04 #@! TF.CreationDate,2025-01-02T12:42:28+01:00*
G04 #@! TF.ProjectId,lightning-map,6c696768-746e-4696-9e67-2d6d61702e6b,rev?*
G04 #@! TF.SameCoordinates,Original*
G04 #@! TF.FileFunction,Copper,L1,Top*
G04 #@! TF.FilePolarity,Positive*
%FSLAX46Y46*%
G04 Gerber Fmt 4.6, Leading zero omitted, Abs format (unit mm)*
G04 Created by KiCad (PCBNEW 7.0.9) date 2025-01-02 12:42:28*
%MOMM*%
%LPD*%
G01*
G04 APERTURE LIST*
G04 Aperture macros list*
%AMRoundRect*
0 Rectangle with rounded corners*
0 $1 Rounding radius*
0 $2 $3 $4 $5 $6 $7 $8 $9 X,Y pos of 4 corners*
0 Add a 4 corners polygon primitive as box body*
4,1,4,$2,$3,$4,$5,$6,$7,$8,$9,$2,$3,0*
0 Add four circle primitives for the rounded corners*
1,1,$1+$1,$2,$3*
1,1,$1+$1,$4,$5*
1,1,$1+$1,$6,$7*
1,1,$1+$1,$8,$9*
0 Add four rect primitives between the rounded corners*
20,1,$1+$1,$2,$3,$4,$5,0*
20,1,$1+$1,$4,$5,$6,$7,0*
20,1,$1+$1,$6,$7,$8,$9,0*
20,1,$1+$1,$8,$9,$2,$3,0*%
G04 Aperture macros list end*
G04 #@! TA.AperFunction,SMDPad,CuDef*
%ADD10RoundRect,0.218750X-0.218750X-0.256250X0.218750X-0.256250X0.218750X0.256250X-0.218750X0.256250X0*%
G04 #@! TD*
G04 #@! TA.AperFunction,SMDPad,CuDef*
%ADD11RoundRect,0.140000X-0.140000X-0.170000X0.140000X-0.170000X0.140000X0.170000X-0.140000X0.170000X0*%
G04 #@! TD*
G04 #@! TA.AperFunction,ComponentPad*
%ADD12R,3.000000X3.000000*%
G04 #@! TD*
G04 #@! TA.AperFunction,ComponentPad*
%ADD13C,3.000000*%
G04 #@! TD*
G04 #@! TA.AperFunction,SMDPad,CuDef*
%ADD14RoundRect,0.200000X-0.200000X-0.275000X0.200000X-0.275000X0.200000X0.275000X-0.200000X0.275000X0*%
G04 #@! TD*
G04 #@! TA.AperFunction,SMDPad,CuDef*
%ADD15RoundRect,0.200000X0.275000X-0.200000X0.275000X0.200000X-0.275000X0.200000X-0.275000X-0.200000X0*%
G04 #@! TD*
G04 #@! TA.AperFunction,SMDPad,CuDef*
%ADD16RoundRect,0.140000X-0.170000X0.140000X-0.170000X-0.140000X0.170000X-0.140000X0.170000X0.140000X0*%
G04 #@! TD*
G04 #@! TA.AperFunction,SMDPad,CuDef*
%ADD17RoundRect,0.050000X-0.362500X-0.050000X0.362500X-0.050000X0.362500X0.050000X-0.362500X0.050000X0*%
G04 #@! TD*
G04 #@! TA.AperFunction,SMDPad,CuDef*
%ADD18RoundRect,0.050000X-0.050000X-0.362500X0.050000X-0.362500X0.050000X0.362500X-0.050000X0.362500X0*%
G04 #@! TD*
G04 #@! TA.AperFunction,SMDPad,CuDef*
%ADD19R,2.300000X2.300000*%
G04 #@! TD*
G04 #@! TA.AperFunction,SMDPad,CuDef*
%ADD20RoundRect,0.200000X0.200000X0.275000X-0.200000X0.275000X-0.200000X-0.275000X0.200000X-0.275000X0*%
G04 #@! TD*
G04 #@! TA.AperFunction,ViaPad*
%ADD21C,0.800000*%
G04 #@! TD*
G04 #@! TA.AperFunction,Conductor*
%ADD22C,0.200000*%
G04 #@! TD*
G04 #@! TA.AperFunction,Conductor*
%ADD23C,0.250000*%
G04 #@! TD*
G04 APERTURE END LIST*
D10*
X337500000Y-145000000D03*
X339075000Y-145000000D03*
X312500000Y-175000000D03*
X314075000Y-175000000D03*
X287500000Y-255000000D03*
X289075000Y-255000000D03*
X307500000Y-155000000D03*
X309075000Y-155000000D03*
X362500000Y-140000000D03*
X364075000Y-140000000D03*
X317500000Y-130000000D03*
X319075000Y-130000000D03*
X332500000Y-300000000D03*
X334075000Y-300000000D03*
D11*
X258520000Y-246950000D03*
X259480000Y-246950000D03*
D10*
X302500000Y-285000000D03*
X304075000Y-285000000D03*
X297500000Y-155000000D03*
X299075000Y-155000000D03*
X307500000Y-265000000D03*
X309075000Y-265000000D03*
X322500000Y-265000000D03*
X324075000Y-265000000D03*
X322500000Y-130000000D03*
X324075000Y-130000000D03*
X297500000Y-280000000D03*
X299075000Y-280000000D03*
X292500000Y-290000000D03*
X294075000Y-290000000D03*
X282500000Y-285000000D03*
X284075000Y-285000000D03*
X332500000Y-205000000D03*
X334075000Y-205000000D03*
X297500000Y-250000000D03*
X299075000Y-250000000D03*
X292500000Y-305000000D03*
X294075000Y-305000000D03*
X337500000Y-290000000D03*
X339075000Y-290000000D03*
X307500000Y-300000000D03*
X309075000Y-300000000D03*
X332500000Y-130000000D03*
X334075000Y-130000000D03*
X347500000Y-135000000D03*
X349075000Y-135000000D03*
X347500000Y-180000000D03*
X349075000Y-180000000D03*
D12*
X225000000Y-107000000D03*
D13*
X230080000Y-107000000D03*
D10*
X287500000Y-285000000D03*
X289075000Y-285000000D03*
X337500000Y-190000000D03*
X339075000Y-190000000D03*
X342500000Y-95000000D03*
X344075000Y-95000000D03*
X322500000Y-155000000D03*
X324075000Y-155000000D03*
X287500000Y-265000000D03*
X289075000Y-265000000D03*
X327500000Y-275000000D03*
X329075000Y-275000000D03*
X302500000Y-165000000D03*
X304075000Y-165000000D03*
X302500000Y-205000000D03*
X304075000Y-205000000D03*
X347500000Y-185000000D03*
X349075000Y-185000000D03*
X342500000Y-150000000D03*
X344075000Y-150000000D03*
X297500000Y-215000000D03*
X299075000Y-215000000D03*
X332500000Y-270000000D03*
X334075000Y-270000000D03*
X282500000Y-220000000D03*
X284075000Y-220000000D03*
X347500000Y-155000000D03*
X349075000Y-155000000D03*
X312500000Y-185000000D03*
X314075000Y-185000000D03*
X347500000Y-140000000D03*
X349075000Y-140000000D03*
X287500000Y-310000000D03*
X289075000Y-310000000D03*
X312500000Y-270000000D03*
X314075000Y-270000000D03*
X292500000Y-230000000D03*
X294075000Y-230000000D03*
X337500000Y-265000000D03*
X339075000Y-265000000D03*
D14*
X221175000Y-305000000D03*
X222825000Y-305000000D03*
D10*
X367500000Y-115000000D03*
X369075000Y-115000000D03*
X272500000Y-285000000D03*
X274075000Y-285000000D03*
X292500000Y-285000000D03*
X294075000Y-285000000D03*
X327500000Y-300000000D03*
X329075000Y-300000000D03*
X342500000Y-110000000D03*
X344075000Y-110000000D03*
X287500000Y-240000000D03*
X289075000Y-240000000D03*
D11*
X258520000Y-188850000D03*
X259480000Y-188850000D03*
D10*
X327500000Y-205000000D03*
X329075000Y-205000000D03*
X307500000Y-180000000D03*
X309075000Y-180000000D03*
X282500000Y-305000000D03*
X284075000Y-305000000D03*
X312500000Y-255000000D03*
X314075000Y-255000000D03*
X302500000Y-280000000D03*
X304075000Y-280000000D03*
X347500000Y-115000000D03*
X349075000Y-115000000D03*
X317500000Y-280000000D03*
X319075000Y-280000000D03*
X357500000Y-145000000D03*
X359075000Y-145000000D03*
X317500000Y-290000000D03*
X319075000Y-290000000D03*
X292500000Y-325000000D03*
X294075000Y-325000000D03*
X357500000Y-135000000D03*
X359075000Y-135000000D03*
X317500000Y-305000000D03*
X319075000Y-305000000D03*
X322500000Y-200000000D03*
X324075000Y-200000000D03*
X302500000Y-195000000D03*
X304075000Y-195000000D03*
X312500000Y-245000000D03*
X314075000Y-245000000D03*
X287500000Y-195000000D03*
X289075000Y-195000000D03*
X292500000Y-215000000D03*
X294075000Y-215000000D03*
X342500000Y-130000000D03*
X344075000Y-130000000D03*
X307500000Y-305000000D03*
X309075000Y-305000000D03*
X347500000Y-160000000D03*
X349075000Y-160000000D03*
X317500000Y-235000000D03*
X319075000Y-235000000D03*
X337500000Y-139640000D03*
X339075000Y-139640000D03*
X297500000Y-300000000D03*
X299075000Y-300000000D03*
X367500000Y-160000000D03*
X369075000Y-160000000D03*
X292500000Y-240000000D03*
X294075000Y-240000000D03*
X327500000Y-210000000D03*
X329075000Y-210000000D03*
X322500000Y-170000000D03*
X324075000Y-170000000D03*
X307500000Y-210000000D03*
X309075000Y-210000000D03*
X317500000Y-265000000D03*
X319075000Y-265000000D03*
X282500000Y-250000000D03*
X284075000Y-250000000D03*
X287500000Y-280000000D03*
X289075000Y-280000000D03*
X337500000Y-180000000D03*
X339075000Y-180000000D03*
X307500000Y-160000000D03*
X309075000Y-160000000D03*
X337500000Y-175000000D03*
X339075000Y-175000000D03*
X322500000Y-160000000D03*
X324075000Y-160000000D03*
X347500000Y-170000000D03*
X349075000Y-170000000D03*
X322500000Y-175000000D03*
X324075000Y-175000000D03*
X277500000Y-285000000D03*
X279075000Y-285000000D03*
X307500000Y-215000000D03*
X309075000Y-215000000D03*
X307500000Y-235000000D03*
X309075000Y-235000000D03*
X277500000Y-260000000D03*
X279075000Y-260000000D03*
X312500000Y-295000000D03*
X314075000Y-295000000D03*
X322500000Y-255000000D03*
X324075000Y-255000000D03*
X307500000Y-230000000D03*
X309075000Y-230000000D03*
X362500000Y-130000000D03*
X364075000Y-130000000D03*
X317500000Y-170000000D03*
X319075000Y-170000000D03*
X302500000Y-150000000D03*
X304075000Y-150000000D03*
X352500000Y-125000000D03*
X354075000Y-125000000D03*
X332500000Y-165000000D03*
X334075000Y-165000000D03*
X332500000Y-210000000D03*
X334075000Y-210000000D03*
X312500000Y-260000000D03*
X314075000Y-260000000D03*
X297500000Y-315000000D03*
X299075000Y-315000000D03*
X292500000Y-265000000D03*
X294075000Y-265000000D03*
X282500000Y-310000000D03*
X284075000Y-310000000D03*
X332500000Y-120000000D03*
X334075000Y-120000000D03*
X357500000Y-105000000D03*
X359075000Y-105000000D03*
X332500000Y-190000000D03*
X334075000Y-190000000D03*
X292500000Y-235000000D03*
X294075000Y-235000000D03*
X307500000Y-275000000D03*
X309075000Y-275000000D03*
X307500000Y-225000000D03*
X309075000Y-225000000D03*
X352500000Y-160000000D03*
X354075000Y-160000000D03*
X347500000Y-145000000D03*
X349075000Y-145000000D03*
X302500000Y-300000000D03*
X304075000Y-300000000D03*
X307500000Y-140000000D03*
X309075000Y-140000000D03*
X362500000Y-105000000D03*
X364075000Y-105000000D03*
X312500000Y-290000000D03*
X314075000Y-290000000D03*
X327500000Y-140000000D03*
X329075000Y-140000000D03*
X287500000Y-295000000D03*
X289075000Y-295000000D03*
X357500000Y-140000000D03*
X359075000Y-140000000D03*
X342500000Y-190000000D03*
X344075000Y-190000000D03*
X312500000Y-170000000D03*
X314075000Y-170000000D03*
X307500000Y-260000000D03*
X309075000Y-260000000D03*
X282500000Y-280000000D03*
X284075000Y-280000000D03*
X297500000Y-225000000D03*
X299075000Y-225000000D03*
X302500000Y-305000000D03*
X304075000Y-305000000D03*
D15*
X246000000Y-310825000D03*
X246000000Y-309175000D03*
X245000000Y-194675000D03*
X245000000Y-193025000D03*
D10*
X342500000Y-155000000D03*
X344075000Y-155000000D03*
X317500000Y-145000000D03*
X319075000Y-145000000D03*
X322500000Y-260000000D03*
X324075000Y-260000000D03*
X347500000Y-130000000D03*
X349075000Y-130000000D03*
X317500000Y-175000000D03*
X319075000Y-175000000D03*
X317500000Y-180000000D03*
X319075000Y-180000000D03*
X317500000Y-205000000D03*
X319075000Y-205000000D03*
X317500000Y-120000000D03*
X319075000Y-120000000D03*
X342500000Y-180000000D03*
X344075000Y-180000000D03*
X277500000Y-265000000D03*
X279075000Y-265000000D03*
X307500000Y-250000000D03*
X309075000Y-250000000D03*
X362500000Y-155000000D03*
X364075000Y-155000000D03*
X342500000Y-105000000D03*
X344075000Y-105000000D03*
X312500000Y-280000000D03*
X314075000Y-280000000D03*
X312500000Y-235000000D03*
X314075000Y-235000000D03*
X327500000Y-145000000D03*
X329075000Y-145000000D03*
X352500000Y-175000000D03*
X354075000Y-175000000D03*
X357500000Y-110000000D03*
X359075000Y-110000000D03*
X277500000Y-200000000D03*
X279075000Y-200000000D03*
X317500000Y-150000000D03*
X319075000Y-150000000D03*
X347500000Y-190000000D03*
X349075000Y-190000000D03*
X322500000Y-205000000D03*
X324075000Y-205000000D03*
X312500000Y-145000000D03*
X314075000Y-145000000D03*
X292500000Y-210000000D03*
X294075000Y-210000000D03*
X322500000Y-120000000D03*
X324075000Y-120000000D03*
X307500000Y-240000000D03*
X309075000Y-240000000D03*
X327500000Y-185000000D03*
X329075000Y-185000000D03*
X302500000Y-225000000D03*
X304075000Y-225000000D03*
X327500000Y-260000000D03*
X329075000Y-260000000D03*
X287500000Y-320000000D03*
X289075000Y-320000000D03*
X282500000Y-265000000D03*
X284075000Y-265000000D03*
X302500000Y-315000000D03*
X304075000Y-315000000D03*
X337500000Y-160000000D03*
X339075000Y-160000000D03*
X312500000Y-165000000D03*
X314075000Y-165000000D03*
X282500000Y-205000000D03*
X284075000Y-205000000D03*
X332500000Y-260000000D03*
X334075000Y-260000000D03*
X332500000Y-110000000D03*
X334075000Y-110000000D03*
X322500000Y-275000000D03*
X324075000Y-275000000D03*
D16*
X241500000Y-300653334D03*
X241500000Y-301613334D03*
D10*
X297500000Y-310000000D03*
X299075000Y-310000000D03*
X352500000Y-100000000D03*
X354075000Y-100000000D03*
X302500000Y-160000000D03*
X304075000Y-160000000D03*
X297500000Y-235000000D03*
X299075000Y-235000000D03*
X317500000Y-240000000D03*
X319075000Y-240000000D03*
X282500000Y-270000000D03*
X284075000Y-270000000D03*
X312500000Y-215000000D03*
X314075000Y-215000000D03*
X307500000Y-270000000D03*
X309075000Y-270000000D03*
X307500000Y-245000000D03*
X309075000Y-245000000D03*
X322500000Y-115000000D03*
X324075000Y-115000000D03*
X322500000Y-215000000D03*
X324075000Y-215000000D03*
X337500000Y-110000000D03*
X339075000Y-110000000D03*
X292500000Y-250000000D03*
X294075000Y-250000000D03*
D15*
X246000000Y-252775000D03*
X246000000Y-251125000D03*
D10*
X322500000Y-180000000D03*
X324075000Y-180000000D03*
D16*
X238000000Y-126453334D03*
X238000000Y-127413334D03*
D10*
X292500000Y-180000000D03*
X294075000Y-180000000D03*
X327500000Y-150000000D03*
X329075000Y-150000000D03*
X312500000Y-130000000D03*
X314075000Y-130000000D03*
X297500000Y-325000000D03*
X299075000Y-325000000D03*
X297500000Y-175000000D03*
X299075000Y-175000000D03*
X327500000Y-130000000D03*
X329075000Y-130000000D03*
X332500000Y-125000000D03*
X334075000Y-125000000D03*
X327500000Y-265000000D03*
X329075000Y-265000000D03*
X327500000Y-270000000D03*
X329075000Y-270000000D03*
X347500000Y-110000000D03*
X349075000Y-110000000D03*
X352500000Y-140000000D03*
X354075000Y-140000000D03*
X347500000Y-100000000D03*
X349075000Y-100000000D03*
X282500000Y-245000000D03*
X284075000Y-245000000D03*
X352500000Y-170000000D03*
X354075000Y-170000000D03*
X322500000Y-210000000D03*
X324075000Y-210000000D03*
X357500000Y-165000000D03*
X359075000Y-165000000D03*
D11*
X258520000Y-130800000D03*
X259480000Y-130800000D03*
D10*
X287500000Y-300000000D03*
X289075000Y-300000000D03*
X307500000Y-255000000D03*
X309075000Y-255000000D03*
X342500000Y-200000000D03*
X344075000Y-200000000D03*
X272500000Y-290000000D03*
X274075000Y-290000000D03*
X317500000Y-245000000D03*
X319075000Y-245000000D03*
X282500000Y-320000000D03*
X284075000Y-320000000D03*
X322500000Y-165000000D03*
X324075000Y-165000000D03*
X302500000Y-175000000D03*
X304075000Y-175000000D03*
X282500000Y-200000000D03*
X284075000Y-200000000D03*
X367500000Y-110000000D03*
X369075000Y-110000000D03*
X292500000Y-175000000D03*
X294075000Y-175000000D03*
X287500000Y-230000000D03*
X289075000Y-230000000D03*
X297500000Y-270000000D03*
X299075000Y-270000000D03*
X357500000Y-130000000D03*
X359075000Y-130000000D03*
X362500000Y-150000000D03*
X364075000Y-150000000D03*
X332500000Y-105000000D03*
X334075000Y-105000000D03*
X327500000Y-200000000D03*
X329075000Y-200000000D03*
X302500000Y-270000000D03*
X304075000Y-270000000D03*
X317500000Y-300000000D03*
X319075000Y-300000000D03*
X282500000Y-290000000D03*
X284075000Y-290000000D03*
X362500000Y-115000000D03*
X364075000Y-115000000D03*
X327500000Y-180000000D03*
X329075000Y-180000000D03*
X332500000Y-275000000D03*
X334075000Y-275000000D03*
X327500000Y-165000000D03*
X329075000Y-165000000D03*
X337500000Y-130000000D03*
X339075000Y-130000000D03*
X292500000Y-245000000D03*
X294075000Y-245000000D03*
X297500000Y-285000000D03*
X299075000Y-285000000D03*
X297500000Y-164820000D03*
X299075000Y-164820000D03*
X327500000Y-175000000D03*
X329075000Y-175000000D03*
X332500000Y-200000000D03*
X334075000Y-200000000D03*
X312500000Y-150000000D03*
X314075000Y-150000000D03*
X317500000Y-135000000D03*
X319075000Y-135000000D03*
X312500000Y-135000000D03*
X314075000Y-135000000D03*
X342500000Y-120000000D03*
X344075000Y-120000000D03*
D11*
X258520000Y-305000000D03*
X259480000Y-305000000D03*
D10*
X332500000Y-160000000D03*
X334075000Y-160000000D03*
X277500000Y-280000000D03*
X279075000Y-280000000D03*
X292500000Y-255000000D03*
X294075000Y-255000000D03*
X347500000Y-175000000D03*
X349075000Y-175000000D03*
X367500000Y-155000000D03*
X369075000Y-155000000D03*
X342500000Y-170000000D03*
X344075000Y-170000000D03*
X282500000Y-260000000D03*
X284075000Y-260000000D03*
X302500000Y-240000000D03*
X304075000Y-240000000D03*
X332500000Y-175000000D03*
X334075000Y-175000000D03*
X317500000Y-250000000D03*
X319075000Y-250000000D03*
X292500000Y-270000000D03*
X294075000Y-270000000D03*
X302500000Y-260000000D03*
X304075000Y-260000000D03*
X327500000Y-190000000D03*
X329075000Y-190000000D03*
X337500000Y-135000000D03*
X339075000Y-135000000D03*
D16*
X245000000Y-300653334D03*
X245000000Y-301613334D03*
D10*
X337500000Y-165000000D03*
X339075000Y-165000000D03*
D17*
X248062500Y-128800000D03*
X248062500Y-129200000D03*
X248062500Y-129600000D03*
X248062500Y-130000000D03*
X248062500Y-130400000D03*
X248062500Y-130800000D03*
X248062500Y-131200000D03*
D18*
X248800000Y-131937500D03*
X249200000Y-131937500D03*
X249600000Y-131937500D03*
X250000000Y-131937500D03*
X250400000Y-131937500D03*
X250800000Y-131937500D03*
X251200000Y-131937500D03*
D17*
X251937500Y-131200000D03*
X251937500Y-130800000D03*
X251937500Y-130400000D03*
X251937500Y-130000000D03*
X251937500Y-129600000D03*
X251937500Y-129200000D03*
X251937500Y-128800000D03*
D18*
X251200000Y-128062500D03*
X250800000Y-128062500D03*
X250400000Y-128062500D03*
X250000000Y-128062500D03*
X249600000Y-128062500D03*
X249200000Y-128062500D03*
X248800000Y-128062500D03*
D19*
X250000000Y-130000000D03*
D10*
X287500000Y-200000000D03*
X289075000Y-200000000D03*
X322500000Y-145000000D03*
X324075000Y-145000000D03*
X312500000Y-210000000D03*
X314075000Y-210000000D03*
X312500000Y-310000000D03*
X314075000Y-310000000D03*
X332500000Y-290000000D03*
X334075000Y-290000000D03*
X302500000Y-310000000D03*
X304075000Y-310000000D03*
X292500000Y-260000000D03*
X294075000Y-260000000D03*
X292500000Y-275000000D03*
X294075000Y-275000000D03*
X337500000Y-200000000D03*
X339075000Y-200000000D03*
X287500000Y-220000000D03*
X289075000Y-220000000D03*
X337500000Y-185000000D03*
X339075000Y-185000000D03*
X287500000Y-270000000D03*
X289075000Y-270000000D03*
X277500000Y-210000000D03*
X279075000Y-210000000D03*
X322500000Y-230000000D03*
X324075000Y-230000000D03*
X317500000Y-260000000D03*
X319075000Y-260000000D03*
X362500000Y-135000000D03*
X364075000Y-135000000D03*
X367500000Y-165000000D03*
X369075000Y-165000000D03*
X317500000Y-155000000D03*
X319075000Y-155000000D03*
X352500000Y-145000000D03*
X354075000Y-145000000D03*
X297500000Y-230000000D03*
X299075000Y-230000000D03*
X292500000Y-300000000D03*
X294075000Y-300000000D03*
X292500000Y-220000000D03*
X294075000Y-220000000D03*
X337500000Y-170000000D03*
X339075000Y-170000000D03*
X297500000Y-255000000D03*
X299075000Y-255000000D03*
X332500000Y-115000000D03*
X334075000Y-115000000D03*
X317500000Y-270000000D03*
X319075000Y-270000000D03*
X292500000Y-280000000D03*
X294075000Y-280000000D03*
X327500000Y-215000000D03*
X329075000Y-215000000D03*
X352500000Y-190000000D03*
X354075000Y-190000000D03*
X327500000Y-250000000D03*
X329075000Y-250000000D03*
D14*
X221175000Y-310000000D03*
X222825000Y-310000000D03*
D10*
X282500000Y-300000000D03*
X284075000Y-300000000D03*
X357500000Y-155000000D03*
X359075000Y-155000000D03*
X342500000Y-140000000D03*
X344075000Y-140000000D03*
X307500000Y-290000000D03*
X309075000Y-290000000D03*
X287500000Y-215000000D03*
X289075000Y-215000000D03*
X352500000Y-150000000D03*
X354075000Y-150000000D03*
X307500000Y-295000000D03*
X309075000Y-295000000D03*
X297500000Y-200000000D03*
X299075000Y-200000000D03*
X312500000Y-140000000D03*
X314075000Y-140000000D03*
X322500000Y-235000000D03*
X324075000Y-235000000D03*
X322500000Y-250000000D03*
X324075000Y-250000000D03*
X337500000Y-155000000D03*
X339075000Y-155000000D03*
X292500000Y-195000000D03*
X294075000Y-195000000D03*
X297500000Y-265000000D03*
X299075000Y-265000000D03*
X367500000Y-135000000D03*
X369075000Y-135000000D03*
X297500000Y-160000000D03*
X299075000Y-160000000D03*
X307500000Y-150000000D03*
X309075000Y-150000000D03*
X292500000Y-315000000D03*
X294075000Y-315000000D03*
D16*
X241500000Y-242586666D03*
X241500000Y-243546666D03*
D15*
X245000000Y-136625000D03*
X245000000Y-134975000D03*
D10*
X302500000Y-235000000D03*
X304075000Y-235000000D03*
D14*
X221175000Y-300000000D03*
X222825000Y-300000000D03*
D16*
X245000000Y-126453334D03*
X245000000Y-127413334D03*
D10*
X317500000Y-285000000D03*
X319075000Y-285000000D03*
X362500000Y-110000000D03*
X364075000Y-110000000D03*
X352500000Y-185000000D03*
X354075000Y-185000000D03*
X307500000Y-170000000D03*
X309075000Y-170000000D03*
X342500000Y-100000000D03*
X344075000Y-100000000D03*
X312500000Y-180000000D03*
X314075000Y-180000000D03*
X332500000Y-150000000D03*
X334075000Y-150000000D03*
X302500000Y-275000000D03*
X304075000Y-275000000D03*
X297500000Y-205000000D03*
X299075000Y-205000000D03*
D16*
X238000000Y-242586666D03*
X238000000Y-243546666D03*
D10*
X312500000Y-120000000D03*
X314075000Y-120000000D03*
X302500000Y-295000000D03*
X304075000Y-295000000D03*
X317500000Y-255000000D03*
X319075000Y-255000000D03*
X357500000Y-100000000D03*
X359075000Y-100000000D03*
X322500000Y-150000000D03*
X324075000Y-150000000D03*
D16*
X241500000Y-126453334D03*
X241500000Y-127413334D03*
D10*
X337500000Y-115000000D03*
X339075000Y-115000000D03*
X342500000Y-195000000D03*
X344075000Y-195000000D03*
X357500000Y-150000000D03*
X359075000Y-150000000D03*
X287500000Y-225000000D03*
X289075000Y-225000000D03*
X307500000Y-200000000D03*
X309075000Y-200000000D03*
X312500000Y-195000000D03*
X314075000Y-195000000D03*
X367500000Y-120000000D03*
X369075000Y-120000000D03*
X367500000Y-130000000D03*
X369075000Y-130000000D03*
X292500000Y-200000000D03*
X294075000Y-200000000D03*
X307500000Y-220000000D03*
X309075000Y-220000000D03*
X302500000Y-170000000D03*
X304075000Y-170000000D03*
X322500000Y-220000000D03*
X324075000Y-220000000D03*
X302500000Y-265000000D03*
X304075000Y-265000000D03*
X337500000Y-270000000D03*
X339075000Y-270000000D03*
X357500000Y-115000000D03*
X359075000Y-115000000D03*
X367500000Y-150000000D03*
X369075000Y-150000000D03*
X272500000Y-280000000D03*
X274075000Y-280000000D03*
X277500000Y-300000000D03*
X279075000Y-300000000D03*
X307500000Y-175000000D03*
X309075000Y-175000000D03*
X307500000Y-310000000D03*
X309075000Y-310000000D03*
X357500000Y-170000000D03*
X359075000Y-170000000D03*
X312500000Y-230000000D03*
X314075000Y-230000000D03*
X292500000Y-185000000D03*
X294075000Y-185000000D03*
X342500000Y-145000000D03*
X344075000Y-145000000D03*
D12*
X225000000Y-320000000D03*
D13*
X230080000Y-320000000D03*
X235160000Y-320000000D03*
X240240000Y-320000000D03*
D10*
X337500000Y-150000000D03*
X339075000Y-150000000D03*
X337500000Y-120000000D03*
X339075000Y-120000000D03*
X292500000Y-190000000D03*
X294075000Y-190000000D03*
X287500000Y-290000000D03*
X289075000Y-290000000D03*
X302500000Y-155000000D03*
X304075000Y-155000000D03*
X287500000Y-275000000D03*
X289075000Y-275000000D03*
X287500000Y-325000000D03*
X289075000Y-325000000D03*
X297500000Y-275000000D03*
X299075000Y-275000000D03*
X317500000Y-230000000D03*
X319075000Y-230000000D03*
X367500000Y-125000000D03*
X369075000Y-125000000D03*
X322500000Y-135000000D03*
X324075000Y-135000000D03*
X352500000Y-110000000D03*
X354075000Y-110000000D03*
X312500000Y-240000000D03*
X314075000Y-240000000D03*
X317500000Y-190000000D03*
X319075000Y-190000000D03*
X282500000Y-215000000D03*
X284075000Y-215000000D03*
X352500000Y-135000000D03*
X354075000Y-135000000D03*
X277500000Y-230000000D03*
X279075000Y-230000000D03*
X292500000Y-320000000D03*
X294075000Y-320000000D03*
X317500000Y-220000000D03*
X319075000Y-220000000D03*
X272500000Y-275000000D03*
X274075000Y-275000000D03*
X327500000Y-120000000D03*
X329075000Y-120000000D03*
X282500000Y-235000000D03*
X284075000Y-235000000D03*
X312500000Y-220000000D03*
X314075000Y-220000000D03*
X297500000Y-320000000D03*
X299075000Y-320000000D03*
X297500000Y-295000000D03*
X299075000Y-295000000D03*
X327500000Y-255000000D03*
X329075000Y-255000000D03*
X312500000Y-155000000D03*
X314075000Y-155000000D03*
D16*
X245000000Y-184520000D03*
X245000000Y-185480000D03*
D10*
X297500000Y-190000000D03*
X299075000Y-190000000D03*
X282500000Y-240000000D03*
X284075000Y-240000000D03*
X302500000Y-290000000D03*
X304075000Y-290000000D03*
X302500000Y-255000000D03*
X304075000Y-255000000D03*
X312500000Y-125000000D03*
X314075000Y-125000000D03*
X297500000Y-185000000D03*
X299075000Y-185000000D03*
X307500000Y-205000000D03*
X309075000Y-205000000D03*
X302500000Y-250000000D03*
X304075000Y-250000000D03*
X302500000Y-180000000D03*
X304075000Y-180000000D03*
X362500000Y-160000000D03*
X364075000Y-160000000D03*
X332500000Y-135000000D03*
X334075000Y-135000000D03*
X302500000Y-210000000D03*
X304075000Y-210000000D03*
X327500000Y-115000000D03*
X329075000Y-115000000D03*
X342500000Y-125000000D03*
X344075000Y-125000000D03*
X287500000Y-235000000D03*
X289075000Y-235000000D03*
X287500000Y-315000000D03*
X289075000Y-315000000D03*
X322500000Y-140000000D03*
X324075000Y-140000000D03*
X332500000Y-180000000D03*
X334075000Y-180000000D03*
X317500000Y-275000000D03*
X319075000Y-275000000D03*
X282500000Y-255000000D03*
X284075000Y-255000000D03*
X362500000Y-145000000D03*
X364075000Y-145000000D03*
X277500000Y-270000000D03*
X279075000Y-270000000D03*
X282500000Y-210000000D03*
X284075000Y-210000000D03*
X307500000Y-165000000D03*
X309075000Y-165000000D03*
X307500000Y-185000000D03*
X309075000Y-185000000D03*
X287500000Y-190000000D03*
X289075000Y-190000000D03*
X292500000Y-205000000D03*
X294075000Y-205000000D03*
X302500000Y-190000000D03*
X304075000Y-190000000D03*
X332500000Y-140000000D03*
X334075000Y-140000000D03*
X317500000Y-215000000D03*
X319075000Y-215000000D03*
X347500000Y-150000000D03*
X349075000Y-150000000D03*
X347500000Y-200000000D03*
X349075000Y-200000000D03*
X322500000Y-270000000D03*
X324075000Y-270000000D03*
X317500000Y-210000000D03*
X319075000Y-210000000D03*
X327500000Y-125000000D03*
X329075000Y-125000000D03*
X362500000Y-125000000D03*
X364075000Y-125000000D03*
D17*
X248062500Y-303000000D03*
X248062500Y-303400000D03*
X248062500Y-303800000D03*
X248062500Y-304200000D03*
X248062500Y-304600000D03*
X248062500Y-305000000D03*
X248062500Y-305400000D03*
D18*
X248800000Y-306137500D03*
X249200000Y-306137500D03*
X249600000Y-306137500D03*
X250000000Y-306137500D03*
X250400000Y-306137500D03*
X250800000Y-306137500D03*
X251200000Y-306137500D03*
D17*
X251937500Y-305400000D03*
X251937500Y-305000000D03*
X251937500Y-304600000D03*
X251937500Y-304200000D03*
X251937500Y-303800000D03*
X251937500Y-303400000D03*
X251937500Y-303000000D03*
D18*
X251200000Y-302262500D03*
X250800000Y-302262500D03*
X250400000Y-302262500D03*
X250000000Y-302262500D03*
X249600000Y-302262500D03*
X249200000Y-302262500D03*
X248800000Y-302262500D03*
D19*
X250000000Y-304200000D03*
D17*
X248062500Y-186866666D03*
X248062500Y-187266666D03*
X248062500Y-187666666D03*
X248062500Y-188066666D03*
X248062500Y-188466666D03*
X248062500Y-188866666D03*
X248062500Y-189266666D03*
D18*
X248800000Y-190004166D03*
X249200000Y-190004166D03*
X249600000Y-190004166D03*
X250000000Y-190004166D03*
X250400000Y-190004166D03*
X250800000Y-190004166D03*
X251200000Y-190004166D03*
D17*
X251937500Y-189266666D03*
X251937500Y-188866666D03*
X251937500Y-188466666D03*
X251937500Y-188066666D03*
X251937500Y-187666666D03*
X251937500Y-187266666D03*
X251937500Y-186866666D03*
D18*
X251200000Y-186129166D03*
X250800000Y-186129166D03*
X250400000Y-186129166D03*
X250000000Y-186129166D03*
X249600000Y-186129166D03*
X249200000Y-186129166D03*
X248800000Y-186129166D03*
D19*
X250000000Y-188066666D03*
D10*
X332500000Y-185000000D03*
X334075000Y-185000000D03*
X317500000Y-140000000D03*
X319075000Y-140000000D03*
X302500000Y-200000000D03*
X304075000Y-200000000D03*
X337500000Y-125000000D03*
X339075000Y-125000000D03*
X317500000Y-160000000D03*
X319075000Y-160000000D03*
X292500000Y-295000000D03*
X294075000Y-295000000D03*
X347500000Y-165000000D03*
X349075000Y-165000000D03*
X342500000Y-115000000D03*
X344075000Y-115000000D03*
X362500000Y-165000000D03*
X364075000Y-165000000D03*
X332500000Y-170000000D03*
X334075000Y-170000000D03*
X357500000Y-160000000D03*
X359075000Y-160000000D03*
X297500000Y-290000000D03*
X299075000Y-290000000D03*
X327500000Y-110000000D03*
X329075000Y-110000000D03*
X347500000Y-95000000D03*
X349075000Y-95000000D03*
X292500000Y-225000000D03*
X294075000Y-225000000D03*
X282500000Y-315000000D03*
X284075000Y-315000000D03*
X347500000Y-125000000D03*
X349075000Y-125000000D03*
X307500000Y-320000000D03*
X309075000Y-320000000D03*
X312500000Y-160000000D03*
X314075000Y-160000000D03*
X312500000Y-285000000D03*
X314075000Y-285000000D03*
X312500000Y-205000000D03*
X314075000Y-205000000D03*
X302500000Y-220000000D03*
X304075000Y-220000000D03*
X357500000Y-125000000D03*
X359075000Y-125000000D03*
X312500000Y-265000000D03*
X314075000Y-265000000D03*
X332500000Y-195000000D03*
X334075000Y-195000000D03*
X317500000Y-165000000D03*
X319075000Y-165000000D03*
X337500000Y-205000000D03*
X339075000Y-205000000D03*
X312500000Y-190000000D03*
X314075000Y-190000000D03*
X367500000Y-145000000D03*
X369075000Y-145000000D03*
X312500000Y-200000000D03*
X314075000Y-200000000D03*
X307500000Y-195000000D03*
X309075000Y-195000000D03*
X302500000Y-230000000D03*
X304075000Y-230000000D03*
X352500000Y-120000000D03*
X354075000Y-120000000D03*
X332500000Y-155000000D03*
X334075000Y-155000000D03*
X317500000Y-310000000D03*
X319075000Y-310000000D03*
D16*
X238000000Y-184520000D03*
X238000000Y-185480000D03*
D10*
X327500000Y-135000000D03*
X329075000Y-135000000D03*
X357500000Y-120000000D03*
X359075000Y-120000000D03*
X307500000Y-280000000D03*
X309075000Y-280000000D03*
X322500000Y-195000000D03*
X324075000Y-195000000D03*
X327500000Y-105000000D03*
X329075000Y-105000000D03*
X347500000Y-105000000D03*
X349075000Y-105000000D03*
X282500000Y-275000000D03*
X284075000Y-275000000D03*
X312500000Y-300000000D03*
X314075000Y-300000000D03*
X312500000Y-225000000D03*
X314075000Y-225000000D03*
X307500000Y-315000000D03*
X309075000Y-315000000D03*
X282500000Y-295000000D03*
X284075000Y-295000000D03*
X307500000Y-285000000D03*
X309075000Y-285000000D03*
D17*
X248062500Y-244933332D03*
X248062500Y-245333332D03*
X248062500Y-245733332D03*
X248062500Y-246133332D03*
X248062500Y-246533332D03*
X248062500Y-246933332D03*
X248062500Y-247333332D03*
D18*
X248800000Y-248070832D03*
X249200000Y-248070832D03*
X249600000Y-248070832D03*
X250000000Y-248070832D03*
X250400000Y-248070832D03*
X250800000Y-248070832D03*
X251200000Y-248070832D03*
D17*
X251937500Y-247333332D03*
X251937500Y-246933332D03*
X251937500Y-246533332D03*
X251937500Y-246133332D03*
X251937500Y-245733332D03*
X251937500Y-245333332D03*
X251937500Y-244933332D03*
D18*
X251200000Y-244195832D03*
X250800000Y-244195832D03*
X250400000Y-244195832D03*
X250000000Y-244195832D03*
X249600000Y-244195832D03*
X249200000Y-244195832D03*
X248800000Y-244195832D03*
D19*
X250000000Y-246133332D03*
D10*
X327500000Y-155000000D03*
X329075000Y-155000000D03*
X287500000Y-245000000D03*
X289075000Y-245000000D03*
X367500000Y-140000000D03*
X369075000Y-140000000D03*
X317500000Y-295000000D03*
X319075000Y-295000000D03*
X297500000Y-210000000D03*
X299075000Y-210000000D03*
X292500000Y-310000000D03*
X294075000Y-310000000D03*
X302500000Y-215000000D03*
X304075000Y-215000000D03*
X302500000Y-320000000D03*
X304075000Y-320000000D03*
X342500000Y-185000000D03*
X344075000Y-185000000D03*
X297500000Y-195000000D03*
X299075000Y-195000000D03*
X277500000Y-290000000D03*
X279075000Y-290000000D03*
X327500000Y-295000000D03*
X329075000Y-295000000D03*
X297500000Y-170000000D03*
X299075000Y-170000000D03*
X332500000Y-255000000D03*
X334075000Y-255000000D03*
X352500000Y-165000000D03*
X354075000Y-165000000D03*
X312500000Y-275000000D03*
X314075000Y-275000000D03*
X322500000Y-225000000D03*
X324075000Y-225000000D03*
X322500000Y-190000000D03*
X324075000Y-190000000D03*
X337500000Y-285000000D03*
X339075000Y-285000000D03*
X317500000Y-195000000D03*
X319075000Y-195000000D03*
X322500000Y-125000000D03*
X324075000Y-125000000D03*
X342500000Y-175000000D03*
X344075000Y-175000000D03*
X297500000Y-240000000D03*
X299075000Y-240000000D03*
X287500000Y-260000000D03*
X289075000Y-260000000D03*
X342500000Y-165000000D03*
X344075000Y-165000000D03*
X317500000Y-225000000D03*
X319075000Y-225000000D03*
X322500000Y-280000000D03*
X324075000Y-280000000D03*
X342500000Y-160000000D03*
X344075000Y-160000000D03*
X327500000Y-305000000D03*
X329075000Y-305000000D03*
X332500000Y-145000000D03*
X334075000Y-145000000D03*
X277500000Y-275000000D03*
X279075000Y-275000000D03*
X347500000Y-195000000D03*
X349075000Y-195000000D03*
X322500000Y-185000000D03*
X324075000Y-185000000D03*
X352500000Y-155000000D03*
X354075000Y-155000000D03*
X317500000Y-200000000D03*
X319075000Y-200000000D03*
X297500000Y-180000000D03*
X299075000Y-180000000D03*
X297500000Y-245000000D03*
X299075000Y-245000000D03*
X347500000Y-120000000D03*
X349075000Y-120000000D03*
X297500000Y-305000000D03*
X299075000Y-305000000D03*
X317500000Y-125000000D03*
X319075000Y-125000000D03*
X327500000Y-195000000D03*
X329075000Y-195000000D03*
X362500000Y-120000000D03*
X364075000Y-120000000D03*
X282500000Y-230000000D03*
X284075000Y-230000000D03*
X337500000Y-195000000D03*
X339075000Y-195000000D03*
D16*
X245000000Y-242586666D03*
X245000000Y-243546666D03*
X238000000Y-300653334D03*
X238000000Y-301613334D03*
D10*
X277500000Y-215000000D03*
X279075000Y-215000000D03*
X352500000Y-115000000D03*
X354075000Y-115000000D03*
X297500000Y-220000000D03*
X299075000Y-220000000D03*
X287500000Y-205000000D03*
X289075000Y-205000000D03*
X317500000Y-185000000D03*
X319075000Y-185000000D03*
X312500000Y-305000000D03*
X314075000Y-305000000D03*
X282500000Y-225000000D03*
X284075000Y-225000000D03*
X317500000Y-115000000D03*
X319075000Y-115000000D03*
X337500000Y-105000000D03*
X339075000Y-105000000D03*
X287500000Y-305000000D03*
X289075000Y-305000000D03*
X352500000Y-95000000D03*
X354075000Y-95000000D03*
X277500000Y-205000000D03*
X279075000Y-205000000D03*
X327500000Y-160000000D03*
X329075000Y-160000000D03*
X287500000Y-250000000D03*
X289075000Y-250000000D03*
X307500000Y-145000000D03*
X309075000Y-145000000D03*
X282500000Y-195000000D03*
X284075000Y-195000000D03*
X352500000Y-180000000D03*
X354075000Y-180000000D03*
X287500000Y-210000000D03*
X289075000Y-210000000D03*
D16*
X241500000Y-184520000D03*
X241500000Y-185480000D03*
D10*
X352500000Y-105000000D03*
X354075000Y-105000000D03*
X352500000Y-130000000D03*
X354075000Y-130000000D03*
X302500000Y-245000000D03*
X304075000Y-245000000D03*
X277500000Y-295000000D03*
X279075000Y-295000000D03*
X312500000Y-250000000D03*
X314075000Y-250000000D03*
X327500000Y-170000000D03*
X329075000Y-170000000D03*
D20*
X222825000Y-295000000D03*
X221175000Y-295000000D03*
D10*
X332500000Y-265000000D03*
X334075000Y-265000000D03*
X297500000Y-260000000D03*
X299075000Y-260000000D03*
X307500000Y-190000000D03*
X309075000Y-190000000D03*
X312500000Y-315000000D03*
X314075000Y-315000000D03*
X332500000Y-295000000D03*
X334075000Y-295000000D03*
X302500000Y-185000000D03*
X304075000Y-185000000D03*
X342500000Y-135000000D03*
X344075000Y-135000000D03*
D21*
X245000000Y-196500000D03*
X257700000Y-187500000D03*
X230100000Y-114350000D03*
X219550000Y-295000000D03*
X246000000Y-312650000D03*
X236750000Y-242600000D03*
X256955937Y-245763357D03*
X236750000Y-300650000D03*
X236750000Y-184500000D03*
X236750000Y-126450000D03*
X245000000Y-138150000D03*
X246000000Y-254500000D03*
X255544622Y-303344622D03*
X257150000Y-128900000D03*
X236750000Y-244400000D03*
X225000000Y-114400000D03*
X236750000Y-186265166D03*
X256550000Y-187200000D03*
X219550000Y-300000000D03*
X236750000Y-302400000D03*
X236750000Y-128150000D03*
X357500000Y-102800000D03*
X319075000Y-118399500D03*
X344000000Y-102800000D03*
X327500000Y-103700000D03*
X359800000Y-102800000D03*
X346800000Y-102800000D03*
X329800000Y-102800000D03*
X354100000Y-102800000D03*
X364000000Y-102800000D03*
X349100000Y-102800000D03*
X334100000Y-102800000D03*
X256500000Y-126000000D03*
X356600000Y-118200000D03*
X338000000Y-118200000D03*
X363300000Y-118200000D03*
X324900000Y-117900000D03*
X340200000Y-118200000D03*
X315512000Y-117900000D03*
X255179380Y-122912014D03*
X332400000Y-118200000D03*
X344100000Y-118200000D03*
X367500000Y-111300000D03*
X254180378Y-122880378D03*
X352500000Y-111300000D03*
X347500000Y-111300000D03*
X346700000Y-117500000D03*
X329100000Y-117500000D03*
X362500000Y-111300000D03*
X341600000Y-117500000D03*
X357500000Y-111300000D03*
X349100000Y-117500000D03*
X336400000Y-117500000D03*
X322500000Y-116799500D03*
X352500000Y-116899500D03*
X326600000Y-116800000D03*
X316400000Y-116600000D03*
X347500000Y-116800000D03*
X333300000Y-116800000D03*
X360200000Y-116899500D03*
X342500000Y-116800000D03*
X314100000Y-116600000D03*
X253151860Y-122919653D03*
X337200000Y-116800000D03*
X359100000Y-116200000D03*
X317500000Y-116100000D03*
X338100000Y-116100000D03*
X330000500Y-116100000D03*
X346100000Y-103600000D03*
X320400000Y-116100000D03*
X327500000Y-116100000D03*
X334075000Y-116100000D03*
X312638004Y-115882612D03*
X352400000Y-103600000D03*
X362500000Y-116200000D03*
X252150000Y-122900000D03*
X348300000Y-116100000D03*
X367500000Y-116200000D03*
X352500000Y-123600000D03*
X319100000Y-123700000D03*
X323400000Y-123700000D03*
X310100000Y-123700000D03*
X344100000Y-123600000D03*
X309400000Y-115141153D03*
X357500000Y-123600000D03*
X367400000Y-123600000D03*
X312500000Y-123700000D03*
X362500000Y-123600000D03*
X347500000Y-123600000D03*
X355100000Y-115800000D03*
X339100000Y-113899500D03*
X251150497Y-122900000D03*
X355800000Y-103500000D03*
X347500000Y-126600000D03*
X337500000Y-126600000D03*
X356000000Y-114741153D03*
X322900000Y-126600000D03*
X352500000Y-126600000D03*
X362500000Y-103500000D03*
X342500000Y-126600000D03*
X332500000Y-126600000D03*
X359100000Y-126600000D03*
X366700000Y-126600000D03*
X327500000Y-126600000D03*
X250150994Y-122900000D03*
X321200000Y-114741153D03*
X322500000Y-131100000D03*
X317500000Y-131100000D03*
X332500000Y-131100000D03*
X311400000Y-114341153D03*
X327500000Y-131100000D03*
X315800000Y-131100000D03*
X313538521Y-131014940D03*
X369900000Y-116100000D03*
X361566751Y-114340769D03*
X350400000Y-114341153D03*
X249151491Y-122900000D03*
X352500000Y-131100000D03*
X369000000Y-113342153D03*
X357500000Y-131100000D03*
X248157463Y-122795529D03*
X354075000Y-113342153D03*
X342500000Y-131100000D03*
X339100000Y-131100000D03*
X362500000Y-131100000D03*
X330700000Y-113342153D03*
X335100000Y-131100000D03*
X314800000Y-113342153D03*
X347500000Y-131100000D03*
X367500000Y-131100000D03*
X364100000Y-148400000D03*
X268950000Y-148400000D03*
X354100000Y-148400000D03*
X317600000Y-148400000D03*
X326700000Y-148400000D03*
X324100000Y-148400000D03*
X304400000Y-148400000D03*
X314100000Y-148400000D03*
X367300000Y-148400000D03*
X341300000Y-148400000D03*
X342500000Y-136400000D03*
X327500000Y-136400000D03*
X349800000Y-151200000D03*
X317500000Y-136400000D03*
X324000000Y-151300000D03*
X310100000Y-151300000D03*
X359100000Y-136400000D03*
X337500000Y-136400000D03*
X319100000Y-151300000D03*
X347500000Y-136400000D03*
X352500000Y-136400000D03*
X322500000Y-136400000D03*
X359100000Y-151200000D03*
X332500000Y-136400000D03*
X364100000Y-151200000D03*
X270750000Y-151300000D03*
X346700000Y-142400000D03*
X362500000Y-142400000D03*
X342500000Y-142400000D03*
X332500000Y-142400000D03*
X337500000Y-142400000D03*
X299100000Y-161300000D03*
X352500000Y-142400000D03*
X301800000Y-142400000D03*
X357500000Y-142400000D03*
X321500000Y-142400000D03*
X253955095Y-140847997D03*
X367500000Y-142400000D03*
X254000000Y-139849503D03*
X304100000Y-156400000D03*
X332500000Y-147000000D03*
X364037000Y-147000000D03*
X299100000Y-156400000D03*
X317500000Y-147000000D03*
X305200000Y-147000000D03*
X337500000Y-147000000D03*
X322500000Y-147000000D03*
X342500000Y-147000000D03*
X312500000Y-147000000D03*
X327500000Y-147000000D03*
X254000000Y-138850000D03*
X311000000Y-154600000D03*
X366300000Y-154599500D03*
X305900000Y-154599500D03*
X325300000Y-154600000D03*
X340204443Y-153899500D03*
X345200000Y-154100000D03*
X350700000Y-154606755D03*
X335232188Y-154599500D03*
X356000000Y-154606755D03*
X301200000Y-154599500D03*
X361300000Y-154606755D03*
X336100000Y-153900000D03*
X351500000Y-153900000D03*
X254030692Y-137819438D03*
X323300000Y-153900000D03*
X346100000Y-153300000D03*
X309100000Y-153900000D03*
X316800000Y-153900000D03*
X330900000Y-153900000D03*
X369900000Y-152300000D03*
X329109358Y-153900921D03*
X349100000Y-153600000D03*
X343000000Y-153299500D03*
X307500000Y-153200000D03*
X354000000Y-153200000D03*
X356700000Y-153200000D03*
X344075000Y-152599500D03*
X333300000Y-153200000D03*
X297500000Y-153200000D03*
X362500000Y-153200000D03*
X312500000Y-153200000D03*
X302500000Y-153200000D03*
X254000000Y-136799503D03*
X318300000Y-153200000D03*
X367500000Y-153200000D03*
X322500000Y-152400000D03*
X309075000Y-152100000D03*
X332500000Y-152400000D03*
X325999500Y-152400000D03*
X314100000Y-152400000D03*
X352500000Y-152400000D03*
X337500000Y-151900000D03*
X341100000Y-151900000D03*
X363400000Y-152400000D03*
X347500000Y-152400000D03*
X254000000Y-135800000D03*
X357500000Y-152400000D03*
X297500000Y-157600000D03*
X312500000Y-157600000D03*
X317500000Y-157600000D03*
X353300000Y-141300000D03*
X307500000Y-157600000D03*
X344100000Y-141300000D03*
X254900000Y-133400000D03*
X315100000Y-157600000D03*
X319100000Y-157600000D03*
X329100000Y-141300000D03*
X359100000Y-157600000D03*
X296800000Y-141300000D03*
X367400000Y-157600000D03*
X369100000Y-141300000D03*
X353300000Y-157600000D03*
X321700000Y-157600000D03*
X302500000Y-157600000D03*
X362500000Y-157600000D03*
X314100000Y-172100000D03*
X339800000Y-172100000D03*
X298300000Y-172100000D03*
X329800000Y-172100000D03*
X304100000Y-172100000D03*
X331300000Y-172100000D03*
X354100000Y-172100000D03*
X363000000Y-169300000D03*
X257225000Y-178775000D03*
X300500000Y-172100000D03*
X344100000Y-172100000D03*
X332500000Y-162000000D03*
X342500000Y-162000000D03*
X362500000Y-162000000D03*
X357500000Y-162000000D03*
X352500000Y-162000000D03*
X337500000Y-162000000D03*
X269250000Y-170800500D03*
X369000000Y-161900000D03*
X300300000Y-162000000D03*
X327500000Y-162000000D03*
X347500000Y-162000000D03*
X308300000Y-162000000D03*
X323300000Y-162000000D03*
X357500000Y-166800000D03*
X367500000Y-166800000D03*
X337500000Y-166800000D03*
X347500000Y-166800000D03*
X332500000Y-166800000D03*
X299100000Y-166800000D03*
X342500000Y-166800000D03*
X320400000Y-166800000D03*
X352500000Y-166800000D03*
X256205025Y-178805025D03*
X309100000Y-166800000D03*
X295400000Y-166800000D03*
X362500000Y-166800000D03*
X322500000Y-171400500D03*
X307500000Y-171400500D03*
X302500000Y-171400500D03*
X353300000Y-171400500D03*
X317500000Y-171400500D03*
X345400000Y-171400500D03*
X327500000Y-171400500D03*
X312500000Y-171400500D03*
X262200000Y-173800000D03*
X297500000Y-171400500D03*
X332500000Y-171400500D03*
X340600000Y-171400500D03*
X328300000Y-168100000D03*
X352500000Y-168100000D03*
X310300000Y-168100000D03*
X357500000Y-168100000D03*
X342500000Y-168100000D03*
X336500000Y-168100000D03*
X349100000Y-168100000D03*
X264450000Y-172250000D03*
X321100000Y-168100000D03*
X296500000Y-168100000D03*
X292500000Y-168100000D03*
X314100000Y-168100000D03*
X346500000Y-168100000D03*
X302000000Y-168100000D03*
X342500000Y-176200000D03*
X349800000Y-176200000D03*
X314900000Y-176200000D03*
X307500000Y-176200000D03*
X354900000Y-176200000D03*
X317500000Y-176200000D03*
X357700000Y-174400000D03*
X322500000Y-176200000D03*
X312500000Y-176200000D03*
X337500000Y-176200000D03*
X332500000Y-176200000D03*
X327500000Y-176200000D03*
X252455378Y-179555378D03*
X302500000Y-177800000D03*
X353400000Y-177800000D03*
X307500000Y-177800000D03*
X347500000Y-177800000D03*
X331700000Y-177800000D03*
X250686109Y-180336109D03*
X334100000Y-177800000D03*
X297500000Y-177800000D03*
X358600000Y-175900000D03*
X317500000Y-177800000D03*
X292500000Y-177800000D03*
X325200000Y-177800000D03*
X312500000Y-177800000D03*
X332500000Y-181200000D03*
X347500000Y-181200000D03*
X314100000Y-181200000D03*
X337500000Y-181200000D03*
X292500000Y-181200000D03*
X322500000Y-181200000D03*
X352500000Y-181200000D03*
X300000000Y-181200000D03*
X326300000Y-181200000D03*
X342500000Y-181200000D03*
X359600000Y-177600000D03*
X248966487Y-181066487D03*
X360700000Y-178800000D03*
X318500000Y-182500000D03*
X327500000Y-182500000D03*
X322500000Y-182500000D03*
X335700000Y-182500000D03*
X297500000Y-182500000D03*
X332500000Y-182500000D03*
X302500000Y-182500000D03*
X312500000Y-182500000D03*
X307500000Y-182500000D03*
X247325000Y-182575000D03*
X294100000Y-182500000D03*
X345500000Y-182500000D03*
X349100000Y-197514024D03*
X283100000Y-197514024D03*
X267250000Y-197500000D03*
X307500000Y-188500000D03*
X337500000Y-188500000D03*
X319100000Y-197514024D03*
X329100000Y-197514024D03*
X324100000Y-197514024D03*
X286300000Y-197514024D03*
X306400000Y-197514024D03*
X342500000Y-188500000D03*
X309100000Y-191522285D03*
X341600000Y-191522285D03*
X336700000Y-191522285D03*
X349100000Y-191500000D03*
X246250000Y-190200000D03*
X297500000Y-191522285D03*
X320200000Y-191522285D03*
X292500000Y-191522285D03*
X302500000Y-191522285D03*
X324200000Y-191522285D03*
X279100000Y-191522285D03*
X249730482Y-192219518D03*
X335400000Y-193300000D03*
X297500000Y-193300000D03*
X346700000Y-193300000D03*
X314100000Y-193300000D03*
X282500000Y-193300000D03*
X324100000Y-193300000D03*
X328400000Y-193300000D03*
X307500000Y-193300000D03*
X302500000Y-193300000D03*
X292500000Y-193300000D03*
X287500000Y-193300000D03*
X351900000Y-192700000D03*
X295800000Y-196672285D03*
X332500000Y-196672285D03*
X327500000Y-196672285D03*
X337500000Y-196672285D03*
X284100000Y-196672285D03*
X347500000Y-196700000D03*
X300900000Y-196672285D03*
X266450000Y-196800000D03*
X342500000Y-196672285D03*
X312500000Y-196672285D03*
X317500000Y-196672285D03*
X322500000Y-196672285D03*
X307500000Y-201400000D03*
X282500000Y-201400000D03*
X287500000Y-201400000D03*
X339100000Y-201400000D03*
X312500000Y-201400000D03*
X292500000Y-201400000D03*
X297500000Y-201400000D03*
X330400000Y-201400000D03*
X277500000Y-201400000D03*
X302500000Y-201400000D03*
X320500000Y-201400000D03*
X325500000Y-201400000D03*
X352600000Y-195300000D03*
X263350000Y-196050000D03*
X294100000Y-198600000D03*
X276700000Y-198600000D03*
X285000000Y-198600000D03*
X342500000Y-198600000D03*
X322500000Y-198600000D03*
X290000000Y-198600000D03*
X299100000Y-198600000D03*
X317500000Y-198600000D03*
X262450000Y-195350000D03*
X309900000Y-198600000D03*
X327500000Y-198600000D03*
X347500000Y-198600000D03*
X332500000Y-198600000D03*
X337500000Y-198600000D03*
X339800000Y-203300000D03*
X292500000Y-203300000D03*
X317500000Y-203300000D03*
X287500000Y-203300000D03*
X344000000Y-203300000D03*
X312500000Y-203300000D03*
X282500000Y-203300000D03*
X259600000Y-194645067D03*
X302500000Y-203300000D03*
X298200000Y-203300000D03*
X307500000Y-203300000D03*
X330200000Y-203300000D03*
X327500000Y-202300000D03*
X285900000Y-202300000D03*
X291000000Y-202300000D03*
X314100000Y-202300000D03*
X322500000Y-202300000D03*
X349000000Y-202300000D03*
X332500000Y-202300000D03*
X300100000Y-202300000D03*
X309100000Y-202300000D03*
X281000000Y-202300000D03*
X275800000Y-202300000D03*
X344900000Y-202300000D03*
X340800000Y-202300000D03*
X337500000Y-202300000D03*
X305200000Y-202300000D03*
X258384811Y-193945567D03*
X256650000Y-193200000D03*
X322500000Y-207100000D03*
X297500000Y-207100000D03*
X279100000Y-207100000D03*
X344600000Y-207100000D03*
X327500000Y-207100000D03*
X307500000Y-207100000D03*
X302500000Y-207100000D03*
X319100000Y-207100000D03*
X312500000Y-207100000D03*
X294100000Y-207100000D03*
X332500000Y-207100000D03*
X279800000Y-232500000D03*
X294075000Y-232500000D03*
X299100000Y-232500000D03*
X292500000Y-218600000D03*
X279075000Y-218600000D03*
X297500000Y-218600000D03*
X287500000Y-218600000D03*
X289812500Y-232500000D03*
X309900000Y-232500000D03*
X254700000Y-239050000D03*
X302500000Y-218600000D03*
X315800000Y-232492745D03*
X282500000Y-218600000D03*
X282500000Y-217100000D03*
X287500000Y-217100000D03*
X307500000Y-217100000D03*
X297500000Y-217100000D03*
X292500000Y-217100000D03*
X319100000Y-217100000D03*
X278200000Y-217100000D03*
X312500000Y-217100000D03*
X284100000Y-247300000D03*
X302500000Y-217100000D03*
X304800000Y-217100000D03*
X268800000Y-231200000D03*
X288200000Y-247300000D03*
X294400000Y-217100000D03*
X304900000Y-231792745D03*
X253701879Y-238997467D03*
X314800000Y-231793245D03*
X291000000Y-231793245D03*
X316700000Y-231793245D03*
X320600000Y-231792745D03*
X281000000Y-231793245D03*
X285594622Y-231794622D03*
X296200000Y-231793245D03*
X299900000Y-231793245D03*
X301300000Y-231093245D03*
X323193245Y-231093245D03*
X287500000Y-231093245D03*
X319800000Y-231093245D03*
X277500000Y-231093245D03*
X311600000Y-231093245D03*
X252702405Y-239005071D03*
X282500000Y-231093245D03*
X309100000Y-231093245D03*
X251700000Y-238950000D03*
X302500000Y-228300000D03*
X320100000Y-228300000D03*
X292500000Y-228300000D03*
X317500000Y-228300000D03*
X312500000Y-228300000D03*
X307500000Y-228300000D03*
X285100000Y-228300000D03*
X321600000Y-228300000D03*
X297500000Y-228300000D03*
X307500000Y-233200000D03*
X256850000Y-238200000D03*
X312500000Y-233200000D03*
X317500000Y-233200000D03*
X287500000Y-233200000D03*
X322500000Y-233200000D03*
X281800000Y-233200000D03*
X301700000Y-233200000D03*
X297500000Y-233200000D03*
X292500000Y-233200000D03*
X297500000Y-237224006D03*
X302500000Y-237224006D03*
X307500000Y-237224006D03*
X259025994Y-237224006D03*
X314100000Y-237224006D03*
X317500000Y-237224006D03*
X287500000Y-237224006D03*
X280400000Y-237224006D03*
X294000000Y-237224006D03*
X292500000Y-241600000D03*
X302600000Y-241600000D03*
X297500000Y-241600000D03*
X287500000Y-241600000D03*
X307600000Y-241600000D03*
X260900000Y-238050000D03*
X318300000Y-241600000D03*
X314100000Y-241600000D03*
X282500000Y-241600000D03*
X311600000Y-241600000D03*
X313300000Y-222000000D03*
X291100000Y-222000000D03*
X299000000Y-222000000D03*
X292500000Y-251700000D03*
X287500000Y-251700000D03*
X302500000Y-251700000D03*
X247400000Y-242900000D03*
X276200000Y-241199500D03*
X307500000Y-251700000D03*
X317500000Y-251700000D03*
X282500000Y-251700000D03*
X297500000Y-251700000D03*
X278600000Y-227200000D03*
X304037000Y-222000000D03*
X312500000Y-251700000D03*
X286800000Y-268000000D03*
X279100000Y-268000000D03*
X280600000Y-268000000D03*
X325700000Y-268000000D03*
X328400000Y-268000000D03*
X270000000Y-268000000D03*
X321000000Y-268000000D03*
X319500000Y-268000000D03*
X275600000Y-268000000D03*
X306200000Y-268000000D03*
X295700000Y-268000000D03*
X334000000Y-268000000D03*
X292500000Y-256700000D03*
X314100000Y-256700000D03*
X319800000Y-256700000D03*
X326200000Y-256700000D03*
X282500000Y-256700000D03*
X274900000Y-256700000D03*
X302500000Y-256700000D03*
X307500000Y-256700000D03*
X297500000Y-256700000D03*
X299900500Y-268700000D03*
X299900000Y-271400500D03*
X311700000Y-256700000D03*
X247200000Y-248600000D03*
X287500000Y-256700000D03*
X333700000Y-257200000D03*
X322500000Y-262100000D03*
X284900000Y-262100000D03*
X324100000Y-262100000D03*
X297500000Y-262100000D03*
X317500000Y-262100000D03*
X308300000Y-262100000D03*
X327500000Y-262100000D03*
X339800000Y-262100000D03*
X312500000Y-262100000D03*
X292500000Y-262100000D03*
X301600000Y-262100000D03*
X249659065Y-253550000D03*
X274100000Y-263600000D03*
X297500000Y-263600000D03*
X287500000Y-263600000D03*
X282500000Y-263600000D03*
X277500000Y-263600000D03*
X302500000Y-263600000D03*
X251349154Y-254250846D03*
X325000000Y-263600000D03*
X292500000Y-263600000D03*
X307500000Y-263600000D03*
X314800000Y-263600000D03*
X329100000Y-263600000D03*
X332000000Y-263000000D03*
X290200000Y-266000000D03*
X332500000Y-266000000D03*
X327500000Y-266000000D03*
X321400000Y-266000000D03*
X281300000Y-266000000D03*
X337200000Y-266000000D03*
X312500000Y-266000000D03*
X270150000Y-266000000D03*
X276800000Y-266000000D03*
X317500000Y-266000000D03*
X297500000Y-266700000D03*
X324800000Y-266700000D03*
X287500000Y-266700000D03*
X313300000Y-266700000D03*
X307500000Y-266700000D03*
X301300000Y-266700000D03*
X294000000Y-266700000D03*
X316500000Y-266699500D03*
X268389244Y-266700000D03*
X322538000Y-266700000D03*
X334000000Y-266700000D03*
X333400000Y-272806755D03*
X292500000Y-272806755D03*
X272500000Y-272806755D03*
X305400000Y-272806755D03*
X287500000Y-272806755D03*
X328300000Y-272806755D03*
X314100000Y-272806755D03*
X319800000Y-272806755D03*
X282500000Y-272806755D03*
X277500000Y-272806755D03*
X255675000Y-256125000D03*
X337500000Y-272800000D03*
X298400000Y-272806755D03*
X297500000Y-272100000D03*
X327500000Y-272100000D03*
X289100000Y-272100000D03*
X332500000Y-272100000D03*
X317500000Y-272100000D03*
X302500000Y-272100000D03*
X322500000Y-272100000D03*
X307500000Y-272100000D03*
X279100000Y-272100000D03*
X312500000Y-272100000D03*
X255750000Y-255050000D03*
X297500000Y-277300000D03*
X282500000Y-277300000D03*
X334100000Y-277300000D03*
X272500000Y-277300000D03*
X292500000Y-277300000D03*
X323300000Y-277300000D03*
X256300000Y-249750000D03*
X309000000Y-261300000D03*
X286000000Y-261300000D03*
X287500000Y-277300000D03*
X329037000Y-261300000D03*
X307500000Y-277300000D03*
X302500000Y-277300000D03*
X270950000Y-261400000D03*
X277500000Y-277300000D03*
X270950000Y-277300000D03*
X289100000Y-261300000D03*
X278200000Y-297300000D03*
X299100000Y-297300000D03*
X288200000Y-297300000D03*
X314100000Y-297300000D03*
X337600000Y-295700000D03*
X272500000Y-297300000D03*
X253350000Y-297300000D03*
X315800000Y-297300000D03*
X287500000Y-287500000D03*
X261625000Y-294150500D03*
X272500000Y-287500000D03*
X322500000Y-287500000D03*
X277500000Y-287500000D03*
X334100000Y-287500000D03*
X284100000Y-287500000D03*
X295700000Y-287500000D03*
X310900000Y-287500000D03*
X292500000Y-287500000D03*
X282500000Y-287500000D03*
X299100000Y-287500000D03*
X316100000Y-287500000D03*
X252350000Y-297300000D03*
X292500000Y-292200000D03*
X287500000Y-292200000D03*
X282500000Y-292200000D03*
X317500000Y-292200000D03*
X312500000Y-292200000D03*
X297500000Y-292200000D03*
X302500000Y-292200000D03*
X307500000Y-291200000D03*
X279100000Y-292200000D03*
X254250000Y-296500000D03*
X309100000Y-296500000D03*
X277500000Y-296500000D03*
X297500000Y-296500000D03*
X335700000Y-296500000D03*
X282500000Y-296500000D03*
X292500000Y-296500000D03*
X287500000Y-296500000D03*
X302500000Y-296500000D03*
X329100000Y-296500000D03*
X284100000Y-293200000D03*
X317500000Y-293200000D03*
X312500000Y-293200000D03*
X332500000Y-293200000D03*
X256800000Y-295750000D03*
X307500000Y-293200000D03*
X315700000Y-293200000D03*
X286700000Y-293200000D03*
X327500000Y-293200000D03*
X299100000Y-293200000D03*
X276500000Y-293200000D03*
X280800000Y-298000000D03*
X318600000Y-298000000D03*
X297300000Y-298000000D03*
X305000000Y-298000000D03*
X248800000Y-298600000D03*
X332500000Y-298000000D03*
X302500000Y-298000000D03*
X307500000Y-298000000D03*
X312500000Y-298000000D03*
X292500000Y-298000000D03*
X327500000Y-298000000D03*
X292500000Y-302200000D03*
X248550000Y-299950000D03*
X285600000Y-302200000D03*
X282500000Y-302200000D03*
X307100000Y-302200000D03*
X297500000Y-302200000D03*
X279100000Y-302200000D03*
X312500000Y-302200000D03*
X302500000Y-302200000D03*
X319100000Y-302200000D03*
X333100000Y-302200000D03*
X327500000Y-303200000D03*
X289100000Y-307200000D03*
X277100000Y-307200000D03*
X294000000Y-307200000D03*
X314100000Y-307200000D03*
X290500000Y-295700000D03*
X282500000Y-307200000D03*
X290500000Y-294000000D03*
X327500000Y-307200000D03*
X329100000Y-301300000D03*
X304100000Y-307200000D03*
X299000000Y-307200000D03*
X248295633Y-300916593D03*
X309900000Y-307200000D03*
X316500000Y-298699500D03*
X289100000Y-298699500D03*
X297500000Y-311594622D03*
X307500000Y-311594622D03*
X280000000Y-298699500D03*
X267950000Y-298699000D03*
X317500000Y-311600000D03*
X294800000Y-298699500D03*
X312500000Y-311594622D03*
X287500000Y-311594622D03*
X282500000Y-311594622D03*
X314100000Y-311594622D03*
X304100000Y-298699500D03*
X334100000Y-298700000D03*
X292500000Y-311594622D03*
X302500000Y-311594622D03*
X292500000Y-322800000D03*
X297500000Y-322800000D03*
X307500000Y-322800000D03*
X282500000Y-322800000D03*
X287500000Y-322800000D03*
X253250000Y-316300000D03*
X302500000Y-322800000D03*
X225000000Y-301500000D03*
X235800000Y-138950000D03*
X225000000Y-243650000D03*
X256950000Y-185700000D03*
X256150000Y-301750000D03*
X256500000Y-243650000D03*
X256900000Y-127800000D03*
X225000000Y-185550000D03*
X254244622Y-244844622D03*
X254450000Y-302450000D03*
X255250000Y-128500000D03*
X230080000Y-245150000D03*
X239050000Y-137150000D03*
X230080000Y-187000000D03*
X256550000Y-244850000D03*
X255250000Y-186450000D03*
X230080000Y-303100000D03*
X224000000Y-305000000D03*
X237100000Y-246432832D03*
X240800000Y-136700000D03*
X235160000Y-300000000D03*
X235160000Y-188550000D03*
X237100000Y-304499500D03*
X235160000Y-304500000D03*
X237100000Y-188366166D03*
X242900000Y-134600000D03*
X223950000Y-300000000D03*
X235160000Y-246450000D03*
X236050000Y-295000000D03*
X224150000Y-295000000D03*
X253300000Y-315250000D03*
X284100000Y-322100000D03*
X296732162Y-322100500D03*
X253300000Y-314200000D03*
X289100000Y-321400000D03*
X294100000Y-321300000D03*
X253300000Y-313150000D03*
X253300000Y-312150000D03*
X299100000Y-318600000D03*
X304100000Y-317900000D03*
X253300000Y-311100000D03*
X309100000Y-317200000D03*
X253300000Y-310050000D03*
X253300000Y-309050000D03*
X290100000Y-316500500D03*
X255100000Y-307500000D03*
X295300000Y-315800000D03*
D22*
X236750000Y-242600000D02*
X237986666Y-242600000D01*
X251937500Y-304600000D02*
X254289244Y-304600000D01*
X241500000Y-184520000D02*
X238000000Y-184520000D01*
X246000000Y-310825000D02*
X246000000Y-312650000D01*
X251937500Y-246533332D02*
X250400000Y-246533332D01*
X236750000Y-300650000D02*
X237996666Y-300650000D01*
X245000000Y-194675000D02*
X245000000Y-196500000D01*
X257700000Y-187500000D02*
X258500000Y-187500000D01*
X256955937Y-245763357D02*
X258763357Y-245763357D01*
X230080000Y-107000000D02*
X230080000Y-114330000D01*
X258650000Y-128900000D02*
X257150000Y-128900000D01*
X258500000Y-187500000D02*
X259480000Y-188480000D01*
X258763357Y-245763357D02*
X259480000Y-246480000D01*
X236753334Y-126453334D02*
X236750000Y-126450000D01*
X256050000Y-130000000D02*
X257150000Y-128900000D01*
X259480000Y-304280000D02*
X259480000Y-305000000D01*
X259480000Y-129730000D02*
X258650000Y-128900000D01*
X256185962Y-246533332D02*
X256955937Y-245763357D01*
X251937500Y-304600000D02*
X250400000Y-304600000D01*
X259480000Y-130800000D02*
X259480000Y-129730000D01*
X248062500Y-188466666D02*
X249600000Y-188466666D01*
X245000000Y-136625000D02*
X245000000Y-138150000D01*
X238000000Y-126453334D02*
X236753334Y-126453334D01*
X236770000Y-184520000D02*
X236750000Y-184500000D01*
X241500000Y-242586666D02*
X238000000Y-242586666D01*
X241500000Y-300653334D02*
X238000000Y-300653334D01*
X248062500Y-246533332D02*
X249600000Y-246533332D01*
X246000000Y-252775000D02*
X246000000Y-254500000D01*
X238000000Y-184520000D02*
X236770000Y-184520000D01*
X255544622Y-303344622D02*
X258544622Y-303344622D01*
X230080000Y-114330000D02*
X230100000Y-114350000D01*
X251937500Y-130000000D02*
X256050000Y-130000000D01*
X259480000Y-188480000D02*
X259480000Y-188850000D01*
X248062500Y-304600000D02*
X249600000Y-304600000D01*
X245000000Y-184520000D02*
X241500000Y-184520000D01*
X251937500Y-130400000D02*
X251937500Y-130000000D01*
X221175000Y-295000000D02*
X219550000Y-295000000D01*
X258544622Y-303344622D02*
X259480000Y-304280000D01*
X251937500Y-130000000D02*
X250000000Y-130000000D01*
X248062500Y-130400000D02*
X249600000Y-130400000D01*
X245000000Y-126453334D02*
X241500000Y-126453334D01*
X257700000Y-187500000D02*
X256733334Y-188466666D01*
X254289244Y-304600000D02*
X255544622Y-303344622D01*
X251937500Y-246533332D02*
X256185962Y-246533332D01*
X245000000Y-300653334D02*
X241500000Y-300653334D01*
X245000000Y-242586666D02*
X241500000Y-242586666D01*
X256733334Y-188466666D02*
X251937500Y-188466666D01*
X251937500Y-188466666D02*
X250400000Y-188466666D01*
X259480000Y-246480000D02*
X259480000Y-246950000D01*
X241500000Y-126453334D02*
X238000000Y-126453334D01*
X238000000Y-186300000D02*
X241500000Y-186300000D01*
X241500000Y-127413334D02*
X241500000Y-128150000D01*
X248062500Y-245333332D02*
X245933332Y-245333332D01*
X245933332Y-245333332D02*
X245000000Y-244400000D01*
X238000000Y-302400000D02*
X236750000Y-302400000D01*
X238000000Y-244400000D02*
X241500000Y-244400000D01*
X251937500Y-188066666D02*
X255683334Y-188066666D01*
X241500000Y-302400000D02*
X238000000Y-302400000D01*
X236750000Y-128150000D02*
X238000000Y-128150000D01*
X245000000Y-301613334D02*
X245000000Y-302400000D01*
X221175000Y-300000000D02*
X221175000Y-305000000D01*
X236784834Y-186300000D02*
X238000000Y-186300000D01*
X246000000Y-187266666D02*
X248062500Y-187266666D01*
X245033334Y-186300000D02*
X246000000Y-187266666D01*
X241500000Y-243546666D02*
X241500000Y-244400000D01*
X246050000Y-128150000D02*
X245000000Y-128150000D01*
X219550000Y-300000000D02*
X221175000Y-300000000D01*
X247100000Y-129200000D02*
X246050000Y-128150000D01*
X238000000Y-185480000D02*
X238000000Y-186300000D01*
X241500000Y-301613334D02*
X241500000Y-302400000D01*
X238000000Y-127413334D02*
X238000000Y-128150000D01*
X238000000Y-128150000D02*
X241500000Y-128150000D01*
X241500000Y-128150000D02*
X245000000Y-128150000D01*
X248062500Y-303400000D02*
X246000000Y-303400000D01*
X248062500Y-129200000D02*
X247100000Y-129200000D01*
X236750000Y-186265166D02*
X236784834Y-186300000D01*
X245000000Y-127413334D02*
X245000000Y-128150000D01*
X221175000Y-305000000D02*
X221175000Y-310000000D01*
X238000000Y-244400000D02*
X236750000Y-244400000D01*
X245000000Y-243546666D02*
X245000000Y-244400000D01*
X255683334Y-188066666D02*
X256550000Y-187200000D01*
X245000000Y-244400000D02*
X241500000Y-244400000D01*
X245000000Y-185480000D02*
X245000000Y-186266666D01*
X245000000Y-186266666D02*
X245033334Y-186300000D01*
X246000000Y-303400000D02*
X245000000Y-302400000D01*
X241500000Y-185480000D02*
X241500000Y-186300000D01*
X238000000Y-243546666D02*
X238000000Y-244400000D01*
X225000000Y-107000000D02*
X225000000Y-114400000D01*
X241500000Y-186300000D02*
X245033334Y-186300000D01*
X245000000Y-302400000D02*
X241500000Y-302400000D01*
X238000000Y-301613334D02*
X238000000Y-302400000D01*
X251937500Y-188866666D02*
X258503334Y-188866666D01*
X251937500Y-305000000D02*
X258520000Y-305000000D01*
X251937500Y-130800000D02*
X258520000Y-130800000D01*
X251937500Y-246933332D02*
X258503332Y-246933332D01*
X342500000Y-95000000D02*
X342500000Y-100000000D01*
X251937500Y-128800000D02*
X253700000Y-128800000D01*
X327500000Y-105000000D02*
X327500000Y-103700000D01*
X253700000Y-128800000D02*
X256500000Y-126000000D01*
X327500000Y-106575000D02*
X319075000Y-115000000D01*
X329075000Y-110000000D02*
X329812500Y-109262500D01*
X327500000Y-105000000D02*
X327500000Y-106575000D01*
X354075000Y-102825000D02*
X354075000Y-105000000D01*
X334075000Y-105000000D02*
X334075000Y-102825000D01*
X352500000Y-100000000D02*
X352500000Y-95000000D01*
X347500000Y-95000000D02*
X347500000Y-100000000D01*
X329812500Y-102812500D02*
X329800000Y-102800000D01*
X329812500Y-109262500D02*
X329812500Y-102812500D01*
X349075000Y-102825000D02*
X349100000Y-102800000D01*
X359075000Y-105000000D02*
X359075000Y-103990686D01*
X346800000Y-100700000D02*
X346800000Y-102800000D01*
X344075000Y-102875000D02*
X344000000Y-102800000D01*
X354100000Y-102800000D02*
X354100000Y-101900000D01*
X334075000Y-102825000D02*
X334100000Y-102800000D01*
X349075000Y-105000000D02*
X349075000Y-102825000D01*
X364000000Y-102800000D02*
X364075000Y-102875000D01*
X344000000Y-101705372D02*
X344000000Y-102800000D01*
X344075000Y-105000000D02*
X344075000Y-102875000D01*
X359075000Y-103990686D02*
X359800000Y-103265686D01*
X354100000Y-102800000D02*
X354075000Y-102825000D01*
X354100000Y-101900000D02*
X352500000Y-100300000D01*
X347500000Y-100000000D02*
X346800000Y-100700000D01*
X364075000Y-102875000D02*
X364075000Y-105000000D01*
X359800000Y-103265686D02*
X359800000Y-102800000D01*
X342500000Y-100205372D02*
X344000000Y-101705372D01*
X319075000Y-118399500D02*
X319075000Y-115000000D01*
X357500000Y-100000000D02*
X357500000Y-102800000D01*
X345300000Y-121225000D02*
X345300000Y-129400000D01*
X315512000Y-117900000D02*
X315521932Y-117909932D01*
X357500000Y-125000000D02*
X356600000Y-124100000D01*
X324900000Y-117900000D02*
X324900000Y-115825000D01*
X363300000Y-118200000D02*
X364075000Y-117425000D01*
X337500000Y-130000000D02*
X338275000Y-129225000D01*
X251200000Y-126850000D02*
X251200000Y-128062500D01*
X343337500Y-95737500D02*
X344075000Y-95000000D01*
X340200000Y-111125000D02*
X340200000Y-118200000D01*
X356600000Y-124100000D02*
X356600000Y-118200000D01*
X364075000Y-124609314D02*
X364075000Y-125000000D01*
X338000000Y-118900000D02*
X338000000Y-118200000D01*
X344075000Y-120000000D02*
X345300000Y-121225000D01*
X337500000Y-103300000D02*
X336300000Y-102100000D01*
X344812500Y-101952186D02*
X343337500Y-100477186D01*
X344100000Y-116500000D02*
X344812500Y-115787500D01*
X332500000Y-110000000D02*
X331500000Y-111000000D01*
X364075000Y-117425000D02*
X364075000Y-115000000D01*
X363337500Y-118237500D02*
X363337500Y-123871814D01*
X356600000Y-115900000D02*
X356600000Y-118200000D01*
X332500000Y-103400000D02*
X332500000Y-105000000D01*
X337500000Y-120000000D02*
X337500000Y-119400000D01*
X315521932Y-123021932D02*
X317500000Y-125000000D01*
X255179380Y-122912014D02*
X255137986Y-122912014D01*
X357500000Y-115000000D02*
X356600000Y-115900000D01*
X344075000Y-120000000D02*
X344075000Y-118225000D01*
X344100000Y-118200000D02*
X344100000Y-116500000D01*
X331500000Y-111000000D02*
X331500000Y-116100000D01*
X343337500Y-100477186D02*
X343337500Y-95737500D01*
X324900000Y-124175000D02*
X324900000Y-117900000D01*
X336300000Y-102100000D02*
X333800000Y-102100000D01*
X344700000Y-130000000D02*
X344075000Y-130000000D01*
X333800000Y-102100000D02*
X332500000Y-103400000D01*
X315521932Y-117909932D02*
X315521932Y-123021932D01*
X338275000Y-129225000D02*
X343300000Y-129225000D01*
X339075000Y-110000000D02*
X340200000Y-111125000D01*
X337500000Y-105000000D02*
X337500000Y-103300000D01*
X344812500Y-115787500D02*
X344812500Y-101952186D01*
X255137986Y-122912014D02*
X251200000Y-126850000D01*
X324900000Y-115825000D02*
X324075000Y-115000000D01*
X363300000Y-118200000D02*
X363337500Y-118237500D01*
X345300000Y-129400000D02*
X344700000Y-130000000D01*
X337500000Y-119400000D02*
X338000000Y-118900000D01*
X344075000Y-118225000D02*
X344100000Y-118200000D01*
X363337500Y-123871814D02*
X364075000Y-124609314D01*
X332500000Y-105000000D02*
X332500000Y-110000000D01*
X343300000Y-129225000D02*
X344075000Y-130000000D01*
X331500000Y-116100000D02*
X332400000Y-117000000D01*
X324075000Y-125000000D02*
X324900000Y-124175000D01*
X332400000Y-117000000D02*
X332400000Y-118200000D01*
X357500000Y-108990686D02*
X355400000Y-106890685D01*
X341600000Y-110900000D02*
X341600000Y-117500000D01*
X369789950Y-115000000D02*
X370600000Y-115810050D01*
X369075000Y-115000000D02*
X369789950Y-115000000D01*
X367500000Y-111300000D02*
X367500000Y-110000000D01*
X346700000Y-117500000D02*
X346700000Y-112100000D01*
X357500000Y-110000000D02*
X357500000Y-111300000D01*
X329075000Y-115000000D02*
X329075000Y-117475000D01*
X362500000Y-110000000D02*
X362500000Y-111300000D01*
X336400000Y-111100000D02*
X336400000Y-117500000D01*
X329812500Y-118212500D02*
X329812500Y-124262500D01*
X337500000Y-106575000D02*
X339075000Y-105000000D01*
X367500000Y-111300000D02*
X367500000Y-113425000D01*
X348337500Y-129262500D02*
X348337500Y-120737500D01*
X250800000Y-128062500D02*
X250800000Y-126260756D01*
X355400000Y-106890685D02*
X353175999Y-106890685D01*
X342500000Y-110000000D02*
X342500000Y-105000000D01*
X353175999Y-106890685D02*
X351700000Y-105414686D01*
X367500000Y-113425000D02*
X369075000Y-115000000D01*
X357500000Y-110000000D02*
X357500000Y-108990686D01*
X329812500Y-124262500D02*
X329075000Y-125000000D01*
X351700000Y-105414686D02*
X351700000Y-97625000D01*
X370600000Y-115810050D02*
X370600000Y-123475000D01*
X349075000Y-120000000D02*
X349075000Y-117525000D01*
X337500000Y-110000000D02*
X337500000Y-106575000D01*
X329100000Y-117500000D02*
X329812500Y-118212500D01*
X351700000Y-97625000D02*
X349075000Y-95000000D01*
X342500000Y-110000000D02*
X341600000Y-110900000D01*
X329075000Y-117475000D02*
X329100000Y-117500000D01*
X352500000Y-110000000D02*
X352500000Y-111300000D01*
X347500000Y-110000000D02*
X347500000Y-111300000D01*
X337500000Y-110000000D02*
X336400000Y-111100000D01*
X349075000Y-117525000D02*
X349100000Y-117500000D01*
X348337500Y-120737500D02*
X349075000Y-120000000D01*
X250800000Y-126260756D02*
X254180378Y-122880378D01*
X370600000Y-123475000D02*
X369075000Y-125000000D01*
X349075000Y-130000000D02*
X348337500Y-129262500D01*
X346700000Y-112100000D02*
X347500000Y-111300000D01*
X354812500Y-120737500D02*
X354812500Y-129262500D01*
X342500000Y-111575000D02*
X344075000Y-110000000D01*
X250400000Y-125671513D02*
X253151860Y-122919653D01*
X352500000Y-116899500D02*
X352500000Y-118300000D01*
X250400000Y-128062500D02*
X250400000Y-125671513D01*
X352500000Y-118300000D02*
X354075000Y-119875000D01*
X352500000Y-115000000D02*
X352500000Y-116899500D01*
X314100000Y-116600000D02*
X314075000Y-116625000D01*
X313337500Y-120737500D02*
X313337500Y-129262500D01*
X316400000Y-115662501D02*
X316400000Y-116600000D01*
X354812500Y-129262500D02*
X354075000Y-130000000D01*
X360200000Y-116899500D02*
X360200000Y-108914686D01*
X356500000Y-97425000D02*
X354075000Y-95000000D01*
X334812500Y-120587500D02*
X337200000Y-118200000D01*
X313337500Y-129262500D02*
X314075000Y-130000000D01*
X354075000Y-120000000D02*
X354812500Y-120737500D01*
X322500000Y-115000000D02*
X322500000Y-116799500D01*
X333300000Y-116300000D02*
X333300000Y-116800000D01*
X314075000Y-120000000D02*
X313337500Y-120737500D01*
X360200000Y-108914686D02*
X356500000Y-105214686D01*
X326600000Y-115462501D02*
X326600000Y-116800000D01*
X337200000Y-115300000D02*
X337200000Y-116800000D01*
X342500000Y-115000000D02*
X342500000Y-116800000D01*
X327062501Y-115000000D02*
X326600000Y-115462501D01*
X356500000Y-105214686D02*
X356500000Y-97425000D01*
X342500000Y-115000000D02*
X342500000Y-111575000D01*
X332500000Y-111575000D02*
X334075000Y-110000000D01*
X332500000Y-115000000D02*
X332500000Y-115500000D01*
X334075000Y-125000000D02*
X334812500Y-124262500D01*
X334812500Y-124262500D02*
X334812500Y-120587500D01*
X317500000Y-115000000D02*
X317062501Y-115000000D01*
X314075000Y-116625000D02*
X314075000Y-120000000D01*
X347500000Y-115000000D02*
X347500000Y-116800000D01*
X332500000Y-115500000D02*
X333300000Y-116300000D01*
X327500000Y-115000000D02*
X327062501Y-115000000D01*
X332500000Y-115000000D02*
X332500000Y-111575000D01*
X337200000Y-118200000D02*
X337200000Y-116800000D01*
X317062501Y-115000000D02*
X316400000Y-115662501D01*
X320400000Y-117900000D02*
X322500000Y-120000000D01*
X321100000Y-124400000D02*
X322500000Y-123000000D01*
X320400000Y-116100000D02*
X320400000Y-117900000D01*
X338700000Y-119625000D02*
X339075000Y-120000000D01*
X321100000Y-127975000D02*
X321100000Y-124400000D01*
X352500000Y-103700000D02*
X352400000Y-103600000D01*
X312638004Y-115882612D02*
X312600000Y-115920616D01*
X317500000Y-120000000D02*
X317500000Y-116100000D01*
X319075000Y-130000000D02*
X321100000Y-127975000D01*
X359812500Y-120737500D02*
X359812500Y-129262500D01*
X346100000Y-107025000D02*
X349075000Y-110000000D01*
X327500000Y-120000000D02*
X327500000Y-116100000D01*
X338100000Y-116100000D02*
X338100000Y-116800000D01*
X346100000Y-103600000D02*
X346100000Y-107025000D01*
X334075000Y-116100000D02*
X334075000Y-115000000D01*
X352500000Y-105000000D02*
X352500000Y-103700000D01*
X344075000Y-100649000D02*
X346100000Y-102674000D01*
X330000500Y-116100000D02*
X330000500Y-117500500D01*
X344075000Y-100000000D02*
X344075000Y-100649000D01*
X250000000Y-125050000D02*
X252150000Y-122900000D01*
X367500000Y-116200000D02*
X367500000Y-115000000D01*
X312600000Y-115920616D02*
X312600000Y-119900000D01*
X250000000Y-128062500D02*
X250000000Y-125050000D01*
X359075000Y-120000000D02*
X359812500Y-120737500D01*
X362500000Y-115000000D02*
X362500000Y-116200000D01*
X349300000Y-113560314D02*
X349300000Y-110225000D01*
X339075000Y-120000000D02*
X339075000Y-125000000D01*
X338100000Y-116800000D02*
X338700000Y-117400000D01*
X348300000Y-116100000D02*
X348300000Y-114560314D01*
X348300000Y-114560314D02*
X349300000Y-113560314D01*
X346100000Y-102674000D02*
X346100000Y-103600000D01*
X330000500Y-117500500D02*
X332500000Y-120000000D01*
X359075000Y-116225000D02*
X359100000Y-116200000D01*
X322500000Y-123000000D02*
X322500000Y-120000000D01*
X338700000Y-117400000D02*
X338700000Y-119625000D01*
X359075000Y-120000000D02*
X359075000Y-116225000D01*
X359812500Y-129262500D02*
X359075000Y-130000000D01*
X354075000Y-110474999D02*
X354075000Y-110000000D01*
X340700000Y-120000000D02*
X342500000Y-120000000D01*
X319075000Y-123675000D02*
X319075000Y-120000000D01*
X363237500Y-129162500D02*
X364075000Y-130000000D01*
X351475000Y-107400000D02*
X349900000Y-107400000D01*
X344075000Y-125000000D02*
X344075000Y-123625000D01*
X362500000Y-120000000D02*
X362500000Y-123600000D01*
X359075000Y-115000000D02*
X357500000Y-116575000D01*
X352500000Y-120000000D02*
X352500000Y-123600000D01*
X339075000Y-118375000D02*
X340700000Y-120000000D01*
X355091232Y-115791232D02*
X355091232Y-111491231D01*
X249600000Y-128062500D02*
X249600000Y-124450497D01*
X339075000Y-113924500D02*
X339100000Y-113899500D01*
X344075000Y-123625000D02*
X344100000Y-123600000D01*
X323337500Y-123762500D02*
X323337500Y-126047550D01*
X347500000Y-102400000D02*
X349075000Y-100825000D01*
X323337500Y-126047550D02*
X324075000Y-126785050D01*
X309400000Y-115141153D02*
X309400000Y-123000000D01*
X363237500Y-124337500D02*
X363237500Y-129162500D01*
X355100000Y-115800000D02*
X355091232Y-115791232D01*
X312500000Y-125000000D02*
X312500000Y-123700000D01*
X357500000Y-120000000D02*
X357500000Y-123600000D01*
X347500000Y-105000000D02*
X347500000Y-102400000D01*
X362500000Y-123600000D02*
X363237500Y-124337500D01*
X339075000Y-115000000D02*
X339075000Y-118375000D01*
X339075000Y-115000000D02*
X339075000Y-113924500D01*
X349075000Y-100825000D02*
X349075000Y-100000000D01*
X323400000Y-123700000D02*
X323337500Y-123762500D01*
X324075000Y-126785050D02*
X324075000Y-130000000D01*
X347500000Y-120000000D02*
X347500000Y-123600000D01*
X309400000Y-123000000D02*
X310100000Y-123700000D01*
X367500000Y-120000000D02*
X367500000Y-123500000D01*
X367500000Y-123500000D02*
X367400000Y-123600000D01*
X357500000Y-116575000D02*
X357500000Y-120000000D01*
X319100000Y-123700000D02*
X319075000Y-123675000D01*
X355091232Y-111491231D02*
X354075000Y-110474999D01*
X349900000Y-107400000D02*
X347500000Y-105000000D01*
X249600000Y-124450497D02*
X251150497Y-122900000D01*
X354075000Y-110000000D02*
X351475000Y-107400000D01*
X352500000Y-125000000D02*
X352500000Y-126600000D01*
X332500000Y-126600000D02*
X332475000Y-126600000D01*
X321200000Y-117125000D02*
X321200000Y-114741153D01*
X249200000Y-123850994D02*
X250150994Y-122900000D01*
X332500000Y-125000000D02*
X332500000Y-126600000D01*
X355800000Y-106725000D02*
X355800000Y-103500000D01*
X322500000Y-125000000D02*
X322500000Y-126200000D01*
X362500000Y-105000000D02*
X362500000Y-103500000D01*
X322500000Y-126200000D02*
X322900000Y-126600000D01*
X343237500Y-124262500D02*
X342500000Y-125000000D01*
X337500000Y-125000000D02*
X337500000Y-126600000D01*
X366700000Y-126600000D02*
X366700000Y-122625000D01*
X355800000Y-101725000D02*
X354075000Y-100000000D01*
X369075000Y-128975000D02*
X369075000Y-130000000D01*
X322500000Y-125000000D02*
X322500000Y-123600000D01*
X324075000Y-120000000D02*
X321200000Y-117125000D01*
X366700000Y-126600000D02*
X369075000Y-128975000D01*
X342500000Y-125000000D02*
X342500000Y-126600000D01*
X356000000Y-114741153D02*
X359075000Y-111666153D01*
X355800000Y-103500000D02*
X355800000Y-101725000D01*
X332475000Y-126600000D02*
X329075000Y-130000000D01*
X359075000Y-125000000D02*
X359075000Y-126575000D01*
X359075000Y-111666153D02*
X359075000Y-110000000D01*
X343237500Y-115837500D02*
X343237500Y-124262500D01*
X327500000Y-125000000D02*
X327500000Y-126600000D01*
X347500000Y-125000000D02*
X347500000Y-126600000D01*
X322500000Y-123600000D02*
X324075000Y-122025000D01*
X359075000Y-126575000D02*
X359100000Y-126600000D01*
X344075000Y-115000000D02*
X343237500Y-115837500D01*
X249200000Y-128062500D02*
X249200000Y-123850994D01*
X324075000Y-122025000D02*
X324075000Y-120000000D01*
X359075000Y-110000000D02*
X355800000Y-106725000D01*
X366700000Y-122625000D02*
X364075000Y-120000000D01*
X248800000Y-128062500D02*
X248800000Y-123251491D01*
X313538521Y-131014940D02*
X313514940Y-131014940D01*
X361566751Y-113633249D02*
X364075000Y-111125000D01*
X328300000Y-120775000D02*
X329075000Y-120000000D01*
X361600000Y-114374018D02*
X361566751Y-114340769D01*
X313514940Y-131014940D02*
X312500000Y-130000000D01*
X361600000Y-124100000D02*
X361600000Y-114374018D01*
X350400000Y-115100000D02*
X350400000Y-123675000D01*
X369075000Y-123425000D02*
X367500000Y-125000000D01*
X312500000Y-130000000D02*
X311400000Y-128900000D01*
X315800000Y-133275000D02*
X315800000Y-131100000D01*
X357500000Y-105000000D02*
X359000000Y-103500000D01*
X369075000Y-120000000D02*
X369075000Y-123425000D01*
X364075000Y-108475000D02*
X361375000Y-105775000D01*
X322500000Y-130000000D02*
X322500000Y-131100000D01*
X350400000Y-123675000D02*
X349075000Y-125000000D01*
X370200000Y-116400000D02*
X370200000Y-118875000D01*
X364075000Y-110000000D02*
X364075000Y-108475000D01*
X314075000Y-135000000D02*
X315800000Y-133275000D01*
X327500000Y-130000000D02*
X328300000Y-129200000D01*
X350400000Y-114341153D02*
X350400000Y-115100000D01*
X311400000Y-128900000D02*
X311400000Y-114341153D01*
X361566751Y-114340769D02*
X361566751Y-113633249D01*
X327500000Y-130000000D02*
X327500000Y-131100000D01*
X317500000Y-126575000D02*
X319075000Y-125000000D01*
X362500000Y-125000000D02*
X361600000Y-124100000D01*
X361375000Y-105775000D02*
X358275000Y-105775000D01*
X332500000Y-130000000D02*
X332500000Y-131100000D01*
X317500000Y-130000000D02*
X317500000Y-126575000D01*
X317500000Y-130000000D02*
X317500000Y-131100000D01*
X364075000Y-111125000D02*
X364075000Y-110000000D01*
X350400000Y-115100000D02*
X349175000Y-115100000D01*
X248800000Y-123251491D02*
X249151491Y-122900000D01*
X370200000Y-118875000D02*
X369075000Y-120000000D01*
X359000000Y-103500000D02*
X359000000Y-100075000D01*
X358275000Y-105775000D02*
X357500000Y-105000000D01*
X328300000Y-129200000D02*
X328300000Y-120775000D01*
X369900000Y-116100000D02*
X370200000Y-116400000D01*
X339075000Y-131075000D02*
X339100000Y-131100000D01*
X332290686Y-119225000D02*
X333300000Y-119225000D01*
X333650000Y-124210314D02*
X333337500Y-124522814D01*
X334075000Y-130075000D02*
X335100000Y-131100000D01*
X352500000Y-130000000D02*
X353600000Y-128900000D01*
X333337500Y-125477186D02*
X333700000Y-125839686D01*
X330700000Y-113342153D02*
X330700000Y-117634314D01*
X334100000Y-120025000D02*
X334100000Y-123810314D01*
X333337500Y-124522814D02*
X333337500Y-125477186D01*
X314812500Y-132687500D02*
X314812500Y-129522814D01*
X352500000Y-130000000D02*
X352500000Y-131100000D01*
X330700000Y-111600000D02*
X329875000Y-110775000D01*
X330700000Y-117634314D02*
X332290686Y-119225000D01*
X369000000Y-113342153D02*
X369075000Y-113267153D01*
X347500000Y-130000000D02*
X347500000Y-131100000D01*
X342500000Y-130000000D02*
X342500000Y-131100000D01*
X333700000Y-124210314D02*
X333650000Y-124210314D01*
X362500000Y-130000000D02*
X362500000Y-131100000D01*
X329075000Y-106075000D02*
X327500000Y-107650000D01*
X353600000Y-128900000D02*
X353600000Y-125475000D01*
X314812500Y-124262500D02*
X314812500Y-113354653D01*
X330700000Y-113342153D02*
X330700000Y-111600000D01*
X329075000Y-105000000D02*
X329075000Y-106075000D01*
X353600000Y-125475000D02*
X354075000Y-125000000D01*
X333700000Y-129625000D02*
X334075000Y-130000000D01*
X247250000Y-128800000D02*
X248062500Y-128800000D01*
X333300000Y-119225000D02*
X334075000Y-120000000D01*
X367500000Y-131100000D02*
X367500000Y-130000000D01*
X333700000Y-125839686D02*
X333700000Y-129625000D01*
X339075000Y-130000000D02*
X339075000Y-131075000D01*
X327500000Y-107650000D02*
X327500000Y-110000000D01*
X328275000Y-110775000D02*
X327500000Y-110000000D01*
X357500000Y-130000000D02*
X357500000Y-131100000D01*
X329875000Y-110775000D02*
X328275000Y-110775000D01*
X247150000Y-128700000D02*
X247250000Y-128800000D01*
X354075000Y-113342153D02*
X354075000Y-115000000D01*
X247150000Y-123802992D02*
X247150000Y-128700000D01*
X314075000Y-125000000D02*
X314812500Y-124262500D01*
X334100000Y-123810314D02*
X333700000Y-124210314D01*
X314812500Y-113354653D02*
X314800000Y-113342153D01*
X314812500Y-129522814D02*
X314100000Y-128810314D01*
X312500000Y-135000000D02*
X314812500Y-132687500D01*
X314100000Y-128810314D02*
X314100000Y-125025000D01*
X369075000Y-113267153D02*
X369075000Y-110000000D01*
X248157463Y-122795529D02*
X247150000Y-123802992D01*
X368337500Y-154262500D02*
X369075000Y-155000000D01*
X314075000Y-145000000D02*
X314075000Y-144375000D01*
X319075000Y-135000000D02*
X319075000Y-137125000D01*
X354075000Y-145000000D02*
X354075000Y-148375000D01*
X358275000Y-134225000D02*
X357500000Y-135000000D01*
X323337500Y-145837500D02*
X324100000Y-146600000D01*
X366725000Y-134225000D02*
X367500000Y-135000000D01*
X268950000Y-148400000D02*
X260517148Y-148400000D01*
X260517148Y-148400000D02*
X248800000Y-136682852D01*
X307500000Y-140000000D02*
X304400000Y-143100000D01*
X317500000Y-138700000D02*
X317500000Y-140000000D01*
X327500000Y-140000000D02*
X326700000Y-140800000D01*
X324075000Y-150000000D02*
X324075000Y-148425000D01*
X316332843Y-146832843D02*
X317600000Y-148100000D01*
X328409358Y-154334358D02*
X328409358Y-152124044D01*
X314075000Y-145000000D02*
X314075000Y-148375000D01*
X328409358Y-152124044D02*
X326700000Y-150414686D01*
X341300000Y-141865000D02*
X341300000Y-148400000D01*
X314075000Y-144375000D02*
X312500000Y-142800000D01*
X324075000Y-148425000D02*
X324100000Y-148400000D01*
X339075000Y-139640000D02*
X341300000Y-141865000D01*
X312500000Y-142800000D02*
X312500000Y-140000000D01*
X355000000Y-144075000D02*
X354075000Y-145000000D01*
X367300000Y-148400000D02*
X368337500Y-149437500D01*
X364075000Y-148425000D02*
X364100000Y-148400000D01*
X317600000Y-148100000D02*
X317600000Y-148400000D01*
X368337500Y-149437500D02*
X368337500Y-154262500D01*
X364075000Y-150000000D02*
X364075000Y-148425000D01*
X319075000Y-137125000D02*
X317500000Y-138700000D01*
X316332843Y-141167157D02*
X316332843Y-146832843D01*
X326700000Y-150414686D02*
X326700000Y-148400000D01*
X322500000Y-140000000D02*
X323337500Y-140837500D01*
X314075000Y-148375000D02*
X314100000Y-148400000D01*
X326700000Y-140800000D02*
X326700000Y-148400000D01*
X248800000Y-136682852D02*
X248800000Y-131937500D01*
X362500000Y-135000000D02*
X361725000Y-134225000D01*
X317500000Y-140000000D02*
X316332843Y-141167157D01*
X324100000Y-146600000D02*
X324100000Y-148400000D01*
X354075000Y-148375000D02*
X354100000Y-148400000D01*
X362500000Y-135000000D02*
X363275000Y-134225000D01*
X304400000Y-143100000D02*
X304400000Y-148400000D01*
X357500000Y-135000000D02*
X355000000Y-137500000D01*
X329075000Y-155000000D02*
X328409358Y-154334358D01*
X363275000Y-134225000D02*
X366725000Y-134225000D01*
X361725000Y-134225000D02*
X358275000Y-134225000D01*
X323337500Y-140837500D02*
X323337500Y-145837500D01*
X355000000Y-137500000D02*
X355000000Y-144075000D01*
X337500000Y-135000000D02*
X337500000Y-136400000D01*
X332500000Y-135000000D02*
X332500000Y-136400000D01*
X349075000Y-145000000D02*
X349075000Y-142210314D01*
X310100000Y-146025000D02*
X310100000Y-151300000D01*
X332500000Y-137600000D02*
X332500000Y-136400000D01*
X324000000Y-151300000D02*
X324000000Y-154925000D01*
X352500000Y-137750000D02*
X352500000Y-136400000D01*
X317500000Y-135000000D02*
X317500000Y-136400000D01*
X349800000Y-151200000D02*
X349812500Y-151187500D01*
X248062500Y-131200000D02*
X247300000Y-131200000D01*
X309075000Y-145000000D02*
X310100000Y-146025000D01*
X359075000Y-136375000D02*
X359075000Y-135000000D01*
X359100000Y-136400000D02*
X359075000Y-136375000D01*
X246700000Y-135550000D02*
X262450000Y-151300000D01*
X334075000Y-139175000D02*
X332500000Y-137600000D01*
X342500000Y-135000000D02*
X342500000Y-136400000D01*
X349812500Y-147846814D02*
X349075000Y-147109314D01*
X351400000Y-139885314D02*
X351400000Y-138850000D01*
X364100000Y-151200000D02*
X364100000Y-154975000D01*
X351400000Y-138850000D02*
X352500000Y-137750000D01*
X322500000Y-135000000D02*
X322500000Y-136400000D01*
X352500000Y-135000000D02*
X352500000Y-136400000D01*
X349075000Y-147109314D02*
X349075000Y-145000000D01*
X349075000Y-142210314D02*
X351400000Y-139885314D01*
X349812500Y-151187500D02*
X349812500Y-147846814D01*
X327500000Y-135000000D02*
X327500000Y-136400000D01*
X347500000Y-135000000D02*
X347500000Y-136400000D01*
X246700000Y-131800000D02*
X246700000Y-135550000D01*
X319075000Y-151275000D02*
X319100000Y-151300000D01*
X359100000Y-151200000D02*
X359100000Y-150025000D01*
X319075000Y-150000000D02*
X319075000Y-151275000D01*
X262450000Y-151300000D02*
X270750000Y-151300000D01*
X334075000Y-140000000D02*
X334075000Y-139175000D01*
X247300000Y-131200000D02*
X246700000Y-131800000D01*
X329475000Y-146217657D02*
X329475000Y-147590686D01*
X300500000Y-158575000D02*
X300500000Y-143700000D01*
X362500000Y-140000000D02*
X362500000Y-142400000D01*
X329800000Y-153789950D02*
X331785050Y-155775000D01*
X321500000Y-138700000D02*
X321500000Y-142400000D01*
X299075000Y-161275000D02*
X299100000Y-161300000D01*
X362500000Y-143200000D02*
X362500000Y-142400000D01*
X352500000Y-140000000D02*
X352500000Y-142400000D01*
X368337500Y-145477186D02*
X368337500Y-143237500D01*
X347500000Y-140000000D02*
X346700000Y-140800000D01*
X369100000Y-146239686D02*
X368337500Y-145477186D01*
X368337500Y-143237500D02*
X367500000Y-142400000D01*
X299075000Y-160000000D02*
X300500000Y-158575000D01*
X367500000Y-142400000D02*
X367500000Y-140000000D01*
X346700000Y-140800000D02*
X346700000Y-142400000D01*
X329075000Y-150000000D02*
X329800000Y-150725000D01*
X364075000Y-135000000D02*
X364075000Y-138425000D01*
X331785050Y-155775000D02*
X333300000Y-155775000D01*
X369100000Y-149975000D02*
X369100000Y-146239686D01*
X359075000Y-145000000D02*
X360700000Y-145000000D01*
X321500000Y-143300000D02*
X319800000Y-145000000D01*
X329800000Y-150725000D02*
X329800000Y-153789950D01*
X249200000Y-131937500D02*
X249200000Y-136092902D01*
X319800000Y-145000000D02*
X319075000Y-145000000D01*
X332500000Y-142400000D02*
X332500000Y-143192657D01*
X329475000Y-147590686D02*
X329000000Y-148065686D01*
X332500000Y-140000000D02*
X332500000Y-142400000D01*
X364075000Y-138425000D02*
X362500000Y-140000000D01*
X357500000Y-140000000D02*
X357500000Y-142400000D01*
X360700000Y-145000000D02*
X362500000Y-143200000D01*
X249200000Y-136092902D02*
X253955095Y-140847997D01*
X342500000Y-140000000D02*
X342500000Y-142400000D01*
X337500000Y-139640000D02*
X337500000Y-142400000D01*
X332500000Y-143192657D02*
X329475000Y-146217657D01*
X329000000Y-148065686D02*
X329000000Y-149925000D01*
X333300000Y-155775000D02*
X334075000Y-155000000D01*
X299075000Y-160000000D02*
X299075000Y-161275000D01*
X300500000Y-143700000D02*
X301800000Y-142400000D01*
X324075000Y-136125000D02*
X321500000Y-138700000D01*
X324075000Y-135000000D02*
X324075000Y-136125000D01*
X321500000Y-142400000D02*
X321500000Y-143300000D01*
X344075000Y-140000000D02*
X343200000Y-140875000D01*
X304100000Y-156400000D02*
X305200000Y-155300000D01*
X249600000Y-131937500D02*
X249600000Y-135449503D01*
X366300000Y-141300000D02*
X366300000Y-137775000D01*
X364075000Y-145000000D02*
X364075000Y-143525000D01*
X305200000Y-146400000D02*
X306600000Y-145000000D01*
X364075000Y-143525000D02*
X366300000Y-141300000D01*
X322500000Y-145000000D02*
X322500000Y-147000000D01*
X364075000Y-146962000D02*
X364075000Y-145000000D01*
X343200000Y-140875000D02*
X343200000Y-144300000D01*
X364037000Y-147000000D02*
X364075000Y-146962000D01*
X305200000Y-147000000D02*
X305200000Y-146400000D01*
X337500000Y-148134314D02*
X337500000Y-147000000D01*
X366300000Y-137775000D02*
X369075000Y-135000000D01*
X332500000Y-147900000D02*
X332500000Y-147000000D01*
X334075000Y-150000000D02*
X334075000Y-149475000D01*
X304075000Y-156425000D02*
X304100000Y-156400000D01*
X332500000Y-145000000D02*
X332500000Y-147000000D01*
X299075000Y-156375000D02*
X299100000Y-156400000D01*
X312500000Y-145000000D02*
X312500000Y-147000000D01*
X299075000Y-155000000D02*
X299075000Y-156375000D01*
X334075000Y-149475000D02*
X332500000Y-147900000D01*
X342500000Y-145000000D02*
X342500000Y-147000000D01*
X304075000Y-160000000D02*
X304075000Y-156425000D01*
X317500000Y-145000000D02*
X317500000Y-147000000D01*
X305200000Y-155300000D02*
X305200000Y-147000000D01*
X337500000Y-145000000D02*
X337500000Y-147000000D01*
X343200000Y-144300000D02*
X342500000Y-145000000D01*
X249600000Y-135449503D02*
X254000000Y-139849503D01*
X339075000Y-155000000D02*
X338237500Y-154162500D01*
X338237500Y-154162500D02*
X338237500Y-148871814D01*
X338237500Y-148871814D02*
X337500000Y-148134314D01*
X327500000Y-145000000D02*
X328337500Y-144162500D01*
X306600000Y-145000000D02*
X307500000Y-145000000D01*
X328337500Y-144162500D02*
X328337500Y-135737500D01*
X327500000Y-145000000D02*
X327500000Y-147000000D01*
X328337500Y-135737500D02*
X329075000Y-135000000D01*
X357500000Y-145000000D02*
X356000000Y-146500000D01*
X308337500Y-140737500D02*
X308337500Y-149162500D01*
X311000000Y-151500000D02*
X311000000Y-154600000D01*
X301800000Y-156000000D02*
X301200000Y-155400000D01*
X347500000Y-147789686D02*
X347500000Y-145000000D01*
X335232188Y-154599500D02*
X335300000Y-154531688D01*
X366300000Y-146200000D02*
X367500000Y-145000000D01*
X325100000Y-150565685D02*
X325300000Y-150765685D01*
X352500000Y-145000000D02*
X350700000Y-146800000D01*
X340204443Y-152504443D02*
X339075000Y-151375000D01*
X347500000Y-145000000D02*
X347500000Y-141575000D01*
X312500000Y-150000000D02*
X311000000Y-151500000D01*
X304075000Y-155000000D02*
X304075000Y-155425000D01*
X335300000Y-154531688D02*
X335300000Y-136225000D01*
X311000000Y-157300000D02*
X311000000Y-154600000D01*
X356000000Y-146500000D02*
X356000000Y-154606755D01*
X309075000Y-160000000D02*
X309075000Y-159225000D01*
X301200000Y-155400000D02*
X301200000Y-154599500D01*
X362500000Y-145000000D02*
X361300000Y-146200000D01*
X345200000Y-150089686D02*
X347500000Y-147789686D01*
X366300000Y-154599500D02*
X366300000Y-146200000D01*
X344700000Y-155000000D02*
X344075000Y-155000000D01*
X325300000Y-150765685D02*
X325300000Y-154600000D01*
X339075000Y-151375000D02*
X339075000Y-150000000D01*
X250000000Y-131937500D02*
X250000000Y-134850000D01*
X303500000Y-156000000D02*
X301800000Y-156000000D01*
X324075000Y-145000000D02*
X325100000Y-146025000D01*
X250000000Y-134850000D02*
X254000000Y-138850000D01*
X345200000Y-154100000D02*
X345200000Y-154500000D01*
X347500000Y-141575000D02*
X349075000Y-140000000D01*
X305900000Y-151600000D02*
X307500000Y-150000000D01*
X345200000Y-154100000D02*
X345200000Y-150089686D01*
X325100000Y-146025000D02*
X325100000Y-150565685D01*
X345200000Y-154500000D02*
X344700000Y-155000000D01*
X309075000Y-140000000D02*
X308337500Y-140737500D01*
X361300000Y-146200000D02*
X361300000Y-154606755D01*
X305900000Y-154599500D02*
X305900000Y-151600000D01*
X304075000Y-155425000D02*
X303500000Y-156000000D01*
X308337500Y-149162500D02*
X307500000Y-150000000D01*
X309075000Y-159225000D02*
X311000000Y-157300000D01*
X350700000Y-146800000D02*
X350700000Y-154606755D01*
X335300000Y-136225000D02*
X334075000Y-135000000D01*
X301200000Y-151300000D02*
X302500000Y-150000000D01*
X301200000Y-154599500D02*
X301200000Y-151300000D01*
X340204443Y-153899500D02*
X340204443Y-152504443D01*
X369900000Y-152300000D02*
X369900000Y-145825000D01*
X346100000Y-153300000D02*
X346100000Y-151400000D01*
X317500000Y-149400000D02*
X317500000Y-150000000D01*
X330900000Y-151600000D02*
X330900000Y-153900000D01*
X337500000Y-150000000D02*
X337500000Y-148700000D01*
X343000000Y-150500000D02*
X342500000Y-150000000D01*
X353337500Y-144522814D02*
X353337500Y-149162500D01*
X354100000Y-140025000D02*
X354100000Y-143760314D01*
X314900000Y-144610314D02*
X314900000Y-146800000D01*
X317500000Y-150000000D02*
X316762500Y-150737500D01*
X250400000Y-131937500D02*
X250400000Y-134188746D01*
X250400000Y-134188746D02*
X254030692Y-137819438D01*
X316762500Y-150737500D02*
X316762500Y-153862500D01*
X349075000Y-153625000D02*
X349100000Y-153600000D01*
X336800000Y-148000000D02*
X336800000Y-145514686D01*
X369900000Y-145825000D02*
X369075000Y-145000000D01*
X336762500Y-139037500D02*
X339075000Y-136725000D01*
X351500000Y-151000000D02*
X351500000Y-153900000D01*
X353337500Y-149162500D02*
X352500000Y-150000000D01*
X314075000Y-140000000D02*
X314075000Y-143785314D01*
X309075000Y-155000000D02*
X309075000Y-153925000D01*
X337500000Y-148700000D02*
X336800000Y-148000000D01*
X336762500Y-145477186D02*
X336762500Y-139037500D01*
X329075000Y-147425000D02*
X327500000Y-149000000D01*
X316762500Y-158237500D02*
X316762500Y-153937500D01*
X349075000Y-155000000D02*
X349075000Y-153625000D01*
X322500000Y-150000000D02*
X323300000Y-150800000D01*
X336100000Y-151400000D02*
X336100000Y-153900000D01*
X315000000Y-160000000D02*
X316762500Y-158237500D01*
X336800000Y-145514686D02*
X336762500Y-145477186D01*
X343000000Y-153299500D02*
X343000000Y-150500000D01*
X316762500Y-153937500D02*
X316800000Y-153900000D01*
X339075000Y-136725000D02*
X339075000Y-135000000D01*
X332500000Y-150000000D02*
X330900000Y-151600000D01*
X346100000Y-151400000D02*
X347500000Y-150000000D01*
X354100000Y-143760314D02*
X353337500Y-144522814D01*
X337500000Y-150000000D02*
X336100000Y-151400000D01*
X352500000Y-150000000D02*
X351500000Y-151000000D01*
X327500000Y-149000000D02*
X327500000Y-150000000D01*
X314900000Y-146800000D02*
X317500000Y-149400000D01*
X309075000Y-153925000D02*
X309100000Y-153900000D01*
X314075000Y-143785314D02*
X314900000Y-144610314D01*
X316762500Y-153862500D02*
X316800000Y-153900000D01*
X329075000Y-145000000D02*
X329075000Y-147425000D01*
X323300000Y-150800000D02*
X323300000Y-153900000D01*
X314075000Y-160000000D02*
X315000000Y-160000000D01*
X329109358Y-151609358D02*
X327500000Y-150000000D01*
X329109358Y-153900921D02*
X329109358Y-151609358D01*
X312500000Y-155000000D02*
X312500000Y-153200000D01*
X318300000Y-140775000D02*
X318300000Y-153200000D01*
X358237500Y-140837500D02*
X359075000Y-140000000D01*
X367500000Y-153200000D02*
X367500000Y-150000000D01*
X304075000Y-150000000D02*
X304075000Y-150525000D01*
X344900000Y-135825000D02*
X344900000Y-147050000D01*
X357500000Y-150000000D02*
X356800000Y-150700000D01*
X319075000Y-140000000D02*
X318300000Y-140775000D01*
X318400000Y-159325000D02*
X319075000Y-160000000D01*
X318300000Y-153900000D02*
X317500000Y-154700000D01*
X250800000Y-131937500D02*
X250800000Y-133599503D01*
X307500000Y-155000000D02*
X307500000Y-153200000D01*
X334075000Y-145000000D02*
X334812500Y-145737500D01*
X357500000Y-150000000D02*
X358237500Y-149262500D01*
X317500000Y-155000000D02*
X318400000Y-155900000D01*
X318400000Y-155900000D02*
X318400000Y-159325000D01*
X358237500Y-149262500D02*
X358237500Y-140837500D01*
X354075000Y-155000000D02*
X354075000Y-153275000D01*
X344075000Y-152599500D02*
X344075000Y-150000000D01*
X250800000Y-133599503D02*
X254000000Y-136799503D01*
X344075000Y-147875000D02*
X344075000Y-150000000D01*
X344900000Y-147050000D02*
X344075000Y-147875000D01*
X302500000Y-152100000D02*
X302500000Y-153200000D01*
X334812500Y-145737500D02*
X334812500Y-150587500D01*
X362500000Y-150000000D02*
X362500000Y-153200000D01*
X333300000Y-152100000D02*
X333300000Y-153200000D01*
X304075000Y-150525000D02*
X302500000Y-152100000D01*
X354075000Y-153275000D02*
X354000000Y-153200000D01*
X356800000Y-153100000D02*
X356700000Y-153200000D01*
X297500000Y-155000000D02*
X297500000Y-153200000D01*
X302500000Y-155000000D02*
X302500000Y-153200000D01*
X318300000Y-153200000D02*
X318300000Y-153900000D01*
X356800000Y-150700000D02*
X356800000Y-153100000D01*
X344075000Y-135000000D02*
X344900000Y-135825000D01*
X334812500Y-150587500D02*
X333300000Y-152100000D01*
X314075000Y-155000000D02*
X314075000Y-152425000D01*
X337500000Y-155000000D02*
X337500000Y-151900000D01*
X340600000Y-151400000D02*
X340600000Y-146525000D01*
X348300000Y-141989686D02*
X349812500Y-140477186D01*
X340600000Y-146525000D02*
X339075000Y-145000000D01*
X363337500Y-140737500D02*
X364075000Y-140000000D01*
X352500000Y-155000000D02*
X352500000Y-152400000D01*
X327500000Y-153900500D02*
X327500000Y-155000000D01*
X251200000Y-133000000D02*
X254000000Y-135800000D01*
X349100000Y-147700000D02*
X348300000Y-146900000D01*
X347500000Y-151600000D02*
X349075000Y-150025000D01*
X342500000Y-154500000D02*
X342500000Y-155000000D01*
X341100000Y-151900000D02*
X340600000Y-151400000D01*
X347500000Y-155000000D02*
X347500000Y-152400000D01*
X348300000Y-146900000D02*
X348300000Y-141989686D01*
X322500000Y-155000000D02*
X322500000Y-152400000D01*
X322500000Y-158425000D02*
X324075000Y-160000000D01*
X332500000Y-155000000D02*
X332500000Y-152400000D01*
X325999500Y-152400000D02*
X327500000Y-153900500D01*
X314075000Y-152425000D02*
X314100000Y-152400000D01*
X325999500Y-152400000D02*
X326000000Y-152399500D01*
X341100000Y-153100000D02*
X342500000Y-154500000D01*
X309075000Y-152100000D02*
X309075000Y-150000000D01*
X322500000Y-155000000D02*
X322500000Y-158425000D01*
X347500000Y-152400000D02*
X347500000Y-151600000D01*
X341100000Y-151900000D02*
X341100000Y-153100000D01*
X251200000Y-131937500D02*
X251200000Y-133000000D01*
X349812500Y-140477186D02*
X349812500Y-135737500D01*
X363400000Y-152400000D02*
X363337500Y-152337500D01*
X349812500Y-135737500D02*
X349075000Y-135000000D01*
X326000000Y-152399500D02*
X326000000Y-141925000D01*
X357500000Y-155000000D02*
X357500000Y-152400000D01*
X349100000Y-149975000D02*
X349100000Y-147700000D01*
X363337500Y-152337500D02*
X363337500Y-140737500D01*
X326000000Y-141925000D02*
X324075000Y-140000000D01*
X353300000Y-135775000D02*
X354075000Y-135000000D01*
X312500000Y-160000000D02*
X312500000Y-157600000D01*
X319075000Y-157575000D02*
X319100000Y-157600000D01*
X302500000Y-160000000D02*
X302500000Y-157600000D01*
X359075000Y-155000000D02*
X359075000Y-157575000D01*
X344075000Y-141325000D02*
X344100000Y-141300000D01*
X359075000Y-157575000D02*
X359100000Y-157600000D01*
X369100000Y-141300000D02*
X369100000Y-140025000D01*
X344075000Y-145000000D02*
X344075000Y-141325000D01*
X367500000Y-155000000D02*
X367500000Y-157500000D01*
X307500000Y-160000000D02*
X307500000Y-157600000D01*
X353300000Y-141300000D02*
X353300000Y-135775000D01*
X296762500Y-156862500D02*
X296762500Y-141337500D01*
X329075000Y-141275000D02*
X329100000Y-141300000D01*
X322500000Y-160000000D02*
X321700000Y-159200000D01*
X297500000Y-160000000D02*
X297500000Y-157600000D01*
X315100000Y-151025000D02*
X315100000Y-157600000D01*
X329075000Y-140000000D02*
X329075000Y-141275000D01*
X317500000Y-160000000D02*
X317500000Y-157600000D01*
X296762500Y-141337500D02*
X296800000Y-141300000D01*
X354075000Y-150000000D02*
X353237500Y-150837500D01*
X297500000Y-157600000D02*
X296762500Y-156862500D01*
X321700000Y-159200000D02*
X321700000Y-157600000D01*
X319075000Y-155000000D02*
X319075000Y-157575000D01*
X362500000Y-155000000D02*
X362500000Y-157600000D01*
X353237500Y-157537500D02*
X353300000Y-157600000D01*
X314075000Y-150000000D02*
X315100000Y-151025000D01*
X251937500Y-131200000D02*
X252700000Y-131200000D01*
X252700000Y-131200000D02*
X254900000Y-133400000D01*
X353237500Y-150837500D02*
X353237500Y-157537500D01*
X367500000Y-157500000D02*
X367400000Y-157600000D01*
X331300000Y-172800000D02*
X330900000Y-173200000D01*
X304075000Y-170000000D02*
X304075000Y-172075000D01*
X330900000Y-173200000D02*
X330900000Y-178175000D01*
X304075000Y-185000000D02*
X305300000Y-183775000D01*
X305300000Y-174900000D02*
X304100000Y-173700000D01*
X314075000Y-175000000D02*
X314075000Y-172125000D01*
X313237500Y-170437500D02*
X314100000Y-171300000D01*
X339812500Y-172087500D02*
X339800000Y-172100000D01*
X314100000Y-171300000D02*
X314100000Y-172100000D01*
X304100000Y-173700000D02*
X304100000Y-172100000D01*
X365800000Y-166500000D02*
X365800000Y-161700000D01*
X354075000Y-175000000D02*
X354075000Y-172125000D01*
X251200000Y-184800000D02*
X251200000Y-186129166D01*
X344075000Y-172075000D02*
X344100000Y-172100000D01*
X316725000Y-164225000D02*
X313275000Y-164225000D01*
X331300000Y-172100000D02*
X331300000Y-172800000D01*
X329812500Y-167312500D02*
X329812500Y-172087500D01*
X305300000Y-183775000D02*
X305300000Y-174900000D01*
X314075000Y-172125000D02*
X314100000Y-172100000D01*
X302500000Y-166065685D02*
X300500000Y-168065685D01*
X330900000Y-171000000D02*
X330900000Y-161825000D01*
X312500000Y-165000000D02*
X312500000Y-165900000D01*
X339812500Y-165737500D02*
X339812500Y-172087500D01*
X365800000Y-161700000D02*
X367500000Y-160000000D01*
X363000000Y-169300000D02*
X365800000Y-166500000D01*
X330900000Y-178175000D02*
X329075000Y-180000000D01*
X354075000Y-172125000D02*
X354100000Y-172100000D01*
X312500000Y-165900000D02*
X313237500Y-166637500D01*
X298237500Y-172037500D02*
X298300000Y-172100000D01*
X307500000Y-165600000D02*
X304075000Y-169025000D01*
X322500000Y-165000000D02*
X321725000Y-164225000D01*
X302500000Y-165000000D02*
X302500000Y-166065685D01*
X317500000Y-165000000D02*
X316725000Y-164225000D01*
X339075000Y-165000000D02*
X339812500Y-165737500D01*
X304075000Y-172075000D02*
X304100000Y-172100000D01*
X329812500Y-172087500D02*
X329800000Y-172100000D01*
X327500000Y-165000000D02*
X329812500Y-167312500D01*
X257225000Y-178775000D02*
X251200000Y-184800000D01*
X313275000Y-164225000D02*
X312500000Y-165000000D01*
X330900000Y-161825000D02*
X329075000Y-160000000D01*
X318275000Y-164225000D02*
X317500000Y-165000000D01*
X313237500Y-166637500D02*
X313237500Y-170437500D01*
X297500000Y-164820000D02*
X298237500Y-165557500D01*
X321725000Y-164225000D02*
X318275000Y-164225000D01*
X331300000Y-171400000D02*
X330900000Y-171000000D01*
X331300000Y-172100000D02*
X331300000Y-171400000D01*
X298237500Y-165557500D02*
X298237500Y-172037500D01*
X300500000Y-168065685D02*
X300500000Y-172100000D01*
X304075000Y-169025000D02*
X304075000Y-170000000D01*
X307500000Y-165000000D02*
X307500000Y-165600000D01*
X344075000Y-170000000D02*
X344075000Y-172075000D01*
X269250000Y-170800500D02*
X269250000Y-170850000D01*
X339075000Y-169350000D02*
X337125000Y-167400000D01*
X334900000Y-163600000D02*
X336700000Y-163600000D01*
X299075000Y-168925000D02*
X300300000Y-167700000D01*
X327500000Y-160000000D02*
X327500000Y-162000000D01*
X324075000Y-180000000D02*
X325900000Y-178175000D01*
X352500000Y-160000000D02*
X352500000Y-162000000D01*
X362500000Y-160000000D02*
X362500000Y-162000000D01*
X346762500Y-172687500D02*
X346762500Y-169362500D01*
X342500000Y-160000000D02*
X342500000Y-162000000D01*
X308337500Y-162037500D02*
X308300000Y-162000000D01*
X349075000Y-175000000D02*
X346762500Y-172687500D01*
X337500000Y-162800000D02*
X337500000Y-162000000D01*
X325900000Y-178175000D02*
X325900000Y-168039686D01*
X347500000Y-160000000D02*
X347500000Y-162000000D01*
X342500000Y-163100000D02*
X342500000Y-162000000D01*
X345800000Y-165510314D02*
X344514686Y-164225000D01*
X332500000Y-160000000D02*
X332500000Y-162000000D01*
X253233334Y-186866666D02*
X251937500Y-186866666D01*
X309075000Y-175000000D02*
X308337500Y-174262500D01*
X300300000Y-167700000D02*
X300300000Y-162000000D01*
X334075000Y-165000000D02*
X334075000Y-164425000D01*
X308337500Y-174262500D02*
X308337500Y-162037500D01*
X334075000Y-164425000D02*
X334900000Y-163600000D01*
X369000000Y-161900000D02*
X369000000Y-160075000D01*
X336700000Y-163600000D02*
X337500000Y-162800000D01*
X346762500Y-169362500D02*
X345800000Y-168400000D01*
X299075000Y-170000000D02*
X299075000Y-168925000D01*
X337125000Y-167400000D02*
X335800000Y-167400000D01*
X343625000Y-164225000D02*
X342500000Y-163100000D01*
X339075000Y-170000000D02*
X339075000Y-169350000D01*
X357500000Y-160000000D02*
X357500000Y-162000000D01*
X345800000Y-168400000D02*
X345800000Y-165510314D01*
X299075000Y-185000000D02*
X300700000Y-183375000D01*
X325900000Y-168039686D02*
X323300000Y-165439686D01*
X337500000Y-162000000D02*
X337500000Y-160000000D01*
X299075000Y-172675000D02*
X299075000Y-170000000D01*
X300700000Y-174300000D02*
X299075000Y-172675000D01*
X335800000Y-167400000D02*
X334075000Y-165675000D01*
X344514686Y-164225000D02*
X343625000Y-164225000D01*
X269250000Y-170850000D02*
X253233334Y-186866666D01*
X300700000Y-183375000D02*
X300700000Y-174300000D01*
X334075000Y-165675000D02*
X334075000Y-165000000D01*
X323300000Y-165439686D02*
X323300000Y-162000000D01*
X349075000Y-170000000D02*
X349075000Y-169275000D01*
X319075000Y-175000000D02*
X320400000Y-173675000D01*
X333237500Y-168837500D02*
X333237500Y-179162500D01*
X320400000Y-173675000D02*
X320400000Y-166800000D01*
X250800000Y-184210756D02*
X250800000Y-186129166D01*
X309812500Y-184262500D02*
X309812500Y-170737500D01*
X332500000Y-168100000D02*
X333237500Y-168837500D01*
X347500000Y-165000000D02*
X347500000Y-166800000D01*
X256205025Y-178805025D02*
X256205025Y-178805731D01*
X332500000Y-166800000D02*
X332500000Y-168100000D01*
X332500000Y-163500000D02*
X332500000Y-165000000D01*
X332500000Y-165000000D02*
X332500000Y-166800000D01*
X309075000Y-170000000D02*
X309075000Y-166825000D01*
X367500000Y-166800000D02*
X367500000Y-165000000D01*
X334075000Y-160000000D02*
X334075000Y-161925000D01*
X256205025Y-178805731D02*
X250800000Y-184210756D01*
X337500000Y-165000000D02*
X337500000Y-166800000D01*
X349075000Y-169275000D02*
X347500000Y-167700000D01*
X309075000Y-185000000D02*
X309812500Y-184262500D01*
X357500000Y-165000000D02*
X357500000Y-166800000D01*
X295400000Y-178675000D02*
X295400000Y-166800000D01*
X334075000Y-161925000D02*
X332500000Y-163500000D01*
X309812500Y-170737500D02*
X309075000Y-170000000D01*
X342500000Y-165000000D02*
X342500000Y-166800000D01*
X333237500Y-179162500D02*
X334075000Y-180000000D01*
X309075000Y-166825000D02*
X309100000Y-166800000D01*
X362500000Y-165000000D02*
X362500000Y-166800000D01*
X347500000Y-167700000D02*
X347500000Y-166800000D01*
X299075000Y-164820000D02*
X299075000Y-166775000D01*
X299075000Y-166775000D02*
X299100000Y-166800000D01*
X352500000Y-165000000D02*
X352500000Y-166800000D01*
X294075000Y-180000000D02*
X295400000Y-178675000D01*
X353599500Y-171400500D02*
X354075000Y-170925000D01*
X299075000Y-178375000D02*
X299075000Y-180000000D01*
X312500000Y-170000000D02*
X312500000Y-171400500D01*
X340600000Y-161525000D02*
X340600000Y-171400500D01*
X354075000Y-170925000D02*
X354075000Y-170000000D01*
X339075000Y-160000000D02*
X340600000Y-161525000D01*
X250400000Y-183620806D02*
X250400000Y-186129166D01*
X339075000Y-180000000D02*
X340600000Y-178475000D01*
X322500000Y-172400000D02*
X322500000Y-171400500D01*
X332500000Y-170000000D02*
X332500000Y-171400500D01*
X324075000Y-175000000D02*
X324075000Y-173975000D01*
X304075000Y-167525000D02*
X304075000Y-165000000D01*
X344075000Y-168775000D02*
X345400000Y-170100000D01*
X317500000Y-170000000D02*
X317500000Y-171400500D01*
X340600000Y-178475000D02*
X340600000Y-171400500D01*
X298337500Y-177637500D02*
X299075000Y-178375000D01*
X316500000Y-173400000D02*
X317500000Y-172400000D01*
X322500000Y-170000000D02*
X322500000Y-171400500D01*
X327500000Y-170000000D02*
X327500000Y-171400500D01*
X316500000Y-182575000D02*
X316500000Y-173400000D01*
X297500000Y-170000000D02*
X297500000Y-171400500D01*
X262200000Y-173800000D02*
X260220806Y-173800000D01*
X297500000Y-173500000D02*
X298337500Y-174337500D01*
X344075000Y-165000000D02*
X344075000Y-168775000D01*
X298337500Y-174337500D02*
X298337500Y-177637500D01*
X302500000Y-170000000D02*
X302500000Y-171400500D01*
X353300000Y-171400500D02*
X353599500Y-171400500D01*
X260220806Y-173800000D02*
X250400000Y-183620806D01*
X324075000Y-173975000D02*
X322500000Y-172400000D01*
X317500000Y-172400000D02*
X317500000Y-171400500D01*
X297500000Y-171400500D02*
X297500000Y-173500000D01*
X302500000Y-169100000D02*
X304075000Y-167525000D01*
X307500000Y-170000000D02*
X307500000Y-171400500D01*
X345400000Y-170100000D02*
X345400000Y-171400500D01*
X314075000Y-185000000D02*
X316500000Y-182575000D01*
X302500000Y-170000000D02*
X302500000Y-169100000D01*
X343237500Y-179162500D02*
X343237500Y-171637500D01*
X337500000Y-170000000D02*
X337500000Y-169500000D01*
X343237500Y-171637500D02*
X342500000Y-170900000D01*
X310300000Y-166225000D02*
X310300000Y-168100000D01*
X347500000Y-170000000D02*
X347500000Y-169500000D01*
X344075000Y-180000000D02*
X343237500Y-179162500D01*
X301300000Y-173800000D02*
X302500000Y-175000000D01*
X250000000Y-183000000D02*
X250000000Y-186129166D01*
X336500000Y-168500000D02*
X336500000Y-168100000D01*
X297500000Y-175000000D02*
X296500000Y-174000000D01*
X357500000Y-168100000D02*
X357500000Y-170000000D01*
X264450000Y-172250000D02*
X260750000Y-172250000D01*
X304075000Y-180000000D02*
X304075000Y-177775000D01*
X301300000Y-169700000D02*
X301300000Y-173800000D01*
X342500000Y-170900000D02*
X342500000Y-170000000D01*
X347500000Y-169500000D02*
X346500000Y-168500000D01*
X314075000Y-170000000D02*
X314075000Y-168125000D01*
X349075000Y-168075000D02*
X349100000Y-168100000D01*
X260750000Y-172250000D02*
X250000000Y-183000000D01*
X328337500Y-168137500D02*
X328300000Y-168100000D01*
X352500000Y-170000000D02*
X352500000Y-168100000D01*
X296500000Y-174000000D02*
X296500000Y-168100000D01*
X319075000Y-185000000D02*
X321100000Y-182975000D01*
X309075000Y-165000000D02*
X310300000Y-166225000D01*
X349075000Y-165000000D02*
X349075000Y-168075000D01*
X321100000Y-182975000D02*
X321100000Y-168100000D01*
X344075000Y-160000000D02*
X346500000Y-162425000D01*
X342500000Y-170000000D02*
X342500000Y-168100000D01*
X292500000Y-175000000D02*
X292500000Y-168100000D01*
X304075000Y-177775000D02*
X302500000Y-176200000D01*
X346500000Y-168500000D02*
X346500000Y-168100000D01*
X314075000Y-168125000D02*
X314100000Y-168100000D01*
X337500000Y-169500000D02*
X336500000Y-168500000D01*
X328337500Y-174262500D02*
X328337500Y-168137500D01*
X302500000Y-176200000D02*
X302500000Y-175000000D01*
X329075000Y-175000000D02*
X328337500Y-174262500D01*
X302000000Y-168100000D02*
X302000000Y-169000000D01*
X346500000Y-162425000D02*
X346500000Y-168100000D01*
X302000000Y-169000000D02*
X301300000Y-169700000D01*
X327500000Y-175000000D02*
X327500000Y-176200000D01*
X317500000Y-174200000D02*
X319075000Y-172625000D01*
X323337500Y-184262500D02*
X323337500Y-178137500D01*
X314900000Y-165825000D02*
X314900000Y-176200000D01*
X312500000Y-175000000D02*
X312500000Y-176200000D01*
X252455378Y-179556084D02*
X249600000Y-182411462D01*
X349800000Y-176200000D02*
X349800000Y-177200000D01*
X322500000Y-175000000D02*
X322500000Y-176200000D01*
X309075000Y-180000000D02*
X309075000Y-178175000D01*
X314075000Y-165000000D02*
X314900000Y-165825000D01*
X309075000Y-178175000D02*
X307500000Y-176600000D01*
X354075000Y-165000000D02*
X354900000Y-165825000D01*
X342500000Y-175000000D02*
X342500000Y-176200000D01*
X337500000Y-175000000D02*
X337500000Y-176200000D01*
X324075000Y-185000000D02*
X323337500Y-184262500D01*
X357700000Y-174400000D02*
X359075000Y-173025000D01*
X349800000Y-176200000D02*
X349812500Y-176187500D01*
X349075000Y-177925000D02*
X349075000Y-180000000D01*
X249600000Y-182411462D02*
X249600000Y-186129166D01*
X317500000Y-175000000D02*
X317500000Y-176200000D01*
X322500000Y-177300000D02*
X322500000Y-176200000D01*
X349812500Y-176187500D02*
X349812500Y-160737500D01*
X317500000Y-175000000D02*
X317500000Y-174200000D01*
X332500000Y-175000000D02*
X332500000Y-176200000D01*
X349812500Y-160737500D02*
X349075000Y-160000000D01*
X349800000Y-177200000D02*
X349075000Y-177925000D01*
X323337500Y-178137500D02*
X322500000Y-177300000D01*
X307500000Y-176600000D02*
X307500000Y-176200000D01*
X307500000Y-175000000D02*
X307500000Y-176200000D01*
X354900000Y-165825000D02*
X354900000Y-176200000D01*
X252455378Y-179555378D02*
X252455378Y-179556084D01*
X359075000Y-173025000D02*
X359075000Y-170000000D01*
X319075000Y-172625000D02*
X319075000Y-170000000D01*
X353400000Y-176500000D02*
X352500000Y-175600000D01*
X292500000Y-180000000D02*
X292500000Y-177800000D01*
X354075000Y-179275000D02*
X354075000Y-180000000D01*
X351762500Y-172362500D02*
X352500000Y-173100000D01*
X353400000Y-177800000D02*
X353400000Y-176500000D01*
X352500000Y-175600000D02*
X352500000Y-175000000D01*
X352500000Y-173100000D02*
X352500000Y-175000000D01*
X307500000Y-180000000D02*
X307500000Y-177800000D01*
X331700000Y-182375000D02*
X329075000Y-185000000D01*
X359812500Y-174687500D02*
X359812500Y-165737500D01*
X318237500Y-176562500D02*
X317500000Y-177300000D01*
X302500000Y-180000000D02*
X302500000Y-177800000D01*
X320000000Y-169710314D02*
X320000000Y-172860314D01*
X354075000Y-160000000D02*
X354075000Y-161525000D01*
X353400000Y-177800000D02*
X353400000Y-178600000D01*
X319075000Y-165000000D02*
X319075000Y-168785314D01*
X347500000Y-175000000D02*
X347500000Y-177800000D01*
X358600000Y-175900000D02*
X359812500Y-174687500D01*
X292500000Y-177100000D02*
X292500000Y-177800000D01*
X351762500Y-163837500D02*
X351762500Y-172362500D01*
X324075000Y-170000000D02*
X325200000Y-171125000D01*
X312500000Y-180000000D02*
X312500000Y-177800000D01*
X331700000Y-177800000D02*
X331700000Y-182375000D01*
X320000000Y-172860314D02*
X318237500Y-174622814D01*
X250686109Y-180336109D02*
X249200000Y-181822218D01*
X334075000Y-175000000D02*
X334075000Y-177775000D01*
X354075000Y-161525000D02*
X351762500Y-163837500D01*
X359812500Y-165737500D02*
X359075000Y-165000000D01*
X297500000Y-180000000D02*
X297500000Y-177800000D01*
X294075000Y-175000000D02*
X294075000Y-175525000D01*
X318237500Y-174622814D02*
X318237500Y-176562500D01*
X319075000Y-168785314D02*
X320000000Y-169710314D01*
X294075000Y-175525000D02*
X292500000Y-177100000D01*
X249200000Y-181822218D02*
X249200000Y-186129166D01*
X325200000Y-171125000D02*
X325200000Y-177800000D01*
X317500000Y-180000000D02*
X317500000Y-177800000D01*
X334075000Y-177775000D02*
X334100000Y-177800000D01*
X353400000Y-178600000D02*
X354075000Y-179275000D01*
X317500000Y-177300000D02*
X317500000Y-177800000D01*
X329075000Y-167885050D02*
X329075000Y-170000000D01*
X329075000Y-170000000D02*
X329075000Y-172575000D01*
X330100000Y-176900000D02*
X327500000Y-179500000D01*
X324400000Y-165000000D02*
X326800000Y-167400000D01*
X334075000Y-185000000D02*
X334075000Y-182775000D01*
X327500000Y-179500000D02*
X327500000Y-180000000D01*
X326800000Y-167400000D02*
X328589950Y-167400000D01*
X330100000Y-173600000D02*
X330100000Y-176900000D01*
X359100000Y-160000000D02*
X364075000Y-164975000D01*
X361500000Y-168789950D02*
X364075000Y-166214950D01*
X339075000Y-176725000D02*
X337500000Y-178300000D01*
X352500000Y-180000000D02*
X352500000Y-181200000D01*
X326900000Y-180000000D02*
X326300000Y-180600000D01*
X337500000Y-178300000D02*
X337500000Y-180000000D01*
X248966487Y-181066487D02*
X248800000Y-181232974D01*
X299075000Y-175000000D02*
X300000000Y-175925000D01*
X314075000Y-180000000D02*
X314075000Y-181175000D01*
X314075000Y-181175000D02*
X314100000Y-181200000D01*
X359600000Y-177600000D02*
X361500000Y-175700000D01*
X329075000Y-172575000D02*
X330100000Y-173600000D01*
X334075000Y-182775000D02*
X332500000Y-181200000D01*
X328589950Y-167400000D02*
X329075000Y-167885050D01*
X361500000Y-175700000D02*
X361500000Y-168789950D01*
X327500000Y-180000000D02*
X326900000Y-180000000D01*
X364075000Y-166214950D02*
X364075000Y-165000000D01*
X300000000Y-175925000D02*
X300000000Y-181200000D01*
X337500000Y-180000000D02*
X337500000Y-181200000D01*
X342500000Y-180000000D02*
X342500000Y-181200000D01*
X322500000Y-180000000D02*
X322500000Y-181200000D01*
X248800000Y-181232974D02*
X248800000Y-186129166D01*
X339075000Y-175000000D02*
X339075000Y-176725000D01*
X292500000Y-185000000D02*
X292500000Y-181200000D01*
X326300000Y-180600000D02*
X326300000Y-181200000D01*
X347500000Y-180000000D02*
X347500000Y-181200000D01*
X332500000Y-180000000D02*
X332500000Y-181200000D01*
X303225000Y-180775000D02*
X302500000Y-181500000D01*
X302500000Y-181500000D02*
X302500000Y-182500000D01*
X368237500Y-164162500D02*
X368237500Y-159522814D01*
X294075000Y-182525000D02*
X294100000Y-182500000D01*
X247000000Y-186350000D02*
X247516666Y-186866666D01*
X334075000Y-170000000D02*
X335700000Y-171625000D01*
X345500000Y-176425000D02*
X345500000Y-182500000D01*
X327500000Y-181700000D02*
X327500000Y-182500000D01*
X319075000Y-180925000D02*
X318500000Y-181500000D01*
X304075000Y-175000000D02*
X304812500Y-175737500D01*
X328300000Y-180900000D02*
X327500000Y-181700000D01*
X302500000Y-185000000D02*
X302500000Y-182500000D01*
X332500000Y-185000000D02*
X332500000Y-182500000D01*
X247516666Y-186866666D02*
X248062500Y-186866666D01*
X312500000Y-185000000D02*
X312500000Y-182500000D01*
X369075000Y-170425000D02*
X369075000Y-165000000D01*
X360700000Y-178800000D02*
X369075000Y-170425000D01*
X344075000Y-175000000D02*
X345500000Y-176425000D01*
X322500000Y-185000000D02*
X322500000Y-182500000D01*
X317500000Y-184200000D02*
X318500000Y-183200000D01*
X364875000Y-159200000D02*
X364075000Y-160000000D01*
X327500000Y-185000000D02*
X327500000Y-182500000D01*
X304514686Y-180775000D02*
X303225000Y-180775000D01*
X297500000Y-185000000D02*
X297500000Y-182500000D01*
X317500000Y-185000000D02*
X317500000Y-184200000D01*
X318500000Y-183200000D02*
X318500000Y-182500000D01*
X369075000Y-165000000D02*
X368237500Y-164162500D01*
X304812500Y-175737500D02*
X304812500Y-180477186D01*
X319075000Y-180000000D02*
X319075000Y-180925000D01*
X330500000Y-166425000D02*
X330500000Y-177360314D01*
X329075000Y-165000000D02*
X330500000Y-166425000D01*
X318500000Y-181500000D02*
X318500000Y-182500000D01*
X335700000Y-171625000D02*
X335700000Y-182500000D01*
X328300000Y-179560314D02*
X328300000Y-180900000D01*
X330500000Y-177360314D02*
X328300000Y-179560314D01*
X247000000Y-182900000D02*
X247000000Y-186350000D01*
X304812500Y-180477186D02*
X304514686Y-180775000D01*
X368237500Y-159522814D02*
X367914686Y-159200000D01*
X294075000Y-185000000D02*
X294075000Y-182525000D01*
X247325000Y-182575000D02*
X247000000Y-182900000D01*
X367914686Y-159200000D02*
X364875000Y-159200000D01*
X307500000Y-185000000D02*
X307500000Y-182500000D01*
X317500000Y-190000000D02*
X318275000Y-189225000D01*
X304075000Y-210000000D02*
X303337500Y-209262500D01*
X318275000Y-189225000D02*
X321725000Y-189225000D01*
X351375926Y-197514024D02*
X354075000Y-194814950D01*
X324075000Y-200000000D02*
X324075000Y-197539024D01*
X337500000Y-190000000D02*
X337500000Y-188500000D01*
X283100000Y-198100000D02*
X283100000Y-197514024D01*
X337500000Y-188500000D02*
X337500000Y-187600000D01*
X339075000Y-186025000D02*
X339075000Y-185000000D01*
X328275000Y-189225000D02*
X331725000Y-189225000D01*
X286300000Y-201189950D02*
X286300000Y-197514024D01*
X342500000Y-188500000D02*
X342500000Y-190000000D01*
X329100000Y-198400000D02*
X329100000Y-197514024D01*
X331725000Y-189225000D02*
X332500000Y-190000000D01*
X316725000Y-189225000D02*
X317500000Y-190000000D01*
X287510050Y-202400000D02*
X286300000Y-201189950D01*
X312500000Y-190000000D02*
X313275000Y-189225000D01*
X319075000Y-197489024D02*
X319100000Y-197514024D01*
X349100000Y-197514024D02*
X351375926Y-197514024D01*
X329812500Y-200477186D02*
X329812500Y-199112500D01*
X308275000Y-189225000D02*
X307500000Y-190000000D01*
X337500000Y-187600000D02*
X339075000Y-186025000D01*
X284075000Y-199075000D02*
X283100000Y-198100000D01*
X329075000Y-205000000D02*
X329075000Y-201214686D01*
X319075000Y-195000000D02*
X319075000Y-197489024D01*
X306400000Y-191100000D02*
X307500000Y-190000000D01*
X267250000Y-197500000D02*
X254021014Y-197500000D01*
X322500000Y-190000000D02*
X323275000Y-189225000D01*
X324075000Y-197539024D02*
X324100000Y-197514024D01*
X303337500Y-204522814D02*
X304160314Y-203700000D01*
X323275000Y-189225000D02*
X326725000Y-189225000D01*
X284075000Y-200000000D02*
X284075000Y-199075000D01*
X313275000Y-189225000D02*
X316725000Y-189225000D01*
X288100000Y-202400000D02*
X287510050Y-202400000D01*
X326725000Y-189225000D02*
X327500000Y-190000000D01*
X289075000Y-203375000D02*
X288100000Y-202400000D01*
X254021014Y-197500000D02*
X248800000Y-192278986D01*
X307500000Y-190000000D02*
X307500000Y-188500000D01*
X327500000Y-190000000D02*
X328275000Y-189225000D01*
X321725000Y-189225000D02*
X322500000Y-190000000D01*
X306400000Y-197514024D02*
X306400000Y-191100000D01*
X312500000Y-190000000D02*
X311725000Y-189225000D01*
X311725000Y-189225000D02*
X308275000Y-189225000D01*
X354075000Y-194814950D02*
X354075000Y-190000000D01*
X306400000Y-202089950D02*
X306400000Y-197514024D01*
X248800000Y-190004166D02*
X248800000Y-192278986D01*
X329812500Y-199112500D02*
X329100000Y-198400000D01*
X304160314Y-203700000D02*
X304789950Y-203700000D01*
X329075000Y-201214686D02*
X329812500Y-200477186D01*
X304789950Y-203700000D02*
X306400000Y-202089950D01*
X289075000Y-205000000D02*
X289075000Y-203375000D01*
X303337500Y-209262500D02*
X303337500Y-204522814D01*
X302500000Y-191900000D02*
X302500000Y-191522285D01*
X336700000Y-185800000D02*
X336700000Y-191522285D01*
X337500000Y-185000000D02*
X336700000Y-185800000D01*
X279100000Y-191522285D02*
X279075000Y-191547285D01*
X309100000Y-192100000D02*
X310400000Y-193400000D01*
X310400000Y-193400000D02*
X312475000Y-193400000D01*
X292500000Y-190000000D02*
X292500000Y-191522285D01*
X301300000Y-197262235D02*
X301600000Y-196962235D01*
X282300000Y-202600000D02*
X279700000Y-200000000D01*
X309100000Y-191522285D02*
X309100000Y-192100000D01*
X349075000Y-190000000D02*
X349075000Y-188425000D01*
X342500000Y-185000000D02*
X341600000Y-185900000D01*
X301362500Y-192881864D02*
X302044364Y-192200000D01*
X282789950Y-202600000D02*
X282300000Y-202600000D01*
X284075000Y-203885050D02*
X282789950Y-202600000D01*
X324075000Y-201214686D02*
X324812500Y-200477186D01*
X324812500Y-200477186D02*
X324812500Y-192912500D01*
X320200000Y-198875000D02*
X320200000Y-191522285D01*
X319075000Y-200000000D02*
X320200000Y-198875000D01*
X346725000Y-184225000D02*
X343275000Y-184225000D01*
X301600000Y-196382335D02*
X301362500Y-196144835D01*
X302200000Y-192200000D02*
X302500000Y-191900000D01*
X341600000Y-185900000D02*
X341600000Y-191522285D01*
X302500000Y-190000000D02*
X302500000Y-191522285D01*
X279075000Y-191547285D02*
X279075000Y-200000000D01*
X279100000Y-191100000D02*
X280200000Y-190000000D01*
X347500000Y-185000000D02*
X346725000Y-184225000D01*
X297500000Y-190000000D02*
X297500000Y-191522285D01*
X280200000Y-190000000D02*
X287500000Y-190000000D01*
X301362500Y-196144835D02*
X301362500Y-192881864D01*
X349100000Y-191500000D02*
X349100000Y-190025000D01*
X279700000Y-200000000D02*
X279075000Y-200000000D01*
X248062500Y-189266666D02*
X247183334Y-189266666D01*
X343275000Y-184225000D02*
X342500000Y-185000000D01*
X312475000Y-193400000D02*
X314075000Y-195000000D01*
X301600000Y-196962235D02*
X301600000Y-196382335D01*
X284075000Y-205000000D02*
X284075000Y-203885050D01*
X247183334Y-189266666D02*
X246250000Y-190200000D01*
X324812500Y-192912500D02*
X324200000Y-192300000D01*
X301300000Y-207775000D02*
X301300000Y-197262235D01*
X349075000Y-188425000D02*
X352500000Y-185000000D01*
X309100000Y-191522285D02*
X309100000Y-190365000D01*
X324200000Y-192300000D02*
X324200000Y-191522285D01*
X299075000Y-210000000D02*
X301300000Y-207775000D01*
X324075000Y-205000000D02*
X324075000Y-201214686D01*
X302044364Y-192200000D02*
X302200000Y-192200000D01*
X279100000Y-191522285D02*
X279100000Y-191100000D01*
X352500000Y-192100000D02*
X352500000Y-190000000D01*
X334075000Y-205000000D02*
X333337500Y-204262500D01*
X328337500Y-193362500D02*
X328400000Y-193300000D01*
X297500000Y-198300000D02*
X294075000Y-201725000D01*
X294075000Y-201725000D02*
X294075000Y-205000000D01*
X307500000Y-195000000D02*
X307500000Y-193300000D01*
X292500000Y-195000000D02*
X292500000Y-193300000D01*
X347500000Y-190000000D02*
X347500000Y-191800000D01*
X347500000Y-190000000D02*
X347500000Y-188425000D01*
X314075000Y-193275000D02*
X314100000Y-193300000D01*
X324075000Y-193325000D02*
X324100000Y-193300000D01*
X287500000Y-195000000D02*
X287500000Y-193300000D01*
X314075000Y-190000000D02*
X314075000Y-193275000D01*
X249200000Y-191689036D02*
X249730482Y-192219518D01*
X249200000Y-190004166D02*
X249200000Y-191689036D01*
X347500000Y-191800000D02*
X346700000Y-192600000D01*
X335400000Y-195365686D02*
X335400000Y-193300000D01*
X308237500Y-209162500D02*
X309075000Y-210000000D01*
X329075000Y-200000000D02*
X328337500Y-199262500D01*
X333337500Y-197428186D02*
X335400000Y-195365686D01*
X292500000Y-197089950D02*
X292500000Y-195000000D01*
X297500000Y-195000000D02*
X297500000Y-193300000D01*
X351900000Y-192700000D02*
X352500000Y-192100000D01*
X307500000Y-195000000D02*
X308237500Y-195737500D01*
X346700000Y-192600000D02*
X346700000Y-193300000D01*
X333337500Y-204262500D02*
X333337500Y-197428186D01*
X289589950Y-200000000D02*
X292500000Y-197089950D01*
X324075000Y-195000000D02*
X324075000Y-193325000D01*
X302500000Y-195000000D02*
X302500000Y-193300000D01*
X347500000Y-188425000D02*
X344075000Y-185000000D01*
X328337500Y-199262500D02*
X328337500Y-193362500D01*
X297500000Y-195000000D02*
X297500000Y-198300000D01*
X308237500Y-195737500D02*
X308237500Y-209162500D01*
X282500000Y-195000000D02*
X282500000Y-193300000D01*
X289075000Y-200000000D02*
X289589950Y-200000000D01*
X339512499Y-205000000D02*
X341762500Y-202749999D01*
X342500000Y-197500000D02*
X342500000Y-196672285D01*
X341762500Y-198237500D02*
X342500000Y-197500000D01*
X284100000Y-196672285D02*
X284075000Y-196647285D01*
X342500000Y-195000000D02*
X342500000Y-196672285D01*
X300900000Y-196672285D02*
X300900000Y-203175000D01*
X315500000Y-208575000D02*
X315500000Y-198672285D01*
X341762500Y-202749999D02*
X341762500Y-198237500D01*
X348237500Y-185837500D02*
X349075000Y-185000000D01*
X317500000Y-193600000D02*
X317500000Y-195000000D01*
X337500000Y-197610050D02*
X337500000Y-196672285D01*
X335110050Y-200000000D02*
X337500000Y-197610050D01*
X332500000Y-195000000D02*
X332500000Y-196672285D01*
X348237500Y-192162500D02*
X348237500Y-185837500D01*
X319075000Y-190000000D02*
X319075000Y-192025000D01*
X315500000Y-198672285D02*
X317500000Y-196672285D01*
X284075000Y-196647285D02*
X284075000Y-195000000D01*
X294075000Y-200000000D02*
X295800000Y-198275000D01*
X339075000Y-205000000D02*
X339512499Y-205000000D01*
X347500000Y-196700000D02*
X347500000Y-195000000D01*
X334075000Y-200000000D02*
X335110050Y-200000000D01*
X249600000Y-191099792D02*
X249600000Y-190004166D01*
X266450000Y-196800000D02*
X255300208Y-196800000D01*
X327500000Y-195000000D02*
X327500000Y-196672285D01*
X300900000Y-203175000D02*
X299075000Y-205000000D01*
X322500000Y-195000000D02*
X322500000Y-196672285D01*
X295800000Y-198275000D02*
X295800000Y-196672285D01*
X347500000Y-192900000D02*
X348237500Y-192162500D01*
X347500000Y-195000000D02*
X347500000Y-192900000D01*
X319075000Y-192025000D02*
X317500000Y-193600000D01*
X317500000Y-195000000D02*
X317500000Y-196672285D01*
X255300208Y-196800000D02*
X249600000Y-191099792D01*
X314075000Y-210000000D02*
X315500000Y-208575000D01*
X312500000Y-195000000D02*
X312500000Y-196672285D01*
X337500000Y-195000000D02*
X337500000Y-196672285D01*
X312500000Y-200000000D02*
X312500000Y-201400000D01*
X279075000Y-210000000D02*
X278337500Y-209262500D01*
X304650000Y-205000000D02*
X307500000Y-202150000D01*
X330400000Y-197500000D02*
X330400000Y-201400000D01*
X354075000Y-186725000D02*
X354075000Y-185000000D01*
X324075000Y-190000000D02*
X325500000Y-191425000D01*
X255012656Y-196050000D02*
X250000000Y-191037344D01*
X339075000Y-201375000D02*
X339100000Y-201400000D01*
X278337500Y-209262500D02*
X278337500Y-204337500D01*
X339075000Y-200000000D02*
X339075000Y-201375000D01*
X289075000Y-195000000D02*
X289075000Y-196725000D01*
X263350000Y-196050000D02*
X255012656Y-196050000D01*
X292500000Y-200000000D02*
X292500000Y-201400000D01*
X353300000Y-194600000D02*
X353300000Y-187500000D01*
X277500000Y-203500000D02*
X277500000Y-201400000D01*
X282500000Y-200000000D02*
X282500000Y-201400000D01*
X352600000Y-195300000D02*
X353300000Y-194600000D01*
X297500000Y-200000000D02*
X297500000Y-201400000D01*
X250000000Y-191037344D02*
X250000000Y-190004166D01*
X320500000Y-208575000D02*
X320500000Y-201400000D01*
X329075000Y-196175000D02*
X330400000Y-197500000D01*
X325500000Y-191425000D02*
X325500000Y-201400000D01*
X353300000Y-187500000D02*
X354075000Y-186725000D01*
X307500000Y-202150000D02*
X307500000Y-201400000D01*
X307500000Y-200000000D02*
X307500000Y-201400000D01*
X302500000Y-200000000D02*
X302500000Y-201400000D01*
X304075000Y-205000000D02*
X304650000Y-205000000D01*
X287500000Y-198300000D02*
X287500000Y-200000000D01*
X278337500Y-204337500D02*
X277500000Y-203500000D01*
X319075000Y-210000000D02*
X320500000Y-208575000D01*
X289075000Y-196725000D02*
X287500000Y-198300000D01*
X287500000Y-200000000D02*
X287500000Y-201400000D01*
X277500000Y-200000000D02*
X277500000Y-201400000D01*
X329075000Y-195000000D02*
X329075000Y-196175000D01*
X250400000Y-190974896D02*
X254775104Y-195350000D01*
X250400000Y-190004166D02*
X250400000Y-190974896D01*
X276762500Y-198662500D02*
X276700000Y-198600000D01*
X299075000Y-198625000D02*
X299100000Y-198600000D01*
X332500000Y-200000000D02*
X332500000Y-198600000D01*
X309900000Y-204175000D02*
X309900000Y-198600000D01*
X334075000Y-196125000D02*
X334075000Y-195000000D01*
X309075000Y-205000000D02*
X309900000Y-204175000D01*
X294075000Y-198575000D02*
X294100000Y-198600000D01*
X332500000Y-198600000D02*
X332500000Y-197700000D01*
X285000000Y-209075000D02*
X285000000Y-198600000D01*
X290000000Y-190925000D02*
X290000000Y-198600000D01*
X324075000Y-210000000D02*
X324075000Y-208075000D01*
X323337500Y-207337500D02*
X323337500Y-201637500D01*
X326700000Y-193500000D02*
X329075000Y-191125000D01*
X317500000Y-200000000D02*
X317500000Y-198600000D01*
X324075000Y-208075000D02*
X323337500Y-207337500D01*
X284075000Y-210000000D02*
X285000000Y-209075000D01*
X332500000Y-197700000D02*
X334075000Y-196125000D01*
X276762500Y-204262500D02*
X276762500Y-198662500D01*
X299075000Y-200000000D02*
X299075000Y-198625000D01*
X323337500Y-201637500D02*
X322500000Y-200800000D01*
X277500000Y-205000000D02*
X276762500Y-204262500D01*
X326700000Y-197200000D02*
X326700000Y-193500000D01*
X329075000Y-191125000D02*
X329075000Y-190000000D01*
X347500000Y-198600000D02*
X347500000Y-200000000D01*
X254775104Y-195350000D02*
X262450000Y-195350000D01*
X327500000Y-198000000D02*
X326700000Y-197200000D01*
X289075000Y-190000000D02*
X290000000Y-190925000D01*
X327500000Y-198600000D02*
X327500000Y-198000000D01*
X322500000Y-200000000D02*
X322500000Y-198600000D01*
X294075000Y-195000000D02*
X294075000Y-198575000D01*
X337500000Y-200000000D02*
X337500000Y-198600000D01*
X327500000Y-200000000D02*
X327500000Y-198600000D01*
X342500000Y-200000000D02*
X342500000Y-198600000D01*
X322500000Y-200800000D02*
X322500000Y-200000000D01*
X292500000Y-202600000D02*
X292500000Y-203300000D01*
X312500000Y-205000000D02*
X312500000Y-203300000D01*
X329075000Y-210000000D02*
X330200000Y-208875000D01*
X307500000Y-205000000D02*
X307500000Y-203300000D01*
X282500000Y-205000000D02*
X282500000Y-203300000D01*
X298237500Y-195837500D02*
X298237500Y-203262500D01*
X289075000Y-210000000D02*
X289075000Y-207875000D01*
X339075000Y-195000000D02*
X339812500Y-195737500D01*
X294075000Y-190000000D02*
X293337500Y-190737500D01*
X259595067Y-194650000D02*
X254537552Y-194650000D01*
X289075000Y-207875000D02*
X287500000Y-206300000D01*
X339812500Y-203287500D02*
X339800000Y-203300000D01*
X298200000Y-203900000D02*
X298200000Y-203300000D01*
X298237500Y-203262500D02*
X298200000Y-203300000D01*
X293337500Y-201762500D02*
X292500000Y-202600000D01*
X302500000Y-205000000D02*
X302500000Y-203300000D01*
X317500000Y-205000000D02*
X317500000Y-203300000D01*
X344000000Y-203300000D02*
X344075000Y-203225000D01*
X254537552Y-194650000D02*
X250800000Y-190912448D01*
X287500000Y-206300000D02*
X287500000Y-205000000D01*
X250800000Y-190912448D02*
X250800000Y-190004166D01*
X297500000Y-205000000D02*
X297500000Y-204600000D01*
X292500000Y-205000000D02*
X292500000Y-203300000D01*
X293337500Y-190737500D02*
X293337500Y-201762500D01*
X297500000Y-204600000D02*
X298200000Y-203900000D01*
X304075000Y-201725000D02*
X302500000Y-203300000D01*
X299075000Y-195000000D02*
X298237500Y-195837500D01*
X339812500Y-195737500D02*
X339812500Y-203287500D01*
X330200000Y-208875000D02*
X330200000Y-203300000D01*
X287500000Y-205000000D02*
X287500000Y-203300000D01*
X344075000Y-203225000D02*
X344075000Y-200000000D01*
X334075000Y-190000000D02*
X339075000Y-195000000D01*
X259600000Y-194645067D02*
X259595067Y-194650000D01*
X304075000Y-200000000D02*
X304075000Y-201725000D01*
X337500000Y-205000000D02*
X337500000Y-202300000D01*
X258384811Y-193945567D02*
X258350000Y-193980378D01*
X309075000Y-200000000D02*
X309075000Y-202275000D01*
X251200000Y-190850000D02*
X251200000Y-190004166D01*
X285900000Y-208400000D02*
X285900000Y-202300000D01*
X314075000Y-202325000D02*
X314100000Y-202300000D01*
X349075000Y-202225000D02*
X349075000Y-200000000D01*
X299075000Y-190000000D02*
X300100000Y-191025000D01*
X287500000Y-210000000D02*
X285900000Y-208400000D01*
X300100000Y-191025000D02*
X300100000Y-202300000D01*
X334075000Y-207275000D02*
X334075000Y-210000000D01*
X340800000Y-191725000D02*
X340800000Y-202300000D01*
X291000000Y-208500000D02*
X291000000Y-202300000D01*
X275800000Y-208300000D02*
X275800000Y-202300000D01*
X304075000Y-195000000D02*
X305200000Y-196125000D01*
X327500000Y-205000000D02*
X327500000Y-202300000D01*
X277500000Y-210000000D02*
X275800000Y-208300000D01*
X332500000Y-205700000D02*
X334075000Y-207275000D01*
X305200000Y-196125000D02*
X305200000Y-202300000D01*
X322500000Y-205000000D02*
X322500000Y-202300000D01*
X281000000Y-208500000D02*
X281000000Y-202300000D01*
X314075000Y-205000000D02*
X314075000Y-202325000D01*
X339075000Y-190000000D02*
X340800000Y-191725000D01*
X332500000Y-205000000D02*
X332500000Y-205700000D01*
X309075000Y-202275000D02*
X309100000Y-202300000D01*
X258350000Y-193980378D02*
X254330378Y-193980378D01*
X344900000Y-195825000D02*
X344900000Y-202300000D01*
X292500000Y-210000000D02*
X291000000Y-208500000D01*
X349000000Y-202300000D02*
X349075000Y-202225000D01*
X332500000Y-205000000D02*
X332500000Y-202300000D01*
X282500000Y-210000000D02*
X281000000Y-208500000D01*
X254330378Y-193980378D02*
X251200000Y-190850000D01*
X344075000Y-195000000D02*
X344900000Y-195825000D01*
X313337500Y-205562500D02*
X312500000Y-206400000D01*
X301762500Y-193047550D02*
X301762500Y-195477186D01*
X294075000Y-210000000D02*
X294075000Y-207125000D01*
X343300000Y-203800000D02*
X344600000Y-205100000D01*
X302500000Y-198785314D02*
X301762500Y-199522814D01*
X346600000Y-198000000D02*
X347200000Y-197400000D01*
X304075000Y-190000000D02*
X304075000Y-191425000D01*
X327500000Y-210000000D02*
X327500000Y-207100000D01*
X302500000Y-196214686D02*
X302500000Y-198785314D01*
X297500000Y-210000000D02*
X297500000Y-207100000D01*
X344075000Y-190000000D02*
X343300000Y-190775000D01*
X317500000Y-210000000D02*
X317500000Y-209550000D01*
X344600000Y-205100000D02*
X344600000Y-207100000D01*
X301762500Y-206362500D02*
X302500000Y-207100000D01*
X309800000Y-195000000D02*
X314075000Y-199275000D01*
X317500000Y-209550000D02*
X319100000Y-207950000D01*
X314075000Y-200000000D02*
X313337500Y-200737500D01*
X312500000Y-210000000D02*
X312500000Y-207100000D01*
X309075000Y-195000000D02*
X309800000Y-195000000D01*
X312500000Y-206400000D02*
X312500000Y-207100000D01*
X251937500Y-189266666D02*
X252700000Y-189266666D01*
X314075000Y-199275000D02*
X314075000Y-200000000D01*
X345600000Y-207100000D02*
X346600000Y-206100000D01*
X301762500Y-199522814D02*
X301762500Y-206362500D01*
X294075000Y-207125000D02*
X294100000Y-207100000D01*
X304075000Y-191425000D02*
X302900000Y-192600000D01*
X322500000Y-210000000D02*
X322500000Y-207100000D01*
X319075000Y-207075000D02*
X319100000Y-207100000D01*
X347200000Y-197400000D02*
X347789950Y-197400000D01*
X279075000Y-207075000D02*
X279100000Y-207100000D01*
X301762500Y-195477186D02*
X302500000Y-196214686D01*
X302500000Y-210000000D02*
X302500000Y-207100000D01*
X332500000Y-210000000D02*
X332500000Y-207100000D01*
X346600000Y-206100000D02*
X346600000Y-198000000D01*
X343300000Y-190775000D02*
X343300000Y-203800000D01*
X302900000Y-192600000D02*
X302210050Y-192600000D01*
X307500000Y-210000000D02*
X307500000Y-207100000D01*
X313337500Y-200737500D02*
X313337500Y-205562500D01*
X344600000Y-207100000D02*
X345600000Y-207100000D01*
X252716666Y-189266666D02*
X256650000Y-193200000D01*
X319075000Y-205000000D02*
X319075000Y-207075000D01*
X347789950Y-197400000D02*
X349075000Y-196114950D01*
X319100000Y-207950000D02*
X319100000Y-207100000D01*
X349075000Y-196114950D02*
X349075000Y-195000000D01*
X302210050Y-192600000D02*
X301762500Y-193047550D01*
X279075000Y-205000000D02*
X279075000Y-207075000D01*
X252700000Y-189266666D02*
X252716666Y-189266666D01*
X309900000Y-225825000D02*
X309075000Y-225000000D01*
X314100000Y-223810314D02*
X315800000Y-225510314D01*
X282500000Y-218600000D02*
X282500000Y-220000000D01*
X326725000Y-214225000D02*
X327500000Y-215000000D01*
X314075000Y-218425000D02*
X317500000Y-215000000D01*
X279075000Y-215000000D02*
X279075000Y-218600000D01*
X279812500Y-232487500D02*
X279800000Y-232500000D01*
X289812500Y-239262500D02*
X289075000Y-240000000D01*
X289812500Y-232500000D02*
X289812500Y-239262500D01*
X299100000Y-232500000D02*
X299075000Y-232475000D01*
X317500000Y-215000000D02*
X318275000Y-214225000D01*
X287500000Y-220000000D02*
X287500000Y-218600000D01*
X302500000Y-218600000D02*
X302500000Y-220000000D01*
X279812500Y-225187500D02*
X279075000Y-224450000D01*
X314100000Y-220025000D02*
X314100000Y-223810314D01*
X251200000Y-242550000D02*
X254700000Y-239050000D01*
X297500000Y-220000000D02*
X297500000Y-218600000D01*
X318275000Y-214225000D02*
X321725000Y-214225000D01*
X299075000Y-232475000D02*
X299075000Y-230000000D01*
X289075000Y-245000000D02*
X289075000Y-250000000D01*
X322500000Y-215000000D02*
X323275000Y-214225000D01*
X294075000Y-232500000D02*
X294075000Y-235000000D01*
X251200000Y-244195832D02*
X251200000Y-242550000D01*
X321725000Y-214225000D02*
X322500000Y-215000000D01*
X323275000Y-214225000D02*
X326725000Y-214225000D01*
X314075000Y-220000000D02*
X314075000Y-218425000D01*
X309900000Y-232500000D02*
X309900000Y-225825000D01*
X279812500Y-225187500D02*
X279812500Y-232487500D01*
X279075000Y-218600000D02*
X279075000Y-224450000D01*
X289075000Y-240000000D02*
X289075000Y-245000000D01*
X315800000Y-225510314D02*
X315800000Y-232492745D01*
X292500000Y-220000000D02*
X292500000Y-218600000D01*
X302500000Y-215000000D02*
X302500000Y-217100000D01*
X293300000Y-219300000D02*
X294400000Y-218200000D01*
X288200000Y-247300000D02*
X288237500Y-247262500D01*
X319075000Y-217075000D02*
X319075000Y-215000000D01*
X293300000Y-220439686D02*
X293300000Y-219300000D01*
X292327000Y-217573000D02*
X292500000Y-217400000D01*
X253166668Y-244933332D02*
X258900000Y-239200000D01*
X284075000Y-247325000D02*
X284075000Y-250000000D01*
X319100000Y-217100000D02*
X319075000Y-217075000D01*
X289075000Y-235000000D02*
X289075000Y-231214686D01*
X260800000Y-239200000D02*
X268800000Y-231200000D01*
X290300000Y-219337552D02*
X292064552Y-217573000D01*
X294812500Y-229262500D02*
X294812500Y-221952186D01*
X287500000Y-215000000D02*
X287500000Y-217100000D01*
X294812500Y-221952186D02*
X293300000Y-220439686D01*
X292500000Y-215000000D02*
X292500000Y-217100000D01*
X294075000Y-230000000D02*
X294812500Y-229262500D01*
X294400000Y-218200000D02*
X294400000Y-217100000D01*
X289075000Y-237525000D02*
X289075000Y-235000000D01*
X288237500Y-247262500D02*
X288237500Y-238362500D01*
X309075000Y-219675000D02*
X307500000Y-218100000D01*
X307500000Y-218100000D02*
X307500000Y-217100000D01*
X307500000Y-215000000D02*
X307500000Y-217100000D01*
X277500000Y-215850000D02*
X278200000Y-216550000D01*
X284075000Y-245000000D02*
X284075000Y-240000000D01*
X312500000Y-215000000D02*
X312500000Y-217100000D01*
X282500000Y-215000000D02*
X282500000Y-217100000D01*
X278200000Y-216550000D02*
X278200000Y-217100000D01*
X288300000Y-230439686D02*
X288300000Y-228562448D01*
X288300000Y-228562448D02*
X290300000Y-226562448D01*
X288237500Y-238362500D02*
X289075000Y-237525000D01*
X304812500Y-217112500D02*
X304800000Y-217100000D01*
X284100000Y-247300000D02*
X284075000Y-247325000D01*
X304075000Y-225000000D02*
X304812500Y-224262500D01*
X292500000Y-217400000D02*
X292500000Y-217100000D01*
X289075000Y-231214686D02*
X288300000Y-230439686D01*
X304812500Y-224262500D02*
X304812500Y-217112500D01*
X284075000Y-247275000D02*
X284100000Y-247300000D01*
X277500000Y-215000000D02*
X277500000Y-215850000D01*
X290300000Y-226562448D02*
X290300000Y-219337552D01*
X258900000Y-239200000D02*
X260800000Y-239200000D01*
X297500000Y-215000000D02*
X297500000Y-217100000D01*
X284075000Y-245000000D02*
X284075000Y-247275000D01*
X292064552Y-217573000D02*
X292327000Y-217573000D01*
X251937500Y-244933332D02*
X253166668Y-244933332D01*
X250800000Y-241899346D02*
X253701879Y-238997467D01*
X285600000Y-226900000D02*
X287500000Y-225000000D01*
X294075000Y-245000000D02*
X294075000Y-250000000D01*
X314075000Y-225000000D02*
X314812500Y-225737500D01*
X304075000Y-226214686D02*
X304075000Y-230000000D01*
X282500000Y-225000000D02*
X281000000Y-226500000D01*
X320600000Y-231792745D02*
X320900000Y-231492745D01*
X316700000Y-231793245D02*
X316700000Y-220800000D01*
X312500000Y-220000000D02*
X312500000Y-223425000D01*
X285800000Y-228589950D02*
X285800000Y-228010050D01*
X283337500Y-224162500D02*
X283337500Y-215737500D01*
X296200000Y-231793245D02*
X296200000Y-226300000D01*
X282500000Y-225000000D02*
X283337500Y-224162500D01*
X299075000Y-235000000D02*
X299900000Y-234175000D01*
X316700000Y-220800000D02*
X317500000Y-220000000D01*
X285600000Y-231789244D02*
X285600000Y-228789950D01*
X304900000Y-231100000D02*
X304075000Y-230275000D01*
X294075000Y-240000000D02*
X294075000Y-245000000D01*
X292500000Y-225000000D02*
X291000000Y-226500000D01*
X322500000Y-220000000D02*
X322500000Y-216575000D01*
X285600000Y-227810050D02*
X285600000Y-226900000D01*
X320900000Y-221600000D02*
X322500000Y-220000000D01*
X291000000Y-226500000D02*
X291000000Y-231793245D01*
X314812500Y-231780745D02*
X314800000Y-231793245D01*
X283337500Y-215737500D02*
X284075000Y-215000000D01*
X299900000Y-234175000D02*
X299900000Y-231793245D01*
X250800000Y-244195832D02*
X250800000Y-241899346D01*
X312500000Y-223425000D02*
X314075000Y-225000000D01*
X296200000Y-226300000D02*
X297500000Y-225000000D01*
X281000000Y-226500000D02*
X281000000Y-231793245D01*
X294075000Y-240000000D02*
X296200000Y-237875000D01*
X307500000Y-220000000D02*
X307500000Y-222789686D01*
X285800000Y-228010050D02*
X285600000Y-227810050D01*
X296200000Y-237875000D02*
X296200000Y-231793245D01*
X304900000Y-231792745D02*
X304900000Y-231100000D01*
X285594622Y-231794622D02*
X285600000Y-231789244D01*
X307500000Y-222789686D02*
X304075000Y-226214686D01*
X314812500Y-225737500D02*
X314812500Y-231780745D01*
X322500000Y-216575000D02*
X324075000Y-215000000D01*
X320900000Y-231492745D02*
X320900000Y-221600000D01*
X285600000Y-228789950D02*
X285800000Y-228589950D01*
X303300000Y-235775000D02*
X304075000Y-235000000D01*
X308600000Y-229525000D02*
X309075000Y-230000000D01*
X319075000Y-220000000D02*
X317500000Y-221575000D01*
X301300000Y-231600000D02*
X304075000Y-234375000D01*
X250400000Y-241307476D02*
X252702405Y-239005071D01*
X299075000Y-240000000D02*
X299075000Y-245000000D01*
X322500000Y-225000000D02*
X329075000Y-218425000D01*
X312500000Y-225000000D02*
X311600000Y-225900000D01*
X319812500Y-231080745D02*
X319800000Y-231093245D01*
X322500000Y-225000000D02*
X322500000Y-228785314D01*
X302500000Y-225000000D02*
X301300000Y-226200000D01*
X323237500Y-229522814D02*
X323237500Y-231048990D01*
X299075000Y-245000000D02*
X299075000Y-250000000D01*
X307500000Y-225000000D02*
X308600000Y-226100000D01*
X323237500Y-231048990D02*
X323193245Y-231093245D01*
X322500000Y-228785314D02*
X323237500Y-229522814D01*
X277500000Y-230000000D02*
X277500000Y-231093245D01*
X319812500Y-229522814D02*
X319812500Y-231080745D01*
X311600000Y-225900000D02*
X311600000Y-231093245D01*
X304075000Y-234375000D02*
X304075000Y-235000000D01*
X299075000Y-239325000D02*
X302625000Y-235775000D01*
X289812500Y-215737500D02*
X289812500Y-226587500D01*
X287500000Y-230000000D02*
X287500000Y-231093245D01*
X282500000Y-230000000D02*
X282500000Y-231093245D01*
X289812500Y-226587500D02*
X287500000Y-228900000D01*
X250400000Y-244195832D02*
X250400000Y-241307476D01*
X289075000Y-215000000D02*
X289812500Y-215737500D01*
X309075000Y-231068245D02*
X309100000Y-231093245D01*
X301300000Y-231093245D02*
X301300000Y-231600000D01*
X317500000Y-225000000D02*
X318675000Y-226175000D01*
X287500000Y-228900000D02*
X287500000Y-230000000D01*
X329075000Y-218425000D02*
X329075000Y-215000000D01*
X309075000Y-230000000D02*
X309075000Y-231068245D01*
X301300000Y-226200000D02*
X301300000Y-231093245D01*
X317500000Y-221575000D02*
X317500000Y-225000000D01*
X318675000Y-228385314D02*
X319812500Y-229522814D01*
X299075000Y-240000000D02*
X299075000Y-239325000D01*
X318675000Y-226175000D02*
X318675000Y-228385314D01*
X302625000Y-235775000D02*
X303300000Y-235775000D01*
X308600000Y-226100000D02*
X308600000Y-229525000D01*
X284894622Y-232505378D02*
X284894622Y-231504672D01*
X317500000Y-230000000D02*
X317500000Y-228300000D01*
X308300000Y-234225000D02*
X308300000Y-230800000D01*
X304075000Y-240000000D02*
X304075000Y-245000000D01*
X285100000Y-231299294D02*
X285100000Y-228300000D01*
X304812500Y-239262500D02*
X304812500Y-233512500D01*
X308300000Y-230800000D02*
X307500000Y-230000000D01*
X319075000Y-227275000D02*
X320100000Y-228300000D01*
X291800000Y-221710050D02*
X291800000Y-222289950D01*
X293200000Y-215875000D02*
X293200000Y-217389950D01*
X285100000Y-224810314D02*
X285100000Y-228300000D01*
X304812500Y-233512500D02*
X302500000Y-231200000D01*
X250000000Y-244195832D02*
X250000000Y-240650000D01*
X250000000Y-240650000D02*
X251700000Y-238950000D01*
X321600000Y-224685314D02*
X324075000Y-222210314D01*
X293200000Y-217389950D02*
X292689950Y-217900000D01*
X291762500Y-221672550D02*
X291800000Y-221710050D01*
X302500000Y-230000000D02*
X302500000Y-228300000D01*
X292500000Y-226214686D02*
X292500000Y-228300000D01*
X284100000Y-223810314D02*
X285100000Y-224810314D01*
X294075000Y-215000000D02*
X293200000Y-215875000D01*
X291800000Y-222289950D02*
X291762500Y-222327450D01*
X302500000Y-231200000D02*
X302500000Y-230000000D01*
X319075000Y-225000000D02*
X319075000Y-227275000D01*
X292200000Y-217900000D02*
X291762500Y-218337500D01*
X284894622Y-231504672D02*
X285100000Y-231299294D01*
X291762500Y-218337500D02*
X291762500Y-221672550D01*
X312500000Y-230000000D02*
X312500000Y-228300000D01*
X284100000Y-220025000D02*
X284100000Y-223810314D01*
X321600000Y-229100000D02*
X321600000Y-228300000D01*
X282500000Y-234900000D02*
X284894622Y-232505378D01*
X309075000Y-235000000D02*
X308300000Y-234225000D01*
X291762500Y-223047814D02*
X293237500Y-224522814D01*
X293237500Y-225477186D02*
X292500000Y-226214686D01*
X291762500Y-222327450D02*
X291762500Y-223047814D01*
X322500000Y-230000000D02*
X321600000Y-229100000D01*
X292500000Y-230000000D02*
X292500000Y-228300000D01*
X293237500Y-224522814D02*
X293237500Y-225477186D01*
X304075000Y-240000000D02*
X304812500Y-239262500D01*
X321600000Y-228300000D02*
X321600000Y-224685314D01*
X324075000Y-222210314D02*
X324075000Y-220000000D01*
X307500000Y-230000000D02*
X307500000Y-228300000D01*
X304075000Y-245000000D02*
X304075000Y-250000000D01*
X292689950Y-217900000D02*
X292200000Y-217900000D01*
X297500000Y-230000000D02*
X297500000Y-228300000D01*
X314075000Y-230000000D02*
X314075000Y-230725000D01*
X286200000Y-228755636D02*
X286000000Y-228955636D01*
X309075000Y-240000000D02*
X309075000Y-236575000D01*
X299075000Y-215000000D02*
X300600000Y-216525000D01*
X286294622Y-231994622D02*
X287500000Y-233200000D01*
X287939686Y-225775000D02*
X287290686Y-225775000D01*
X324812500Y-231987500D02*
X323600000Y-233200000D01*
X297500000Y-235000000D02*
X297500000Y-233200000D01*
X288337500Y-220737500D02*
X288337500Y-225377186D01*
X324812500Y-225737500D02*
X324812500Y-231987500D01*
X312500000Y-232300000D02*
X312500000Y-233200000D01*
X284075000Y-225000000D02*
X283337500Y-225737500D01*
X300600000Y-216525000D02*
X300600000Y-232100000D01*
X287290686Y-225775000D02*
X286200000Y-226865686D01*
X289075000Y-220000000D02*
X288337500Y-220737500D01*
X317500000Y-235000000D02*
X317500000Y-233200000D01*
X286000000Y-231210050D02*
X286294622Y-231504672D01*
X309075000Y-240000000D02*
X309075000Y-245000000D01*
X286000000Y-228955636D02*
X286000000Y-231210050D01*
X312500000Y-235000000D02*
X312500000Y-233200000D01*
X301700000Y-233700000D02*
X301700000Y-233200000D01*
X302500000Y-234500000D02*
X301700000Y-233700000D01*
X307500000Y-235000000D02*
X307500000Y-233200000D01*
X287500000Y-235000000D02*
X287500000Y-233200000D01*
X288337500Y-225377186D02*
X287939686Y-225775000D01*
X314075000Y-230725000D02*
X312500000Y-232300000D01*
X309075000Y-236575000D02*
X307500000Y-235000000D01*
X302500000Y-235000000D02*
X302500000Y-234500000D01*
X251460050Y-238200000D02*
X256850000Y-238200000D01*
X300600000Y-232100000D02*
X301700000Y-233200000D01*
X323600000Y-233200000D02*
X322500000Y-233200000D01*
X322500000Y-233200000D02*
X322500000Y-235000000D01*
X286294622Y-231504672D02*
X286294622Y-231994622D01*
X309075000Y-245000000D02*
X309075000Y-250000000D01*
X281800000Y-232800000D02*
X281800000Y-233200000D01*
X249600000Y-240060050D02*
X251460050Y-238200000D01*
X249600000Y-244195832D02*
X249600000Y-240060050D01*
X292500000Y-235000000D02*
X292500000Y-233200000D01*
X283337500Y-231262500D02*
X281800000Y-232800000D01*
X324075000Y-225000000D02*
X324812500Y-225737500D01*
X286200000Y-226865686D02*
X286200000Y-228755636D01*
X283337500Y-225737500D02*
X283337500Y-231262500D01*
X287500000Y-240000000D02*
X287500000Y-237224006D01*
X259025994Y-237224006D02*
X259000000Y-237250000D01*
X305212500Y-233927186D02*
X307060314Y-235775000D01*
X314075000Y-237199006D02*
X314100000Y-237224006D01*
X318237500Y-235662500D02*
X317500000Y-236400000D01*
X317500000Y-237224006D02*
X317500000Y-240000000D01*
X282500000Y-239324006D02*
X280400000Y-237224006D01*
X286762500Y-231472550D02*
X288237500Y-232947550D01*
X289075000Y-226759314D02*
X286762500Y-229071814D01*
X305212500Y-233346815D02*
X305212500Y-233927186D01*
X317500000Y-236400000D02*
X317500000Y-237224006D01*
X287500000Y-236300000D02*
X287500000Y-237224006D01*
X314075000Y-245000000D02*
X314075000Y-250000000D01*
X259000000Y-237250000D02*
X251947602Y-237250000D01*
X249200000Y-239997602D02*
X249200000Y-244195832D01*
X251947602Y-237250000D02*
X249200000Y-239997602D01*
X289075000Y-225000000D02*
X289075000Y-226759314D01*
X302500000Y-240000000D02*
X302500000Y-237224006D01*
X303337500Y-231471814D02*
X305212500Y-233346815D01*
X307500000Y-236200000D02*
X307500000Y-237224006D01*
X314075000Y-235000000D02*
X314075000Y-237199006D01*
X312500000Y-243425000D02*
X314075000Y-245000000D01*
X288237500Y-235562500D02*
X287500000Y-236300000D01*
X288237500Y-232947550D02*
X288237500Y-235562500D01*
X307500000Y-240000000D02*
X307500000Y-237224006D01*
X280400000Y-234300000D02*
X279075000Y-232975000D01*
X312500000Y-240000000D02*
X312500000Y-243425000D01*
X312500000Y-239600000D02*
X314100000Y-238000000D01*
X304075000Y-215000000D02*
X303337500Y-215737500D01*
X314100000Y-238000000D02*
X314100000Y-237224006D01*
X319075000Y-230000000D02*
X318237500Y-230837500D01*
X318237500Y-230837500D02*
X318237500Y-235662500D01*
X295300000Y-221225000D02*
X294075000Y-220000000D01*
X279075000Y-232975000D02*
X279075000Y-230000000D01*
X307075000Y-235775000D02*
X307500000Y-236200000D01*
X280400000Y-237224006D02*
X280400000Y-234300000D01*
X297500000Y-240000000D02*
X297500000Y-237224006D01*
X292500000Y-240000000D02*
X292500000Y-238724006D01*
X292500000Y-238724006D02*
X294000000Y-237224006D01*
X286762500Y-229071814D02*
X286762500Y-231472550D01*
X303337500Y-215737500D02*
X303337500Y-231471814D01*
X295300000Y-234989686D02*
X295300000Y-221225000D01*
X294000000Y-236289686D02*
X295300000Y-234989686D01*
X312500000Y-240000000D02*
X312500000Y-239600000D01*
X282500000Y-240000000D02*
X282500000Y-239324006D01*
X307060314Y-235775000D02*
X307075000Y-235775000D01*
X294000000Y-237224006D02*
X294000000Y-236289686D01*
X298300000Y-220775000D02*
X298300000Y-240800000D01*
X248800000Y-239935154D02*
X252211148Y-236524006D01*
X291762500Y-240862500D02*
X292500000Y-241600000D01*
X282500000Y-241200000D02*
X282500000Y-241600000D01*
X311600000Y-244100000D02*
X311600000Y-241600000D01*
X315300000Y-241600000D02*
X314100000Y-241600000D01*
X293237500Y-229622814D02*
X293237500Y-237420820D01*
X283237500Y-239495820D02*
X283237500Y-240477186D01*
X281700000Y-234585314D02*
X281700000Y-237958320D01*
X310800000Y-216725000D02*
X310800000Y-240800000D01*
X310800000Y-240800000D02*
X311600000Y-241600000D01*
X312500000Y-245000000D02*
X311600000Y-244100000D01*
X281700000Y-237958320D02*
X283237500Y-239495820D01*
X302500000Y-245000000D02*
X302500000Y-241700000D01*
X287500000Y-245000000D02*
X287500000Y-241600000D01*
X284075000Y-230000000D02*
X284075000Y-232210314D01*
X317500000Y-245000000D02*
X317500000Y-248425000D01*
X294075000Y-225000000D02*
X294075000Y-228785314D01*
X323007255Y-232492745D02*
X324075000Y-231425000D01*
X317500000Y-248425000D02*
X319075000Y-250000000D01*
X284075000Y-232210314D02*
X281700000Y-234585314D01*
X298300000Y-240800000D02*
X297500000Y-241600000D01*
X319075000Y-235000000D02*
X319075000Y-233525000D01*
X320107255Y-232492745D02*
X323007255Y-232492745D01*
X314100000Y-241600000D02*
X314100000Y-240025000D01*
X324075000Y-231425000D02*
X324075000Y-230000000D01*
X317500000Y-243800000D02*
X315300000Y-241600000D01*
X282939686Y-240775000D02*
X282925000Y-240775000D01*
X252211148Y-236524006D02*
X259374006Y-236524006D01*
X282925000Y-240775000D02*
X282500000Y-241200000D01*
X318300000Y-239560314D02*
X319075000Y-238785314D01*
X294075000Y-228785314D02*
X293237500Y-229622814D01*
X319075000Y-238785314D02*
X319075000Y-235000000D01*
X248800000Y-244195832D02*
X248800000Y-239935154D01*
X317500000Y-245000000D02*
X317500000Y-243800000D01*
X307500000Y-241700000D02*
X307600000Y-241600000D01*
X292500000Y-245000000D02*
X292500000Y-241600000D01*
X307500000Y-245000000D02*
X307500000Y-241700000D01*
X282500000Y-245000000D02*
X282500000Y-241600000D01*
X309075000Y-215000000D02*
X310800000Y-216725000D01*
X283237500Y-240477186D02*
X282939686Y-240775000D01*
X259374006Y-236524006D02*
X260900000Y-238050000D01*
X291762500Y-238895821D02*
X291762500Y-240862500D01*
X318300000Y-241600000D02*
X318300000Y-239560314D01*
X302500000Y-241700000D02*
X302600000Y-241600000D01*
X293237500Y-237420820D02*
X291762500Y-238895821D01*
X297500000Y-245000000D02*
X297500000Y-241600000D01*
X299075000Y-220000000D02*
X298300000Y-220775000D01*
X319075000Y-233525000D02*
X320107255Y-232492745D01*
X319075000Y-245000000D02*
X319075000Y-240000000D01*
X317500000Y-251700000D02*
X318589686Y-251700000D01*
X286762500Y-248162500D02*
X287500000Y-248900000D01*
X276200000Y-229600000D02*
X278600000Y-227200000D01*
X286762500Y-237687500D02*
X286762500Y-248162500D01*
X302500000Y-250000000D02*
X302500000Y-251700000D01*
X314075000Y-217859314D02*
X314075000Y-215000000D01*
X292500000Y-250000000D02*
X292500000Y-251700000D01*
X319812500Y-245737500D02*
X319075000Y-245000000D01*
X307500000Y-250000000D02*
X307500000Y-251700000D01*
X247233332Y-244933332D02*
X246900000Y-244600000D01*
X248062500Y-244933332D02*
X247233332Y-244933332D01*
X290673000Y-226364552D02*
X290673000Y-228402000D01*
X324075000Y-235925000D02*
X324075000Y-235000000D01*
X299075000Y-222075000D02*
X299075000Y-225000000D01*
X246900000Y-243400000D02*
X247400000Y-242900000D01*
X291100000Y-225937552D02*
X290673000Y-226364552D01*
X282500000Y-250000000D02*
X282500000Y-251700000D01*
X291100000Y-222000000D02*
X291100000Y-225937552D01*
X318589686Y-251700000D02*
X319812500Y-250477186D01*
X297500000Y-250000000D02*
X297500000Y-251700000D01*
X290673000Y-228402000D02*
X289075000Y-230000000D01*
X287500000Y-250000000D02*
X287500000Y-251700000D01*
X276200000Y-241199500D02*
X276200000Y-229600000D01*
X319812500Y-250477186D02*
X319812500Y-245737500D01*
X246900000Y-244600000D02*
X246900000Y-243400000D01*
X312500000Y-250000000D02*
X312500000Y-251700000D01*
X304075000Y-221962000D02*
X304075000Y-220000000D01*
X317500000Y-251700000D02*
X317500000Y-250000000D01*
X287500000Y-248900000D02*
X287500000Y-250000000D01*
X284075000Y-235000000D02*
X286762500Y-237687500D01*
X304037000Y-222000000D02*
X304075000Y-221962000D01*
X313300000Y-222000000D02*
X313300000Y-218634314D01*
X320000000Y-240000000D02*
X324075000Y-235925000D01*
X313300000Y-218634314D02*
X314075000Y-217859314D01*
X299000000Y-222000000D02*
X299075000Y-222075000D01*
X319075000Y-240000000D02*
X320000000Y-240000000D01*
X294075000Y-270000000D02*
X295700000Y-268375000D01*
X320700000Y-259000000D02*
X322500000Y-257200000D01*
X326900000Y-255600000D02*
X326900000Y-259300000D01*
X322500000Y-257200000D02*
X322500000Y-255000000D01*
X312500000Y-256300000D02*
X315800000Y-259600000D01*
X263100000Y-268000000D02*
X270000000Y-268000000D01*
X287500000Y-260000000D02*
X286762500Y-260737500D01*
X317500000Y-255000000D02*
X316725000Y-254225000D01*
X329812500Y-260477186D02*
X329812500Y-265487500D01*
X304075000Y-271825000D02*
X306200000Y-269700000D01*
X326900000Y-259300000D02*
X325700000Y-260500000D01*
X277500000Y-260000000D02*
X275600000Y-261900000D01*
X312500000Y-255000000D02*
X312500000Y-256300000D01*
X324075000Y-251325000D02*
X322500000Y-252900000D01*
X286762500Y-267962500D02*
X286800000Y-268000000D01*
X295700000Y-268375000D02*
X295700000Y-268000000D01*
X297789950Y-262900000D02*
X297210050Y-262900000D01*
X282500000Y-260000000D02*
X279075000Y-263425000D01*
X279075000Y-280000000D02*
X280600000Y-278475000D01*
X329812500Y-265487500D02*
X328400000Y-266900000D01*
X275600000Y-261900000D02*
X275600000Y-268000000D01*
X324075000Y-250000000D02*
X324075000Y-251325000D01*
X248800000Y-253700000D02*
X263100000Y-268000000D01*
X321000000Y-268000000D02*
X320700000Y-267700000D01*
X280600000Y-278475000D02*
X280600000Y-268000000D01*
X320700000Y-267700000D02*
X320700000Y-259000000D01*
X313275000Y-254225000D02*
X312500000Y-255000000D01*
X327500000Y-255000000D02*
X326900000Y-255600000D01*
X334075000Y-268075000D02*
X334075000Y-270000000D01*
X297210050Y-262900000D02*
X295700000Y-264410050D01*
X319075000Y-265000000D02*
X319075000Y-266875000D01*
X279075000Y-267975000D02*
X279100000Y-268000000D01*
X332500000Y-255000000D02*
X332500000Y-257789686D01*
X299075000Y-260000000D02*
X299075000Y-261614950D01*
X316725000Y-254225000D02*
X313275000Y-254225000D01*
X334000000Y-268000000D02*
X334075000Y-268075000D01*
X325700000Y-260500000D02*
X325700000Y-268000000D01*
X315800000Y-259600000D02*
X315800000Y-261400000D01*
X322500000Y-252900000D02*
X322500000Y-255000000D01*
X299075000Y-261614950D02*
X297789950Y-262900000D01*
X295700000Y-264410050D02*
X295700000Y-268000000D01*
X279075000Y-263425000D02*
X279075000Y-265000000D01*
X306200000Y-269700000D02*
X306200000Y-268000000D01*
X286762500Y-260737500D02*
X286762500Y-267962500D01*
X328400000Y-266900000D02*
X328400000Y-268000000D01*
X319075000Y-266875000D02*
X319500000Y-267300000D01*
X332500000Y-257789686D02*
X329812500Y-260477186D01*
X304075000Y-275000000D02*
X304075000Y-271825000D01*
X319500000Y-267300000D02*
X319500000Y-268000000D01*
X279075000Y-265000000D02*
X279075000Y-267975000D01*
X248800000Y-248070832D02*
X248800000Y-253700000D01*
X315800000Y-261400000D02*
X319075000Y-264675000D01*
X307500000Y-255000000D02*
X307500000Y-256700000D01*
X334075000Y-262210314D02*
X330600000Y-265685314D01*
X299900000Y-274175000D02*
X299075000Y-275000000D01*
X300900000Y-259700000D02*
X302500000Y-258100000D01*
X319812500Y-252687500D02*
X319812500Y-256687500D01*
X302500000Y-255000000D02*
X302500000Y-256700000D01*
X288237500Y-258337500D02*
X287500000Y-257600000D01*
X313100000Y-258700000D02*
X311700000Y-257300000D01*
X300900000Y-263740686D02*
X300900000Y-259700000D01*
X288237500Y-265377186D02*
X288237500Y-258337500D01*
X246750000Y-248150000D02*
X247200000Y-248600000D01*
X329075000Y-268825000D02*
X329075000Y-270000000D01*
X297500000Y-255000000D02*
X297500000Y-256700000D01*
X299900000Y-271400500D02*
X299900000Y-274175000D01*
X274900000Y-279175000D02*
X274900000Y-256700000D01*
X314075000Y-255000000D02*
X314075000Y-256675000D01*
X334075000Y-260000000D02*
X334075000Y-262210314D01*
X299900500Y-264740186D02*
X300900000Y-263740686D01*
X294075000Y-259175000D02*
X292500000Y-257600000D01*
X287500000Y-255000000D02*
X287500000Y-256700000D01*
X289075000Y-270000000D02*
X289075000Y-266214686D01*
X319812500Y-256687500D02*
X319800000Y-256700000D01*
X314075000Y-265000000D02*
X314075000Y-261214686D01*
X314075000Y-256675000D02*
X314100000Y-256700000D01*
X314075000Y-261214686D02*
X314812500Y-260477186D01*
X313989686Y-258700000D02*
X313100000Y-258700000D01*
X311700000Y-257300000D02*
X311700000Y-256700000D01*
X299900500Y-268700000D02*
X299900500Y-264740186D01*
X247016668Y-247333332D02*
X246750000Y-247600000D01*
X314812500Y-259522814D02*
X313989686Y-258700000D01*
X274075000Y-280000000D02*
X274900000Y-279175000D01*
X330600000Y-267300000D02*
X329075000Y-268825000D01*
X322500000Y-250000000D02*
X319812500Y-252687500D01*
X314812500Y-260477186D02*
X314812500Y-259522814D01*
X282500000Y-255000000D02*
X282500000Y-256700000D01*
X289075000Y-266214686D02*
X288237500Y-265377186D01*
X327500000Y-250000000D02*
X326200000Y-251300000D01*
X326200000Y-251300000D02*
X326200000Y-256700000D01*
X333700000Y-257200000D02*
X334075000Y-257575000D01*
X246750000Y-247600000D02*
X246750000Y-248150000D01*
X248062500Y-247333332D02*
X247016668Y-247333332D01*
X330600000Y-265685314D02*
X330600000Y-267300000D01*
X292500000Y-255000000D02*
X292500000Y-256700000D01*
X294075000Y-260000000D02*
X294075000Y-259175000D01*
X302500000Y-258100000D02*
X302500000Y-256700000D01*
X292500000Y-257600000D02*
X292500000Y-256700000D01*
X334075000Y-257575000D02*
X334075000Y-260000000D01*
X287500000Y-257600000D02*
X287500000Y-256700000D01*
X283337500Y-279262500D02*
X284075000Y-280000000D01*
X300600000Y-269200000D02*
X300600000Y-264700000D01*
X327500000Y-256214686D02*
X328300000Y-255414686D01*
X283337500Y-268362500D02*
X283337500Y-279262500D01*
X302500000Y-260600000D02*
X301600000Y-261500000D01*
X324075000Y-262125000D02*
X324100000Y-262100000D01*
X299075000Y-270000000D02*
X299800000Y-270000000D01*
X284075000Y-265000000D02*
X284075000Y-267625000D01*
X284900000Y-262700000D02*
X284900000Y-262100000D01*
X297500000Y-260000000D02*
X297500000Y-262100000D01*
X292500000Y-260000000D02*
X292500000Y-262100000D01*
X300600000Y-264700000D02*
X301600000Y-263700000D01*
X249659065Y-253550000D02*
X249200000Y-253090935D01*
X339800000Y-262100000D02*
X339812500Y-262112500D01*
X328300000Y-255414686D02*
X328300000Y-252700000D01*
X319075000Y-255000000D02*
X319075000Y-256725000D01*
X328300000Y-252700000D02*
X329075000Y-251925000D01*
X329075000Y-251925000D02*
X329075000Y-250000000D01*
X322500000Y-260000000D02*
X322500000Y-262100000D01*
X301600000Y-263700000D02*
X301600000Y-262100000D01*
X284075000Y-265000000D02*
X284075000Y-263525000D01*
X327500000Y-262100000D02*
X327500000Y-260000000D01*
X301600000Y-261500000D02*
X301600000Y-262100000D01*
X319075000Y-256725000D02*
X317500000Y-258300000D01*
X339812500Y-269262500D02*
X339075000Y-270000000D01*
X307500000Y-260800000D02*
X308300000Y-261600000D01*
X339812500Y-262112500D02*
X339812500Y-269262500D01*
X249200000Y-253090935D02*
X249200000Y-248070832D01*
X308337500Y-262137500D02*
X308300000Y-262100000D01*
X302500000Y-260000000D02*
X302500000Y-260600000D01*
X308300000Y-261600000D02*
X308300000Y-262100000D01*
X309075000Y-275000000D02*
X308337500Y-274262500D01*
X317500000Y-258300000D02*
X317500000Y-260000000D01*
X324075000Y-265000000D02*
X324075000Y-262125000D01*
X308337500Y-274262500D02*
X308337500Y-262137500D01*
X284075000Y-263525000D02*
X284900000Y-262700000D01*
X312500000Y-260000000D02*
X312500000Y-262100000D01*
X307500000Y-260000000D02*
X307500000Y-260800000D01*
X327500000Y-260000000D02*
X327500000Y-256214686D01*
X284075000Y-267625000D02*
X283337500Y-268362500D01*
X299800000Y-270000000D02*
X300600000Y-269200000D01*
X317500000Y-260000000D02*
X317500000Y-262100000D01*
X304075000Y-260000000D02*
X304075000Y-261125000D01*
X284812500Y-260487500D02*
X282500000Y-262800000D01*
X297500000Y-265000000D02*
X297500000Y-263600000D01*
X292500000Y-265000000D02*
X292500000Y-263600000D01*
X324075000Y-255000000D02*
X325000000Y-255925000D01*
X287500000Y-265000000D02*
X287500000Y-263600000D01*
X288337500Y-266437500D02*
X287500000Y-265600000D01*
X274075000Y-263625000D02*
X274100000Y-263600000D01*
X304075000Y-261125000D02*
X302500000Y-262700000D01*
X304075000Y-270000000D02*
X304075000Y-268925000D01*
X302500000Y-265000000D02*
X302500000Y-263600000D01*
X329075000Y-263625000D02*
X329100000Y-263600000D01*
X249600000Y-252501692D02*
X249600000Y-248070832D01*
X302500000Y-262700000D02*
X302500000Y-263600000D01*
X325000000Y-255925000D02*
X325000000Y-263600000D01*
X314075000Y-275000000D02*
X314812500Y-274262500D01*
X304075000Y-268925000D02*
X307500000Y-265500000D01*
X282500000Y-265000000D02*
X282500000Y-263600000D01*
X277500000Y-265000000D02*
X277500000Y-263600000D01*
X314812500Y-263612500D02*
X314800000Y-263600000D01*
X329075000Y-265000000D02*
X329075000Y-263625000D01*
X287500000Y-265600000D02*
X287500000Y-265000000D01*
X332500000Y-262500000D02*
X332500000Y-260000000D01*
X314812500Y-274262500D02*
X314812500Y-263612500D01*
X307500000Y-265000000D02*
X307500000Y-263600000D01*
X282500000Y-262800000D02*
X282500000Y-263600000D01*
X251349154Y-254250846D02*
X249600000Y-252501692D01*
X274075000Y-275000000D02*
X274075000Y-263625000D01*
X307500000Y-265500000D02*
X307500000Y-265000000D01*
X332000000Y-263000000D02*
X332500000Y-262500000D01*
X288337500Y-279262500D02*
X288337500Y-266437500D01*
X284075000Y-255000000D02*
X284812500Y-255737500D01*
X284812500Y-255737500D02*
X284812500Y-260487500D01*
X289075000Y-280000000D02*
X288337500Y-279262500D01*
X250000000Y-248070832D02*
X250000000Y-251912448D01*
X328337500Y-257962500D02*
X328337500Y-263062500D01*
X289075000Y-265000000D02*
X289075000Y-264225000D01*
X289812500Y-255737500D02*
X289075000Y-255000000D01*
X319075000Y-271214686D02*
X319812500Y-270477186D01*
X312500000Y-266900000D02*
X312500000Y-266000000D01*
X294075000Y-277789686D02*
X294075000Y-280000000D01*
X322500000Y-265000000D02*
X322000000Y-265000000D01*
X276800000Y-266000000D02*
X276800000Y-269300000D01*
X290200000Y-268000000D02*
X289850000Y-268350000D01*
X317500000Y-265000000D02*
X317500000Y-266000000D01*
X322000000Y-265000000D02*
X321400000Y-265600000D01*
X329075000Y-257225000D02*
X328337500Y-257962500D01*
X289812500Y-263487500D02*
X289812500Y-255737500D01*
X312500000Y-263425000D02*
X309075000Y-260000000D01*
X250000000Y-251912448D02*
X265487552Y-267400000D01*
X317500000Y-267210314D02*
X317500000Y-266000000D01*
X327500000Y-263900000D02*
X327500000Y-265000000D01*
X290200000Y-266000000D02*
X290200000Y-265600000D01*
X282500000Y-270000000D02*
X281300000Y-268800000D01*
X276800000Y-269300000D02*
X277500000Y-270000000D01*
X289075000Y-264225000D02*
X289812500Y-263487500D01*
X321400000Y-265600000D02*
X321400000Y-266000000D01*
X312500000Y-265000000D02*
X312500000Y-263425000D01*
X281300000Y-268800000D02*
X281300000Y-266000000D01*
X332500000Y-265000000D02*
X332500000Y-266000000D01*
X327500000Y-265000000D02*
X327500000Y-266000000D01*
X319812500Y-269522814D02*
X317500000Y-267210314D01*
X290200000Y-265600000D02*
X289600000Y-265000000D01*
X319075000Y-275000000D02*
X319075000Y-271214686D01*
X290200000Y-266000000D02*
X290200000Y-268000000D01*
X312500000Y-265000000D02*
X312500000Y-266000000D01*
X278400000Y-274325000D02*
X278400000Y-270900000D01*
X265487552Y-267400000D02*
X268750000Y-267400000D01*
X289600000Y-265000000D02*
X289075000Y-265000000D01*
X337500000Y-265700000D02*
X337200000Y-266000000D01*
X337500000Y-265000000D02*
X337500000Y-265700000D01*
X309400000Y-270000000D02*
X312500000Y-266900000D01*
X279075000Y-275000000D02*
X278400000Y-274325000D01*
X289850000Y-268350000D02*
X289850000Y-273564686D01*
X289850000Y-273564686D02*
X294075000Y-277789686D01*
X268750000Y-267400000D02*
X270150000Y-266000000D01*
X329075000Y-255000000D02*
X329075000Y-257225000D01*
X278400000Y-270900000D02*
X277500000Y-270000000D01*
X328337500Y-263062500D02*
X327500000Y-263900000D01*
X319812500Y-270477186D02*
X319812500Y-269522814D01*
X322500000Y-270000000D02*
X322500000Y-266738000D01*
X294812500Y-264262500D02*
X294075000Y-265000000D01*
X316500000Y-267700000D02*
X316500000Y-266699500D01*
X324075000Y-275000000D02*
X324812500Y-274262500D01*
X299075000Y-280000000D02*
X299075000Y-276575000D01*
X294075000Y-266625000D02*
X294000000Y-266700000D01*
X334000000Y-266700000D02*
X334000000Y-265075000D01*
X296762500Y-270737500D02*
X297500000Y-270000000D01*
X301300000Y-267400000D02*
X301300000Y-266700000D01*
X294075000Y-265000000D02*
X294075000Y-266625000D01*
X313337500Y-266662500D02*
X313300000Y-266700000D01*
X302500000Y-270000000D02*
X302500000Y-268600000D01*
X324812500Y-266712500D02*
X324800000Y-266700000D01*
X268389244Y-266700000D02*
X265250000Y-266700000D01*
X317500000Y-270000000D02*
X317500000Y-268700000D01*
X313300000Y-268200000D02*
X312500000Y-269000000D01*
X294812500Y-255737500D02*
X294812500Y-264262500D01*
X250400000Y-251850000D02*
X250400000Y-248070832D01*
X296762500Y-275477186D02*
X296762500Y-270737500D01*
X324812500Y-274262500D02*
X324812500Y-266712500D01*
X334075000Y-265000000D02*
X334812500Y-264262500D01*
X292500000Y-269100000D02*
X292500000Y-270000000D01*
X298275000Y-275775000D02*
X297060314Y-275775000D01*
X307500000Y-270000000D02*
X307500000Y-266700000D01*
X313300000Y-266700000D02*
X313300000Y-268200000D01*
X314075000Y-260000000D02*
X313337500Y-260737500D01*
X294000000Y-266700000D02*
X294000000Y-267600000D01*
X302500000Y-268600000D02*
X301300000Y-267400000D01*
X334812500Y-255737500D02*
X334075000Y-255000000D01*
X284075000Y-275000000D02*
X284075000Y-274225000D01*
X297060314Y-275775000D02*
X296762500Y-275477186D01*
X284075000Y-274225000D02*
X287500000Y-270800000D01*
X287500000Y-270000000D02*
X287500000Y-266700000D01*
X317500000Y-268700000D02*
X316500000Y-267700000D01*
X294075000Y-255000000D02*
X294812500Y-255737500D01*
X294000000Y-267600000D02*
X292500000Y-269100000D01*
X297500000Y-270000000D02*
X297500000Y-266700000D01*
X265250000Y-266700000D02*
X250400000Y-251850000D01*
X287500000Y-270800000D02*
X287500000Y-270000000D01*
X299075000Y-276575000D02*
X298275000Y-275775000D01*
X312500000Y-269000000D02*
X312500000Y-270000000D01*
X313337500Y-260737500D02*
X313337500Y-266662500D01*
X334812500Y-264262500D02*
X334812500Y-255737500D01*
X322500000Y-266738000D02*
X322538000Y-266700000D01*
X314075000Y-270000000D02*
X314075000Y-272781755D01*
X276400000Y-271706755D02*
X277500000Y-272806755D01*
X277500000Y-275000000D02*
X277500000Y-272806755D01*
X299075000Y-265000000D02*
X298337500Y-265737500D01*
X319075000Y-260000000D02*
X320300000Y-261225000D01*
X305400000Y-278675000D02*
X305400000Y-272806755D01*
X299075000Y-255000000D02*
X299812500Y-255737500D01*
X250800000Y-251250000D02*
X250800000Y-248070832D01*
X328300000Y-272806755D02*
X329075000Y-273581755D01*
X279075000Y-260000000D02*
X276400000Y-262675000D01*
X337500000Y-272800000D02*
X337500000Y-270000000D01*
X329075000Y-273581755D02*
X329075000Y-275000000D01*
X337500000Y-267900000D02*
X339075000Y-266325000D01*
X299812500Y-264262500D02*
X299075000Y-265000000D01*
X276100000Y-266289950D02*
X276400000Y-266589950D01*
X333400000Y-270900000D02*
X333400000Y-272806755D01*
X276400000Y-265410050D02*
X276100000Y-265710050D01*
X304075000Y-280000000D02*
X305400000Y-278675000D01*
X332500000Y-270000000D02*
X333400000Y-270900000D01*
X339075000Y-266325000D02*
X339075000Y-265000000D01*
X299812500Y-255737500D02*
X299812500Y-264262500D01*
X298337500Y-265737500D02*
X298337500Y-272744255D01*
X337500000Y-270000000D02*
X337500000Y-267900000D01*
X282500000Y-275000000D02*
X282500000Y-272806755D01*
X314075000Y-272781755D02*
X314100000Y-272806755D01*
X276400000Y-262675000D02*
X276400000Y-265410050D01*
X287500000Y-275000000D02*
X287500000Y-272806755D01*
X319800000Y-271800000D02*
X319800000Y-272806755D01*
X320300000Y-271300000D02*
X319800000Y-271800000D01*
X328300000Y-270800000D02*
X328300000Y-272806755D01*
X327500000Y-270000000D02*
X328300000Y-270800000D01*
X276100000Y-265710050D02*
X276100000Y-266289950D01*
X320300000Y-261225000D02*
X320300000Y-271300000D01*
X292500000Y-275000000D02*
X292500000Y-272806755D01*
X272500000Y-275000000D02*
X272500000Y-272806755D01*
X255675000Y-256125000D02*
X250800000Y-251250000D01*
X276400000Y-266589950D02*
X276400000Y-271706755D01*
X298337500Y-272744255D02*
X298400000Y-272806755D01*
X251200000Y-250496892D02*
X251200000Y-248070832D01*
X317500000Y-271400000D02*
X317500000Y-272100000D01*
X302939686Y-270775000D02*
X303237500Y-270477186D01*
X317500000Y-275000000D02*
X317500000Y-272100000D01*
X323237500Y-270562500D02*
X322500000Y-271300000D01*
X323237500Y-260837500D02*
X323237500Y-270562500D01*
X304075000Y-265000000D02*
X304900000Y-264175000D01*
X279075000Y-270000000D02*
X279075000Y-269025000D01*
X322500000Y-271300000D02*
X322500000Y-272100000D01*
X303237500Y-270477186D02*
X303237500Y-265837500D01*
X302925000Y-270775000D02*
X302939686Y-270775000D01*
X279900000Y-268200000D02*
X279900000Y-264175000D01*
X304900000Y-255825000D02*
X304075000Y-255000000D01*
X279900000Y-264175000D02*
X284075000Y-260000000D01*
X302500000Y-271200000D02*
X302925000Y-270775000D01*
X322500000Y-275000000D02*
X322500000Y-272100000D01*
X312500000Y-275000000D02*
X312500000Y-272100000D01*
X318900000Y-270000000D02*
X317500000Y-271400000D01*
X302500000Y-275000000D02*
X302500000Y-272100000D01*
X279075000Y-272075000D02*
X279100000Y-272100000D01*
X307500000Y-275700000D02*
X307500000Y-275000000D01*
X279075000Y-269025000D02*
X279900000Y-268200000D01*
X304900000Y-264175000D02*
X304900000Y-255825000D01*
X297500000Y-275000000D02*
X297500000Y-272100000D01*
X307500000Y-275000000D02*
X307500000Y-272100000D01*
X289075000Y-275000000D02*
X289075000Y-272125000D01*
X255750000Y-255046892D02*
X251200000Y-250496892D01*
X255750000Y-255050000D02*
X255750000Y-255046892D01*
X327500000Y-275000000D02*
X327500000Y-272100000D01*
X279075000Y-270000000D02*
X279075000Y-272075000D01*
X309075000Y-280000000D02*
X309075000Y-277275000D01*
X302500000Y-272100000D02*
X302500000Y-271200000D01*
X332500000Y-272100000D02*
X332500000Y-275000000D01*
X289075000Y-272125000D02*
X289100000Y-272100000D01*
X324075000Y-260000000D02*
X323237500Y-260837500D01*
X303237500Y-265837500D02*
X304075000Y-265000000D01*
X309075000Y-277275000D02*
X307500000Y-275700000D01*
X308337500Y-260477186D02*
X309000000Y-261139686D01*
X329037000Y-261300000D02*
X329037000Y-260038000D01*
X297500000Y-280000000D02*
X297500000Y-277300000D01*
X334100000Y-277300000D02*
X334075000Y-277275000D01*
X289075000Y-261275000D02*
X289100000Y-261300000D01*
X284075000Y-270000000D02*
X286000000Y-268075000D01*
X282500000Y-280000000D02*
X282500000Y-277300000D01*
X308337500Y-255737500D02*
X308337500Y-260477186D01*
X287500000Y-280000000D02*
X287500000Y-277300000D01*
X286000000Y-268075000D02*
X286000000Y-261300000D01*
X297500000Y-276800000D02*
X297500000Y-277300000D01*
X323300000Y-274460314D02*
X323300000Y-277300000D01*
X272500000Y-280000000D02*
X272500000Y-277300000D01*
X302500000Y-280000000D02*
X302500000Y-277300000D01*
X251937500Y-247333332D02*
X253883332Y-247333332D01*
X292500000Y-280000000D02*
X292500000Y-277300000D01*
X253883332Y-247333332D02*
X256300000Y-249750000D01*
X309000000Y-261300000D02*
X309075000Y-261375000D01*
X277500000Y-280000000D02*
X277500000Y-277300000D01*
X294075000Y-275000000D02*
X295700000Y-275000000D01*
X295700000Y-275000000D02*
X297500000Y-276800000D01*
X309075000Y-255000000D02*
X308337500Y-255737500D01*
X289075000Y-260000000D02*
X289075000Y-261275000D01*
X309000000Y-261139686D02*
X309000000Y-261300000D01*
X334075000Y-277275000D02*
X334075000Y-275000000D01*
X270950000Y-277300000D02*
X270950000Y-261400000D01*
X309075000Y-261375000D02*
X309075000Y-265000000D01*
X324075000Y-270000000D02*
X324075000Y-273685314D01*
X324075000Y-273685314D02*
X323300000Y-274460314D01*
X307500000Y-280000000D02*
X307500000Y-277300000D01*
X301725000Y-284225000D02*
X302500000Y-285000000D01*
X302500000Y-285000000D02*
X303275000Y-284225000D01*
X314075000Y-295000000D02*
X314075000Y-297275000D01*
X313237500Y-293337500D02*
X314075000Y-294175000D01*
X297500000Y-285000000D02*
X298275000Y-284225000D01*
X272500000Y-290000000D02*
X272500000Y-297300000D01*
X337600000Y-295700000D02*
X339075000Y-294225000D01*
X314075000Y-281925000D02*
X312500000Y-283500000D01*
X288337500Y-297437500D02*
X288200000Y-297300000D01*
X337500000Y-285000000D02*
X337500000Y-286000000D01*
X314075000Y-280000000D02*
X314075000Y-281925000D01*
X287625000Y-305775000D02*
X284075000Y-309325000D01*
X288237500Y-297262500D02*
X288200000Y-297300000D01*
X297500000Y-285000000D02*
X298337500Y-285837500D01*
X314075000Y-294175000D02*
X314075000Y-295000000D01*
X289075000Y-290000000D02*
X288237500Y-290837500D01*
X339075000Y-287575000D02*
X339075000Y-290000000D01*
X284075000Y-309325000D02*
X284075000Y-310000000D01*
X317500000Y-288785314D02*
X316600000Y-289685314D01*
X284075000Y-310000000D02*
X284075000Y-315000000D01*
X313237500Y-285737500D02*
X313237500Y-293337500D01*
X298635314Y-295775000D02*
X298675000Y-295775000D01*
X299075000Y-300000000D02*
X299075000Y-297325000D01*
X312500000Y-283500000D02*
X312500000Y-285000000D01*
X278237500Y-290737500D02*
X278237500Y-297262500D01*
X316600000Y-289685314D02*
X316600000Y-295100000D01*
X251200000Y-299450000D02*
X253350000Y-297300000D01*
X277500000Y-290000000D02*
X278237500Y-290737500D01*
X289000000Y-301139686D02*
X288337500Y-300477186D01*
X251200000Y-302262500D02*
X251200000Y-299450000D01*
X306725000Y-284225000D02*
X307500000Y-285000000D01*
X299100000Y-296200000D02*
X299100000Y-297300000D01*
X298337500Y-295477186D02*
X298635314Y-295775000D01*
X298675000Y-295775000D02*
X299100000Y-296200000D01*
X298337500Y-285837500D02*
X298337500Y-295477186D01*
X289000000Y-304925000D02*
X289000000Y-301139686D01*
X299075000Y-297325000D02*
X299100000Y-297300000D01*
X337500000Y-286000000D02*
X339075000Y-287575000D01*
X314075000Y-297275000D02*
X314100000Y-297300000D01*
X298275000Y-284225000D02*
X301725000Y-284225000D01*
X317500000Y-285000000D02*
X317500000Y-288785314D01*
X288300000Y-305775000D02*
X287625000Y-305775000D01*
X289075000Y-305000000D02*
X288300000Y-305775000D01*
X312500000Y-285000000D02*
X313237500Y-285737500D01*
X339075000Y-294225000D02*
X339075000Y-290000000D01*
X315800000Y-295900000D02*
X315800000Y-297300000D01*
X303275000Y-284225000D02*
X306725000Y-284225000D01*
X316600000Y-295100000D02*
X315800000Y-295900000D01*
X288337500Y-300477186D02*
X288337500Y-297437500D01*
X288237500Y-290837500D02*
X288237500Y-297262500D01*
X278237500Y-297262500D02*
X278200000Y-297300000D01*
X284812500Y-290737500D02*
X284812500Y-304262500D01*
X284075000Y-290000000D02*
X284812500Y-290737500D01*
X309075000Y-295000000D02*
X309075000Y-291214686D01*
X282500000Y-285000000D02*
X282500000Y-287500000D01*
X272500000Y-285000000D02*
X272500000Y-287500000D01*
X287500000Y-285000000D02*
X287500000Y-287500000D01*
X309775000Y-289225000D02*
X310900000Y-288100000D01*
X308337500Y-290477186D02*
X308337500Y-289522814D01*
X299075000Y-285000000D02*
X299075000Y-287475000D01*
X325865685Y-310000000D02*
X329075000Y-306790685D01*
X308635314Y-289225000D02*
X309775000Y-289225000D01*
X284075000Y-287525000D02*
X284100000Y-287500000D01*
X299075000Y-287475000D02*
X299100000Y-287500000D01*
X322500000Y-280000000D02*
X322500000Y-287500000D01*
X312500000Y-280000000D02*
X310900000Y-281600000D01*
X334075000Y-291225000D02*
X334075000Y-290000000D01*
X331762500Y-302312500D02*
X331762500Y-292947550D01*
X319075000Y-310000000D02*
X325865685Y-310000000D01*
X261625000Y-294225000D02*
X252850000Y-303000000D01*
X331762500Y-292947550D02*
X332210050Y-292500000D01*
X294075000Y-300000000D02*
X294512499Y-300000000D01*
X310900000Y-281600000D02*
X310900000Y-287500000D01*
X294512499Y-300000000D02*
X295700000Y-298812499D01*
X252850000Y-303000000D02*
X251937500Y-303000000D01*
X334100000Y-287500000D02*
X334075000Y-287525000D01*
X309075000Y-291214686D02*
X308337500Y-290477186D01*
X317500000Y-280000000D02*
X316100000Y-281400000D01*
X334075000Y-287525000D02*
X334075000Y-290000000D01*
X261625000Y-294150500D02*
X261625000Y-294225000D01*
X329075000Y-305000000D02*
X331762500Y-302312500D01*
X329075000Y-306790685D02*
X329075000Y-305000000D01*
X284075000Y-290000000D02*
X284075000Y-287525000D01*
X292500000Y-285000000D02*
X292500000Y-287500000D01*
X332210050Y-292500000D02*
X332800000Y-292500000D01*
X308337500Y-289522814D02*
X308635314Y-289225000D01*
X316100000Y-281400000D02*
X316100000Y-287500000D01*
X284812500Y-304262500D02*
X284075000Y-305000000D01*
X295700000Y-298812499D02*
X295700000Y-287500000D01*
X332800000Y-292500000D02*
X334075000Y-291225000D01*
X310900000Y-288100000D02*
X310900000Y-287500000D01*
X277500000Y-285000000D02*
X277500000Y-287500000D01*
X307500000Y-290000000D02*
X307500000Y-291200000D01*
X279075000Y-295000000D02*
X279075000Y-292225000D01*
X303237500Y-294237500D02*
X302500000Y-293500000D01*
X282500000Y-290000000D02*
X282500000Y-292200000D01*
X304075000Y-288425000D02*
X302500000Y-290000000D01*
X318337500Y-280737500D02*
X319075000Y-280000000D01*
X318337500Y-289162500D02*
X318337500Y-280737500D01*
X250800000Y-298850000D02*
X252350000Y-297300000D01*
X297060314Y-294225000D02*
X297075000Y-294225000D01*
X317500000Y-290000000D02*
X318337500Y-289162500D01*
X287500000Y-290000000D02*
X287500000Y-292200000D01*
X289075000Y-310000000D02*
X294075000Y-305000000D01*
X312500000Y-290000000D02*
X312500000Y-292200000D01*
X317500000Y-292200000D02*
X317500000Y-290000000D01*
X297075000Y-294225000D02*
X297500000Y-293800000D01*
X304075000Y-300000000D02*
X303237500Y-299162500D01*
X279075000Y-292225000D02*
X279100000Y-292200000D01*
X302500000Y-293500000D02*
X302500000Y-292200000D01*
X319200000Y-293000000D02*
X318400000Y-292200000D01*
X304075000Y-285000000D02*
X304075000Y-288425000D01*
X302500000Y-290000000D02*
X302500000Y-292200000D01*
X303237500Y-299162500D02*
X303237500Y-294237500D01*
X319200000Y-294875000D02*
X319200000Y-293000000D01*
X292500000Y-290000000D02*
X292500000Y-292200000D01*
X250800000Y-302262500D02*
X250800000Y-298850000D01*
X297500000Y-293800000D02*
X297500000Y-292200000D01*
X297500000Y-290000000D02*
X297500000Y-292200000D01*
X318400000Y-292200000D02*
X317500000Y-292200000D01*
X296300000Y-302775000D02*
X296300000Y-294985314D01*
X294075000Y-305000000D02*
X296300000Y-302775000D01*
X296300000Y-294985314D02*
X297060314Y-294225000D01*
X289075000Y-315000000D02*
X289075000Y-310000000D01*
X335700000Y-296500000D02*
X337500000Y-294700000D01*
X294075000Y-290000000D02*
X294075000Y-292225000D01*
X306600000Y-291310050D02*
X308237500Y-292947550D01*
X302500000Y-295000000D02*
X302500000Y-296500000D01*
X294075000Y-315000000D02*
X294075000Y-310000000D01*
X297500000Y-295000000D02*
X297500000Y-296500000D01*
X306600000Y-287475000D02*
X306600000Y-291310050D01*
X299075000Y-302475000D02*
X298237500Y-301637500D01*
X292500000Y-295000000D02*
X292500000Y-296500000D01*
X329075000Y-294325000D02*
X332500000Y-290900000D01*
X309075000Y-300000000D02*
X309075000Y-296525000D01*
X298237500Y-297937500D02*
X297500000Y-297200000D01*
X308237500Y-292947550D02*
X308237500Y-295637500D01*
X287500000Y-295000000D02*
X287500000Y-296500000D01*
X329100000Y-296500000D02*
X329100000Y-295025000D01*
X337500000Y-294700000D02*
X337500000Y-290000000D01*
X308237500Y-295637500D02*
X309100000Y-296500000D01*
X292500000Y-293800000D02*
X292500000Y-295000000D01*
X309075000Y-285000000D02*
X306600000Y-287475000D01*
X299075000Y-305000000D02*
X299075000Y-302475000D01*
X324075000Y-280675000D02*
X324075000Y-280000000D01*
X250400000Y-298200000D02*
X250400000Y-302262500D01*
X298237500Y-301637500D02*
X298237500Y-297937500D01*
X252100000Y-296500000D02*
X250400000Y-298200000D01*
X332500000Y-289100000D02*
X324075000Y-280675000D01*
X254250000Y-296500000D02*
X252100000Y-296500000D01*
X309075000Y-296525000D02*
X309100000Y-296500000D01*
X277500000Y-295000000D02*
X277500000Y-296500000D01*
X332500000Y-290900000D02*
X332500000Y-290000000D01*
X332500000Y-290000000D02*
X332500000Y-289100000D01*
X282500000Y-295000000D02*
X282500000Y-296500000D01*
X329075000Y-295000000D02*
X329075000Y-294325000D01*
X297500000Y-297200000D02*
X297500000Y-296500000D01*
X294075000Y-292225000D02*
X292500000Y-293800000D01*
X294075000Y-310000000D02*
X299075000Y-305000000D01*
X304812500Y-302087500D02*
X304812500Y-299687500D01*
X286700000Y-299200000D02*
X286700000Y-293200000D01*
X312500000Y-296700000D02*
X314075000Y-298275000D01*
X314812500Y-285737500D02*
X314812500Y-290212500D01*
X312500000Y-295000000D02*
X312500000Y-293200000D01*
X304075000Y-305725000D02*
X299800000Y-310000000D01*
X276500000Y-287425000D02*
X276500000Y-293200000D01*
X299800000Y-310000000D02*
X299075000Y-310000000D01*
X332500000Y-293200000D02*
X332500000Y-295000000D01*
X299075000Y-293175000D02*
X299100000Y-293200000D01*
X317500000Y-295000000D02*
X317500000Y-293200000D01*
X284075000Y-293225000D02*
X284100000Y-293200000D01*
X251860756Y-295750000D02*
X250000000Y-297610756D01*
X304075000Y-305000000D02*
X304075000Y-302825000D01*
X307500000Y-297000000D02*
X307500000Y-295000000D01*
X314075000Y-285000000D02*
X314812500Y-285737500D01*
X284075000Y-295000000D02*
X284075000Y-296425000D01*
X312500000Y-295000000D02*
X312500000Y-296700000D01*
X304812500Y-299687500D02*
X307500000Y-297000000D01*
X277500000Y-300000000D02*
X276500000Y-299000000D01*
X276500000Y-299000000D02*
X276500000Y-293200000D01*
X284075000Y-295000000D02*
X284075000Y-293225000D01*
X274075000Y-285000000D02*
X276500000Y-287425000D01*
X304075000Y-305000000D02*
X304075000Y-305725000D01*
X250000000Y-297610756D02*
X250000000Y-302262500D01*
X307500000Y-295000000D02*
X307500000Y-293200000D01*
X284075000Y-296425000D02*
X282500000Y-298000000D01*
X327500000Y-295000000D02*
X327500000Y-293200000D01*
X314075000Y-298275000D02*
X314075000Y-300000000D01*
X299075000Y-310000000D02*
X299075000Y-315000000D01*
X299075000Y-290000000D02*
X299075000Y-293175000D01*
X304075000Y-302825000D02*
X304812500Y-302087500D01*
X287500000Y-300000000D02*
X286700000Y-299200000D01*
X256800000Y-295750000D02*
X251860756Y-295750000D01*
X314812500Y-290212500D02*
X315700000Y-291100000D01*
X315700000Y-291100000D02*
X315700000Y-293200000D01*
X282500000Y-298000000D02*
X282500000Y-300000000D01*
X332500000Y-298000000D02*
X332500000Y-300000000D01*
X327500000Y-300000000D02*
X327500000Y-298000000D01*
X309075000Y-303175000D02*
X309075000Y-305000000D01*
X280800000Y-286725000D02*
X280800000Y-298000000D01*
X305000000Y-290925000D02*
X305000000Y-298000000D01*
X297300000Y-299800000D02*
X297300000Y-298000000D01*
X279075000Y-285000000D02*
X280800000Y-286725000D01*
X309075000Y-305000000D02*
X309075000Y-306225000D01*
X317500000Y-300000000D02*
X317500000Y-299100000D01*
X307500000Y-301600000D02*
X309075000Y-303175000D01*
X248800000Y-298600000D02*
X249600000Y-299400000D01*
X302500000Y-300000000D02*
X302500000Y-298000000D01*
X305775000Y-308300000D02*
X304075000Y-310000000D01*
X312500000Y-300000000D02*
X312500000Y-298000000D01*
X292500000Y-300000000D02*
X292500000Y-298000000D01*
X307500000Y-300000000D02*
X307500000Y-298000000D01*
X318600000Y-298000000D02*
X318600000Y-297600000D01*
X307000000Y-308300000D02*
X305775000Y-308300000D01*
X304075000Y-290000000D02*
X305000000Y-290925000D01*
X318600000Y-297600000D02*
X320500000Y-295700000D01*
X291800000Y-295600000D02*
X291800000Y-297300000D01*
X317500000Y-299100000D02*
X318600000Y-298000000D01*
X309075000Y-306225000D02*
X307000000Y-308300000D01*
X332500000Y-296900000D02*
X332500000Y-298000000D01*
X291200000Y-295000000D02*
X291800000Y-295600000D01*
X289075000Y-295000000D02*
X291200000Y-295000000D01*
X320500000Y-286425000D02*
X319075000Y-285000000D01*
X334075000Y-295325000D02*
X332500000Y-296900000D01*
X320500000Y-295700000D02*
X320500000Y-286425000D01*
X307500000Y-300000000D02*
X307500000Y-301600000D01*
X304075000Y-315000000D02*
X304075000Y-310000000D01*
X249600000Y-299400000D02*
X249600000Y-302262500D01*
X291800000Y-297300000D02*
X292500000Y-298000000D01*
X310700000Y-299500000D02*
X312500000Y-301300000D01*
X312500000Y-301300000D02*
X312500000Y-302200000D01*
X312500000Y-305000000D02*
X312500000Y-306575000D01*
X319100000Y-303000000D02*
X319100000Y-302200000D01*
X292825000Y-300775000D02*
X292500000Y-301100000D01*
X285600000Y-286525000D02*
X284075000Y-285000000D01*
X310700000Y-291625000D02*
X310700000Y-299500000D01*
X307500000Y-305000000D02*
X307100000Y-304600000D01*
X339075000Y-285000000D02*
X339812500Y-285737500D01*
X293337500Y-295737500D02*
X293337500Y-300377186D01*
X307100000Y-304600000D02*
X307100000Y-302200000D01*
X319100000Y-302200000D02*
X319075000Y-302175000D01*
X302500000Y-305000000D02*
X302500000Y-302200000D01*
X309075000Y-290000000D02*
X310700000Y-291625000D01*
X319075000Y-302175000D02*
X319075000Y-300000000D01*
X309075000Y-310000000D02*
X309075000Y-315000000D01*
X279075000Y-302175000D02*
X279100000Y-302200000D01*
X292500000Y-301100000D02*
X292500000Y-302200000D01*
X317500000Y-305000000D02*
X317500000Y-304600000D01*
X312500000Y-305000000D02*
X312500000Y-302200000D01*
X285600000Y-302200000D02*
X285600000Y-286525000D01*
X285600000Y-302800000D02*
X287500000Y-304700000D01*
X293337500Y-300377186D02*
X292939686Y-300775000D01*
X294075000Y-295000000D02*
X293337500Y-295737500D01*
X292939686Y-300775000D02*
X292825000Y-300775000D01*
X279075000Y-300000000D02*
X279075000Y-302175000D01*
X248550000Y-299950000D02*
X249200000Y-300600000D01*
X317500000Y-304600000D02*
X319100000Y-303000000D01*
X292500000Y-305000000D02*
X292500000Y-302200000D01*
X297500000Y-305000000D02*
X297500000Y-302200000D01*
X339812500Y-285737500D02*
X339812500Y-295487500D01*
X339812500Y-295487500D02*
X333100000Y-302200000D01*
X282500000Y-305000000D02*
X282500000Y-302200000D01*
X312500000Y-306575000D02*
X309075000Y-310000000D01*
X249200000Y-300600000D02*
X249200000Y-302262500D01*
X285600000Y-302200000D02*
X285600000Y-302800000D01*
X329100000Y-301300000D02*
X329100000Y-300025000D01*
X313300000Y-310800000D02*
X313300000Y-314225000D01*
X248295633Y-301245633D02*
X248295633Y-300916593D01*
X292500000Y-309600000D02*
X294000000Y-308100000D01*
X314075000Y-305000000D02*
X314812500Y-304262500D01*
X314812500Y-304262500D02*
X314812500Y-290737500D01*
X289100000Y-307200000D02*
X289100000Y-308200000D01*
X248800000Y-302262500D02*
X248800000Y-301750000D01*
X327500000Y-307200000D02*
X327500000Y-305000000D01*
X274075000Y-291875000D02*
X274075000Y-290000000D01*
X313300000Y-314225000D02*
X314075000Y-315000000D01*
X275300000Y-305400000D02*
X275300000Y-293100000D01*
X248800000Y-301750000D02*
X248295633Y-301245633D01*
X302500000Y-309800000D02*
X304100000Y-308200000D01*
X299000000Y-307200000D02*
X299812500Y-306387500D01*
X309900000Y-307900000D02*
X309900000Y-307200000D01*
X312500000Y-309600000D02*
X314100000Y-308000000D01*
X289100000Y-308200000D02*
X287500000Y-309800000D01*
X284075000Y-300000000D02*
X283237500Y-300837500D01*
X282500000Y-306400000D02*
X282500000Y-307200000D01*
X314812500Y-290737500D02*
X314075000Y-290000000D01*
X275300000Y-305400000D02*
X277100000Y-307200000D01*
X299812500Y-295737500D02*
X299075000Y-295000000D01*
X299812500Y-306387500D02*
X299812500Y-295737500D01*
X289075000Y-285000000D02*
X290500000Y-286425000D01*
X283237500Y-300837500D02*
X283237500Y-305662500D01*
X327500000Y-305000000D02*
X327500000Y-303200000D01*
X290500000Y-286425000D02*
X290500000Y-294000000D01*
X304100000Y-308200000D02*
X304100000Y-307200000D01*
X297500000Y-309600000D02*
X299000000Y-308100000D01*
X290500000Y-304789686D02*
X290500000Y-295700000D01*
X299000000Y-308100000D02*
X299000000Y-307200000D01*
X297500000Y-310000000D02*
X297500000Y-309600000D01*
X283237500Y-305662500D02*
X282500000Y-306400000D01*
X294000000Y-308100000D02*
X294000000Y-307200000D01*
X289100000Y-306189686D02*
X290500000Y-304789686D01*
X312500000Y-310000000D02*
X313300000Y-310800000D01*
X292500000Y-310000000D02*
X292500000Y-309600000D01*
X312500000Y-310000000D02*
X312500000Y-309600000D01*
X307800000Y-310000000D02*
X309900000Y-307900000D01*
X275300000Y-293100000D02*
X274075000Y-291875000D01*
X282500000Y-310000000D02*
X282500000Y-307200000D01*
X289100000Y-307200000D02*
X289100000Y-306189686D01*
X314075000Y-305000000D02*
X314075000Y-307175000D01*
X314075000Y-307175000D02*
X314100000Y-307200000D01*
X314100000Y-308000000D02*
X314100000Y-307200000D01*
X282075000Y-310775000D02*
X282500000Y-311200000D01*
X282060314Y-310775000D02*
X282075000Y-310775000D01*
X304075000Y-295000000D02*
X304075000Y-298674500D01*
X316500000Y-297900000D02*
X316500000Y-298699500D01*
X262100000Y-293450000D02*
X252960050Y-293450000D01*
X302500000Y-315000000D02*
X302500000Y-311594622D01*
X294812500Y-285737500D02*
X294812500Y-298687000D01*
X317500000Y-310000000D02*
X317500000Y-308400000D01*
X297500000Y-315000000D02*
X297500000Y-311594622D01*
X252960050Y-293450000D02*
X247050000Y-299360050D01*
X319812500Y-295477186D02*
X319514686Y-295775000D01*
X267349000Y-298699000D02*
X262100000Y-293450000D01*
X319514686Y-295775000D02*
X318625000Y-295775000D01*
X281762500Y-310462500D02*
X281762500Y-310477186D01*
X282500000Y-311200000D02*
X282500000Y-311594622D01*
X312500000Y-315000000D02*
X312500000Y-311594622D01*
X247350000Y-303000000D02*
X248062500Y-303000000D01*
X280000000Y-290925000D02*
X279075000Y-290000000D01*
X289075000Y-298724500D02*
X289100000Y-298699500D01*
X267950000Y-298699000D02*
X267349000Y-298699000D01*
X317500000Y-311600000D02*
X317500000Y-310000000D01*
X289075000Y-300000000D02*
X289075000Y-298724500D01*
X280000000Y-308700000D02*
X281762500Y-310462500D01*
X314075000Y-311569622D02*
X314100000Y-311594622D01*
X314075000Y-310000000D02*
X314075000Y-311569622D01*
X280000000Y-298699500D02*
X280000000Y-308700000D01*
X287500000Y-315000000D02*
X287500000Y-311594622D01*
X307500000Y-315000000D02*
X307500000Y-311594622D01*
X292500000Y-315000000D02*
X292500000Y-311594622D01*
X334100000Y-298700000D02*
X334100000Y-299975000D01*
X319075000Y-290000000D02*
X319812500Y-290737500D01*
X318625000Y-295775000D02*
X316500000Y-297900000D01*
X294075000Y-285000000D02*
X294812500Y-285737500D01*
X317500000Y-308400000D02*
X319075000Y-306825000D01*
X247050000Y-302700000D02*
X247350000Y-303000000D01*
X319075000Y-306825000D02*
X319075000Y-305000000D01*
X280000000Y-298699500D02*
X280000000Y-290925000D01*
X247050000Y-299360050D02*
X247050000Y-302700000D01*
X304075000Y-298674500D02*
X304100000Y-298699500D01*
X282500000Y-315000000D02*
X282500000Y-311594622D01*
X294812500Y-298687000D02*
X294800000Y-298699500D01*
X281762500Y-310477186D02*
X282060314Y-310775000D01*
X319812500Y-290737500D02*
X319812500Y-295477186D01*
X292500000Y-320000000D02*
X292500000Y-322800000D01*
X299075000Y-324975000D02*
X297500000Y-323400000D01*
X297500000Y-323400000D02*
X297500000Y-322800000D01*
X307500000Y-322800000D02*
X307500000Y-320000000D01*
X247000000Y-305700000D02*
X247000000Y-310050000D01*
X302500000Y-320000000D02*
X302500000Y-322800000D01*
X247000000Y-310050000D02*
X253250000Y-316300000D01*
X287500000Y-320000000D02*
X287500000Y-322800000D01*
X287500000Y-325000000D02*
X287500000Y-322800000D01*
D23*
X282500000Y-320000000D02*
X282500000Y-322800000D01*
D22*
X248062500Y-305400000D02*
X247300000Y-305400000D01*
X292500000Y-325000000D02*
X292500000Y-322800000D01*
X297500000Y-320000000D02*
X297500000Y-322800000D01*
X247300000Y-305400000D02*
X247000000Y-305700000D01*
X225000000Y-310000000D02*
X225000000Y-301500000D01*
X222825000Y-310000000D02*
X225000000Y-310000000D01*
X225000000Y-320000000D02*
X225000000Y-310000000D01*
X254100000Y-303800000D02*
X251937500Y-303800000D01*
X254516668Y-245733332D02*
X251937500Y-245733332D01*
X256150000Y-301750000D02*
X254100000Y-303800000D01*
X251937500Y-303800000D02*
X251937500Y-304200000D01*
X256950000Y-185700000D02*
X256950000Y-185739950D01*
X225000000Y-185550000D02*
X225000000Y-149750000D01*
X255139950Y-129600000D02*
X251937500Y-129600000D01*
X256900000Y-127800000D02*
X256900000Y-127839950D01*
X256900000Y-127839950D02*
X255139950Y-129600000D01*
X225000000Y-301500000D02*
X225000000Y-243650000D01*
X256500000Y-243650000D02*
X256500000Y-243750000D01*
X255023284Y-187666666D02*
X251937500Y-187666666D01*
X225000000Y-243650000D02*
X225000000Y-185550000D01*
X225000000Y-149750000D02*
X235800000Y-138950000D01*
X256500000Y-243750000D02*
X254516668Y-245733332D01*
X256950000Y-185739950D02*
X255023284Y-187666666D01*
X253755912Y-245333332D02*
X251937500Y-245333332D01*
X256550000Y-244850000D02*
X255266668Y-246133332D01*
X255266668Y-246133332D02*
X251937500Y-246133332D01*
X251937500Y-129200000D02*
X254550000Y-129200000D01*
X230080000Y-303100000D02*
X230080000Y-245150000D01*
X255250000Y-186450000D02*
X254433334Y-187266666D01*
X230080000Y-245150000D02*
X230080000Y-187000000D01*
X230080000Y-187000000D02*
X230080000Y-146120000D01*
X230080000Y-320000000D02*
X230080000Y-303100000D01*
X253500000Y-303400000D02*
X254450000Y-302450000D01*
X251937500Y-303400000D02*
X253500000Y-303400000D01*
X254550000Y-129200000D02*
X255250000Y-128500000D01*
X230080000Y-146120000D02*
X239050000Y-137150000D01*
X254244622Y-244844622D02*
X253755912Y-245333332D01*
X254433334Y-187266666D02*
X251937500Y-187266666D01*
X222825000Y-305000000D02*
X224000000Y-305000000D01*
X237399500Y-188066666D02*
X248062500Y-188066666D01*
X248062500Y-130000000D02*
X247500000Y-130000000D01*
X235160000Y-246450000D02*
X235160000Y-300000000D01*
X237399500Y-304200000D02*
X237100000Y-304499500D01*
X237399500Y-246133332D02*
X237100000Y-246432832D01*
X237100000Y-188366166D02*
X237399500Y-188066666D01*
X235160000Y-142340000D02*
X235160000Y-188550000D01*
X235160000Y-304500000D02*
X235160000Y-320000000D01*
X248062500Y-246133332D02*
X237399500Y-246133332D01*
X240800000Y-136700000D02*
X235160000Y-142340000D01*
X235160000Y-188550000D02*
X235160000Y-246450000D01*
X248062500Y-304200000D02*
X237399500Y-304200000D01*
X247500000Y-130000000D02*
X242900000Y-134600000D01*
X222825000Y-300000000D02*
X223950000Y-300000000D01*
X235160000Y-300000000D02*
X235160000Y-304500000D01*
X236050000Y-142450000D02*
X236050000Y-187700000D01*
X236050000Y-245750000D02*
X236050000Y-295000000D01*
X246900000Y-129600000D02*
X241700000Y-134800000D01*
X222825000Y-295000000D02*
X224150000Y-295000000D01*
X236083334Y-187666666D02*
X236050000Y-187700000D01*
X248062500Y-303800000D02*
X236050000Y-303800000D01*
X248062500Y-129600000D02*
X246900000Y-129600000D01*
X241700000Y-136800000D02*
X236050000Y-142450000D01*
X236066668Y-245733332D02*
X236050000Y-245750000D01*
X241700000Y-134800000D02*
X241700000Y-136800000D01*
X236050000Y-295000000D02*
X236050000Y-303800000D01*
X236050000Y-315810000D02*
X240240000Y-320000000D01*
X248062500Y-187666666D02*
X236083334Y-187666666D01*
X236050000Y-303800000D02*
X236050000Y-315810000D01*
X236050000Y-187700000D02*
X236050000Y-245750000D01*
X248062500Y-245733332D02*
X236066668Y-245733332D01*
X245000000Y-190460050D02*
X245000000Y-193025000D01*
X246593384Y-188866666D02*
X245000000Y-190460050D01*
X248062500Y-188866666D02*
X246593384Y-188866666D01*
X247237552Y-305000000D02*
X248062500Y-305000000D01*
X246000000Y-309175000D02*
X246000000Y-306237552D01*
X246000000Y-306237552D02*
X247237552Y-305000000D01*
X245000000Y-133037552D02*
X247237552Y-130800000D01*
X245000000Y-134975000D02*
X245000000Y-133037552D01*
X247237552Y-130800000D02*
X248062500Y-130800000D01*
X246954220Y-246933332D02*
X248062500Y-246933332D01*
X246000000Y-251125000D02*
X246000000Y-247887552D01*
X246000000Y-247887552D02*
X246954220Y-246933332D01*
X296732162Y-322100500D02*
X296732162Y-324232162D01*
X248800000Y-310750000D02*
X253300000Y-315250000D01*
X248800000Y-306137500D02*
X248800000Y-310750000D01*
D23*
X284075000Y-322075000D02*
X284100000Y-322100000D01*
X284075000Y-320000000D02*
X284075000Y-322075000D01*
D22*
X296732162Y-324232162D02*
X297500000Y-325000000D01*
X249200000Y-306137500D02*
X249200000Y-310100000D01*
X249200000Y-310100000D02*
X253300000Y-314200000D01*
X289100000Y-321400000D02*
X289100000Y-320025000D01*
X294075000Y-321275000D02*
X294100000Y-321300000D01*
X294075000Y-320000000D02*
X294075000Y-321275000D01*
X249600000Y-309450000D02*
X253300000Y-313150000D01*
X249600000Y-306137500D02*
X249600000Y-309450000D01*
X250000000Y-306137500D02*
X250000000Y-308850000D01*
X250000000Y-308850000D02*
X253300000Y-312150000D01*
X299100000Y-318600000D02*
X299100000Y-319975000D01*
X304075000Y-317925000D02*
X304075000Y-320000000D01*
X304100000Y-317900000D02*
X304075000Y-317925000D01*
X250400000Y-308200000D02*
X253300000Y-311100000D01*
X250400000Y-306137500D02*
X250400000Y-308200000D01*
X250800000Y-307550000D02*
X253300000Y-310050000D01*
X309100000Y-317200000D02*
X309075000Y-317225000D01*
X250800000Y-306137500D02*
X250800000Y-307550000D01*
X309075000Y-317225000D02*
X309075000Y-320000000D01*
X290100000Y-316500500D02*
X290100000Y-323975000D01*
X251200000Y-306137500D02*
X251200000Y-306950000D01*
X290100000Y-323975000D02*
X289075000Y-325000000D01*
X251200000Y-306950000D02*
X253300000Y-309050000D01*
X253000000Y-305400000D02*
X255100000Y-307500000D01*
X295300000Y-323775000D02*
X294075000Y-325000000D01*
X251937500Y-305400000D02*
X253000000Y-305400000D01*
X295300000Y-315800000D02*
X295300000Y-323775000D01*
M02*
